<svg width="30" height="30" viewBox="0 0 30 30" fill="none" xmlns="http://www.w3.org/2000/svg">
<path fill-rule="evenodd" clip-rule="evenodd" d="M12.4581 1.5625H17.5419C19.2566 1.56249 20.6009 1.56249 21.6813 1.65076C22.7815 1.74065 23.6904 1.92672 24.5131 2.34589C25.8655 3.03498 26.965 4.13453 27.6541 5.48694C28.0733 6.30961 28.2593 7.21849 28.3492 8.31867C28.4375 9.3991 28.4375 10.7434 28.4375 12.458V17.542C28.4375 19.2566 28.4375 20.6009 28.3492 21.6813C28.2593 22.7815 28.0733 23.6904 27.6541 24.5131C26.965 25.8655 25.8655 26.965 24.5131 27.6541C23.6904 28.0733 22.7815 28.2593 21.6813 28.3492C20.6009 28.4375 19.2566 28.4375 17.542 28.4375H12.458C10.7434 28.4375 9.3991 28.4375 8.31867 28.3492C7.21849 28.2593 6.30961 28.0733 5.48694 27.6541C4.13453 26.965 3.03498 25.8655 2.34589 24.5131C1.92672 23.6904 1.74065 22.7815 1.65077 21.6813C1.56249 20.6009 1.56249 19.2566 1.5625 17.5419V12.458C1.56249 10.7434 1.56249 9.39911 1.65077 8.31867C1.74065 7.21849 1.92672 6.30961 2.34589 5.48694C3.03498 4.13453 4.13453 3.03498 5.48694 2.34589C6.30961 1.92672 7.21849 1.74065 8.31867 1.65076C9.39911 1.56249 10.7434 1.56249 12.4581 1.5625ZM9.46723 6.5625C9.47813 6.5625 9.48905 6.5625 9.5 6.5625L20.5328 6.5625C20.8546 6.56248 21.1502 6.56246 21.3973 6.58265C21.6638 6.60441 21.9552 6.65424 22.2431 6.80093C22.6547 7.01065 22.9894 7.3453 23.1991 7.7569C23.3458 8.04478 23.3956 8.33625 23.4174 8.60266C23.4375 8.84977 23.4375 9.14536 23.4375 9.46721V11.7828C23.4375 12.1046 23.4375 12.4002 23.4174 12.6473C23.3956 12.9138 23.3458 13.2052 23.1991 13.4931C22.9894 13.9047 22.6547 14.2394 22.2431 14.4491C21.9552 14.5958 21.6638 14.6456 21.3973 14.6674C21.1502 14.6875 20.8546 14.6875 20.5328 14.6875H9.46724C9.14538 14.6875 8.84977 14.6875 8.60266 14.6674C8.33625 14.6456 8.04478 14.5958 7.7569 14.4491C7.34529 14.2394 7.01065 13.9047 6.80093 13.4931C6.65424 13.2052 6.60441 12.9138 6.58265 12.6473C6.56246 12.4002 6.56248 12.1046 6.5625 11.7828L6.5625 9.5C6.5625 9.48905 6.5625 9.47813 6.5625 9.46723C6.56248 9.14537 6.56246 8.84977 6.58265 8.60266C6.60441 8.33625 6.65424 8.04478 6.80093 7.7569C7.01065 7.34529 7.34529 7.01065 7.7569 6.80093C8.04478 6.65424 8.33625 6.60441 8.60266 6.58265C8.84977 6.56246 9.14537 6.56248 9.46723 6.5625ZM8.6011 8.47466L8.60299 8.47396L8.6011 8.47466ZM8.60433 8.47353C8.61543 8.47009 8.65684 8.45947 8.75535 8.45142C8.91676 8.43823 9.1345 8.4375 9.5 8.4375H20.5C20.8655 8.4375 21.0833 8.43823 21.2447 8.45142C21.3432 8.45947 21.3846 8.47009 21.3957 8.47353C21.4515 8.50293 21.4971 8.54853 21.5265 8.60433C21.5299 8.61543 21.5405 8.65684 21.5486 8.75535C21.5618 8.91676 21.5625 9.1345 21.5625 9.5V11.75C21.5625 12.1155 21.5618 12.3332 21.5486 12.4947C21.5405 12.5932 21.5299 12.6346 21.5265 12.6457C21.4971 12.7015 21.4515 12.7471 21.3957 12.7765C21.3846 12.7799 21.3432 12.7905 21.2447 12.7986C21.0833 12.8118 20.8655 12.8125 20.5 12.8125H9.5C9.1345 12.8125 8.91676 12.8118 8.75535 12.7986C8.65684 12.7905 8.61543 12.7799 8.60433 12.7765C8.54853 12.7471 8.50293 12.7015 8.47353 12.6457C8.47009 12.6346 8.45947 12.5932 8.45142 12.4947C8.43823 12.3332 8.4375 12.1155 8.4375 11.75V9.5C8.4375 9.1345 8.43823 8.91676 8.45142 8.75535C8.45947 8.65684 8.47009 8.61543 8.47353 8.60433C8.50293 8.54853 8.54853 8.50293 8.60433 8.47353ZM8.47466 8.6011L8.47396 8.60299L8.47466 8.6011ZM8.47466 12.6489L8.47398 12.6471L8.47466 12.6489ZM8.6011 12.7753L8.60295 12.776L8.6011 12.7753ZM21.3989 12.7753L21.397 12.776L21.3989 12.7753ZM21.5253 12.6489L21.526 12.6471L21.5253 12.6489ZM21.5253 8.6011L21.526 8.60295L21.5253 8.6011ZM21.3971 8.47397L21.3989 8.47466L21.3971 8.47397ZM9.0625 17.5C9.0625 16.9822 9.48224 16.5625 10 16.5625H10.125C10.6428 16.5625 11.0625 16.9822 11.0625 17.5C11.0625 18.0178 10.6428 18.4375 10.125 18.4375H10C9.48224 18.4375 9.0625 18.0178 9.0625 17.5ZM14.0625 17.5C14.0625 16.9822 14.4822 16.5625 15 16.5625H15.125C15.6428 16.5625 16.0625 16.9822 16.0625 17.5C16.0625 18.0178 15.6428 18.4375 15.125 18.4375H15C14.4822 18.4375 14.0625 18.0178 14.0625 17.5ZM19.0625 17.5C19.0625 16.9822 19.4822 16.5625 20 16.5625H20.125C20.6428 16.5625 21.0625 16.9822 21.0625 17.5C21.0625 18.0178 20.6428 18.4375 20.125 18.4375H20C19.4822 18.4375 19.0625 18.0178 19.0625 17.5ZM9.0625 22.5C9.0625 21.9822 9.48224 21.5625 10 21.5625H10.125C10.6428 21.5625 11.0625 21.9822 11.0625 22.5C11.0625 23.0178 10.6428 23.4375 10.125 23.4375H10C9.48224 23.4375 9.0625 23.0178 9.0625 22.5ZM14.0625 22.5C14.0625 21.9822 14.4822 21.5625 15 21.5625H15.125C15.6428 21.5625 16.0625 21.9822 16.0625 22.5C16.0625 23.0178 15.6428 23.4375 15.125 23.4375H15C14.4822 23.4375 14.0625 23.0178 14.0625 22.5ZM19.0625 22.5C19.0625 21.9822 19.4822 21.5625 20 21.5625H20.125C20.6428 21.5625 21.0625 21.9822 21.0625 22.5C21.0625 23.0178 20.6428 23.4375 20.125 23.4375H20C19.4822 23.4375 19.0625 23.0178 19.0625 22.5Z" fill="url(#paint0_linear_4901_29007)"/>
<defs>
<linearGradient id="paint0_linear_4901_29007" x1="15" y1="1.5625" x2="15.8636" y2="28.4097" gradientUnits="userSpaceOnUse">
<stop stop-color="#FFBAC6"/>
<stop offset="1" stop-color="#F3E8B9"/>
</linearGradient>
</defs>
</svg>
