<svg width="30" height="30" viewBox="0 0 30 30" fill="none" xmlns="http://www.w3.org/2000/svg">
<path fill-rule="evenodd" clip-rule="evenodd" d="M6.25001 2.8125C6.76778 2.8125 7.18751 3.23223 7.18751 3.75V5.3125H7.75001C7.75839 5.3125 7.76681 5.3125 7.77528 5.3125C7.92798 5.31246 8.09354 5.31242 8.23685 5.32413C8.39904 5.33738 8.61333 5.37018 8.83437 5.4828C9.12837 5.6326 9.3674 5.87164 9.51721 6.16564C9.62983 6.38668 9.66263 6.60096 9.67588 6.76316C9.68759 6.90647 9.68755 7.07203 9.68751 7.22473C9.68751 7.2332 9.68751 7.24162 9.68751 7.25L9.68751 22.7753C9.68755 22.928 9.68759 23.0935 9.67588 23.2368C9.66263 23.399 9.62983 23.6133 9.51721 23.8344C9.3674 24.1284 9.12837 24.3674 8.83437 24.5172C8.61333 24.6298 8.39905 24.6626 8.23685 24.6759C8.09355 24.6876 7.92799 24.6875 7.77529 24.6875L7.18751 24.6875V26.25C7.18751 26.7678 6.76778 27.1875 6.25001 27.1875C5.73224 27.1875 5.31251 26.7678 5.31251 26.25V24.6875L4.72472 24.6875C4.57203 24.6875 4.40647 24.6876 4.26317 24.6759C4.10097 24.6626 3.88668 24.6298 3.66565 24.5172C3.37165 24.3674 3.13261 24.1284 2.98281 23.8344C2.87019 23.6133 2.83739 23.399 2.82414 23.2368C2.81243 23.0935 2.81247 22.928 2.8125 22.7753L2.81251 7.25C2.81251 7.24162 2.81251 7.23319 2.8125 7.22473C2.81247 7.07203 2.81243 6.90647 2.82414 6.76316C2.83739 6.60096 2.87019 6.38668 2.98281 6.16564C3.13261 5.87164 3.37164 5.6326 3.66565 5.4828C3.88668 5.37018 4.10097 5.33738 4.26317 5.32413C4.40647 5.31242 4.57204 5.31246 4.72474 5.3125C4.7332 5.3125 4.74163 5.3125 4.75001 5.3125H5.31251V3.75C5.31251 3.23223 5.73224 2.8125 6.25001 2.8125ZM23.75 2.8125C24.2678 2.8125 24.6875 3.23223 24.6875 3.75V5.3125L25.2753 5.3125C25.428 5.31246 25.5935 5.31242 25.7368 5.32413C25.899 5.33738 26.1133 5.37018 26.3344 5.4828C26.6284 5.63261 26.8674 5.87164 27.0172 6.16564C27.1298 6.38668 27.1626 6.60096 27.1759 6.76316C27.1876 6.90646 27.1875 7.07202 27.1875 7.22471V22.7753C27.1875 22.928 27.1876 23.0935 27.1759 23.2368C27.1626 23.399 27.1298 23.6133 27.0172 23.8344C26.8674 24.1284 26.6284 24.3674 26.3344 24.5172C26.1133 24.6298 25.899 24.6626 25.7368 24.6759C25.5935 24.6876 25.428 24.6875 25.2753 24.6875L24.6875 24.6875V26.25C24.6875 26.7678 24.2678 27.1875 23.75 27.1875C23.2322 27.1875 22.8125 26.7678 22.8125 26.25V24.6875L22.2247 24.6875C22.072 24.6875 21.9065 24.6876 21.7632 24.6759C21.601 24.6626 21.3867 24.6298 21.1656 24.5172C20.8716 24.3674 20.6326 24.1284 20.4828 23.8344C20.3702 23.6133 20.3374 23.399 20.3241 23.2368C20.3124 23.0935 20.3125 22.928 20.3125 22.7753V7.22472C20.3125 7.07202 20.3124 6.90646 20.3241 6.76316C20.3374 6.60096 20.3702 6.38668 20.4828 6.16564C20.6326 5.87164 20.8716 5.63261 21.1656 5.4828C21.3867 5.37018 21.601 5.33738 21.7632 5.32413C21.9065 5.31242 22.072 5.31246 22.2247 5.3125L22.8125 5.3125V3.75C22.8125 3.23223 23.2322 2.8125 23.75 2.8125ZM15 6.5625C15.5178 6.5625 15.9375 6.98223 15.9375 7.5V9.0625L16.5253 9.0625C16.678 9.06246 16.8435 9.06242 16.9868 9.07413C17.149 9.08738 17.3633 9.12018 17.5844 9.2328C17.8784 9.3826 18.1174 9.62164 18.2672 9.91564C18.3798 10.1367 18.4126 10.351 18.4259 10.5132C18.4376 10.6565 18.4375 10.822 18.4375 10.9747V20.2753C18.4375 20.428 18.4376 20.5935 18.4259 20.7368C18.4126 20.899 18.3798 21.1133 18.2672 21.3344C18.1174 21.6284 17.8784 21.8674 17.5844 22.0172C17.3633 22.1298 17.149 22.1626 16.9868 22.1759C16.8435 22.1876 16.678 22.1875 16.5253 22.1875L15.9375 22.1875V23.75C15.9375 24.2678 15.5178 24.6875 15 24.6875C14.4822 24.6875 14.0625 24.2678 14.0625 23.75V22.1875L13.4747 22.1875C13.322 22.1875 13.1565 22.1876 13.0132 22.1759C12.851 22.1626 12.6367 22.1298 12.4156 22.0172C12.1216 21.8674 11.8826 21.6284 11.7328 21.3344C11.6202 21.1133 11.5874 20.899 11.5741 20.7368C11.5624 20.5935 11.5625 20.428 11.5625 20.2753L11.5625 11C11.5625 10.9916 11.5625 10.9832 11.5625 10.9747C11.5625 10.822 11.5624 10.6565 11.5741 10.5132C11.5874 10.351 11.6202 10.1367 11.7328 9.91564C11.8826 9.62164 12.1216 9.3826 12.4156 9.2328C12.6367 9.12018 12.851 9.08738 13.0132 9.07413C13.1565 9.06242 13.322 9.06246 13.4747 9.0625C13.4832 9.0625 13.4916 9.0625 13.5 9.0625H14.0625V7.5C14.0625 6.98223 14.4822 6.5625 15 6.5625Z" fill="url(#paint0_linear_3392_14227)"/>
<defs>
<linearGradient id="paint0_linear_3392_14227" x1="15" y1="2.8125" x2="15.7833" y2="27.1623" gradientUnits="userSpaceOnUse">
<stop stop-color="#FFBAC6"/>
<stop offset="1" stop-color="#F3E8B9"/>
</linearGradient>
</defs>
</svg>
