<svg width="31" height="31" viewBox="0 0 31 31" fill="none" xmlns="http://www.w3.org/2000/svg">
<path fill-rule="evenodd" clip-rule="evenodd" d="M6.917 2.85205C7.43477 2.85205 7.8545 3.27178 7.8545 3.78955V5.35205H8.417C8.42538 5.35205 8.43381 5.35205 8.44227 5.35205C8.59497 5.35201 8.76053 5.35197 8.90384 5.36368C9.06604 5.37693 9.28032 5.40973 9.50136 5.52235C9.79536 5.67216 10.0344 5.91119 10.1842 6.20519C10.2968 6.42623 10.3296 6.64051 10.3429 6.80271C10.3546 6.94602 10.3545 7.11158 10.3545 7.26428C10.3545 7.27275 10.3545 7.28117 10.3545 7.28955L10.3545 22.8148C10.3545 22.9675 10.3546 23.1331 10.3429 23.2764C10.3296 23.4386 10.2968 23.6529 10.1842 23.8739C10.0344 24.1679 9.79536 24.4069 9.50136 24.5567C9.28032 24.6694 9.06604 24.7022 8.90384 24.7154C8.76054 24.7271 8.59498 24.7271 8.44229 24.7271L7.8545 24.7271V26.2896C7.8545 26.8073 7.43477 27.2271 6.917 27.2271C6.39923 27.2271 5.9795 26.8073 5.9795 26.2896V24.7271L5.39171 24.7271C5.23902 24.7271 5.07346 24.7271 4.93016 24.7154C4.76796 24.7022 4.55368 24.6694 4.33264 24.5567C4.03864 24.4069 3.79961 24.1679 3.6498 23.8739C3.53718 23.6529 3.50438 23.4386 3.49113 23.2764C3.47942 23.1331 3.47946 22.9675 3.4795 22.8148L3.4795 7.28955C3.4795 7.28117 3.4795 7.27274 3.4795 7.26428C3.47946 7.11158 3.47942 6.94602 3.49113 6.80271C3.50438 6.64051 3.53718 6.42623 3.6498 6.20519C3.7996 5.91119 4.03864 5.67216 4.33264 5.52235C4.55368 5.40973 4.76796 5.37693 4.93016 5.36368C5.07347 5.35197 5.23903 5.35201 5.39173 5.35205C5.40019 5.35205 5.40862 5.35205 5.417 5.35205H5.9795V3.78955C5.9795 3.27178 6.39923 2.85205 6.917 2.85205ZM24.417 2.85205C24.9348 2.85205 25.3545 3.27178 25.3545 3.78955V5.35205L25.9423 5.35205C26.095 5.35201 26.2605 5.35197 26.4038 5.36368C26.566 5.37693 26.7803 5.40973 27.0014 5.52235C27.2954 5.67216 27.5344 5.91119 27.6842 6.20519C27.7968 6.42623 27.8296 6.64051 27.8429 6.80271C27.8546 6.94601 27.8545 7.11157 27.8545 7.26426V22.8148C27.8545 22.9675 27.8546 23.1331 27.8429 23.2764C27.8296 23.4386 27.7968 23.6529 27.6842 23.8739C27.5344 24.1679 27.2954 24.4069 27.0014 24.5567C26.7803 24.6694 26.566 24.7022 26.4038 24.7154C26.2605 24.7271 26.095 24.7271 25.9423 24.7271L25.3545 24.7271V26.2896C25.3545 26.8073 24.9348 27.2271 24.417 27.2271C23.8992 27.2271 23.4795 26.8073 23.4795 26.2896V24.7271L22.8917 24.7271C22.739 24.7271 22.5735 24.7271 22.4302 24.7154C22.268 24.7022 22.0537 24.6694 21.8326 24.5567C21.5386 24.4069 21.2996 24.1679 21.1498 23.8739C21.0372 23.6529 21.0044 23.4386 20.9911 23.2764C20.9794 23.1331 20.9795 22.9675 20.9795 22.8148V7.26427C20.9795 7.11157 20.9794 6.94601 20.9911 6.80271C21.0044 6.64051 21.0372 6.42623 21.1498 6.20519C21.2996 5.91119 21.5386 5.67216 21.8326 5.52235C22.0537 5.40973 22.268 5.37693 22.4302 5.36368C22.5735 5.35197 22.739 5.35201 22.8917 5.35205L23.4795 5.35205V3.78955C23.4795 3.27178 23.8992 2.85205 24.417 2.85205ZM15.667 6.60205C16.1848 6.60205 16.6045 7.02178 16.6045 7.53955V9.10205L17.1923 9.10205C17.345 9.10201 17.5105 9.10197 17.6538 9.11368C17.816 9.12693 18.0303 9.15973 18.2514 9.27235C18.5454 9.42216 18.7844 9.66119 18.9342 9.95519C19.0468 10.1762 19.0796 10.3905 19.0929 10.5527C19.1046 10.696 19.1045 10.8616 19.1045 11.0143V20.3148C19.1045 20.4675 19.1046 20.6331 19.0929 20.7764C19.0796 20.9386 19.0468 21.1529 18.9342 21.3739C18.7844 21.6679 18.5454 21.9069 18.2514 22.0567C18.0303 22.1694 17.816 22.2022 17.6538 22.2154C17.5105 22.2271 17.345 22.2271 17.1923 22.2271L16.6045 22.2271V23.7896C16.6045 24.3073 16.1848 24.7271 15.667 24.7271C15.1492 24.7271 14.7295 24.3073 14.7295 23.7896V22.2271L14.1417 22.2271C13.989 22.2271 13.8235 22.2271 13.6802 22.2154C13.518 22.2022 13.3037 22.1694 13.0826 22.0567C12.7886 21.9069 12.5496 21.6679 12.3998 21.3739C12.2872 21.1529 12.2544 20.9386 12.2411 20.7764C12.2294 20.6331 12.2295 20.4675 12.2295 20.3148L12.2295 11.0396C12.2295 11.0312 12.2295 11.0227 12.2295 11.0143C12.2295 10.8616 12.2294 10.696 12.2411 10.5527C12.2544 10.3905 12.2872 10.1762 12.3998 9.95519C12.5496 9.66119 12.7886 9.42216 13.0826 9.27235C13.3037 9.15973 13.518 9.12693 13.6802 9.11368C13.8235 9.10197 13.989 9.10201 14.1417 9.10205C14.1502 9.10205 14.1586 9.10205 14.167 9.10205H14.7295V7.53955C14.7295 7.02178 15.1492 6.60205 15.667 6.60205Z" fill="white"/>
<path fill-rule="evenodd" clip-rule="evenodd" d="M6.917 2.85205C7.43477 2.85205 7.8545 3.27178 7.8545 3.78955V5.35205H8.417C8.42538 5.35205 8.43381 5.35205 8.44227 5.35205C8.59497 5.35201 8.76053 5.35197 8.90384 5.36368C9.06604 5.37693 9.28032 5.40973 9.50136 5.52235C9.79536 5.67216 10.0344 5.91119 10.1842 6.20519C10.2968 6.42623 10.3296 6.64051 10.3429 6.80271C10.3546 6.94602 10.3545 7.11158 10.3545 7.26428C10.3545 7.27275 10.3545 7.28117 10.3545 7.28955L10.3545 22.8148C10.3545 22.9675 10.3546 23.1331 10.3429 23.2764C10.3296 23.4386 10.2968 23.6529 10.1842 23.8739C10.0344 24.1679 9.79536 24.4069 9.50136 24.5567C9.28032 24.6694 9.06604 24.7022 8.90384 24.7154C8.76054 24.7271 8.59498 24.7271 8.44229 24.7271L7.8545 24.7271V26.2896C7.8545 26.8073 7.43477 27.2271 6.917 27.2271C6.39923 27.2271 5.9795 26.8073 5.9795 26.2896V24.7271L5.39171 24.7271C5.23902 24.7271 5.07346 24.7271 4.93016 24.7154C4.76796 24.7022 4.55368 24.6694 4.33264 24.5567C4.03864 24.4069 3.79961 24.1679 3.6498 23.8739C3.53718 23.6529 3.50438 23.4386 3.49113 23.2764C3.47942 23.1331 3.47946 22.9675 3.4795 22.8148L3.4795 7.28955C3.4795 7.28117 3.4795 7.27274 3.4795 7.26428C3.47946 7.11158 3.47942 6.94602 3.49113 6.80271C3.50438 6.64051 3.53718 6.42623 3.6498 6.20519C3.7996 5.91119 4.03864 5.67216 4.33264 5.52235C4.55368 5.40973 4.76796 5.37693 4.93016 5.36368C5.07347 5.35197 5.23903 5.35201 5.39173 5.35205C5.40019 5.35205 5.40862 5.35205 5.417 5.35205H5.9795V3.78955C5.9795 3.27178 6.39923 2.85205 6.917 2.85205ZM24.417 2.85205C24.9348 2.85205 25.3545 3.27178 25.3545 3.78955V5.35205L25.9423 5.35205C26.095 5.35201 26.2605 5.35197 26.4038 5.36368C26.566 5.37693 26.7803 5.40973 27.0014 5.52235C27.2954 5.67216 27.5344 5.91119 27.6842 6.20519C27.7968 6.42623 27.8296 6.64051 27.8429 6.80271C27.8546 6.94601 27.8545 7.11157 27.8545 7.26426V22.8148C27.8545 22.9675 27.8546 23.1331 27.8429 23.2764C27.8296 23.4386 27.7968 23.6529 27.6842 23.8739C27.5344 24.1679 27.2954 24.4069 27.0014 24.5567C26.7803 24.6694 26.566 24.7022 26.4038 24.7154C26.2605 24.7271 26.095 24.7271 25.9423 24.7271L25.3545 24.7271V26.2896C25.3545 26.8073 24.9348 27.2271 24.417 27.2271C23.8992 27.2271 23.4795 26.8073 23.4795 26.2896V24.7271L22.8917 24.7271C22.739 24.7271 22.5735 24.7271 22.4302 24.7154C22.268 24.7022 22.0537 24.6694 21.8326 24.5567C21.5386 24.4069 21.2996 24.1679 21.1498 23.8739C21.0372 23.6529 21.0044 23.4386 20.9911 23.2764C20.9794 23.1331 20.9795 22.9675 20.9795 22.8148V7.26427C20.9795 7.11157 20.9794 6.94601 20.9911 6.80271C21.0044 6.64051 21.0372 6.42623 21.1498 6.20519C21.2996 5.91119 21.5386 5.67216 21.8326 5.52235C22.0537 5.40973 22.268 5.37693 22.4302 5.36368C22.5735 5.35197 22.739 5.35201 22.8917 5.35205L23.4795 5.35205V3.78955C23.4795 3.27178 23.8992 2.85205 24.417 2.85205ZM15.667 6.60205C16.1848 6.60205 16.6045 7.02178 16.6045 7.53955V9.10205L17.1923 9.10205C17.345 9.10201 17.5105 9.10197 17.6538 9.11368C17.816 9.12693 18.0303 9.15973 18.2514 9.27235C18.5454 9.42216 18.7844 9.66119 18.9342 9.95519C19.0468 10.1762 19.0796 10.3905 19.0929 10.5527C19.1046 10.696 19.1045 10.8616 19.1045 11.0143V20.3148C19.1045 20.4675 19.1046 20.6331 19.0929 20.7764C19.0796 20.9386 19.0468 21.1529 18.9342 21.3739C18.7844 21.6679 18.5454 21.9069 18.2514 22.0567C18.0303 22.1694 17.816 22.2022 17.6538 22.2154C17.5105 22.2271 17.345 22.2271 17.1923 22.2271L16.6045 22.2271V23.7896C16.6045 24.3073 16.1848 24.7271 15.667 24.7271C15.1492 24.7271 14.7295 24.3073 14.7295 23.7896V22.2271L14.1417 22.2271C13.989 22.2271 13.8235 22.2271 13.6802 22.2154C13.518 22.2022 13.3037 22.1694 13.0826 22.0567C12.7886 21.9069 12.5496 21.6679 12.3998 21.3739C12.2872 21.1529 12.2544 20.9386 12.2411 20.7764C12.2294 20.6331 12.2295 20.4675 12.2295 20.3148L12.2295 11.0396C12.2295 11.0312 12.2295 11.0227 12.2295 11.0143C12.2295 10.8616 12.2294 10.696 12.2411 10.5527C12.2544 10.3905 12.2872 10.1762 12.3998 9.95519C12.5496 9.66119 12.7886 9.42216 13.0826 9.27235C13.3037 9.15973 13.518 9.12693 13.6802 9.11368C13.8235 9.10197 13.989 9.10201 14.1417 9.10205C14.1502 9.10205 14.1586 9.10205 14.167 9.10205H14.7295V7.53955C14.7295 7.02178 15.1492 6.60205 15.667 6.60205Z" fill="url(#paint0_linear_3340_18805)"/>
<defs>
<linearGradient id="paint0_linear_3340_18805" x1="15.667" y1="2.85205" x2="15.667" y2="27.2271" gradientUnits="userSpaceOnUse">
<stop stop-color="#C2CCEA"/>
<stop offset="1" stop-color="#FDCCAB"/>
</linearGradient>
</defs>
</svg>
