<svg width="30" height="30" viewBox="0 0 30 30" fill="none" xmlns="http://www.w3.org/2000/svg">
<path d="M6.94444 2.8125C3.99872 2.8125 1.5625 5.13718 1.5625 8.06343V14.5336C1.5625 17.4598 3.99872 19.7845 6.94444 19.7845H7.5C7.62252 19.7845 7.67361 19.8738 7.67361 19.9254V21.9598C7.67361 23.2826 9.22452 23.8694 10.1481 23.0726L13.9078 19.8292C13.9385 19.8027 13.983 19.7845 14.0336 19.7845H18.0556C21.0013 19.7845 23.4375 17.4598 23.4375 14.5336V8.06343C23.4375 5.13718 21.0013 2.8125 18.0556 2.8125H6.94444Z" fill="white"/>
<path d="M6.94444 2.8125C3.99872 2.8125 1.5625 5.13718 1.5625 8.06343V14.5336C1.5625 17.4598 3.99872 19.7845 6.94444 19.7845H7.5C7.62252 19.7845 7.67361 19.8738 7.67361 19.9254V21.9598C7.67361 23.2826 9.22452 23.8694 10.1481 23.0726L13.9078 19.8292C13.9385 19.8027 13.983 19.7845 14.0336 19.7845H18.0556C21.0013 19.7845 23.4375 17.4598 23.4375 14.5336V8.06343C23.4375 5.13718 21.0013 2.8125 18.0556 2.8125H6.94444Z" fill="url(#paint0_linear_3392_25693)"/>
<path d="M24.9184 14.6003C24.9184 14.2072 25.1636 13.8559 25.5326 13.7203C25.9015 13.5847 26.3158 13.6937 26.5704 13.9932C25.3777 15.0066 26.5713 13.9943 26.5713 13.9943L26.5728 13.9962L26.5777 14.0019L26.5942 14.0216C26.6081 14.0382 26.6277 14.0619 26.6523 14.0919C26.7013 14.1519 26.7702 14.2374 26.8524 14.3429C27.016 14.5529 27.2358 14.8467 27.4576 15.1786C27.6772 15.5075 27.9106 15.8915 28.0923 16.2799C28.2636 16.6462 28.4375 17.116 28.4375 17.5883V21.4704C28.4375 23.4788 26.7105 24.9959 24.7222 24.9959H24.6181V25.9261C24.6181 26.5067 24.2405 26.9174 23.8374 27.086C23.4368 27.2537 22.915 27.2298 22.5047 26.8899L20.2177 24.9959H17.7778C16.0453 24.9959 14.5284 23.8561 14.1504 22.2355C14.0854 21.9568 14.1512 21.6638 14.329 21.4397C14.5068 21.2156 14.7773 21.085 15.0634 21.085H18.9809C22.2601 21.085 24.9184 18.4267 24.9184 15.1475V14.6003Z" fill="white"/>
<path d="M24.9184 14.6003C24.9184 14.2072 25.1636 13.8559 25.5326 13.7203C25.9015 13.5847 26.3158 13.6937 26.5704 13.9932C25.3777 15.0066 26.5713 13.9943 26.5713 13.9943L26.5728 13.9962L26.5777 14.0019L26.5942 14.0216C26.6081 14.0382 26.6277 14.0619 26.6523 14.0919C26.7013 14.1519 26.7702 14.2374 26.8524 14.3429C27.016 14.5529 27.2358 14.8467 27.4576 15.1786C27.6772 15.5075 27.9106 15.8915 28.0923 16.2799C28.2636 16.6462 28.4375 17.116 28.4375 17.5883V21.4704C28.4375 23.4788 26.7105 24.9959 24.7222 24.9959H24.6181V25.9261C24.6181 26.5067 24.2405 26.9174 23.8374 27.086C23.4368 27.2537 22.915 27.2298 22.5047 26.8899L20.2177 24.9959H17.7778C16.0453 24.9959 14.5284 23.8561 14.1504 22.2355C14.0854 21.9568 14.1512 21.6638 14.329 21.4397C14.5068 21.2156 14.7773 21.085 15.0634 21.085H18.9809C22.2601 21.085 24.9184 18.4267 24.9184 15.1475V14.6003Z" fill="url(#paint1_linear_3392_25693)"/>
<defs>
<linearGradient id="paint0_linear_3392_25693" x1="15" y1="2.8125" x2="15" y2="27.1874" gradientUnits="userSpaceOnUse">
<stop stop-color="#C2CCEA"/>
<stop offset="1" stop-color="#FDCCAB"/>
</linearGradient>
<linearGradient id="paint1_linear_3392_25693" x1="15" y1="2.8125" x2="15" y2="27.1874" gradientUnits="userSpaceOnUse">
<stop stop-color="#C2CCEA"/>
<stop offset="1" stop-color="#FDCCAB"/>
</linearGradient>
</defs>
</svg>
