<svg width="31" height="30" viewBox="0 0 31 30" fill="none" xmlns="http://www.w3.org/2000/svg">
<path fill-rule="evenodd" clip-rule="evenodd" d="M15.6665 1.5625C8.24518 1.5625 2.229 7.57867 2.229 15C2.229 22.4213 8.24518 28.4375 15.6665 28.4375C23.0878 28.4375 29.104 22.4213 29.104 15C29.104 7.57867 23.0878 1.5625 15.6665 1.5625ZM16.604 9.375C16.604 8.85723 16.1843 8.4375 15.6665 8.4375C15.1487 8.4375 14.729 8.85723 14.729 9.375V15.5114C14.729 15.8842 14.9499 16.2215 15.2916 16.3706L18.4166 17.7343C18.8911 17.9413 19.4437 17.7245 19.6508 17.2499C19.8578 16.7754 19.641 16.2228 19.1665 16.0157L16.604 14.8976V9.375Z" fill="white"/>
<path fill-rule="evenodd" clip-rule="evenodd" d="M15.6665 1.5625C8.24518 1.5625 2.229 7.57867 2.229 15C2.229 22.4213 8.24518 28.4375 15.6665 28.4375C23.0878 28.4375 29.104 22.4213 29.104 15C29.104 7.57867 23.0878 1.5625 15.6665 1.5625ZM16.604 9.375C16.604 8.85723 16.1843 8.4375 15.6665 8.4375C15.1487 8.4375 14.729 8.85723 14.729 9.375V15.5114C14.729 15.8842 14.9499 16.2215 15.2916 16.3706L18.4166 17.7343C18.8911 17.9413 19.4437 17.7245 19.6508 17.2499C19.8578 16.7754 19.641 16.2228 19.1665 16.0157L16.604 14.8976V9.375Z" fill="url(#paint0_linear_3419_1268)"/>
<defs>
<linearGradient id="paint0_linear_3419_1268" x1="15.6665" y1="1.5625" x2="15.6665" y2="28.4375" gradientUnits="userSpaceOnUse">
<stop stop-color="#C2CCEA"/>
<stop offset="1" stop-color="#FDCCAB"/>
</linearGradient>
</defs>
</svg>
