<svg width="31" height="30" viewBox="0 0 31 30" fill="none" xmlns="http://www.w3.org/2000/svg">
<path fill-rule="evenodd" clip-rule="evenodd" d="M12.6367 4.3304C14.383 2.61916 16.7773 1.5625 19.4166 1.5625C24.7668 1.5625 29.1041 5.89974 29.1041 11.25C29.1041 13.8893 28.0474 16.2837 26.3361 18.03C25.9737 18.3998 25.3801 18.4058 25.0103 18.0434C24.6405 17.681 24.6345 17.0874 24.9969 16.7176C26.3787 15.3076 27.2291 13.379 27.2291 11.25C27.2291 6.93528 23.7313 3.4375 19.4166 3.4375C17.2876 3.4375 15.359 4.28787 13.949 5.6696C13.5792 6.03199 12.9856 6.02597 12.6232 5.65616C12.2609 5.28635 12.2669 4.69278 12.6367 4.3304ZM2.229 18.75C2.229 13.3997 6.56625 9.0625 11.9165 9.0625C17.2668 9.0625 21.604 13.3997 21.604 18.75C21.604 24.1003 17.2668 28.4375 11.9165 28.4375C6.56625 28.4375 2.229 24.1003 2.229 18.75Z" fill="white"/>
<path fill-rule="evenodd" clip-rule="evenodd" d="M12.6367 4.3304C14.383 2.61916 16.7773 1.5625 19.4166 1.5625C24.7668 1.5625 29.1041 5.89974 29.1041 11.25C29.1041 13.8893 28.0474 16.2837 26.3361 18.03C25.9737 18.3998 25.3801 18.4058 25.0103 18.0434C24.6405 17.681 24.6345 17.0874 24.9969 16.7176C26.3787 15.3076 27.2291 13.379 27.2291 11.25C27.2291 6.93528 23.7313 3.4375 19.4166 3.4375C17.2876 3.4375 15.359 4.28787 13.949 5.6696C13.5792 6.03199 12.9856 6.02597 12.6232 5.65616C12.2609 5.28635 12.2669 4.69278 12.6367 4.3304ZM2.229 18.75C2.229 13.3997 6.56625 9.0625 11.9165 9.0625C17.2668 9.0625 21.604 13.3997 21.604 18.75C21.604 24.1003 17.2668 28.4375 11.9165 28.4375C6.56625 28.4375 2.229 24.1003 2.229 18.75Z" fill="url(#paint0_linear_3367_24664)"/>
<defs>
<linearGradient id="paint0_linear_3367_24664" x1="15.6665" y1="1.5625" x2="15.6665" y2="28.4375" gradientUnits="userSpaceOnUse">
<stop stop-color="#C2CCEA"/>
<stop offset="1" stop-color="#FDCCAB"/>
</linearGradient>
</defs>
</svg>
