<svg width="30" height="30" viewBox="0 0 30 30" fill="none" xmlns="http://www.w3.org/2000/svg">
<path fill-rule="evenodd" clip-rule="evenodd" d="M11.9702 4.3304C13.7165 2.61916 16.1108 1.5625 18.7501 1.5625C24.1003 1.5625 28.4376 5.89974 28.4376 11.25C28.4376 13.8893 27.3809 16.2837 25.6696 18.03C25.3072 18.3998 24.7136 18.4058 24.3438 18.0434C23.974 17.681 23.968 17.0874 24.3304 16.7176C25.7122 15.3076 26.5626 13.379 26.5626 11.25C26.5626 6.93528 23.0648 3.4375 18.7501 3.4375C16.6211 3.4375 14.6925 4.28787 13.2825 5.6696C12.9127 6.03199 12.3191 6.02597 11.9567 5.65616C11.5944 5.28635 11.6004 4.69278 11.9702 4.3304ZM1.5625 18.75C1.5625 13.3997 5.89974 9.0625 11.25 9.0625C16.6003 9.0625 20.9375 13.3997 20.9375 18.75C20.9375 24.1003 16.6003 28.4375 11.25 28.4375C5.89974 28.4375 1.5625 24.1003 1.5625 18.75Z" fill="url(#paint0_linear_3392_14397)"/>
<defs>
<linearGradient id="paint0_linear_3392_14397" x1="15" y1="1.5625" x2="15.8636" y2="28.4097" gradientUnits="userSpaceOnUse">
<stop stop-color="#FFBAC6"/>
<stop offset="1" stop-color="#F3E8B9"/>
</linearGradient>
</defs>
</svg>
