<svg width="30" height="31" viewBox="0 0 30 31" fill="none" xmlns="http://www.w3.org/2000/svg">
<path fill-rule="evenodd" clip-rule="evenodd" d="M1.5625 14.3985C1.5625 7.33123 7.29168 1.60205 14.359 1.60205C15.2308 1.60205 15.9375 2.30878 15.9375 3.18058V26.8985C15.9375 27.7703 15.2308 28.4771 14.359 28.4771C7.29168 28.4771 1.5625 22.7479 1.5625 15.6806V14.3985ZM17.8125 6.28955C17.8125 5.77178 18.2322 5.35205 18.75 5.35205C24.1003 5.35205 28.4375 9.68929 28.4375 15.0396C28.4375 20.3898 24.1003 24.7271 18.75 24.7271C18.2322 24.7271 17.8125 24.3073 17.8125 23.7896C17.8125 23.2718 18.2322 22.8521 18.75 22.8521C23.0647 22.8521 26.5625 19.3543 26.5625 15.0396C26.5625 10.7248 23.0647 7.22705 18.75 7.22705C18.2322 7.22705 17.8125 6.80732 17.8125 6.28955Z" fill="white"/>
<path fill-rule="evenodd" clip-rule="evenodd" d="M1.5625 14.3985C1.5625 7.33123 7.29168 1.60205 14.359 1.60205C15.2308 1.60205 15.9375 2.30878 15.9375 3.18058V26.8985C15.9375 27.7703 15.2308 28.4771 14.359 28.4771C7.29168 28.4771 1.5625 22.7479 1.5625 15.6806V14.3985ZM17.8125 6.28955C17.8125 5.77178 18.2322 5.35205 18.75 5.35205C24.1003 5.35205 28.4375 9.68929 28.4375 15.0396C28.4375 20.3898 24.1003 24.7271 18.75 24.7271C18.2322 24.7271 17.8125 24.3073 17.8125 23.7896C17.8125 23.2718 18.2322 22.8521 18.75 22.8521C23.0647 22.8521 26.5625 19.3543 26.5625 15.0396C26.5625 10.7248 23.0647 7.22705 18.75 7.22705C18.2322 7.22705 17.8125 6.80732 17.8125 6.28955Z" fill="url(#paint0_linear_3340_16472)"/>
<defs>
<linearGradient id="paint0_linear_3340_16472" x1="15" y1="1.60205" x2="15" y2="28.4771" gradientUnits="userSpaceOnUse">
<stop stop-color="#C2CCEA"/>
<stop offset="1" stop-color="#FDCCAB"/>
</linearGradient>
</defs>
</svg>
