<svg width="31" height="31" viewBox="0 0 31 31" fill="none" xmlns="http://www.w3.org/2000/svg">
<path fill-rule="evenodd" clip-rule="evenodd" d="M19.1737 4.89433L23.1552 9.10205H20.7362C19.8733 9.10205 19.1737 8.4025 19.1737 7.53955V4.89433ZM26.2705 14.7271V10.0396C26.2705 9.79987 26.1787 9.56929 26.014 9.3952L18.9172 1.8952C18.7401 1.70807 18.4939 1.60205 18.2362 1.60205H9.08301C6.49418 1.60205 4.39551 3.70072 4.39551 6.28955V14.7271H2.83301C2.31524 14.7271 1.89551 15.1468 1.89551 15.6646C1.89551 16.1823 2.31524 16.6021 2.83301 16.6021H27.833C28.3508 16.6021 28.7705 16.1823 28.7705 15.6646C28.7705 15.1468 28.3508 14.7271 27.833 14.7271H26.2705ZM5.33301 19.1021C5.85077 19.1021 6.27051 19.5218 6.27051 20.0396V23.7896C6.27051 25.3429 7.52971 26.6021 9.08301 26.6021H21.583C23.1363 26.6021 24.3955 25.3429 24.3955 23.7896V20.0396C24.3955 19.5218 24.8152 19.1021 25.333 19.1021C25.8508 19.1021 26.2705 19.5218 26.2705 20.0396V23.7896C26.2705 26.3784 24.1718 28.4771 21.583 28.4771H9.08301C6.49417 28.4771 4.39551 26.3784 4.39551 23.7896V20.0396C4.39551 19.5218 4.81524 19.1021 5.33301 19.1021Z" fill="white"/>
<path fill-rule="evenodd" clip-rule="evenodd" d="M19.1737 4.89433L23.1552 9.10205H20.7362C19.8733 9.10205 19.1737 8.4025 19.1737 7.53955V4.89433ZM26.2705 14.7271V10.0396C26.2705 9.79987 26.1787 9.56929 26.014 9.3952L18.9172 1.8952C18.7401 1.70807 18.4939 1.60205 18.2362 1.60205H9.08301C6.49418 1.60205 4.39551 3.70072 4.39551 6.28955V14.7271H2.83301C2.31524 14.7271 1.89551 15.1468 1.89551 15.6646C1.89551 16.1823 2.31524 16.6021 2.83301 16.6021H27.833C28.3508 16.6021 28.7705 16.1823 28.7705 15.6646C28.7705 15.1468 28.3508 14.7271 27.833 14.7271H26.2705ZM5.33301 19.1021C5.85077 19.1021 6.27051 19.5218 6.27051 20.0396V23.7896C6.27051 25.3429 7.52971 26.6021 9.08301 26.6021H21.583C23.1363 26.6021 24.3955 25.3429 24.3955 23.7896V20.0396C24.3955 19.5218 24.8152 19.1021 25.333 19.1021C25.8508 19.1021 26.2705 19.5218 26.2705 20.0396V23.7896C26.2705 26.3784 24.1718 28.4771 21.583 28.4771H9.08301C6.49417 28.4771 4.39551 26.3784 4.39551 23.7896V20.0396C4.39551 19.5218 4.81524 19.1021 5.33301 19.1021Z" fill="url(#paint0_linear_3340_16547)"/>
<defs>
<linearGradient id="paint0_linear_3340_16547" x1="15.333" y1="1.60205" x2="15.333" y2="28.4771" gradientUnits="userSpaceOnUse">
<stop stop-color="#C2CCEA"/>
<stop offset="1" stop-color="#FDCCAB"/>
</linearGradient>
</defs>
</svg>
