<svg width="31" height="31" viewBox="0 0 31 31" fill="none" xmlns="http://www.w3.org/2000/svg">
<path fill-rule="evenodd" clip-rule="evenodd" d="M9.08304 1.60205C9.60081 1.60205 10.0205 2.02178 10.0205 2.53955V7.32082C12.1601 7.75515 13.7705 9.64679 13.7705 11.9146C13.7705 14.1823 12.1601 16.0739 10.0205 16.5083V27.5396C10.0205 28.0573 9.60081 28.4771 9.08304 28.4771C8.56527 28.4771 8.14554 28.0573 8.14554 27.5396V16.5083C6.00592 16.074 4.39551 14.1823 4.39551 11.9146C4.39551 9.64677 6.00592 7.75512 8.14554 7.32081V2.53955C8.14554 2.02178 8.56527 1.60205 9.08304 1.60205ZM21.583 1.60205C22.1008 1.60205 22.5205 2.02178 22.5205 2.53955V13.5708C24.6601 14.0052 26.2705 15.8968 26.2705 18.1646C26.2705 20.4323 24.6601 22.3239 22.5205 22.7583V27.5396C22.5205 28.0573 22.1008 28.4771 21.583 28.4771C21.0653 28.4771 20.6455 28.0573 20.6455 27.5396V22.7583C18.5059 22.324 16.8955 20.4323 16.8955 18.1646C16.8955 15.8968 18.5059 14.0051 20.6455 13.5708V2.53955C20.6455 2.02178 21.0653 1.60205 21.583 1.60205Z" fill="white"/>
<path fill-rule="evenodd" clip-rule="evenodd" d="M9.08304 1.60205C9.60081 1.60205 10.0205 2.02178 10.0205 2.53955V7.32082C12.1601 7.75515 13.7705 9.64679 13.7705 11.9146C13.7705 14.1823 12.1601 16.0739 10.0205 16.5083V27.5396C10.0205 28.0573 9.60081 28.4771 9.08304 28.4771C8.56527 28.4771 8.14554 28.0573 8.14554 27.5396V16.5083C6.00592 16.074 4.39551 14.1823 4.39551 11.9146C4.39551 9.64677 6.00592 7.75512 8.14554 7.32081V2.53955C8.14554 2.02178 8.56527 1.60205 9.08304 1.60205ZM21.583 1.60205C22.1008 1.60205 22.5205 2.02178 22.5205 2.53955V13.5708C24.6601 14.0052 26.2705 15.8968 26.2705 18.1646C26.2705 20.4323 24.6601 22.3239 22.5205 22.7583V27.5396C22.5205 28.0573 22.1008 28.4771 21.583 28.4771C21.0653 28.4771 20.6455 28.0573 20.6455 27.5396V22.7583C18.5059 22.324 16.8955 20.4323 16.8955 18.1646C16.8955 15.8968 18.5059 14.0051 20.6455 13.5708V2.53955C20.6455 2.02178 21.0653 1.60205 21.583 1.60205Z" fill="url(#paint0_linear_3340_16305)"/>
<defs>
<linearGradient id="paint0_linear_3340_16305" x1="15.333" y1="1.60205" x2="15.333" y2="28.4771" gradientUnits="userSpaceOnUse">
<stop stop-color="#C2CCEA"/>
<stop offset="1" stop-color="#FDCCAB"/>
</linearGradient>
</defs>
</svg>
