<svg width="30" height="30" viewBox="0 0 30 30" fill="none" xmlns="http://www.w3.org/2000/svg">
<path fill-rule="evenodd" clip-rule="evenodd" d="M8.75003 1.5625C9.2678 1.5625 9.68753 1.98223 9.68753 2.5V7.28127C11.8271 7.7156 13.4375 9.60724 13.4375 11.875C13.4375 14.1428 11.8271 16.0344 9.68753 16.4687V27.5C9.68753 28.0178 9.2678 28.4375 8.75003 28.4375C8.23226 28.4375 7.81253 28.0178 7.81253 27.5V16.4687C5.67292 16.0344 4.0625 14.1428 4.0625 11.875C4.0625 9.60722 5.67292 7.71556 7.81253 7.28126V2.5C7.81253 1.98223 8.23226 1.5625 8.75003 1.5625ZM21.25 1.5625C21.7678 1.5625 22.1875 1.98223 22.1875 2.5V13.5313C24.3271 13.9656 25.9375 15.8572 25.9375 18.125C25.9375 20.3928 24.3271 22.2844 22.1875 22.7187V27.5C22.1875 28.0178 21.7678 28.4375 21.25 28.4375C20.7323 28.4375 20.3125 28.0178 20.3125 27.5V22.7187C18.1729 22.2844 16.5625 20.3928 16.5625 18.125C16.5625 15.8572 18.1729 13.9656 20.3125 13.5313V2.5C20.3125 1.98223 20.7323 1.5625 21.25 1.5625Z" fill="url(#paint0_linear_3405_6188)"/>
<defs>
<linearGradient id="paint0_linear_3405_6188" x1="15" y1="1.5625" x2="16.0604" y2="28.3956" gradientUnits="userSpaceOnUse">
<stop stop-color="#FFBAC6"/>
<stop offset="1" stop-color="#F3E8B9"/>
</linearGradient>
</defs>
</svg>
