<svg width="45" height="46" viewBox="0 0 45 46" fill="none" xmlns="http://www.w3.org/2000/svg">
<path fill-rule="evenodd" clip-rule="evenodd" d="M9.75931 13.5478C6.31522 13.6513 3.51855 16.4354 3.51855 19.9011V24.8684C3.51855 28.4005 6.42341 31.2246 9.95795 31.2246H13.325C14.9999 31.2246 16.3973 29.8831 16.3973 28.1799V16.5895C16.3973 14.8863 14.9999 13.5448 13.325 13.5448H12.6625C14.1758 9.1389 18.4773 5.87055 23.4259 5.87055C28.3746 5.87055 32.6761 9.1389 34.1894 13.5448H33.527C31.852 13.5448 30.4546 14.8863 30.4546 16.5895V28.1799C30.4546 29.8831 31.852 31.2246 33.527 31.2246H35.5051V31.388C35.5051 33.3426 33.8876 34.9664 31.8435 34.9664H29.837C29.5517 32.1595 27.1482 29.9991 24.2677 29.9991C21.1981 29.9991 18.6701 32.4525 18.6701 35.5274C18.6701 38.6023 21.1981 41.0557 24.2677 41.0557C26.5484 41.0557 28.53 39.7014 29.398 37.7442H31.8435C35.378 37.7442 38.2829 34.9201 38.2829 31.388V31.0759C41.1586 30.4507 43.3334 27.9245 43.3334 24.8684V19.9011C43.3334 16.4353 40.5367 13.6513 37.0926 13.5478C35.5001 7.58218 29.9134 3.09277 23.4259 3.09277C16.9385 3.09277 11.3518 7.58217 9.75931 13.5478Z" fill="white"/>
<path fill-rule="evenodd" clip-rule="evenodd" d="M9.75931 13.5478C6.31522 13.6513 3.51855 16.4354 3.51855 19.9011V24.8684C3.51855 28.4005 6.42341 31.2246 9.95795 31.2246H13.325C14.9999 31.2246 16.3973 29.8831 16.3973 28.1799V16.5895C16.3973 14.8863 14.9999 13.5448 13.325 13.5448H12.6625C14.1758 9.1389 18.4773 5.87055 23.4259 5.87055C28.3746 5.87055 32.6761 9.1389 34.1894 13.5448H33.527C31.852 13.5448 30.4546 14.8863 30.4546 16.5895V28.1799C30.4546 29.8831 31.852 31.2246 33.527 31.2246H35.5051V31.388C35.5051 33.3426 33.8876 34.9664 31.8435 34.9664H29.837C29.5517 32.1595 27.1482 29.9991 24.2677 29.9991C21.1981 29.9991 18.6701 32.4525 18.6701 35.5274C18.6701 38.6023 21.1981 41.0557 24.2677 41.0557C26.5484 41.0557 28.53 39.7014 29.398 37.7442H31.8435C35.378 37.7442 38.2829 34.9201 38.2829 31.388V31.0759C41.1586 30.4507 43.3334 27.9245 43.3334 24.8684V19.9011C43.3334 16.4353 40.5367 13.6513 37.0926 13.5478C35.5001 7.58218 29.9134 3.09277 23.4259 3.09277C16.9385 3.09277 11.3518 7.58217 9.75931 13.5478Z" fill="url(#paint0_linear_3367_22676)"/>
<defs>
<linearGradient id="paint0_linear_3367_22676" x1="23.426" y1="3.09277" x2="23.426" y2="41.0557" gradientUnits="userSpaceOnUse">
<stop stop-color="#C2CCEA"/>
<stop offset="1" stop-color="#FDCCAB"/>
</linearGradient>
</defs>
</svg>
