<svg width="31" height="30" viewBox="0 0 31 30" fill="none" xmlns="http://www.w3.org/2000/svg">
<path fill-rule="evenodd" clip-rule="evenodd" d="M6.73351 8.61966C4.40875 8.68948 2.521 10.5687 2.521 12.9081V16.261C2.521 18.6452 4.48177 20.5515 6.86759 20.5515H9.14031C10.2709 20.5515 11.2142 19.646 11.2142 18.4963V10.6728C11.2142 9.52315 10.2709 8.61765 9.14031 8.61765H8.69319C9.71466 5.64363 12.6181 3.4375 15.9585 3.4375C19.2988 3.4375 22.2023 5.64363 23.2238 8.61765H22.7767C21.6461 8.61765 20.7028 9.52315 20.7028 10.6728V18.4963C20.7028 19.646 21.6461 20.5515 22.7767 20.5515H24.1119V20.6618C24.1119 21.9812 23.0201 23.0772 21.6403 23.0772H20.286C20.0934 21.1825 18.471 19.7243 16.5267 19.7243C14.4547 19.7243 12.7483 21.3803 12.7483 23.4559C12.7483 25.5314 14.4547 27.1875 16.5267 27.1875C18.0661 27.1875 19.4037 26.2733 19.9896 24.9522H21.6403C24.0261 24.9522 25.9869 23.0459 25.9869 20.6618V20.4511C27.928 20.0291 29.396 18.3239 29.396 16.261V12.9081C29.396 10.5687 27.5082 8.68948 25.1835 8.61966C24.1086 4.59285 20.3375 1.5625 15.9585 1.5625C11.5794 1.5625 7.80842 4.59284 6.73351 8.61966Z" fill="url(#paint0_linear_4901_28544)"/>
<defs>
<linearGradient id="paint0_linear_4901_28544" x1="15.9585" y1="1.5625" x2="16.7437" y2="27.1634" gradientUnits="userSpaceOnUse">
<stop stop-color="#FFBAC6"/>
<stop offset="1" stop-color="#F3E8B9"/>
</linearGradient>
</defs>
</svg>
