<svg width="31" height="30" viewBox="0 0 31 30" fill="none" xmlns="http://www.w3.org/2000/svg">
<path fill-rule="evenodd" clip-rule="evenodd" d="M7.06651 8.61966C4.74176 8.68948 2.854 10.5687 2.854 12.9081V16.261C2.854 18.6452 4.81478 20.5515 7.20059 20.5515H9.47332C10.6039 20.5515 11.5472 19.646 11.5472 18.4963V10.6728C11.5472 9.52315 10.6039 8.61765 9.47332 8.61765H9.0262C10.0477 5.64363 12.9511 3.4375 16.2915 3.4375C19.6318 3.4375 22.5353 5.64363 23.5568 8.61765H23.1097C21.9791 8.61765 21.0358 9.52315 21.0358 10.6728V18.4963C21.0358 19.646 21.9791 20.5515 23.1097 20.5515H24.4449V20.6618C24.4449 21.9812 23.3531 23.0772 21.9733 23.0772H20.619C20.4264 21.1825 18.804 19.7243 16.8597 19.7243C14.7877 19.7243 13.0813 21.3803 13.0813 23.4559C13.0813 25.5314 14.7877 27.1875 16.8597 27.1875C18.3991 27.1875 19.7367 26.2733 20.3227 24.9522H21.9733C24.3591 24.9522 26.3199 23.0459 26.3199 20.6618V20.4511C28.261 20.0291 29.729 18.3239 29.729 16.261V12.9081C29.729 10.5687 27.8412 8.68948 25.5165 8.61966C24.4416 4.59285 20.6706 1.5625 16.2915 1.5625C11.9124 1.5625 8.14143 4.59284 7.06651 8.61966Z" fill="url(#paint0_linear_3367_26923)"/>
<defs>
<linearGradient id="paint0_linear_3367_26923" x1="16.2915" y1="1.5625" x2="16.2915" y2="27.1875" gradientUnits="userSpaceOnUse">
<stop stop-color="#BCFFDF"/>
<stop offset="1" stop-color="#B4E1EA"/>
</linearGradient>
</defs>
</svg>
