<svg width="30" height="30" viewBox="0 0 30 30" fill="none" xmlns="http://www.w3.org/2000/svg">
<path fill-rule="evenodd" clip-rule="evenodd" d="M18.7279 1.67577C19.1263 1.89167 19.3133 2.36172 19.172 2.79234L16.2943 11.5626H23.75C24.1106 11.5626 24.4392 11.7694 24.5952 12.0945C24.7512 12.4196 24.7069 12.8053 24.4813 13.0866L12.4501 28.0866C12.1665 28.4402 11.6706 28.5402 11.2722 28.3243C10.8737 28.1084 10.6867 27.6384 10.828 27.2078L13.7057 18.4376H6.25001C5.88941 18.4376 5.56078 18.2307 5.40478 17.9056C5.24878 17.5805 5.29307 17.1948 5.51869 16.9135L17.5499 1.91348C17.8335 1.55994 18.3294 1.45987 18.7279 1.67577Z" fill="white"/>
<path fill-rule="evenodd" clip-rule="evenodd" d="M18.7279 1.67577C19.1263 1.89167 19.3133 2.36172 19.172 2.79234L16.2943 11.5626H23.75C24.1106 11.5626 24.4392 11.7694 24.5952 12.0945C24.7512 12.4196 24.7069 12.8053 24.4813 13.0866L12.4501 28.0866C12.1665 28.4402 11.6706 28.5402 11.2722 28.3243C10.8737 28.1084 10.6867 27.6384 10.828 27.2078L13.7057 18.4376H6.25001C5.88941 18.4376 5.56078 18.2307 5.40478 17.9056C5.24878 17.5805 5.29307 17.1948 5.51869 16.9135L17.5499 1.91348C17.8335 1.55994 18.3294 1.45987 18.7279 1.67577Z" fill="url(#paint0_linear_3392_26743)"/>
<defs>
<linearGradient id="paint0_linear_3392_26743" x1="15" y1="1.5625" x2="15" y2="28.4376" gradientUnits="userSpaceOnUse">
<stop stop-color="#C2CCEA"/>
<stop offset="1" stop-color="#FDCCAB"/>
</linearGradient>
</defs>
</svg>
