<svg width="31" height="30" viewBox="0 0 31 30" fill="none" xmlns="http://www.w3.org/2000/svg">
<path fill-rule="evenodd" clip-rule="evenodd" d="M5.646 7.5C5.646 4.22081 8.30431 1.5625 11.5835 1.5625H19.0835C22.3627 1.5625 25.021 4.22081 25.021 7.5V22.5C25.021 25.7792 22.3627 28.4375 19.0835 28.4375H11.5835C8.30431 28.4375 5.646 25.7792 5.646 22.5V7.5ZM11.271 3.4375V5C11.271 5.17259 11.4109 5.3125 11.5835 5.3125H19.0835C19.2561 5.3125 19.396 5.17259 19.396 5V3.4375H11.271Z" fill="white"/>
<path fill-rule="evenodd" clip-rule="evenodd" d="M5.646 7.5C5.646 4.22081 8.30431 1.5625 11.5835 1.5625H19.0835C22.3627 1.5625 25.021 4.22081 25.021 7.5V22.5C25.021 25.7792 22.3627 28.4375 19.0835 28.4375H11.5835C8.30431 28.4375 5.646 25.7792 5.646 22.5V7.5ZM11.271 3.4375V5C11.271 5.17259 11.4109 5.3125 11.5835 5.3125H19.0835C19.2561 5.3125 19.396 5.17259 19.396 5V3.4375H11.271Z" fill="url(#paint0_linear_3367_4918)"/>
<defs>
<linearGradient id="paint0_linear_3367_4918" x1="15.3335" y1="1.5625" x2="15.3335" y2="28.4375" gradientUnits="userSpaceOnUse">
<stop stop-color="#C2CCEA"/>
<stop offset="1" stop-color="#FDCCAB"/>
</linearGradient>
</defs>
</svg>
