<svg width="30" height="30" viewBox="0 0 30 30" fill="none" xmlns="http://www.w3.org/2000/svg">
<path fill-rule="evenodd" clip-rule="evenodd" d="M12.4295 1.5625H17.5705C19.8677 1.56248 21.6873 1.56246 23.1113 1.75392C24.5768 1.95095 25.763 2.3661 26.6984 3.30155C27.6339 4.23701 28.049 5.42319 28.2461 6.88872C28.4375 8.31274 28.4375 10.1323 28.4375 12.4295V13.8186C28.4375 15.5281 28.4375 16.906 28.2919 17.9897C28.1406 19.1148 27.817 20.0622 27.0646 20.8146C26.3122 21.567 25.3648 21.8906 24.2397 22.0418C23.156 22.1875 21.7781 22.1875 20.0686 22.1875H15.9375V24.3243L22.7965 26.6106C23.2877 26.7743 23.5531 27.3053 23.3894 27.7965C23.2257 28.2877 22.6947 28.5531 22.2035 28.3894L15 25.9882L7.79646 28.3894C7.30526 28.5531 6.77434 28.2877 6.61061 27.7965C6.44688 27.3053 6.71234 26.7743 7.20354 26.6106L14.0625 24.3243V22.1875H9.93141C8.22192 22.1875 6.84402 22.1875 5.76031 22.0418C4.63517 21.8906 3.68783 21.567 2.93544 20.8146C2.18304 20.0622 1.85942 19.1148 1.70815 17.9897C1.56245 16.906 1.56247 15.5281 1.5625 13.8186V12.4295C1.56248 10.1323 1.56246 8.31274 1.75392 6.88872C1.95095 5.42319 2.3661 4.23701 3.30155 3.30155C4.23701 2.3661 5.42319 1.95095 6.88872 1.75392C8.31274 1.56246 10.1323 1.56248 12.4295 1.5625Z" fill="white"/>
<path fill-rule="evenodd" clip-rule="evenodd" d="M12.4295 1.5625H17.5705C19.8677 1.56248 21.6873 1.56246 23.1113 1.75392C24.5768 1.95095 25.763 2.3661 26.6984 3.30155C27.6339 4.23701 28.049 5.42319 28.2461 6.88872C28.4375 8.31274 28.4375 10.1323 28.4375 12.4295V13.8186C28.4375 15.5281 28.4375 16.906 28.2919 17.9897C28.1406 19.1148 27.817 20.0622 27.0646 20.8146C26.3122 21.567 25.3648 21.8906 24.2397 22.0418C23.156 22.1875 21.7781 22.1875 20.0686 22.1875H15.9375V24.3243L22.7965 26.6106C23.2877 26.7743 23.5531 27.3053 23.3894 27.7965C23.2257 28.2877 22.6947 28.5531 22.2035 28.3894L15 25.9882L7.79646 28.3894C7.30526 28.5531 6.77434 28.2877 6.61061 27.7965C6.44688 27.3053 6.71234 26.7743 7.20354 26.6106L14.0625 24.3243V22.1875H9.93141C8.22192 22.1875 6.84402 22.1875 5.76031 22.0418C4.63517 21.8906 3.68783 21.567 2.93544 20.8146C2.18304 20.0622 1.85942 19.1148 1.70815 17.9897C1.56245 16.906 1.56247 15.5281 1.5625 13.8186V12.4295C1.56248 10.1323 1.56246 8.31274 1.75392 6.88872C1.95095 5.42319 2.3661 4.23701 3.30155 3.30155C4.23701 2.3661 5.42319 1.95095 6.88872 1.75392C8.31274 1.56246 10.1323 1.56248 12.4295 1.5625Z" fill="url(#paint0_linear_3367_11360)"/>
<defs>
<linearGradient id="paint0_linear_3367_11360" x1="15" y1="1.5625" x2="15" y2="28.4378" gradientUnits="userSpaceOnUse">
<stop stop-color="#C2CCEA"/>
<stop offset="1" stop-color="#FDCCAB"/>
</linearGradient>
</defs>
</svg>
