<svg width="30" height="30" viewBox="0 0 30 30" fill="none" xmlns="http://www.w3.org/2000/svg">
<path fill-rule="evenodd" clip-rule="evenodd" d="M9.80637 1.56254C9.45908 1.56224 9.15279 1.56198 8.85268 1.62772C8.58891 1.6855 8.33483 1.78097 8.09827 1.91118C7.82913 2.05933 7.5988 2.26122 7.33763 2.49013L3.13265 6.16954C2.9292 6.34756 2.8125 6.60474 2.8125 6.87508V19.5413C2.81249 20.9065 2.81249 21.9884 2.88374 22.8604C2.95659 23.7521 3.1086 24.5067 3.45965 25.1956C4.0289 26.3129 4.93722 27.2212 6.05443 27.7904C6.7434 28.1415 7.49793 28.2935 8.38967 28.3663C9.26169 28.4376 10.3436 28.4376 11.7087 28.4376H18.2913C19.6564 28.4376 20.7383 28.4376 21.6103 28.3663C22.5021 28.2935 23.2566 28.1415 23.9456 27.7904C25.0628 27.2212 25.9711 26.3129 26.5404 25.1956C26.8914 24.5067 27.0434 23.7521 27.1163 22.8604C27.1875 21.9884 27.1875 20.9065 27.1875 19.5414V6.87508C27.1875 6.60474 27.0708 6.34756 26.8673 6.16954L22.6624 2.49013C22.4012 2.26122 22.1709 2.05932 21.9017 1.91118C21.6652 1.78097 21.4111 1.6855 21.1473 1.62772C20.8472 1.56198 20.5409 1.56224 20.1936 1.56254H9.80637ZM9.2539 3.45929C9.33006 3.44261 9.41978 3.43758 9.8772 3.43758H20.1228C20.5802 3.43758 20.6699 3.44261 20.7461 3.45929C20.834 3.47855 20.9187 3.51038 20.9976 3.55378C21.0659 3.59138 21.1367 3.64667 21.481 3.94789L23.7549 5.93758H6.24511L8.51904 3.94789C8.86329 3.64667 8.93412 3.59138 9.00243 3.55378C9.08128 3.51038 9.16597 3.47855 9.2539 3.45929ZM10.9375 11.2502C10.9375 10.7324 10.5178 10.3127 10 10.3127C9.48223 10.3127 9.0625 10.7324 9.0625 11.2502C9.0625 12.8249 9.68806 14.3351 10.8016 15.4486C11.915 16.5621 13.4253 17.1877 15 17.1877C16.5747 17.1877 18.085 16.5621 19.1984 15.4486C20.3119 14.3351 20.9375 12.8249 20.9375 11.2502C20.9375 10.7324 20.5178 10.3127 20 10.3127C19.4822 10.3127 19.0625 10.7324 19.0625 11.2502C19.0625 12.3276 18.6345 13.3609 17.8726 14.1228C17.1108 14.8846 16.0774 15.3127 15 15.3127C13.9226 15.3127 12.8892 14.8846 12.1274 14.1228C11.3655 13.3609 10.9375 12.3276 10.9375 11.2502Z" fill="white"/>
<path fill-rule="evenodd" clip-rule="evenodd" d="M9.80637 1.56254C9.45908 1.56224 9.15279 1.56198 8.85268 1.62772C8.58891 1.6855 8.33483 1.78097 8.09827 1.91118C7.82913 2.05933 7.5988 2.26122 7.33763 2.49013L3.13265 6.16954C2.9292 6.34756 2.8125 6.60474 2.8125 6.87508V19.5413C2.81249 20.9065 2.81249 21.9884 2.88374 22.8604C2.95659 23.7521 3.1086 24.5067 3.45965 25.1956C4.0289 26.3129 4.93722 27.2212 6.05443 27.7904C6.7434 28.1415 7.49793 28.2935 8.38967 28.3663C9.26169 28.4376 10.3436 28.4376 11.7087 28.4376H18.2913C19.6564 28.4376 20.7383 28.4376 21.6103 28.3663C22.5021 28.2935 23.2566 28.1415 23.9456 27.7904C25.0628 27.2212 25.9711 26.3129 26.5404 25.1956C26.8914 24.5067 27.0434 23.7521 27.1163 22.8604C27.1875 21.9884 27.1875 20.9065 27.1875 19.5414V6.87508C27.1875 6.60474 27.0708 6.34756 26.8673 6.16954L22.6624 2.49013C22.4012 2.26122 22.1709 2.05932 21.9017 1.91118C21.6652 1.78097 21.4111 1.6855 21.1473 1.62772C20.8472 1.56198 20.5409 1.56224 20.1936 1.56254H9.80637ZM9.2539 3.45929C9.33006 3.44261 9.41978 3.43758 9.8772 3.43758H20.1228C20.5802 3.43758 20.6699 3.44261 20.7461 3.45929C20.834 3.47855 20.9187 3.51038 20.9976 3.55378C21.0659 3.59138 21.1367 3.64667 21.481 3.94789L23.7549 5.93758H6.24511L8.51904 3.94789C8.86329 3.64667 8.93412 3.59138 9.00243 3.55378C9.08128 3.51038 9.16597 3.47855 9.2539 3.45929ZM10.9375 11.2502C10.9375 10.7324 10.5178 10.3127 10 10.3127C9.48223 10.3127 9.0625 10.7324 9.0625 11.2502C9.0625 12.8249 9.68806 14.3351 10.8016 15.4486C11.915 16.5621 13.4253 17.1877 15 17.1877C16.5747 17.1877 18.085 16.5621 19.1984 15.4486C20.3119 14.3351 20.9375 12.8249 20.9375 11.2502C20.9375 10.7324 20.5178 10.3127 20 10.3127C19.4822 10.3127 19.0625 10.7324 19.0625 11.2502C19.0625 12.3276 18.6345 13.3609 17.8726 14.1228C17.1108 14.8846 16.0774 15.3127 15 15.3127C13.9226 15.3127 12.8892 14.8846 12.1274 14.1228C11.3655 13.3609 10.9375 12.3276 10.9375 11.2502Z" fill="url(#paint0_linear_3405_25965)"/>
<defs>
<linearGradient id="paint0_linear_3405_25965" x1="15" y1="1.5625" x2="15" y2="28.4376" gradientUnits="userSpaceOnUse">
<stop stop-color="#C2CCEA"/>
<stop offset="1" stop-color="#FDCCAB"/>
</linearGradient>
</defs>
</svg>
