<svg width="31" height="30" viewBox="0 0 31 30" fill="none" xmlns="http://www.w3.org/2000/svg">
<path fill-rule="evenodd" clip-rule="evenodd" d="M20.0597 2.82474C20.0725 2.82602 20.0832 2.82709 20.0917 2.82777C20.9699 2.89818 21.8332 3.10565 22.6497 3.44387C23.6748 3.86847 24.6062 4.4908 25.3907 5.27535C26.1753 6.05989 26.7976 6.99128 27.2222 8.01634C27.5604 8.83289 27.7679 9.69614 27.8383 10.5744C27.839 10.5828 27.84 10.5936 27.8413 10.6064C27.8543 10.7369 27.8887 11.0813 27.7465 11.4037C27.6305 11.6668 27.4221 11.8926 27.1691 12.0293C26.9731 12.1351 26.7867 12.1659 26.6563 12.1776C26.55 12.1872 26.4325 12.1871 26.3461 12.1871C26.3395 12.1871 26.3331 12.1871 26.3269 12.1871H20.0174C20.0113 12.1871 20.005 12.1871 19.9985 12.1871C19.9109 12.1871 19.7966 12.1872 19.6944 12.1788C19.5738 12.169 19.3903 12.143 19.1959 12.0439C18.9489 11.9181 18.748 11.7172 18.6221 11.4701C18.5231 11.2758 18.4971 11.0923 18.4872 10.9717C18.4789 10.8695 18.4789 10.7552 18.479 10.6675C18.479 10.6611 18.479 10.6548 18.479 10.6487V4.33915C18.479 4.33295 18.479 4.32654 18.479 4.31995C18.4789 4.23361 18.4789 4.11605 18.4884 4.0098C18.5002 3.87934 18.5309 3.69292 18.6368 3.497C18.7734 3.244 18.9992 3.03555 19.2624 2.91954C19.5848 2.77741 19.9291 2.81173 20.0597 2.82474ZM3.479 14.9996C3.479 8.26859 8.93553 2.81206 15.6665 2.81206C16.1843 2.81206 16.604 3.2318 16.604 3.74956V10.9996C16.604 11.7151 16.6047 12.1954 16.635 12.5652C16.6643 12.9241 16.7166 13.0957 16.7743 13.2089C16.9241 13.5029 17.1631 13.742 17.4571 13.8918C17.5703 13.9494 17.7419 14.0018 18.1009 14.0311C18.4707 14.0613 18.951 14.0621 19.6665 14.0621H26.9165C27.4343 14.0621 27.854 14.4818 27.854 14.9996C27.854 21.7305 22.3975 27.1871 15.6665 27.1871C8.93553 27.1871 3.479 21.7305 3.479 14.9996Z" fill="url(#paint0_linear_4901_19550)"/>
<defs>
<linearGradient id="paint0_linear_4901_19550" x1="15.6668" y1="2.81152" x2="16.45" y2="27.1619" gradientUnits="userSpaceOnUse">
<stop stop-color="#FFBAC6"/>
<stop offset="1" stop-color="#F3E8B9"/>
</linearGradient>
</defs>
</svg>
