<svg width="45" height="46" viewBox="0 0 45 46" fill="none" xmlns="http://www.w3.org/2000/svg">
<path fill-rule="evenodd" clip-rule="evenodd" d="M9.53722 5.87061C5.70191 5.87061 2.59277 8.97974 2.59277 12.815V16.5188C2.59277 20.3541 5.70191 23.4632 9.53722 23.4632H21.1113V30.8706H9.53722C8.77016 30.8706 8.14833 31.4924 8.14833 32.2595V38.741C8.14833 39.508 8.77016 40.1299 9.53722 40.1299C10.3043 40.1299 10.9261 39.508 10.9261 38.741V33.6484H21.1113V38.741C21.1113 39.508 21.7331 40.1299 22.5002 40.1299C23.2672 40.1299 23.8891 39.508 23.8891 38.741V33.6484H34.0743V38.741C34.0743 39.508 34.6961 40.1299 35.4631 40.1299C36.2302 40.1299 36.852 39.508 36.852 38.741V32.2595C36.852 31.4924 36.2302 30.8706 35.4631 30.8706H23.8891V23.4632H35.4631C39.2985 23.4632 42.4076 20.3541 42.4076 16.5188V12.815C42.4076 8.97974 39.2985 5.87061 35.4631 5.87061H9.53722ZM11.3891 13.278C10.622 13.278 10.0002 13.8998 10.0002 14.6669C10.0002 15.434 10.622 16.0558 11.3891 16.0558H11.4076C12.1747 16.0558 12.7965 15.434 12.7965 14.6669C12.7965 13.8998 12.1747 13.278 11.4076 13.278H11.3891ZM26.2039 13.278C25.4368 13.278 24.815 13.8998 24.815 14.6669C24.815 15.434 25.4368 16.0558 26.2039 16.0558H33.6113C34.3784 16.0558 35.0002 15.434 35.0002 14.6669C35.0002 13.8998 34.3784 13.278 33.6113 13.278H26.2039Z" fill="white"/>
<path fill-rule="evenodd" clip-rule="evenodd" d="M9.53722 5.87061C5.70191 5.87061 2.59277 8.97974 2.59277 12.815V16.5188C2.59277 20.3541 5.70191 23.4632 9.53722 23.4632H21.1113V30.8706H9.53722C8.77016 30.8706 8.14833 31.4924 8.14833 32.2595V38.741C8.14833 39.508 8.77016 40.1299 9.53722 40.1299C10.3043 40.1299 10.9261 39.508 10.9261 38.741V33.6484H21.1113V38.741C21.1113 39.508 21.7331 40.1299 22.5002 40.1299C23.2672 40.1299 23.8891 39.508 23.8891 38.741V33.6484H34.0743V38.741C34.0743 39.508 34.6961 40.1299 35.4631 40.1299C36.2302 40.1299 36.852 39.508 36.852 38.741V32.2595C36.852 31.4924 36.2302 30.8706 35.4631 30.8706H23.8891V23.4632H35.4631C39.2985 23.4632 42.4076 20.3541 42.4076 16.5188V12.815C42.4076 8.97974 39.2985 5.87061 35.4631 5.87061H9.53722ZM11.3891 13.278C10.622 13.278 10.0002 13.8998 10.0002 14.6669C10.0002 15.434 10.622 16.0558 11.3891 16.0558H11.4076C12.1747 16.0558 12.7965 15.434 12.7965 14.6669C12.7965 13.8998 12.1747 13.278 11.4076 13.278H11.3891ZM26.2039 13.278C25.4368 13.278 24.815 13.8998 24.815 14.6669C24.815 15.434 25.4368 16.0558 26.2039 16.0558H33.6113C34.3784 16.0558 35.0002 15.434 35.0002 14.6669C35.0002 13.8998 34.3784 13.278 33.6113 13.278H26.2039Z" fill="url(#paint0_linear_3367_22021)"/>
<path fill-rule="evenodd" clip-rule="evenodd" d="M9.53722 5.87061C5.70191 5.87061 2.59277 8.97974 2.59277 12.815V16.5188C2.59277 20.3541 5.70191 23.4632 9.53722 23.4632H21.1113V30.8706H9.53722C8.77016 30.8706 8.14833 31.4924 8.14833 32.2595V38.741C8.14833 39.508 8.77016 40.1299 9.53722 40.1299C10.3043 40.1299 10.9261 39.508 10.9261 38.741V33.6484H21.1113V38.741C21.1113 39.508 21.7331 40.1299 22.5002 40.1299C23.2672 40.1299 23.8891 39.508 23.8891 38.741V33.6484H34.0743V38.741C34.0743 39.508 34.6961 40.1299 35.4631 40.1299C36.2302 40.1299 36.852 39.508 36.852 38.741V32.2595C36.852 31.4924 36.2302 30.8706 35.4631 30.8706H23.8891V23.4632H35.4631C39.2985 23.4632 42.4076 20.3541 42.4076 16.5188V12.815C42.4076 8.97974 39.2985 5.87061 35.4631 5.87061H9.53722ZM11.3891 13.278C10.622 13.278 10.0002 13.8998 10.0002 14.6669C10.0002 15.434 10.622 16.0558 11.3891 16.0558H11.4076C12.1747 16.0558 12.7965 15.434 12.7965 14.6669C12.7965 13.8998 12.1747 13.278 11.4076 13.278H11.3891ZM26.2039 13.278C25.4368 13.278 24.815 13.8998 24.815 14.6669C24.815 15.434 25.4368 16.0558 26.2039 16.0558H33.6113C34.3784 16.0558 35.0002 15.434 35.0002 14.6669C35.0002 13.8998 34.3784 13.278 33.6113 13.278H26.2039Z" fill="url(#paint1_linear_3367_22021)"/>
<defs>
<linearGradient id="paint0_linear_3367_22021" x1="22.5002" y1="5.87061" x2="22.5002" y2="40.1299" gradientUnits="userSpaceOnUse">
<stop stop-color="#C2CCEA"/>
<stop offset="1" stop-color="#FDCCAB"/>
</linearGradient>
<linearGradient id="paint1_linear_3367_22021" x1="22.5002" y1="5.87061" x2="22.5002" y2="40.1299" gradientUnits="userSpaceOnUse">
<stop stop-color="#9CFF84"/>
<stop offset="1" stop-color="#FF9DEF"/>
</linearGradient>
</defs>
</svg>
