<svg width="30" height="30" viewBox="0 0 30 30" fill="none" xmlns="http://www.w3.org/2000/svg">
<path fill-rule="evenodd" clip-rule="evenodd" d="M13.4508 1.5625C11.7197 1.5625 10.3193 2.96789 10.3193 4.69795C10.3193 5.67081 9.2703 6.27291 8.43518 5.78988C6.93644 4.92304 5.02078 5.43814 4.15651 6.93778L2.60718 9.62609C1.74346 11.1248 2.25535 13.0419 3.75312 13.9082C4.59162 14.3931 4.59162 15.607 3.75312 16.092C2.25536 16.9583 1.74346 18.8754 2.60718 20.374L4.1565 23.0623C5.02078 24.562 6.93645 25.0771 8.43519 24.2102C9.27034 23.7272 10.3193 24.3293 10.3193 25.3021C10.3193 27.0322 11.7197 28.4375 13.4507 28.4375H16.5494C18.2805 28.4375 19.6809 27.0322 19.6809 25.3021C19.6809 24.3293 20.7299 23.7272 21.565 24.2102C23.0638 25.0771 24.9795 24.562 25.8438 23.0623L27.3931 20.374C28.2568 18.8754 27.7449 16.9583 26.2471 16.092C25.4086 15.607 25.4086 14.3931 26.2471 13.9082C27.7449 13.0419 28.2568 11.1248 27.3931 9.62609L25.8438 6.93781C24.9795 5.43815 23.0638 4.92305 21.5651 5.7899C20.7299 6.27293 19.6809 5.67082 19.6809 4.69795C19.6809 2.96788 18.2805 1.5625 16.5494 1.5625H13.4508ZM15.0002 10.9375C12.7565 10.9375 10.9377 12.7563 10.9377 15C10.9377 17.2437 12.7565 19.0625 15.0002 19.0625C17.2438 19.0625 19.0627 17.2437 19.0627 15C19.0627 12.7563 17.2438 10.9375 15.0002 10.9375Z" fill="url(#paint0_linear_4901_28329)"/>
<defs>
<linearGradient id="paint0_linear_4901_28329" x1="15.0001" y1="1.5625" x2="15.9057" y2="28.4069" gradientUnits="userSpaceOnUse">
<stop stop-color="#FFBAC6"/>
<stop offset="1" stop-color="#F3E8B9"/>
</linearGradient>
</defs>
</svg>
