<svg width="30" height="31" viewBox="0 0 30 31" fill="none" xmlns="http://www.w3.org/2000/svg">
<path fill-rule="evenodd" clip-rule="evenodd" d="M13.4508 1.60205C11.7197 1.60205 10.3193 3.00744 10.3193 4.7375C10.3193 5.71036 9.2703 6.31246 8.43518 5.82944C6.93644 4.96259 5.02078 5.47769 4.15651 6.97733L2.60718 9.66564C1.74346 11.1643 2.25535 13.0814 3.75312 13.9477C4.59162 14.4327 4.59162 15.6466 3.75312 16.1315C2.25536 16.9978 1.74346 18.9149 2.60718 20.4136L4.1565 23.1019C5.02078 24.6015 6.93645 25.1166 8.43519 24.2498C9.27034 23.7668 10.3193 24.3689 10.3193 25.3417C10.3193 27.0717 11.7197 28.4771 13.4507 28.4771H16.5494C18.2805 28.4771 19.6809 27.0717 19.6809 25.3417C19.6809 24.3689 20.7299 23.7667 21.565 24.2498C23.0638 25.1166 24.9795 24.6015 25.8438 23.1019L27.3931 20.4136C28.2568 18.9149 27.7449 16.9978 26.2471 16.1315C25.4086 15.6466 25.4086 14.4327 26.2471 13.9477C27.7449 13.0814 28.2568 11.1643 27.3931 9.66564L25.8438 6.97736C24.9795 5.4777 23.0638 4.9626 21.5651 5.82945C20.7299 6.31249 19.6809 5.71037 19.6809 4.73751C19.6809 3.00743 18.2805 1.60205 16.5494 1.60205H13.4508ZM15.0002 10.9771C12.7565 10.9771 10.9377 12.7959 10.9377 15.0396C10.9377 17.2832 12.7565 19.1021 15.0002 19.1021C17.2438 19.1021 19.0627 17.2832 19.0627 15.0396C19.0627 12.7959 17.2438 10.9771 15.0002 10.9771Z" fill="white"/>
<path fill-rule="evenodd" clip-rule="evenodd" d="M13.4508 1.60205C11.7197 1.60205 10.3193 3.00744 10.3193 4.7375C10.3193 5.71036 9.2703 6.31246 8.43518 5.82944C6.93644 4.96259 5.02078 5.47769 4.15651 6.97733L2.60718 9.66564C1.74346 11.1643 2.25535 13.0814 3.75312 13.9477C4.59162 14.4327 4.59162 15.6466 3.75312 16.1315C2.25536 16.9978 1.74346 18.9149 2.60718 20.4136L4.1565 23.1019C5.02078 24.6015 6.93645 25.1166 8.43519 24.2498C9.27034 23.7668 10.3193 24.3689 10.3193 25.3417C10.3193 27.0717 11.7197 28.4771 13.4507 28.4771H16.5494C18.2805 28.4771 19.6809 27.0717 19.6809 25.3417C19.6809 24.3689 20.7299 23.7667 21.565 24.2498C23.0638 25.1166 24.9795 24.6015 25.8438 23.1019L27.3931 20.4136C28.2568 18.9149 27.7449 16.9978 26.2471 16.1315C25.4086 15.6466 25.4086 14.4327 26.2471 13.9477C27.7449 13.0814 28.2568 11.1643 27.3931 9.66564L25.8438 6.97736C24.9795 5.4777 23.0638 4.9626 21.5651 5.82945C20.7299 6.31249 19.6809 5.71037 19.6809 4.73751C19.6809 3.00743 18.2805 1.60205 16.5494 1.60205H13.4508ZM15.0002 10.9771C12.7565 10.9771 10.9377 12.7959 10.9377 15.0396C10.9377 17.2832 12.7565 19.1021 15.0002 19.1021C17.2438 19.1021 19.0627 17.2832 19.0627 15.0396C19.0627 12.7959 17.2438 10.9771 15.0002 10.9771Z" fill="url(#paint0_linear_3340_16275)"/>
<defs>
<linearGradient id="paint0_linear_3340_16275" x1="15.0001" y1="1.60205" x2="15.0001" y2="28.4771" gradientUnits="userSpaceOnUse">
<stop stop-color="#C2CCEA"/>
<stop offset="1" stop-color="#FDCCAB"/>
</linearGradient>
</defs>
</svg>
