<svg width="31" height="30" viewBox="0 0 31 30" fill="none" xmlns="http://www.w3.org/2000/svg">
<path fill-rule="evenodd" clip-rule="evenodd" d="M20.9585 5.9375C19.7504 5.9375 18.771 6.91688 18.771 8.125C18.771 9.33312 19.7504 10.3125 20.9585 10.3125C22.1666 10.3125 23.146 9.33312 23.146 8.125C23.146 6.91688 22.1666 5.9375 20.9585 5.9375ZM16.896 8.125C16.896 5.88134 18.7148 4.0625 20.9585 4.0625C23.2022 4.0625 25.021 5.88134 25.021 8.125C25.021 10.3687 23.2022 12.1875 20.9585 12.1875C19.6131 12.1875 18.4204 11.5335 17.6811 10.526L12.234 13.4972C12.4192 13.962 12.521 14.4691 12.521 15C12.521 15.8459 12.2625 16.6314 11.8201 17.2818L17.1708 20.4031C17.7604 18.887 19.234 17.8125 20.9585 17.8125C23.2022 17.8125 25.021 19.6313 25.021 21.875C25.021 24.1187 23.2022 25.9375 20.9585 25.9375C18.9051 25.9375 17.2076 24.4141 16.9344 22.4359L10.3511 18.5956C9.78593 18.8937 9.14192 19.0625 8.4585 19.0625C6.21484 19.0625 4.396 17.2437 4.396 15C4.396 12.7563 6.21484 10.9375 8.4585 10.9375C9.48943 10.9375 10.4307 11.3215 11.147 11.9543L16.95 8.78901C16.9145 8.57294 16.896 8.35113 16.896 8.125ZM10.1984 13.674C9.79877 13.1504 9.16809 12.8125 8.4585 12.8125C7.25037 12.8125 6.271 13.7919 6.271 15C6.271 16.2081 7.25037 17.1875 8.4585 17.1875C8.94279 17.1875 9.39033 17.0301 9.75276 16.7637C9.76432 16.7546 9.77607 16.7458 9.788 16.7373C10.3096 16.3375 10.646 15.708 10.646 15C10.646 14.5145 10.4878 14.0659 10.2202 13.703C10.2128 13.6935 10.2055 13.6839 10.1984 13.674ZM20.9585 19.6875C19.7504 19.6875 18.771 20.6669 18.771 21.875C18.771 23.0831 19.7504 24.0625 20.9585 24.0625C22.1666 24.0625 23.146 23.0831 23.146 21.875C23.146 20.6669 22.1666 19.6875 20.9585 19.6875Z" fill="white"/>
<path fill-rule="evenodd" clip-rule="evenodd" d="M20.9585 5.9375C19.7504 5.9375 18.771 6.91688 18.771 8.125C18.771 9.33312 19.7504 10.3125 20.9585 10.3125C22.1666 10.3125 23.146 9.33312 23.146 8.125C23.146 6.91688 22.1666 5.9375 20.9585 5.9375ZM16.896 8.125C16.896 5.88134 18.7148 4.0625 20.9585 4.0625C23.2022 4.0625 25.021 5.88134 25.021 8.125C25.021 10.3687 23.2022 12.1875 20.9585 12.1875C19.6131 12.1875 18.4204 11.5335 17.6811 10.526L12.234 13.4972C12.4192 13.962 12.521 14.4691 12.521 15C12.521 15.8459 12.2625 16.6314 11.8201 17.2818L17.1708 20.4031C17.7604 18.887 19.234 17.8125 20.9585 17.8125C23.2022 17.8125 25.021 19.6313 25.021 21.875C25.021 24.1187 23.2022 25.9375 20.9585 25.9375C18.9051 25.9375 17.2076 24.4141 16.9344 22.4359L10.3511 18.5956C9.78593 18.8937 9.14192 19.0625 8.4585 19.0625C6.21484 19.0625 4.396 17.2437 4.396 15C4.396 12.7563 6.21484 10.9375 8.4585 10.9375C9.48943 10.9375 10.4307 11.3215 11.147 11.9543L16.95 8.78901C16.9145 8.57294 16.896 8.35113 16.896 8.125ZM10.1984 13.674C9.79877 13.1504 9.16809 12.8125 8.4585 12.8125C7.25037 12.8125 6.271 13.7919 6.271 15C6.271 16.2081 7.25037 17.1875 8.4585 17.1875C8.94279 17.1875 9.39033 17.0301 9.75276 16.7637C9.76432 16.7546 9.77607 16.7458 9.788 16.7373C10.3096 16.3375 10.646 15.708 10.646 15C10.646 14.5145 10.4878 14.0659 10.2202 13.703C10.2128 13.6935 10.2055 13.6839 10.1984 13.674ZM20.9585 19.6875C19.7504 19.6875 18.771 20.6669 18.771 21.875C18.771 23.0831 19.7504 24.0625 20.9585 24.0625C22.1666 24.0625 23.146 23.0831 23.146 21.875C23.146 20.6669 22.1666 19.6875 20.9585 19.6875Z" fill="url(#paint0_linear_3367_23419)"/>
<defs>
<linearGradient id="paint0_linear_3367_23419" x1="14.7085" y1="4.0625" x2="14.7085" y2="25.9375" gradientUnits="userSpaceOnUse">
<stop stop-color="#C2CCEA"/>
<stop offset="1" stop-color="#FDCCAB"/>
</linearGradient>
</defs>
</svg>
