<svg width="30" height="30" viewBox="0 0 30 30" fill="none" xmlns="http://www.w3.org/2000/svg">
<path fill-rule="evenodd" clip-rule="evenodd" d="M20.625 5.9375C19.4169 5.9375 18.4375 6.91688 18.4375 8.125C18.4375 9.33312 19.4169 10.3125 20.625 10.3125C21.8331 10.3125 22.8125 9.33312 22.8125 8.125C22.8125 6.91688 21.8331 5.9375 20.625 5.9375ZM16.5625 8.125C16.5625 5.88134 18.3813 4.0625 20.625 4.0625C22.8687 4.0625 24.6875 5.88134 24.6875 8.125C24.6875 10.3687 22.8687 12.1875 20.625 12.1875C19.2796 12.1875 18.0869 11.5335 17.3476 10.526L11.9005 13.4972C12.0857 13.962 12.1875 14.4691 12.1875 15C12.1875 15.8459 11.929 16.6314 11.4866 17.2818L16.8373 20.4031C17.4269 18.887 18.9005 17.8125 20.625 17.8125C22.8687 17.8125 24.6875 19.6313 24.6875 21.875C24.6875 24.1187 22.8687 25.9375 20.625 25.9375C18.5716 25.9375 16.8741 24.4141 16.6009 22.4359L10.0176 18.5956C9.45243 18.8937 8.80842 19.0625 8.125 19.0625C5.88134 19.0625 4.0625 17.2437 4.0625 15C4.0625 12.7563 5.88134 10.9375 8.125 10.9375C9.15593 10.9375 10.0972 11.3215 10.8135 11.9543L16.6165 8.78901C16.581 8.57294 16.5625 8.35113 16.5625 8.125ZM9.86495 13.674C9.46528 13.1504 8.8346 12.8125 8.125 12.8125C6.91688 12.8125 5.9375 13.7919 5.9375 15C5.9375 16.2081 6.91688 17.1875 8.125 17.1875C8.6093 17.1875 9.05683 17.0301 9.41926 16.7637C9.43082 16.7546 9.44257 16.7458 9.4545 16.7373C9.97614 16.3375 10.3125 15.708 10.3125 15C10.3125 14.5145 10.1543 14.0659 9.88672 13.703C9.8793 13.6935 9.87204 13.6839 9.86495 13.674ZM20.625 19.6875C19.4169 19.6875 18.4375 20.6669 18.4375 21.875C18.4375 23.0831 19.4169 24.0625 20.625 24.0625C21.8331 24.0625 22.8125 23.0831 22.8125 21.875C22.8125 20.6669 21.8331 19.6875 20.625 19.6875Z" fill="url(#paint0_linear_3392_14665)"/>
<defs>
<linearGradient id="paint0_linear_3392_14665" x1="14.375" y1="4.0625" x2="15.1204" y2="25.9121" gradientUnits="userSpaceOnUse">
<stop stop-color="#FFBAC6"/>
<stop offset="1" stop-color="#F3E8B9"/>
</linearGradient>
</defs>
</svg>
