<svg width="30" height="30" viewBox="0 0 30 30" fill="none" xmlns="http://www.w3.org/2000/svg">
<path fill-rule="evenodd" clip-rule="evenodd" d="M10.8367 3.72446C11.179 2.62445 12.197 1.875 13.349 1.875H15.401C16.553 1.875 17.571 2.62445 17.9133 3.72446C18.1222 4.39617 18.724 4.8693 19.4261 4.91387L23.3229 5.16129C24.4416 5.23232 25.3125 6.16031 25.3125 7.2812V13.1036C25.3125 18.4155 22.6661 23.3782 18.2552 26.3379L15.5938 28.1237C14.8566 28.6184 13.8934 28.6184 13.1562 28.1237L10.4948 26.3379C6.08393 23.3782 3.4375 18.4155 3.4375 13.1036V7.2812C3.4375 6.16031 4.30844 5.23232 5.42708 5.16129L9.32394 4.91387C10.026 4.8693 10.6278 4.39617 10.8367 3.72446Z" fill="white"/>
<path fill-rule="evenodd" clip-rule="evenodd" d="M10.8367 3.72446C11.179 2.62445 12.197 1.875 13.349 1.875H15.401C16.553 1.875 17.571 2.62445 17.9133 3.72446C18.1222 4.39617 18.724 4.8693 19.4261 4.91387L23.3229 5.16129C24.4416 5.23232 25.3125 6.16031 25.3125 7.2812V13.1036C25.3125 18.4155 22.6661 23.3782 18.2552 26.3379L15.5938 28.1237C14.8566 28.6184 13.8934 28.6184 13.1562 28.1237L10.4948 26.3379C6.08393 23.3782 3.4375 18.4155 3.4375 13.1036V7.2812C3.4375 6.16031 4.30844 5.23232 5.42708 5.16129L9.32394 4.91387C10.026 4.8693 10.6278 4.39617 10.8367 3.72446Z" fill="url(#paint0_linear_3405_24947)"/>
<defs>
<linearGradient id="paint0_linear_3405_24947" x1="14.375" y1="1.875" x2="14.375" y2="28.4947" gradientUnits="userSpaceOnUse">
<stop stop-color="#C2CCEA"/>
<stop offset="1" stop-color="#FDCCAB"/>
</linearGradient>
</defs>
</svg>
