<svg width="31" height="30" viewBox="0 0 31 30" fill="none" xmlns="http://www.w3.org/2000/svg">
<path fill-rule="evenodd" clip-rule="evenodd" d="M12.3943 15.2837C12.7554 15.6548 12.7473 16.2484 12.3762 16.6094L8.8914 20H24.0835C24.6013 20 25.021 20.4197 25.021 20.9375C25.021 21.4553 24.6013 21.875 24.0835 21.875H8.8914L12.3762 25.2656C12.7473 25.6266 12.7554 26.2202 12.3943 26.5913C12.0332 26.9624 11.4397 26.9705 11.0686 26.6094L5.92973 21.6094C5.74833 21.4329 5.646 21.1906 5.646 20.9375C5.646 20.6844 5.74833 20.4421 5.92973 20.2656L11.0686 15.2656C11.4397 14.9045 12.0332 14.9126 12.3943 15.2837Z" fill="url(#paint0_linear_4901_24630)"/>
<path fill-rule="evenodd" clip-rule="evenodd" d="M18.2727 4.03373C17.9116 4.40483 17.9197 4.99836 18.2908 5.35943L21.7756 8.75H6.5835C6.06573 8.75 5.646 9.16973 5.646 9.6875C5.646 10.2053 6.06573 10.625 6.5835 10.625H21.7756L18.2908 14.0156C17.9197 14.3766 17.9116 14.9702 18.2727 15.3413C18.6337 15.7124 19.2273 15.7205 19.5984 15.3594L24.7373 10.3594C24.9187 10.1829 25.021 9.94059 25.021 9.6875C25.021 9.43441 24.9187 9.19207 24.7373 9.01557L19.5984 4.01557C19.2273 3.6545 18.6337 3.66263 18.2727 4.03373Z" fill="url(#paint1_linear_4901_24630)"/>
<defs>
<linearGradient id="paint0_linear_4901_24630" x1="15.3335" y1="3.75" x2="16.22" y2="26.841" gradientUnits="userSpaceOnUse">
<stop stop-color="#FFBAC6"/>
<stop offset="1" stop-color="#F3E8B9"/>
</linearGradient>
<linearGradient id="paint1_linear_4901_24630" x1="15.3335" y1="3.75" x2="16.22" y2="26.841" gradientUnits="userSpaceOnUse">
<stop stop-color="#FFBAC6"/>
<stop offset="1" stop-color="#F3E8B9"/>
</linearGradient>
</defs>
</svg>
