<svg width="31" height="30" viewBox="0 0 31 30" fill="none" xmlns="http://www.w3.org/2000/svg">
<path fill-rule="evenodd" clip-rule="evenodd" d="M10.6472 8.74822C10.6482 6.16038 12.7467 4.0625 15.3347 4.0625C17.9234 4.0625 20.0222 6.16134 20.0222 8.75C20.0222 11.3398 17.9232 13.4375 15.3347 13.4375H15.3041C12.7225 13.4289 10.6384 11.3291 10.6472 8.74822ZM10.6472 8.74822L10.6472 8.74643L10.6472 8.75L10.6472 8.74822ZM7.45688 19.0248C9.01981 16.4093 11.6792 14.6876 15.3347 14.6875C18.9902 14.6874 21.6496 16.4092 23.2126 19.0249C24.5894 21.3291 23.3035 24.0159 20.9745 25.028C17.2254 26.6573 13.444 26.6573 9.69491 25.028C7.3659 24.0158 6.08003 21.329 7.45688 19.0248Z" fill="white"/>
<path fill-rule="evenodd" clip-rule="evenodd" d="M10.6472 8.74822C10.6482 6.16038 12.7467 4.0625 15.3347 4.0625C17.9234 4.0625 20.0222 6.16134 20.0222 8.75C20.0222 11.3398 17.9232 13.4375 15.3347 13.4375H15.3041C12.7225 13.4289 10.6384 11.3291 10.6472 8.74822ZM10.6472 8.74822L10.6472 8.74643L10.6472 8.75L10.6472 8.74822ZM7.45688 19.0248C9.01981 16.4093 11.6792 14.6876 15.3347 14.6875C18.9902 14.6874 21.6496 16.4092 23.2126 19.0249C24.5894 21.3291 23.3035 24.0159 20.9745 25.028C17.2254 26.6573 13.444 26.6573 9.69491 25.028C7.3659 24.0158 6.08003 21.329 7.45688 19.0248Z" fill="url(#paint0_linear_3392_26576)"/>
<defs>
<linearGradient id="paint0_linear_3392_26576" x1="15.3347" y1="4.0625" x2="15.3347" y2="26.25" gradientUnits="userSpaceOnUse">
<stop stop-color="#C2CCEA"/>
<stop offset="1" stop-color="#FDCCAB"/>
</linearGradient>
</defs>
</svg>
