<svg width="30" height="30" viewBox="0 0 30 30" fill="none" xmlns="http://www.w3.org/2000/svg">
<path fill-rule="evenodd" clip-rule="evenodd" d="M10.5363 21.3024C10.8721 21.6965 11.4638 21.7439 11.8579 21.4081L14.0625 19.5301L14.0625 26.25C14.0625 26.7678 14.4822 27.1875 15 27.1875C15.5178 27.1875 15.9375 26.7678 15.9375 26.25V19.5301L18.1421 21.4081C18.5362 21.7439 19.1279 21.6965 19.4637 21.3024C19.7994 20.9082 19.7521 20.3165 19.3579 19.9808L15.6079 16.7863C15.2576 16.4879 14.7424 16.4879 14.3921 16.7863L10.6421 19.9808C10.2479 20.3165 10.2006 20.9082 10.5363 21.3024Z" fill="url(#paint0_linear_3367_19563)"/>
<path fill-rule="evenodd" clip-rule="evenodd" d="M10.5363 21.3024C10.8721 21.6965 11.4638 21.7439 11.8579 21.4081L14.0625 19.5301L14.0625 26.25C14.0625 26.7678 14.4822 27.1875 15 27.1875C15.5178 27.1875 15.9375 26.7678 15.9375 26.25V19.5301L18.1421 21.4081C18.5362 21.7439 19.1279 21.6965 19.4637 21.3024C19.7994 20.9082 19.7521 20.3165 19.3579 19.9808L15.6079 16.7863C15.2576 16.4879 14.7424 16.4879 14.3921 16.7863L10.6421 19.9808C10.2479 20.3165 10.2006 20.9082 10.5363 21.3024Z" fill="url(#paint1_linear_3367_19563)"/>
<path fill-rule="evenodd" clip-rule="evenodd" d="M10.5363 21.3024C10.8721 21.6965 11.4638 21.7439 11.8579 21.4081L14.0625 19.5301L14.0625 26.25C14.0625 26.7678 14.4822 27.1875 15 27.1875C15.5178 27.1875 15.9375 26.7678 15.9375 26.25V19.5301L18.1421 21.4081C18.5362 21.7439 19.1279 21.6965 19.4637 21.3024C19.7994 20.9082 19.7521 20.3165 19.3579 19.9808L15.6079 16.7863C15.2576 16.4879 14.7424 16.4879 14.3921 16.7863L10.6421 19.9808C10.2479 20.3165 10.2006 20.9082 10.5363 21.3024Z" fill="url(#paint2_linear_3367_19563)"/>
<path d="M17.5 2.8125C21.3661 2.8125 24.5193 5.86491 24.681 9.69122C26.9007 10.7427 28.4375 13.0034 28.4375 15.625C28.4375 19.2494 25.4994 22.1875 21.875 22.1875H21.1373C21.2113 21.803 21.25 21.406 21.25 21C21.25 17.5482 18.4518 14.75 15 14.75C11.5482 14.75 8.75 17.5482 8.75 21C8.75 21.406 8.78872 21.803 8.86267 22.1875H8.125C4.50063 22.1875 1.5625 19.2494 1.5625 15.625C1.5625 12.0006 4.50063 9.0625 8.125 9.0625C8.89932 9.0625 9.64312 9.19693 10.3337 9.44374C10.6176 5.73413 13.7176 2.8125 17.5 2.8125Z" fill="url(#paint3_linear_3367_19563)"/>
<path d="M17.5 2.8125C21.3661 2.8125 24.5193 5.86491 24.681 9.69122C26.9007 10.7427 28.4375 13.0034 28.4375 15.625C28.4375 19.2494 25.4994 22.1875 21.875 22.1875H21.1373C21.2113 21.803 21.25 21.406 21.25 21C21.25 17.5482 18.4518 14.75 15 14.75C11.5482 14.75 8.75 17.5482 8.75 21C8.75 21.406 8.78872 21.803 8.86267 22.1875H8.125C4.50063 22.1875 1.5625 19.2494 1.5625 15.625C1.5625 12.0006 4.50063 9.0625 8.125 9.0625C8.89932 9.0625 9.64312 9.19693 10.3337 9.44374C10.6176 5.73413 13.7176 2.8125 17.5 2.8125Z" fill="url(#paint4_linear_3367_19563)"/>
<path d="M17.5 2.8125C21.3661 2.8125 24.5193 5.86491 24.681 9.69122C26.9007 10.7427 28.4375 13.0034 28.4375 15.625C28.4375 19.2494 25.4994 22.1875 21.875 22.1875H21.1373C21.2113 21.803 21.25 21.406 21.25 21C21.25 17.5482 18.4518 14.75 15 14.75C11.5482 14.75 8.75 17.5482 8.75 21C8.75 21.406 8.78872 21.803 8.86267 22.1875H8.125C4.50063 22.1875 1.5625 19.2494 1.5625 15.625C1.5625 12.0006 4.50063 9.0625 8.125 9.0625C8.89932 9.0625 9.64312 9.19693 10.3337 9.44374C10.6176 5.73413 13.7176 2.8125 17.5 2.8125Z" fill="url(#paint5_linear_3367_19563)"/>
<defs>
<linearGradient id="paint0_linear_3367_19563" x1="15" y1="2.8125" x2="15.7105" y2="27.1668" gradientUnits="userSpaceOnUse">
<stop stop-color="#FFBAC6"/>
<stop offset="1" stop-color="#F3E8B9"/>
</linearGradient>
<linearGradient id="paint1_linear_3367_19563" x1="15" y1="2.8125" x2="15" y2="27.1875" gradientUnits="userSpaceOnUse">
<stop stop-color="#A6FFD4"/>
<stop offset="1" stop-color="#9FEEFF"/>
</linearGradient>
<linearGradient id="paint2_linear_3367_19563" x1="15" y1="2.8125" x2="15.7105" y2="27.1668" gradientUnits="userSpaceOnUse">
<stop stop-color="#DEDDFF"/>
<stop offset="1" stop-color="#FFF3F3"/>
</linearGradient>
<linearGradient id="paint3_linear_3367_19563" x1="15" y1="2.8125" x2="15.7105" y2="27.1668" gradientUnits="userSpaceOnUse">
<stop stop-color="#FFBAC6"/>
<stop offset="1" stop-color="#F3E8B9"/>
</linearGradient>
<linearGradient id="paint4_linear_3367_19563" x1="15" y1="2.8125" x2="15" y2="27.1875" gradientUnits="userSpaceOnUse">
<stop stop-color="#A6FFD4"/>
<stop offset="1" stop-color="#9FEEFF"/>
</linearGradient>
<linearGradient id="paint5_linear_3367_19563" x1="15" y1="2.8125" x2="15.7105" y2="27.1668" gradientUnits="userSpaceOnUse">
<stop stop-color="#DEDDFF"/>
<stop offset="1" stop-color="#FFF3F3"/>
</linearGradient>
</defs>
</svg>
