<svg width="225" height="240" viewBox="0 0 225 240" fill="none" xmlns="http://www.w3.org/2000/svg">
<g opacity="0.5">
<rect x="96" y="94" width="28.313" height="28.313" rx="8" stroke="#B1DADA"/>
</g>
<g opacity="0.5">
<rect x="196" y="94" width="28.313" height="28.313" rx="8" stroke="#B1DADA"/>
</g>
<g opacity="0.5">
<rect x="152.75" y="127.404" width="28.313" height="28.313" rx="8" fill="#C8EBEA"/>
<rect x="152.75" y="127.404" width="28.313" height="28.313" rx="8" stroke="#B1DADA"/>
</g>
<g opacity="0.5">
<rect x="55" y="41" width="28.313" height="28.313" rx="8" fill="#C8EBEA"/>
<rect x="55" y="41" width="28.313" height="28.313" rx="8" stroke="#B1DADA"/>
</g>
<g opacity="0.5">
<rect x="96.125" y="126.571" width="28.313" height="28.313" rx="8" stroke="#B1DADA"/>
</g>
<g opacity="0.5">
<rect x="21" y="94.3755" width="28.313" height="28.313" rx="8" stroke="#B1DADA"/>
</g>
<g opacity="0.5">
<rect x="153" y="94" width="28.313" height="28.313" rx="8" stroke="#B1DADA"/>
</g>
<g opacity="0.5">
<rect x="128" y="29" width="28.313" height="28.313" rx="8" stroke="#B1DADA"/>
</g>
<g opacity="0.5">
<rect x="97" y="1" width="28.313" height="28.313" rx="8" stroke="#B1DADA"/>
</g>
<g opacity="0.5">
<rect x="1" y="156" width="28.313" height="28.313" rx="8" stroke="#B1DADA"/>
</g>
<g opacity="0.5">
<rect x="196" y="161" width="28.313" height="28.313" rx="8" stroke="#B1DADA"/>
</g>
<g opacity="0.5">
<rect x="125" y="161" width="28.313" height="28.313" rx="8" stroke="#B1DADA"/>
</g>
<g opacity="0.5">
<rect x="21" y="209" width="28.313" height="28.313" rx="8" stroke="#B1DADA"/>
</g>
<g opacity="0.5">
<rect x="55.3203" y="155.717" width="28.313" height="28.313" rx="8" fill="#C8EBEA"/>
<rect x="55.3203" y="155.717" width="28.313" height="28.313" rx="8" stroke="#B1DADA"/>
</g>
</svg>
