<svg width="237" height="222" viewBox="0 0 237 222" fill="none" xmlns="http://www.w3.org/2000/svg">
<g opacity="0.5">
<rect width="28.313" height="28.313" rx="8" transform="matrix(1 0 0 -1 104.761 171.29)" stroke="#ACC3C4"/>
</g>
<g opacity="0.5">
<rect width="28.313" height="28.313" rx="8" transform="matrix(1 0 0 -1 176.376 172.123)" stroke="#ACC3C4"/>
</g>
<g opacity="0.5">
<rect width="28.313" height="28.313" rx="8" transform="matrix(1 0 0 -1 133.073 138.813)" fill="#CAD7DB"/>
<rect width="28.313" height="28.313" rx="8" transform="matrix(1 0 0 -1 133.073 138.813)" stroke="#ACC3C4"/>
</g>
<g opacity="0.5">
<rect width="28.313" height="28.313" rx="8" transform="matrix(1 0 0 -1 193.638 221.218)" fill="#CAD7DB"/>
<rect width="28.313" height="28.313" rx="8" transform="matrix(1 0 0 -1 193.638 221.218)" stroke="#ACC3C4"/>
</g>
<g opacity="0.5">
<rect width="28.313" height="28.313" rx="8" transform="matrix(1 0 0 -1 76.4482 139.646)" stroke="#ACC3C4"/>
</g>
<g opacity="0.5">
<rect width="28.313" height="28.313" rx="8" transform="matrix(1 0 0 -1 1.32324 171.842)" stroke="#ACC3C4"/>
</g>
<g opacity="0.5">
<rect width="28.313" height="28.313" rx="8" transform="matrix(1 0 0 -1 104.761 110.5)" stroke="#ACC3C4"/>
</g>
<g opacity="0.5">
<rect width="28.313" height="28.313" rx="8" transform="matrix(1 0 0 -1 208.021 110.5)" stroke="#ACC3C4"/>
</g>
<g opacity="0.5">
<rect width="28.313" height="28.313" rx="8" transform="matrix(1 0 0 -1 141.399 31.3906)" stroke="#ACC3C4"/>
</g>
<g opacity="0.5">
<rect width="28.313" height="28.313" rx="8" transform="matrix(1 0 0 -1 35.6436 110.5)" fill="#CAD7DB"/>
<rect width="28.313" height="28.313" rx="8" transform="matrix(1 0 0 -1 35.6436 110.5)" stroke="#ACC3C4"/>
</g>
</svg>
