<svg width="31" height="30" viewBox="0 0 31 30" fill="none" xmlns="http://www.w3.org/2000/svg">
<path fill-rule="evenodd" clip-rule="evenodd" d="M4.08598 15C4.08598 17.3405 4.73016 19.5305 5.84855 21.39C5.77113 21.6275 5.65 21.9637 5.47668 22.3536C5.12232 23.1507 4.56551 24.1367 3.7482 24.9675C3.49847 25.2214 3.41413 25.5948 3.5305 25.9314C3.64688 26.2679 3.94388 26.5095 4.29707 26.5549C6.81804 26.8787 8.5939 26.7431 9.77018 26.5062C10.358 26.3879 10.7937 26.2447 11.0955 26.1227L11.1006 26.1206C12.5871 26.806 14.2359 27.1875 15.97 27.1875C22.5574 27.1875 27.854 21.7066 27.854 15C27.854 8.29336 22.5574 2.8125 15.97 2.8125C9.38264 2.8125 4.08598 8.29336 4.08598 15ZM14.9467 11.875C14.9467 11.3572 14.527 10.9375 14.0092 10.9375C13.4914 10.9375 13.0717 11.3572 13.0717 11.875V14.0179C13.0717 14.5356 13.4914 14.9554 14.0092 14.9554C14.527 14.9554 14.9467 14.5356 14.9467 14.0179V11.875ZM19.5113 11.875C19.5113 11.3572 19.0916 10.9375 18.5738 10.9375C18.056 10.9375 17.6363 11.3572 17.6363 11.875V14.0179C17.6363 14.5356 18.056 14.9554 18.5738 14.9554C19.0916 14.9554 19.5113 14.5356 19.5113 14.0179V11.875ZM12.0605 16.5681C11.7644 16.1434 11.18 16.0391 10.7553 16.3353C10.3306 16.6314 10.2264 17.2158 10.5225 17.6405C11.6755 19.294 13.6537 20.3125 16.2915 20.3125C18.9293 20.3125 20.9075 19.294 22.0605 17.6405C22.3567 17.2158 22.2524 16.6314 21.8277 16.3353C21.403 16.0391 20.8186 16.1434 20.5225 16.5681C19.7761 17.6385 18.421 18.4375 16.2915 18.4375C14.162 18.4375 12.8069 17.6385 12.0605 16.5681Z" fill="url(#paint0_linear_3419_19505)"/>
<path fill-rule="evenodd" clip-rule="evenodd" d="M4.08598 15C4.08598 17.3405 4.73016 19.5305 5.84855 21.39C5.77113 21.6275 5.65 21.9637 5.47668 22.3536C5.12232 23.1507 4.56551 24.1367 3.7482 24.9675C3.49847 25.2214 3.41413 25.5948 3.5305 25.9314C3.64688 26.2679 3.94388 26.5095 4.29707 26.5549C6.81804 26.8787 8.5939 26.7431 9.77018 26.5062C10.358 26.3879 10.7937 26.2447 11.0955 26.1227L11.1006 26.1206C12.5871 26.806 14.2359 27.1875 15.97 27.1875C22.5574 27.1875 27.854 21.7066 27.854 15C27.854 8.29336 22.5574 2.8125 15.97 2.8125C9.38264 2.8125 4.08598 8.29336 4.08598 15ZM14.9467 11.875C14.9467 11.3572 14.527 10.9375 14.0092 10.9375C13.4914 10.9375 13.0717 11.3572 13.0717 11.875V14.0179C13.0717 14.5356 13.4914 14.9554 14.0092 14.9554C14.527 14.9554 14.9467 14.5356 14.9467 14.0179V11.875ZM19.5113 11.875C19.5113 11.3572 19.0916 10.9375 18.5738 10.9375C18.056 10.9375 17.6363 11.3572 17.6363 11.875V14.0179C17.6363 14.5356 18.056 14.9554 18.5738 14.9554C19.0916 14.9554 19.5113 14.5356 19.5113 14.0179V11.875ZM12.0605 16.5681C11.7644 16.1434 11.18 16.0391 10.7553 16.3353C10.3306 16.6314 10.2264 17.2158 10.5225 17.6405C11.6755 19.294 13.6537 20.3125 16.2915 20.3125C18.9293 20.3125 20.9075 19.294 22.0605 17.6405C22.3567 17.2158 22.2524 16.6314 21.8277 16.3353C21.403 16.0391 20.8186 16.1434 20.5225 16.5681C19.7761 17.6385 18.421 18.4375 16.2915 18.4375C14.162 18.4375 12.8069 17.6385 12.0605 16.5681Z" fill="url(#paint1_linear_3419_19505)"/>
<path fill-rule="evenodd" clip-rule="evenodd" d="M4.08598 15C4.08598 17.3405 4.73016 19.5305 5.84855 21.39C5.77113 21.6275 5.65 21.9637 5.47668 22.3536C5.12232 23.1507 4.56551 24.1367 3.7482 24.9675C3.49847 25.2214 3.41413 25.5948 3.5305 25.9314C3.64688 26.2679 3.94388 26.5095 4.29707 26.5549C6.81804 26.8787 8.5939 26.7431 9.77018 26.5062C10.358 26.3879 10.7937 26.2447 11.0955 26.1227L11.1006 26.1206C12.5871 26.806 14.2359 27.1875 15.97 27.1875C22.5574 27.1875 27.854 21.7066 27.854 15C27.854 8.29336 22.5574 2.8125 15.97 2.8125C9.38264 2.8125 4.08598 8.29336 4.08598 15ZM14.9467 11.875C14.9467 11.3572 14.527 10.9375 14.0092 10.9375C13.4914 10.9375 13.0717 11.3572 13.0717 11.875V14.0179C13.0717 14.5356 13.4914 14.9554 14.0092 14.9554C14.527 14.9554 14.9467 14.5356 14.9467 14.0179V11.875ZM19.5113 11.875C19.5113 11.3572 19.0916 10.9375 18.5738 10.9375C18.056 10.9375 17.6363 11.3572 17.6363 11.875V14.0179C17.6363 14.5356 18.056 14.9554 18.5738 14.9554C19.0916 14.9554 19.5113 14.5356 19.5113 14.0179V11.875ZM12.0605 16.5681C11.7644 16.1434 11.18 16.0391 10.7553 16.3353C10.3306 16.6314 10.2264 17.2158 10.5225 17.6405C11.6755 19.294 13.6537 20.3125 16.2915 20.3125C18.9293 20.3125 20.9075 19.294 22.0605 17.6405C22.3567 17.2158 22.2524 16.6314 21.8277 16.3353C21.403 16.0391 20.8186 16.1434 20.5225 16.5681C19.7761 17.6385 18.421 18.4375 16.2915 18.4375C14.162 18.4375 12.8069 17.6385 12.0605 16.5681Z" fill="url(#paint2_linear_3419_19505)"/>
<defs>
<linearGradient id="paint0_linear_3419_19505" x1="15.6665" y1="2.8125" x2="16.4498" y2="27.1623" gradientUnits="userSpaceOnUse">
<stop stop-color="#FFBAC6"/>
<stop offset="1" stop-color="#F3E8B9"/>
</linearGradient>
<linearGradient id="paint1_linear_3419_19505" x1="15.6665" y1="2.8125" x2="15.6665" y2="27.1875" gradientUnits="userSpaceOnUse">
<stop stop-color="#B5FFDC"/>
<stop offset="1" stop-color="#7FDEF3"/>
</linearGradient>
<linearGradient id="paint2_linear_3419_19505" x1="15.6665" y1="2.8125" x2="16.4498" y2="27.1623" gradientUnits="userSpaceOnUse">
<stop stop-color="#DEDDFF"/>
<stop offset="1" stop-color="#FAD1D1"/>
</linearGradient>
</defs>
</svg>
