<svg width="31" height="30" viewBox="0 0 31 30" fill="none" xmlns="http://www.w3.org/2000/svg">
<path fill-rule="evenodd" clip-rule="evenodd" d="M1.896 9.13961C1.896 6.3356 4.1691 4.0625 6.97311 4.0625H23.6939C26.4979 4.0625 28.771 6.33559 28.771 9.13961V20.1786C28.771 22.9826 26.4979 25.2557 23.6939 25.2557H6.97311C4.1691 25.2557 1.896 22.9826 1.896 20.1786V9.13961ZM5.49298 9.09698C5.80364 8.68277 6.39126 8.59882 6.80548 8.90948L15.0685 15.1067C15.2257 15.2247 15.442 15.2247 15.5993 15.1067L23.8623 8.90948C24.2765 8.59882 24.8641 8.68277 25.1748 9.09698C25.4855 9.51119 25.4015 10.0988 24.9873 10.4095L16.7243 16.6067C15.9004 17.2247 14.7674 17.2247 13.9435 16.6067L5.68047 10.4095C5.26626 10.0988 5.18231 9.51119 5.49298 9.09698Z" fill="url(#paint0_linear_3419_2742)"/>
<path fill-rule="evenodd" clip-rule="evenodd" d="M1.896 9.13961C1.896 6.3356 4.1691 4.0625 6.97311 4.0625H23.6939C26.4979 4.0625 28.771 6.33559 28.771 9.13961V20.1786C28.771 22.9826 26.4979 25.2557 23.6939 25.2557H6.97311C4.1691 25.2557 1.896 22.9826 1.896 20.1786V9.13961ZM5.49298 9.09698C5.80364 8.68277 6.39126 8.59882 6.80548 8.90948L15.0685 15.1067C15.2257 15.2247 15.442 15.2247 15.5993 15.1067L23.8623 8.90948C24.2765 8.59882 24.8641 8.68277 25.1748 9.09698C25.4855 9.51119 25.4015 10.0988 24.9873 10.4095L16.7243 16.6067C15.9004 17.2247 14.7674 17.2247 13.9435 16.6067L5.68047 10.4095C5.26626 10.0988 5.18231 9.51119 5.49298 9.09698Z" fill="url(#paint1_linear_3419_2742)"/>
<path fill-rule="evenodd" clip-rule="evenodd" d="M1.896 9.13961C1.896 6.3356 4.1691 4.0625 6.97311 4.0625H23.6939C26.4979 4.0625 28.771 6.33559 28.771 9.13961V20.1786C28.771 22.9826 26.4979 25.2557 23.6939 25.2557H6.97311C4.1691 25.2557 1.896 22.9826 1.896 20.1786V9.13961ZM5.49298 9.09698C5.80364 8.68277 6.39126 8.59882 6.80548 8.90948L15.0685 15.1067C15.2257 15.2247 15.442 15.2247 15.5993 15.1067L23.8623 8.90948C24.2765 8.59882 24.8641 8.68277 25.1748 9.09698C25.4855 9.51119 25.4015 10.0988 24.9873 10.4095L16.7243 16.6067C15.9004 17.2247 14.7674 17.2247 13.9435 16.6067L5.68047 10.4095C5.26626 10.0988 5.18231 9.51119 5.49298 9.09698Z" fill="url(#paint2_linear_3419_2742)"/>
<defs>
<linearGradient id="paint0_linear_3419_2742" x1="15.3335" y1="4.0625" x2="15.8707" y2="25.2421" gradientUnits="userSpaceOnUse">
<stop stop-color="#FFBAC6"/>
<stop offset="1" stop-color="#F3E8B9"/>
</linearGradient>
<linearGradient id="paint1_linear_3419_2742" x1="15.3335" y1="4.0625" x2="15.3335" y2="25.2557" gradientUnits="userSpaceOnUse">
<stop stop-color="#B5FFDC"/>
<stop offset="1" stop-color="#7FDEF3"/>
</linearGradient>
<linearGradient id="paint2_linear_3419_2742" x1="15.3335" y1="4.0625" x2="15.8707" y2="25.2421" gradientUnits="userSpaceOnUse">
<stop stop-color="#DEDDFF"/>
<stop offset="1" stop-color="#FAD1D1"/>
</linearGradient>
</defs>
</svg>
