<svg width="237" height="222" viewBox="0 0 237 222" fill="none" xmlns="http://www.w3.org/2000/svg">
<g opacity="0.5">
<rect x="132.575" y="171.211" width="28.313" height="28.313" rx="8" transform="rotate(180 132.575 171.211)" stroke="#B1DADA"/>
</g>
<g opacity="0.5">
<rect x="60.958" y="172.047" width="28.313" height="28.313" rx="8" transform="rotate(180 60.958 172.047)" stroke="#B1DADA"/>
</g>
<g opacity="0.5">
<rect x="104.263" y="138.734" width="28.313" height="28.313" rx="8" transform="rotate(180 104.263 138.734)" fill="#C8EBEA"/>
<rect x="104.263" y="138.734" width="28.313" height="28.313" rx="8" transform="rotate(180 104.263 138.734)" stroke="#B1DADA"/>
</g>
<g opacity="0.5">
<rect x="43.7002" y="221.141" width="28.313" height="28.313" rx="8" transform="rotate(180 43.7002 221.141)" fill="#C8EBEA"/>
<rect x="43.7002" y="221.141" width="28.313" height="28.313" rx="8" transform="rotate(180 43.7002 221.141)" stroke="#B1DADA"/>
</g>
<g opacity="0.5">
<rect x="160.888" y="139.57" width="28.313" height="28.313" rx="8" transform="rotate(180 160.888 139.57)" stroke="#B1DADA"/>
</g>
<g opacity="0.5">
<rect x="236.013" y="171.766" width="28.313" height="28.313" rx="8" transform="rotate(180 236.013 171.766)" stroke="#B1DADA"/>
</g>
<g opacity="0.5">
<rect x="132.575" y="110.422" width="28.313" height="28.313" rx="8" transform="rotate(180 132.575 110.422)" stroke="#B1DADA"/>
</g>
<g opacity="0.5">
<rect x="29.3174" y="110.422" width="28.313" height="28.313" rx="8" transform="rotate(180 29.3174 110.422)" stroke="#B1DADA"/>
</g>
<g opacity="0.5">
<rect x="95.9346" y="31.3125" width="28.313" height="28.313" rx="8" transform="rotate(180 95.9346 31.3125)" stroke="#B1DADA"/>
</g>
<g opacity="0.5">
<rect x="201.692" y="110.422" width="28.313" height="28.313" rx="8" transform="rotate(180 201.692 110.422)" fill="#C8EBEA"/>
<rect x="201.692" y="110.422" width="28.313" height="28.313" rx="8" transform="rotate(180 201.692 110.422)" stroke="#B1DADA"/>
</g>
</svg>
