<svg width="237" height="222" viewBox="0 0 237 222" fill="none" xmlns="http://www.w3.org/2000/svg">
<g opacity="0.5">
<rect x="104.438" y="50.9277" width="28.313" height="28.313" rx="8" stroke="#B1DADA"/>
</g>
<g opacity="0.5">
<rect x="176.054" y="50.0947" width="28.313" height="28.313" rx="8" stroke="#B1DADA"/>
</g>
<g opacity="0.5">
<rect x="132.751" y="83.4043" width="28.313" height="28.313" rx="8" fill="#C8EBEA"/>
<rect x="132.751" y="83.4043" width="28.313" height="28.313" rx="8" stroke="#B1DADA"/>
</g>
<g opacity="0.5">
<rect x="193.315" y="1" width="28.313" height="28.313" rx="8" fill="#C8EBEA"/>
<rect x="193.315" y="1" width="28.313" height="28.313" rx="8" stroke="#B1DADA"/>
</g>
<g opacity="0.5">
<rect x="76.126" y="82.5713" width="28.313" height="28.313" rx="8" stroke="#B1DADA"/>
</g>
<g opacity="0.5">
<rect x="1.00098" y="50.375" width="28.313" height="28.313" rx="8" stroke="#B1DADA"/>
</g>
<g opacity="0.5">
<rect x="104.438" y="111.717" width="28.313" height="28.313" rx="8" stroke="#B1DADA"/>
</g>
<g opacity="0.5">
<rect x="207.698" y="111.717" width="28.313" height="28.313" rx="8" stroke="#B1DADA"/>
</g>
<g opacity="0.5">
<rect x="141.077" y="190.827" width="28.313" height="28.313" rx="8" stroke="#B1DADA"/>
</g>
<g opacity="0.5">
<rect x="35.3213" y="111.717" width="28.313" height="28.313" rx="8" fill="#C8EBEA"/>
<rect x="35.3213" y="111.717" width="28.313" height="28.313" rx="8" stroke="#B1DADA"/>
</g>
</svg>
