<svg width="324" height="224" viewBox="0 0 324 224" fill="none" xmlns="http://www.w3.org/2000/svg">
<g opacity="0.5">
<rect width="28.313" height="28.313" rx="8" transform="matrix(1 0 0 -1 179.666 169.313)" stroke="#B1C1DA"/>
</g>
<g opacity="0.5">
<rect width="28.313" height="28.313" rx="8" transform="matrix(1 0 0 -1 0.666016 117.313)" stroke="#B1C1DA"/>
</g>
<g opacity="0.5">
<rect width="28.313" height="28.313" rx="8" transform="matrix(1 0 0 -1 294.666 189.313)" fill="#C8D0EB"/>
<rect width="28.313" height="28.313" rx="8" transform="matrix(1 0 0 -1 294.666 189.313)" stroke="#B1C1DA"/>
</g>
<g opacity="0.5">
<rect width="28.313" height="28.313" rx="8" transform="matrix(1 0 0 -1 32.666 54.3135)" fill="#C8D0EB"/>
<rect width="28.313" height="28.313" rx="8" transform="matrix(1 0 0 -1 32.666 54.3135)" stroke="#B1C1DA"/>
</g>
<g opacity="0.5">
<rect width="28.313" height="28.313" rx="8" transform="matrix(1 0 0 -1 256.666 29.3135)" fill="#C8D0EB"/>
<rect width="28.313" height="28.313" rx="8" transform="matrix(1 0 0 -1 256.666 29.3135)" stroke="#B1C1DA"/>
</g>
<g opacity="0.5">
<rect width="28.313" height="28.313" rx="8" transform="matrix(1 0 0 -1 131.666 89.3135)" stroke="#B1C1DA"/>
</g>
<g opacity="0.5">
<rect width="28.313" height="28.313" rx="8" transform="matrix(1 0 0 -1 97.666 180.312)" stroke="#B1C1DA"/>
</g>
<g opacity="0.5">
<rect width="28.313" height="28.313" rx="8" transform="matrix(1 0 0 -1 174.666 119.313)" stroke="#B1C1DA"/>
</g>
<g opacity="0.5">
<rect width="28.313" height="28.313" rx="8" transform="matrix(1 0 0 -1 132.408 223.423)" stroke="#B1C1DA"/>
</g>
<g opacity="0.5">
<rect width="28.313" height="28.313" rx="8" transform="matrix(1 0 0 -1 235.666 133.423)" stroke="#B1C1DA"/>
</g>
<g opacity="0.5">
<rect width="28.313" height="28.313" rx="8" transform="matrix(1 0 0 -1 165.666 54.3135)" stroke="#B1C1DA"/>
</g>
<g opacity="0.5">
<rect width="28.313" height="28.313" rx="8" transform="matrix(1 0 0 -1 63.2891 133.423)" fill="#C8D0EB"/>
<rect width="28.313" height="28.313" rx="8" transform="matrix(1 0 0 -1 63.2891 133.423)" stroke="#B1C1DA"/>
</g>
</svg>
