<svg width="265" height="167" viewBox="0 0 265 167" fill="none" xmlns="http://www.w3.org/2000/svg">
<g opacity="0.5">
<rect x="264.312" y="94.3125" width="28.313" height="28.313" rx="8" transform="rotate(180 264.312 94.3125)" stroke="#C5B1DA"/>
</g>
<g opacity="0.5">
<rect x="30.3115" y="166.312" width="28.313" height="28.313" rx="8" transform="rotate(180 30.3115 166.312)" fill="#DAC8EB"/>
<rect x="30.3115" y="166.312" width="28.313" height="28.313" rx="8" transform="rotate(180 30.3115 166.312)" stroke="#C5B1DA"/>
</g>
<g opacity="0.5">
<rect x="232.312" y="31.3125" width="28.313" height="28.313" rx="8" transform="rotate(180 232.312 31.3125)" fill="#DAC8EB"/>
<rect x="232.312" y="31.3125" width="28.313" height="28.313" rx="8" transform="rotate(180 232.312 31.3125)" stroke="#C5B1DA"/>
</g>
<g opacity="0.5">
<rect x="68.3115" y="66.3125" width="28.313" height="28.313" rx="8" transform="rotate(180 68.3115 66.3125)" fill="#DAC8EB"/>
<rect x="68.3115" y="66.3125" width="28.313" height="28.313" rx="8" transform="rotate(180 68.3115 66.3125)" stroke="#C5B1DA"/>
</g>
<g opacity="0.5">
<rect x="133.312" y="66.3125" width="28.313" height="28.313" rx="8" transform="rotate(180 133.312 66.3125)" stroke="#C5B1DA"/>
</g>
<g opacity="0.5">
<rect x="30.3115" y="66.3125" width="28.313" height="28.313" rx="8" transform="rotate(180 30.3115 66.3125)" stroke="#C5B1DA"/>
</g>
<g opacity="0.5">
<rect x="132.569" y="110.422" width="28.313" height="28.313" rx="8" transform="rotate(180 132.569 110.422)" stroke="#C5B1DA"/>
</g>
<g opacity="0.5">
<rect x="29.3115" y="110.422" width="28.313" height="28.313" rx="8" transform="rotate(180 29.3115 110.422)" stroke="#C5B1DA"/>
</g>
<g opacity="0.5">
<rect x="99.3115" y="31.3125" width="28.313" height="28.313" rx="8" transform="rotate(180 99.3115 31.3125)" stroke="#C5B1DA"/>
</g>
<g opacity="0.5">
<rect x="201.687" y="110.422" width="28.313" height="28.313" rx="8" transform="rotate(180 201.687 110.422)" fill="#DAC8EB"/>
<rect x="201.687" y="110.422" width="28.313" height="28.313" rx="8" transform="rotate(180 201.687 110.422)" stroke="#C5B1DA"/>
</g>
</svg>
