<svg width="226" height="240" viewBox="0 0 226 240" fill="none" xmlns="http://www.w3.org/2000/svg">
<g opacity="0.5">
<rect x="96.3335" y="94" width="28.313" height="28.313" rx="8" stroke="#CEB2C5"/>
</g>
<g opacity="0.5">
<rect x="196.333" y="94" width="28.313" height="28.313" rx="8" stroke="#CEB2C5"/>
</g>
<g opacity="0.5">
<rect x="153.083" y="127.404" width="28.313" height="28.313" rx="8" fill="#DDC8D6"/>
<rect x="153.083" y="127.404" width="28.313" height="28.313" rx="8" stroke="#CEB2C5"/>
</g>
<g opacity="0.5">
<rect x="55.3335" y="41" width="28.313" height="28.313" rx="8" fill="#DDC8D6"/>
<rect x="55.3335" y="41" width="28.313" height="28.313" rx="8" stroke="#CEB2C5"/>
</g>
<g opacity="0.5">
<rect x="96.4585" y="126.571" width="28.313" height="28.313" rx="8" stroke="#CEB2C5"/>
</g>
<g opacity="0.5">
<rect x="21.3335" y="94.3755" width="28.313" height="28.313" rx="8" stroke="#CEB2C5"/>
</g>
<g opacity="0.5">
<rect x="153.333" y="94" width="28.313" height="28.313" rx="8" stroke="#CEB2C5"/>
</g>
<g opacity="0.5">
<rect x="128.333" y="29" width="28.313" height="28.313" rx="8" stroke="#CEB2C5"/>
</g>
<g opacity="0.5">
<rect x="97.3335" y="1" width="28.313" height="28.313" rx="8" stroke="#CEB2C5"/>
</g>
<g opacity="0.5">
<rect x="1.3335" y="156" width="28.313" height="28.313" rx="8" stroke="#CEB2C5"/>
</g>
<g opacity="0.5">
<rect x="196.333" y="161" width="28.313" height="28.313" rx="8" stroke="#CEB2C5"/>
</g>
<g opacity="0.5">
<rect x="125.333" y="161" width="28.313" height="28.313" rx="8" stroke="#CEB2C5"/>
</g>
<g opacity="0.5">
<rect x="21.3335" y="209" width="28.313" height="28.313" rx="8" stroke="#CEB2C5"/>
</g>
<g opacity="0.5">
<rect x="55.6538" y="155.717" width="28.313" height="28.313" rx="8" fill="#DDC8D6"/>
<rect x="55.6538" y="155.717" width="28.313" height="28.313" rx="8" stroke="#CEB2C5"/>
</g>
</svg>
