<svg width="237" height="222" viewBox="0 0 237 222" fill="none" xmlns="http://www.w3.org/2000/svg">
<g opacity="0.5">
<rect width="28.313" height="28.313" rx="8" transform="matrix(1 0 0 -1 104.428 171.251)" stroke="#ADA9E6"/>
</g>
<g opacity="0.5">
<rect width="28.313" height="28.313" rx="8" transform="matrix(1 0 0 -1 176.043 172.083)" stroke="#ADA9E6"/>
</g>
<g opacity="0.5">
<rect width="28.313" height="28.313" rx="8" transform="matrix(1 0 0 -1 132.74 138.774)" fill="#CFCAFB"/>
<rect width="28.313" height="28.313" rx="8" transform="matrix(1 0 0 -1 132.74 138.774)" stroke="#ADA9E6"/>
</g>
<g opacity="0.5">
<rect width="28.313" height="28.313" rx="8" transform="matrix(1 0 0 -1 193.305 221.178)" fill="#CFCAFB"/>
<rect width="28.313" height="28.313" rx="8" transform="matrix(1 0 0 -1 193.305 221.178)" stroke="#ADA9E6"/>
</g>
<g opacity="0.5">
<rect width="28.313" height="28.313" rx="8" transform="matrix(1 0 0 -1 76.1152 139.606)" stroke="#ADA9E6"/>
</g>
<g opacity="0.5">
<rect width="28.313" height="28.313" rx="8" transform="matrix(1 0 0 -1 0.990234 171.803)" stroke="#ADA9E6"/>
</g>
<g opacity="0.5">
<rect width="28.313" height="28.313" rx="8" transform="matrix(1 0 0 -1 104.428 110.461)" stroke="#ADA9E6"/>
</g>
<g opacity="0.5">
<rect width="28.313" height="28.313" rx="8" transform="matrix(1 0 0 -1 207.688 110.461)" stroke="#ADA9E6"/>
</g>
<g opacity="0.5">
<rect width="28.313" height="28.313" rx="8" transform="matrix(1 0 0 -1 141.066 31.3516)" stroke="#ADA9E6"/>
</g>
<g opacity="0.5">
<rect width="28.313" height="28.313" rx="8" transform="matrix(1 0 0 -1 35.3105 110.461)" fill="#CFCAFB"/>
<rect width="28.313" height="28.313" rx="8" transform="matrix(1 0 0 -1 35.3105 110.461)" stroke="#ADA9E6"/>
</g>
</svg>
