<svg width="237" height="222" viewBox="0 0 237 222" fill="none" xmlns="http://www.w3.org/2000/svg">
<g opacity="0.5">
<rect x="104.771" y="50.9277" width="28.313" height="28.313" rx="8" stroke="#ACA8E9"/>
</g>
<g opacity="0.5">
<rect x="176.388" y="50.0947" width="28.313" height="28.313" rx="8" stroke="#ACA8E9"/>
</g>
<g opacity="0.5">
<rect x="133.083" y="83.4043" width="28.313" height="28.313" rx="8" fill="#C9C8F1"/>
<rect x="133.083" y="83.4043" width="28.313" height="28.313" rx="8" stroke="#ACA8E9"/>
</g>
<g opacity="0.5">
<rect x="193.646" y="1" width="28.313" height="28.313" rx="8" fill="#C9C8F1"/>
<rect x="193.646" y="1" width="28.313" height="28.313" rx="8" stroke="#ACA8E9"/>
</g>
<g opacity="0.5">
<rect x="76.458" y="82.5713" width="28.313" height="28.313" rx="8" stroke="#ACA8E9"/>
</g>
<g opacity="0.5">
<rect x="1.33301" y="50.3755" width="28.313" height="28.313" rx="8" stroke="#ACA8E9"/>
</g>
<g opacity="0.5">
<rect x="104.771" y="111.717" width="28.313" height="28.313" rx="8" stroke="#ACA8E9"/>
</g>
<g opacity="0.5">
<rect x="208.028" y="111.717" width="28.313" height="28.313" rx="8" stroke="#ACA8E9"/>
</g>
<g opacity="0.5">
<rect x="141.411" y="190.827" width="28.313" height="28.313" rx="8" stroke="#ACA8E9"/>
</g>
<g opacity="0.5">
<rect x="35.6533" y="111.717" width="28.313" height="28.313" rx="8" fill="#C9C8F1"/>
<rect x="35.6533" y="111.717" width="28.313" height="28.313" rx="8" stroke="#ACA8E9"/>
</g>
</svg>
