<svg width="237" height="222" viewBox="0 0 237 222" fill="none" xmlns="http://www.w3.org/2000/svg">
<g opacity="0.5">
<rect x="104.104" y="50.9277" width="28.313" height="28.313" rx="8" stroke="#CE7F83"/>
</g>
<g opacity="0.5">
<rect x="175.722" y="50.0947" width="28.313" height="28.313" rx="8" stroke="#CE7F83"/>
</g>
<g opacity="0.5">
<rect x="132.417" y="83.4043" width="28.313" height="28.313" rx="8" fill="#F3B3B8"/>
<rect x="132.417" y="83.4043" width="28.313" height="28.313" rx="8" stroke="#CE7F83"/>
</g>
<g opacity="0.5">
<rect x="192.979" y="1" width="28.313" height="28.313" rx="8" fill="#F3B3B8"/>
<rect x="192.979" y="1" width="28.313" height="28.313" rx="8" stroke="#CE7F83"/>
</g>
<g opacity="0.5">
<rect x="75.792" y="82.5713" width="28.313" height="28.313" rx="8" stroke="#CE7F83"/>
</g>
<g opacity="0.5">
<rect x="0.666992" y="50.3755" width="28.313" height="28.313" rx="8" stroke="#CE7F83"/>
</g>
<g opacity="0.5">
<rect x="104.104" y="111.717" width="28.313" height="28.313" rx="8" stroke="#CE7F83"/>
</g>
<g opacity="0.5">
<rect x="207.362" y="111.717" width="28.313" height="28.313" rx="8" stroke="#CE7F83"/>
</g>
<g opacity="0.5">
<rect x="140.745" y="190.827" width="28.313" height="28.313" rx="8" stroke="#CE7F83"/>
</g>
<g opacity="0.5">
<rect x="34.9873" y="111.717" width="28.313" height="28.313" rx="8" fill="#F3B3B8"/>
<rect x="34.9873" y="111.717" width="28.313" height="28.313" rx="8" stroke="#CE7F83"/>
</g>
</svg>
