<svg width="237" height="222" viewBox="0 0 237 222" fill="none" xmlns="http://www.w3.org/2000/svg">
<g opacity="0.5">
<rect x="104.438" y="50.9277" width="28.313" height="28.313" rx="8" stroke="#DAC7CC"/>
</g>
<g opacity="0.5">
<rect x="176.055" y="50.0947" width="28.313" height="28.313" rx="8" stroke="#DAC7CC"/>
</g>
<g opacity="0.5">
<rect x="132.75" y="83.4043" width="28.313" height="28.313" rx="8" fill="#F0E3E4"/>
<rect x="132.75" y="83.4043" width="28.313" height="28.313" rx="8" stroke="#DAC7CC"/>
</g>
<g opacity="0.5">
<rect x="193.312" y="1" width="28.313" height="28.313" rx="8" fill="#F0E3E4"/>
<rect x="193.312" y="1" width="28.313" height="28.313" rx="8" stroke="#DAC7CC"/>
</g>
<g opacity="0.5">
<rect x="76.125" y="82.5713" width="28.313" height="28.313" rx="8" stroke="#DAC7CC"/>
</g>
<g opacity="0.5">
<rect x="1" y="50.375" width="28.313" height="28.313" rx="8" stroke="#DAC7CC"/>
</g>
<g opacity="0.5">
<rect x="104.438" y="111.717" width="28.313" height="28.313" rx="8" stroke="#DAC7CC"/>
</g>
<g opacity="0.5">
<rect x="207.695" y="111.717" width="28.313" height="28.313" rx="8" stroke="#DAC7CC"/>
</g>
<g opacity="0.5">
<rect x="141.078" y="190.827" width="28.313" height="28.313" rx="8" stroke="#DAC7CC"/>
</g>
<g opacity="0.5">
<rect x="35.3203" y="111.717" width="28.313" height="28.313" rx="8" fill="#F0E3E4"/>
<rect x="35.3203" y="111.717" width="28.313" height="28.313" rx="8" stroke="#DAC7CC"/>
</g>
</svg>
