<svg width="237" height="222" viewBox="0 0 237 222" fill="none" xmlns="http://www.w3.org/2000/svg">
<g opacity="0.5">
<rect width="28.313" height="28.313" rx="8" transform="matrix(1 0 0 -1 104.761 171.25)" stroke="#DDAEB0"/>
</g>
<g opacity="0.5">
<rect width="28.313" height="28.313" rx="8" transform="matrix(1 0 0 -1 176.376 172.083)" stroke="#DDAEB0"/>
</g>
<g opacity="0.5">
<rect width="28.313" height="28.313" rx="8" transform="matrix(1 0 0 -1 133.074 138.773)" fill="#F6CBC9"/>
<rect width="28.313" height="28.313" rx="8" transform="matrix(1 0 0 -1 133.074 138.773)" stroke="#DDAEB0"/>
</g>
<g opacity="0.5">
<rect width="28.313" height="28.313" rx="8" transform="matrix(1 0 0 -1 193.638 221.178)" fill="#F6CBC9"/>
<rect width="28.313" height="28.313" rx="8" transform="matrix(1 0 0 -1 193.638 221.178)" stroke="#DDAEB0"/>
</g>
<g opacity="0.5">
<rect width="28.313" height="28.313" rx="8" transform="matrix(1 0 0 -1 76.4487 139.606)" stroke="#DDAEB0"/>
</g>
<g opacity="0.5">
<rect width="28.313" height="28.313" rx="8" transform="matrix(1 0 0 -1 1.32373 171.803)" stroke="#DDAEB0"/>
</g>
<g opacity="0.5">
<rect width="28.313" height="28.313" rx="8" transform="matrix(1 0 0 -1 104.761 110.461)" stroke="#DDAEB0"/>
</g>
<g opacity="0.5">
<rect width="28.313" height="28.313" rx="8" transform="matrix(1 0 0 -1 208.021 110.461)" stroke="#DDAEB0"/>
</g>
<g opacity="0.5">
<rect width="28.313" height="28.313" rx="8" transform="matrix(1 0 0 -1 141.4 31.3506)" stroke="#DDAEB0"/>
</g>
<g opacity="0.5">
<rect width="28.313" height="28.313" rx="8" transform="matrix(1 0 0 -1 35.644 110.461)" fill="#F6CBC9"/>
<rect width="28.313" height="28.313" rx="8" transform="matrix(1 0 0 -1 35.644 110.461)" stroke="#DDAEB0"/>
</g>
</svg>
