<svg width="225" height="240" viewBox="0 0 225 240" fill="none" xmlns="http://www.w3.org/2000/svg">
<g opacity="0.5">
<rect x="95.6665" y="94" width="28.313" height="28.313" rx="8" stroke="#CCA572"/>
</g>
<g opacity="0.5">
<rect x="195.667" y="94" width="28.313" height="28.313" rx="8" stroke="#CCA572"/>
</g>
<g opacity="0.5">
<rect x="152.417" y="127.404" width="28.313" height="28.313" rx="8" fill="#E8C89B"/>
<rect x="152.417" y="127.404" width="28.313" height="28.313" rx="8" stroke="#CCA572"/>
</g>
<g opacity="0.5">
<rect x="54.6665" y="41" width="28.313" height="28.313" rx="8" fill="#E8C89B"/>
<rect x="54.6665" y="41" width="28.313" height="28.313" rx="8" stroke="#CCA572"/>
</g>
<g opacity="0.5">
<rect x="95.7915" y="126.571" width="28.313" height="28.313" rx="8" stroke="#CCA572"/>
</g>
<g opacity="0.5">
<rect x="20.6665" y="94.3755" width="28.313" height="28.313" rx="8" stroke="#CCA572"/>
</g>
<g opacity="0.5">
<rect x="152.667" y="94" width="28.313" height="28.313" rx="8" stroke="#CCA572"/>
</g>
<g opacity="0.5">
<rect x="127.667" y="29" width="28.313" height="28.313" rx="8" stroke="#CCA572"/>
</g>
<g opacity="0.5">
<rect x="96.6665" y="1" width="28.313" height="28.313" rx="8" stroke="#CCA572"/>
</g>
<g opacity="0.5">
<rect x="0.666504" y="156" width="28.313" height="28.313" rx="8" stroke="#CCA572"/>
</g>
<g opacity="0.5">
<rect x="195.667" y="161" width="28.313" height="28.313" rx="8" stroke="#CCA572"/>
</g>
<g opacity="0.5">
<rect x="124.667" y="161" width="28.313" height="28.313" rx="8" stroke="#CCA572"/>
</g>
<g opacity="0.5">
<rect x="20.6665" y="209" width="28.313" height="28.313" rx="8" stroke="#CCA572"/>
</g>
<g opacity="0.5">
<rect x="54.9868" y="155.717" width="28.313" height="28.313" rx="8" fill="#E8C89B"/>
<rect x="54.9868" y="155.717" width="28.313" height="28.313" rx="8" stroke="#CCA572"/>
</g>
</svg>
