<svg width="65" height="41" viewBox="0 0 65 41" fill="none" xmlns="http://www.w3.org/2000/svg">
<path fill-rule="evenodd" clip-rule="evenodd" d="M32.4994 5.234L32.4989 5.23438H32.4999C37.097 8.89786 40.0951 14.567 40.0951 20.9544C40.0951 27.3395 37.1595 33.0005 32.5072 36.6705L32.5002 36.676C27.8954 33.0644 24.9053 27.3427 24.9053 20.9544C24.9053 14.5666 27.9014 8.89718 32.499 5.23372C32.4992 5.23381 32.4993 5.23391 32.4994 5.234ZM31.6731 4.61526C28.432 2.3197 24.4753 0.955078 20.1906 0.955078C9.15978 0.955078 0.234375 9.90006 0.234375 20.9551C0.234375 32.0101 9.15978 40.9551 20.1906 40.9551C24.475 40.9551 28.4314 39.5907 31.6724 37.2954C26.9524 33.4915 23.9053 27.5605 23.9053 20.9544C23.9053 14.341 26.9646 8.46263 31.6731 4.61526ZM33.3274 37.2952C36.5685 39.5906 40.525 40.9551 44.8096 40.9551C55.8404 40.9551 64.7658 32.0101 64.7658 20.9551C64.7658 9.95831 55.8404 0.955078 44.8031 0.955078C40.5182 0.955078 36.5614 2.3198 33.3253 4.61551C38.0334 8.46273 41.0951 14.3409 41.0951 20.9544C41.0951 27.5623 38.0966 33.4375 33.3274 37.2952Z" fill="#F79E1B"/>
<path fill-rule="evenodd" clip-rule="evenodd" d="M32.4994 5.234L32.4989 5.23438H32.4999C37.097 8.89786 40.0951 14.567 40.0951 20.9544C40.0951 27.3395 37.1595 33.0005 32.5072 36.6705L32.5002 36.676C27.8954 33.0644 24.9053 27.3427 24.9053 20.9544C24.9053 14.5666 27.9014 8.89718 32.499 5.23372C32.4992 5.23381 32.4993 5.23391 32.4994 5.234ZM31.6731 4.61526C28.432 2.3197 24.4753 0.955078 20.1906 0.955078C9.15978 0.955078 0.234375 9.90006 0.234375 20.9551C0.234375 32.0101 9.15978 40.9551 20.1906 40.9551C24.475 40.9551 28.4314 39.5907 31.6724 37.2954C26.9524 33.4915 23.9053 27.5605 23.9053 20.9544C23.9053 14.341 26.9646 8.46263 31.6731 4.61526ZM33.3274 37.2952C36.5685 39.5906 40.525 40.9551 44.8096 40.9551C55.8404 40.9551 64.7658 32.0101 64.7658 20.9551C64.7658 9.95831 55.8404 0.955078 44.8031 0.955078C40.5182 0.955078 36.5614 2.3198 33.3253 4.61551C38.0334 8.46273 41.0951 14.3409 41.0951 20.9544C41.0951 27.5623 38.0966 33.4375 33.3274 37.2952Z" fill="url(#paint0_linear_3218_52386)"/>
<defs>
<linearGradient id="paint0_linear_3218_52386" x1="48.6329" y1="0.955078" x2="50.2255" y2="40.8916" gradientUnits="userSpaceOnUse">
<stop stop-color="#9EEBBA"/>
<stop offset="1" stop-color="#FFF2B9"/>
</linearGradient>
</defs>
</svg>
