<svg width="152" height="27" viewBox="0 0 152 27" fill="none" xmlns="http://www.w3.org/2000/svg">
<path d="M148.276 2.01538C146.358 0.701841 143.457 0.0393785 139.653 0.0393785H129.692L125.988 20.144H112.939L113.777 15.5827H121.638L122.57 10.4596L114.713 10.4709L115.554 5.92995H123.652L124.729 0.040552H108.285L104.77 19.111H98.7355L102.275 0.039549H93.6793L90.1636 19.11H84.2853L87.828 0.039549H79.2369L75.5291 20.1441H62.3857L63.2166 15.5828H71.109L72.0417 10.4888L64.1567 10.4809L64.9933 5.93096H73.1811L74.2516 0.0390625H23.011L20.0944 15.9705L14.2863 0.0390625H5.36819L0.568359 26.0391H9.08524L11.9905 9.66832L17.6266 26.0391H48.1503L51.8616 5.92846H56.6354L52.9242 26.0391H133.238L135.567 13.3445L139.333 26.0391H147.855L143.952 15.666L144.845 15.4739C146.812 15.0522 148.346 14.1467 149.414 12.7891C150.481 11.419 151.025 9.66006 151.025 7.54719C151.025 5.08736 150.125 3.27756 148.273 2.01387L148.276 2.01538ZM40.7389 20.144H27.7018L28.5439 15.5827H36.7213L37.6482 10.445H29.5496L30.3296 5.93123H43.3477L40.7364 20.1439L40.7389 20.144ZM141.254 11.3864C140.397 11.9855 139.155 12.2771 137.456 12.2771H135.772L137.064 5.29991H138.303C139.713 5.29991 140.742 5.526 141.452 5.9872C142.006 6.34894 142.665 7.06452 142.665 8.41763C142.663 10.0545 141.896 10.934 141.252 11.3862L141.254 11.3864Z" fill="white"/>
<path d="M148.276 2.01538C146.358 0.701841 143.457 0.0393785 139.653 0.0393785H129.692L125.988 20.144H112.939L113.777 15.5827H121.638L122.57 10.4596L114.713 10.4709L115.554 5.92995H123.652L124.729 0.040552H108.285L104.77 19.111H98.7355L102.275 0.039549H93.6793L90.1636 19.11H84.2853L87.828 0.039549H79.2369L75.5291 20.1441H62.3857L63.2166 15.5828H71.109L72.0417 10.4888L64.1567 10.4809L64.9933 5.93096H73.1811L74.2516 0.0390625H23.011L20.0944 15.9705L14.2863 0.0390625H5.36819L0.568359 26.0391H9.08524L11.9905 9.66832L17.6266 26.0391H48.1503L51.8616 5.92846H56.6354L52.9242 26.0391H133.238L135.567 13.3445L139.333 26.0391H147.855L143.952 15.666L144.845 15.4739C146.812 15.0522 148.346 14.1467 149.414 12.7891C150.481 11.419 151.025 9.66006 151.025 7.54719C151.025 5.08736 150.125 3.27756 148.273 2.01387L148.276 2.01538ZM40.7389 20.144H27.7018L28.5439 15.5827H36.7213L37.6482 10.445H29.5496L30.3296 5.93123H43.3477L40.7364 20.1439L40.7389 20.144ZM141.254 11.3864C140.397 11.9855 139.155 12.2771 137.456 12.2771H135.772L137.064 5.29991H138.303C139.713 5.29991 140.742 5.526 141.452 5.9872C142.006 6.34894 142.665 7.06452 142.665 8.41763C142.663 10.0545 141.896 10.934 141.252 11.3862L141.254 11.3864Z" fill="url(#paint0_linear_3218_52403)"/>
<defs>
<linearGradient id="paint0_linear_3218_52403" x1="75.7964" y1="0.0390622" x2="75.9409" y2="26.0383" gradientUnits="userSpaceOnUse">
<stop stop-color="#9EEBBA"/>
<stop offset="1" stop-color="#FFF2B9"/>
</linearGradient>
</defs>
</svg>
