<svg width="112" height="31" viewBox="0 0 112 31" fill="none" xmlns="http://www.w3.org/2000/svg">
<path fill-rule="evenodd" clip-rule="evenodd" d="M3.75432 0.594049C3.80494 0.274061 4.07989 0.0390625 4.40359 0.0390625H12.8004C18.0117 0.0492798 21.6885 4.1534 20.9506 8.85987C20.2186 13.5269 16.2116 16.971 11.4912 16.971H7.45115C7.12744 16.971 6.85204 17.2065 6.80188 17.526L5.70119 24.504C5.65057 24.8235 5.37516 25.059 5.05193 25.059H0.608316C0.520455 25.059 0.433625 25.0399 0.353824 25.0032C0.274023 24.9664 0.203153 24.9128 0.146046 24.846C0.0889395 24.7793 0.0469646 24.7009 0.0230237 24.6164C-0.000917143 24.5318 -0.00626691 24.4431 0.00734827 24.3563L3.75432 0.594049ZM11.9556 5.34372H8.72321L7.72514 11.6724H11.0151C13.5894 11.6724 14.9354 10.3906 15.2094 8.65042C15.4834 6.91394 14.6167 5.34372 11.9556 5.34372ZM26.1257 7.79681C27.5751 7.19305 28.8662 6.96316 29.9883 6.95898C33.3549 6.94644 35.1968 8.9588 35.1968 8.9588L35.3347 8.08289C35.3849 7.76337 35.6603 7.5279 35.984 7.5279H40.2024C40.2902 7.52803 40.377 7.54719 40.4568 7.58406C40.5366 7.62094 40.6074 7.67466 40.6644 7.74152C40.7214 7.80838 40.7633 7.8868 40.7871 7.97139C40.8109 8.05597 40.8161 8.14472 40.8024 8.23151L38.2364 24.504C38.1858 24.8235 37.9109 25.059 37.5872 25.059H33.3688C33.281 25.0588 33.1943 25.0397 33.1146 25.0029C33.0349 24.9661 32.9642 24.9124 32.9072 24.8457C32.8501 24.7789 32.8083 24.7006 32.7844 24.6162C32.7605 24.5317 32.7552 24.443 32.7688 24.3563L32.8566 23.7976C27.766 27.3746 23.2439 24.0052 23.2439 24.0052C18.3679 20.5053 20.5261 14.1348 20.5261 14.1348C21.2042 12.0468 22.8008 9.18265 26.1257 7.79681ZM31.4512 12.2934C31.0537 12.1656 30.6106 12.0988 30.1262 12.0988C27.6717 12.0988 25.7518 13.8176 25.3835 16.1513C25.0849 18.0467 26.1233 19.7952 27.9429 20.3795C28.3409 20.5072 28.784 20.5736 29.268 20.5736C31.7224 20.5736 33.6363 18.8552 34.0046 16.5215C34.3032 14.6262 33.2713 12.8776 31.4512 12.2934ZM64.5014 0.594049C64.552 0.274061 64.827 0.0390625 65.1507 0.0390625H73.5475C78.7588 0.0492798 82.4352 4.1534 81.6967 8.85987C80.9652 13.5269 76.9586 16.971 72.2382 16.971H68.1982C67.8745 16.971 67.5991 17.2065 67.549 17.526L66.4483 24.504C66.3976 24.8235 66.1222 25.059 65.799 25.059H61.3554C61.2675 25.059 61.1807 25.0399 61.1009 25.0032C61.0211 24.9664 60.9502 24.9128 60.8931 24.846C60.836 24.7793 60.794 24.7009 60.7701 24.6164C60.7462 24.5318 60.7408 24.4431 60.7544 24.3563L64.5014 0.594049ZM72.7027 5.34372H69.4703L68.4722 11.6724H71.7622C74.337 11.6724 75.6824 10.3906 75.9564 8.65042C76.2304 6.91394 75.3638 5.34372 72.7027 5.34372ZM86.8723 7.79681C88.3217 7.19305 89.6128 6.96316 90.7349 6.95898C94.1015 6.94644 95.9443 8.9588 95.9443 8.9588L96.0822 8.08289C96.1324 7.76337 96.4078 7.5279 96.7315 7.5279H100.95C101.038 7.5279 101.125 7.54696 101.205 7.58377C101.285 7.62059 101.355 7.67429 101.413 7.74117C101.47 7.80805 101.512 7.88651 101.536 7.97117C101.559 8.05582 101.565 8.14464 101.551 8.23151L98.984 24.504C98.9334 24.8235 98.6584 25.059 98.3347 25.059H94.1168C94.0289 25.059 93.9421 25.0399 93.8623 25.0032C93.7825 24.9664 93.7116 24.9128 93.6545 24.846C93.5974 24.7793 93.5555 24.7009 93.5315 24.6164C93.5076 24.5318 93.5022 24.4431 93.5158 24.3563L93.6036 23.7976C88.5126 27.3746 83.9914 24.0052 83.9914 24.0052C79.1154 20.5053 81.2727 14.1348 81.2727 14.1348C81.9507 12.0468 83.5474 9.18265 86.8723 7.79681ZM92.1978 12.2934C91.8003 12.1656 91.3572 12.0988 90.8728 12.0988C88.4183 12.0988 86.4984 13.8176 86.1301 16.1513C85.8315 18.0467 86.8699 19.7952 88.6896 20.3795C89.0876 20.5072 89.5306 20.5736 90.0145 20.5736C92.469 20.5736 94.3829 18.8552 94.7512 16.5215C95.0499 14.6262 94.0179 12.8776 92.1978 12.2934ZM42.8045 7.52781C42.4701 7.52781 42.2323 7.8543 42.3345 8.17243L46.9592 22.5236L42.7775 29.2866C42.5746 29.6149 42.8105 30.0389 43.1965 30.0389H48.1388C48.2802 30.0388 48.4191 30.0022 48.5422 29.9328C48.6653 29.8633 48.7684 29.7632 48.8415 29.6423L61.7576 8.27553C61.956 7.94718 61.7191 7.52734 61.3355 7.52734H56.3935C56.2508 7.52747 56.1106 7.56474 55.9866 7.63551C55.8627 7.70627 55.7593 7.80808 55.6867 7.93093L50.6026 16.5144L48.0218 7.99455C47.9378 7.71729 47.6819 7.52734 47.3925 7.52734L42.8045 7.52781ZM105.694 0.594049C105.744 0.274525 106.02 0.0390625 106.343 0.0390625H110.787C110.875 0.0392083 110.961 0.0583476 111.041 0.0951685C111.121 0.131989 111.191 0.185619 111.248 0.252375C111.305 0.319131 111.347 0.397432 111.371 0.481903C111.395 0.566374 111.4 0.655014 111.387 0.741737L107.64 24.504C107.589 24.8235 107.314 25.059 106.991 25.059H102.547C102.459 25.059 102.372 25.0399 102.292 25.0031C102.212 24.9663 102.141 24.9126 102.084 24.8457C102.027 24.7789 101.985 24.7004 101.961 24.6157C101.937 24.5311 101.932 24.4423 101.946 24.3554L105.694 0.594049Z" fill="#0070E0"/>
<path fill-rule="evenodd" clip-rule="evenodd" d="M3.75432 0.594049C3.80494 0.274061 4.07989 0.0390625 4.40359 0.0390625H12.8004C18.0117 0.0492798 21.6885 4.1534 20.9506 8.85987C20.2186 13.5269 16.2116 16.971 11.4912 16.971H7.45115C7.12744 16.971 6.85204 17.2065 6.80188 17.526L5.70119 24.504C5.65057 24.8235 5.37516 25.059 5.05193 25.059H0.608316C0.520455 25.059 0.433625 25.0399 0.353824 25.0032C0.274023 24.9664 0.203153 24.9128 0.146046 24.846C0.0889395 24.7793 0.0469646 24.7009 0.0230237 24.6164C-0.000917143 24.5318 -0.00626691 24.4431 0.00734827 24.3563L3.75432 0.594049ZM11.9556 5.34372H8.72321L7.72514 11.6724H11.0151C13.5894 11.6724 14.9354 10.3906 15.2094 8.65042C15.4834 6.91394 14.6167 5.34372 11.9556 5.34372ZM26.1257 7.79681C27.5751 7.19305 28.8662 6.96316 29.9883 6.95898C33.3549 6.94644 35.1968 8.9588 35.1968 8.9588L35.3347 8.08289C35.3849 7.76337 35.6603 7.5279 35.984 7.5279H40.2024C40.2902 7.52803 40.377 7.54719 40.4568 7.58406C40.5366 7.62094 40.6074 7.67466 40.6644 7.74152C40.7214 7.80838 40.7633 7.8868 40.7871 7.97139C40.8109 8.05597 40.8161 8.14472 40.8024 8.23151L38.2364 24.504C38.1858 24.8235 37.9109 25.059 37.5872 25.059H33.3688C33.281 25.0588 33.1943 25.0397 33.1146 25.0029C33.0349 24.9661 32.9642 24.9124 32.9072 24.8457C32.8501 24.7789 32.8083 24.7006 32.7844 24.6162C32.7605 24.5317 32.7552 24.443 32.7688 24.3563L32.8566 23.7976C27.766 27.3746 23.2439 24.0052 23.2439 24.0052C18.3679 20.5053 20.5261 14.1348 20.5261 14.1348C21.2042 12.0468 22.8008 9.18265 26.1257 7.79681ZM31.4512 12.2934C31.0537 12.1656 30.6106 12.0988 30.1262 12.0988C27.6717 12.0988 25.7518 13.8176 25.3835 16.1513C25.0849 18.0467 26.1233 19.7952 27.9429 20.3795C28.3409 20.5072 28.784 20.5736 29.268 20.5736C31.7224 20.5736 33.6363 18.8552 34.0046 16.5215C34.3032 14.6262 33.2713 12.8776 31.4512 12.2934ZM64.5014 0.594049C64.552 0.274061 64.827 0.0390625 65.1507 0.0390625H73.5475C78.7588 0.0492798 82.4352 4.1534 81.6967 8.85987C80.9652 13.5269 76.9586 16.971 72.2382 16.971H68.1982C67.8745 16.971 67.5991 17.2065 67.549 17.526L66.4483 24.504C66.3976 24.8235 66.1222 25.059 65.799 25.059H61.3554C61.2675 25.059 61.1807 25.0399 61.1009 25.0032C61.0211 24.9664 60.9502 24.9128 60.8931 24.846C60.836 24.7793 60.794 24.7009 60.7701 24.6164C60.7462 24.5318 60.7408 24.4431 60.7544 24.3563L64.5014 0.594049ZM72.7027 5.34372H69.4703L68.4722 11.6724H71.7622C74.337 11.6724 75.6824 10.3906 75.9564 8.65042C76.2304 6.91394 75.3638 5.34372 72.7027 5.34372ZM86.8723 7.79681C88.3217 7.19305 89.6128 6.96316 90.7349 6.95898C94.1015 6.94644 95.9443 8.9588 95.9443 8.9588L96.0822 8.08289C96.1324 7.76337 96.4078 7.5279 96.7315 7.5279H100.95C101.038 7.5279 101.125 7.54696 101.205 7.58377C101.285 7.62059 101.355 7.67429 101.413 7.74117C101.47 7.80805 101.512 7.88651 101.536 7.97117C101.559 8.05582 101.565 8.14464 101.551 8.23151L98.984 24.504C98.9334 24.8235 98.6584 25.059 98.3347 25.059H94.1168C94.0289 25.059 93.9421 25.0399 93.8623 25.0032C93.7825 24.9664 93.7116 24.9128 93.6545 24.846C93.5974 24.7793 93.5555 24.7009 93.5315 24.6164C93.5076 24.5318 93.5022 24.4431 93.5158 24.3563L93.6036 23.7976C88.5126 27.3746 83.9914 24.0052 83.9914 24.0052C79.1154 20.5053 81.2727 14.1348 81.2727 14.1348C81.9507 12.0468 83.5474 9.18265 86.8723 7.79681ZM92.1978 12.2934C91.8003 12.1656 91.3572 12.0988 90.8728 12.0988C88.4183 12.0988 86.4984 13.8176 86.1301 16.1513C85.8315 18.0467 86.8699 19.7952 88.6896 20.3795C89.0876 20.5072 89.5306 20.5736 90.0145 20.5736C92.469 20.5736 94.3829 18.8552 94.7512 16.5215C95.0499 14.6262 94.0179 12.8776 92.1978 12.2934ZM42.8045 7.52781C42.4701 7.52781 42.2323 7.8543 42.3345 8.17243L46.9592 22.5236L42.7775 29.2866C42.5746 29.6149 42.8105 30.0389 43.1965 30.0389H48.1388C48.2802 30.0388 48.4191 30.0022 48.5422 29.9328C48.6653 29.8633 48.7684 29.7632 48.8415 29.6423L61.7576 8.27553C61.956 7.94718 61.7191 7.52734 61.3355 7.52734H56.3935C56.2508 7.52747 56.1106 7.56474 55.9866 7.63551C55.8627 7.70627 55.7593 7.80808 55.6867 7.93093L50.6026 16.5144L48.0218 7.99455C47.9378 7.71729 47.6819 7.52734 47.3925 7.52734L42.8045 7.52781ZM105.694 0.594049C105.744 0.274525 106.02 0.0390625 106.343 0.0390625H110.787C110.875 0.0392083 110.961 0.0583476 111.041 0.0951685C111.121 0.131989 111.191 0.185619 111.248 0.252375C111.305 0.319131 111.347 0.397432 111.371 0.481903C111.395 0.566374 111.4 0.655014 111.387 0.741737L107.64 24.504C107.589 24.8235 107.314 25.059 106.991 25.059H102.547C102.459 25.059 102.372 25.0399 102.292 25.0031C102.212 24.9663 102.141 24.9126 102.084 24.8457C102.027 24.7789 101.985 24.7004 101.961 24.6157C101.937 24.5311 101.932 24.4423 101.946 24.3554L105.694 0.594049Z" fill="url(#paint0_linear_3218_52395)"/>
<defs>
<linearGradient id="paint0_linear_3218_52395" x1="55.697" y1="0.0390621" x2="55.9569" y2="30.0367" gradientUnits="userSpaceOnUse">
<stop stop-color="#9EEBBA"/>
<stop offset="1" stop-color="#FFF2B9"/>
</linearGradient>
</defs>
</svg>
