<svg width="95" height="33" viewBox="0 0 95 33" fill="none" xmlns="http://www.w3.org/2000/svg">
<path d="M75.1273 3.35079L82.9249 1.96308V31.8815H75.1273V3.35079ZM86.5098 3.35079V31.865H94.3074V1.96308L86.5098 3.35079ZM64.0421 31.865H71.8397V9.99199H64.0421V31.865ZM12.515 13.0813C11.5237 13.0152 9.24392 12.8665 9.24392 10.818C9.24392 8.33995 12.5315 8.33995 13.754 8.33995C15.9182 8.33995 18.7266 8.98424 20.7256 9.57898C20.7256 9.57898 21.849 9.97546 22.7906 10.372L22.8732 10.3885V3.61511L22.7576 3.58207C20.3952 2.75605 17.6528 1.96308 12.548 1.96308C3.75915 1.96308 0.65332 7.0844 0.65332 11.4623C0.65332 13.9899 1.74367 19.9373 11.8046 20.6311C12.6636 20.6807 14.9269 20.8128 14.9269 22.944C14.9269 24.6951 13.0767 25.7359 9.9543 25.7359C6.53458 25.7359 3.2305 24.8603 1.21501 24.0343V31.0224C4.22173 31.8154 7.62493 32.2119 11.6063 32.2119C20.1969 32.2119 24.0462 27.3714 24.0462 22.564C24.0462 17.1123 19.7509 13.5769 12.515 13.0813ZM59.6476 9.6781C52.4448 9.90938 48.7937 13.1474 48.7937 19.5738V31.8815H56.6574V21.8371C56.6574 17.9879 57.1531 16.3358 61.7292 16.1871V9.77722C60.9362 9.62854 59.6476 9.6781 59.6476 9.6781ZM38.5015 9.97547C38.3363 10.405 37.0808 13.9404 34.0576 17.5914V1.96308L26.0121 3.54903V31.865H34.0576V23.1092C36.3869 26.6115 37.5434 31.865 37.5434 31.865H47.1747C46.2166 27.9001 42.0534 20.5981 42.0534 20.5981C45.787 15.8567 47.4391 10.8015 47.7034 9.95895H38.5015V9.97547ZM67.9244 7.8939C70.039 7.8939 71.7736 6.17578 71.7736 4.06117C71.7736 1.94656 70.0555 0.211914 67.9244 0.211914C65.8097 0.211914 64.0916 1.93003 64.0916 4.06117C64.0916 6.17578 65.8097 7.8939 67.9244 7.8939Z" fill="white"/>
<path d="M75.1273 3.35079L82.9249 1.96308V31.8815H75.1273V3.35079ZM86.5098 3.35079V31.865H94.3074V1.96308L86.5098 3.35079ZM64.0421 31.865H71.8397V9.99199H64.0421V31.865ZM12.515 13.0813C11.5237 13.0152 9.24392 12.8665 9.24392 10.818C9.24392 8.33995 12.5315 8.33995 13.754 8.33995C15.9182 8.33995 18.7266 8.98424 20.7256 9.57898C20.7256 9.57898 21.849 9.97546 22.7906 10.372L22.8732 10.3885V3.61511L22.7576 3.58207C20.3952 2.75605 17.6528 1.96308 12.548 1.96308C3.75915 1.96308 0.65332 7.0844 0.65332 11.4623C0.65332 13.9899 1.74367 19.9373 11.8046 20.6311C12.6636 20.6807 14.9269 20.8128 14.9269 22.944C14.9269 24.6951 13.0767 25.7359 9.9543 25.7359C6.53458 25.7359 3.2305 24.8603 1.21501 24.0343V31.0224C4.22173 31.8154 7.62493 32.2119 11.6063 32.2119C20.1969 32.2119 24.0462 27.3714 24.0462 22.564C24.0462 17.1123 19.7509 13.5769 12.515 13.0813ZM59.6476 9.6781C52.4448 9.90938 48.7937 13.1474 48.7937 19.5738V31.8815H56.6574V21.8371C56.6574 17.9879 57.1531 16.3358 61.7292 16.1871V9.77722C60.9362 9.62854 59.6476 9.6781 59.6476 9.6781ZM38.5015 9.97547C38.3363 10.405 37.0808 13.9404 34.0576 17.5914V1.96308L26.0121 3.54903V31.865H34.0576V23.1092C36.3869 26.6115 37.5434 31.865 37.5434 31.865H47.1747C46.2166 27.9001 42.0534 20.5981 42.0534 20.5981C45.787 15.8567 47.4391 10.8015 47.7034 9.95895H38.5015V9.97547ZM67.9244 7.8939C70.039 7.8939 71.7736 6.17578 71.7736 4.06117C71.7736 1.94656 70.0555 0.211914 67.9244 0.211914C65.8097 0.211914 64.0916 1.93003 64.0916 4.06117C64.0916 6.17578 65.8097 7.8939 67.9244 7.8939Z" fill="url(#paint0_linear_3218_52406)"/>
<defs>
<linearGradient id="paint0_linear_3218_52406" x1="47.4803" y1="0.211914" x2="47.832" y2="32.208" gradientUnits="userSpaceOnUse">
<stop stop-color="#9EEBBA"/>
<stop offset="1" stop-color="#FFF2B9"/>
</linearGradient>
</defs>
</svg>
