<svg width="94" height="31" viewBox="0 0 94 31" fill="none" xmlns="http://www.w3.org/2000/svg">
<g clip-path="url(#clip0_3218_52382)">
<path d="M60.9696 0.425781C54.4157 0.425781 48.5586 3.82328 48.5586 10.099C48.5586 17.2969 58.946 17.794 58.946 21.4104C58.946 22.9332 57.2016 24.2961 54.2208 24.2961C49.9917 24.2961 46.8307 22.3917 46.8307 22.3917L45.478 28.7256C45.478 28.7256 49.1194 30.3343 53.9537 30.3343C61.1193 30.3343 66.7584 26.7705 66.7584 20.3867C66.7584 12.7804 56.3275 12.2981 56.3275 8.94217C56.3275 7.7493 57.7596 6.44278 60.7312 6.44278C64.0843 6.44278 66.8193 7.82784 66.8193 7.82784L68.1434 1.71105C68.1434 1.71105 65.1663 0.425781 60.9686 0.425781H60.9696ZM1.00561 0.887775L0.84668 1.81084C0.84668 1.81084 3.60386 2.31533 6.08753 3.32248C9.28545 4.47654 9.51275 5.1492 10.0514 7.23556L15.9197 29.8575H23.7865L35.9055 0.887775H28.0572L20.2698 20.5844L17.0922 3.88796C16.8012 1.97716 15.3246 0.886851 13.5182 0.886851H1.00653L1.00561 0.887775ZM39.0618 0.887775L32.9053 29.8575H40.3896L46.524 0.887775H39.0618ZM80.8039 0.887775C78.9993 0.887775 78.043 1.85426 77.3417 3.54239L66.3767 29.8575H74.2251L75.7432 25.4714H85.3046L86.2277 29.8575H93.153L87.1119 0.887775H80.8039ZM81.8249 8.71487L84.1515 19.5856H77.9192L81.8258 8.71487H81.8249Z" fill="white"/>
<path d="M60.9696 0.425781C54.4157 0.425781 48.5586 3.82328 48.5586 10.099C48.5586 17.2969 58.946 17.794 58.946 21.4104C58.946 22.9332 57.2016 24.2961 54.2208 24.2961C49.9917 24.2961 46.8307 22.3917 46.8307 22.3917L45.478 28.7256C45.478 28.7256 49.1194 30.3343 53.9537 30.3343C61.1193 30.3343 66.7584 26.7705 66.7584 20.3867C66.7584 12.7804 56.3275 12.2981 56.3275 8.94217C56.3275 7.7493 57.7596 6.44278 60.7312 6.44278C64.0843 6.44278 66.8193 7.82784 66.8193 7.82784L68.1434 1.71105C68.1434 1.71105 65.1663 0.425781 60.9686 0.425781H60.9696ZM1.00561 0.887775L0.84668 1.81084C0.84668 1.81084 3.60386 2.31533 6.08753 3.32248C9.28545 4.47654 9.51275 5.1492 10.0514 7.23556L15.9197 29.8575H23.7865L35.9055 0.887775H28.0572L20.2698 20.5844L17.0922 3.88796C16.8012 1.97716 15.3246 0.886851 13.5182 0.886851H1.00653L1.00561 0.887775ZM39.0618 0.887775L32.9053 29.8575H40.3896L46.524 0.887775H39.0618ZM80.8039 0.887775C78.9993 0.887775 78.043 1.85426 77.3417 3.54239L66.3767 29.8575H74.2251L75.7432 25.4714H85.3046L86.2277 29.8575H93.153L87.1119 0.887775H80.8039ZM81.8249 8.71487L84.1515 19.5856H77.9192L81.8258 8.71487H81.8249Z" fill="url(#paint0_linear_3218_52382)"/>
</g>
<defs>
<linearGradient id="paint0_linear_3218_52382" x1="46.9997" y1="0.425781" x2="47.3114" y2="30.3311" gradientUnits="userSpaceOnUse">
<stop stop-color="#9EEBBA"/>
<stop offset="1" stop-color="#FFF2B9"/>
</linearGradient>
<clipPath id="clip0_3218_52382">
<rect width="92.3987" height="30" fill="white" transform="translate(0.800781 0.378906)"/>
</clipPath>
</defs>
</svg>
