<svg width="74" height="37" viewBox="0 0 74 37" fill="none" xmlns="http://www.w3.org/2000/svg">
<path fill-rule="evenodd" clip-rule="evenodd" d="M19.4771 0.787109H1.04556V4.6519H19.4771V0.787109ZM32.8912 0.922387L34.7477 10.2015C34.8353 10.6194 34.916 11.0547 34.99 11.508C35.064 11.9614 35.1412 12.4813 35.2221 13.0678C35.3231 12.3744 35.4088 11.8036 35.4793 11.3546C35.5499 10.9058 35.6189 10.5212 35.6862 10.2015L37.4217 0.922387H41.4886L37.3109 20.4407H33.5774L31.7509 12.108C31.6834 11.8145 31.5726 11.2414 31.4179 10.3882C31.3505 10.0062 31.2968 9.70818 31.2565 9.49494C31.2306 9.63849 31.1968 9.82684 31.155 10.0598L31.1152 10.2815C30.9606 11.1436 30.8429 11.7527 30.7622 12.108L28.9659 20.4407H25.2221L21.0545 0.922387H25.1211L26.8164 10.2547C26.8971 10.7348 26.9762 11.2148 27.0535 11.6947C27.1307 12.1746 27.2032 12.6679 27.2705 13.1744C27.334 12.7827 27.3996 12.3916 27.4673 12.0011C27.5696 11.4178 27.6755 10.8355 27.7851 10.2545L29.642 0.922158H32.8912V0.922387ZM42.982 20.4407V0.922387H47.0488V20.4407H42.982ZM50.298 20.4407V0.922387H54.5059C56.1538 0.922387 57.3025 1.02219 57.9518 1.22225C58.601 1.42208 59.1609 1.75786 59.6321 2.22868C60.1634 2.76202 60.5721 3.442 60.8581 4.26861C61.1441 5.09522 61.2869 6.0064 61.2869 7.0017C61.2869 8.51283 61.0061 9.74137 60.4444 10.688C59.8826 11.6347 59.0637 12.2633 57.9874 12.5745L62.0137 20.4407H57.4626L54.0721 12.8014V20.4409H50.298V20.4407ZM54.0721 10.1483H54.8187C55.6866 10.1483 56.3205 9.9528 56.7209 9.56178C57.1212 9.17075 57.3213 8.55738 57.3213 7.72191C57.3213 6.74435 57.1348 6.04868 56.7612 5.63538C56.3878 5.2223 55.7606 5.01542 54.8791 5.01542H54.0721V10.1483ZM63.5474 20.4407V0.922387H72.5991V5.20207H67.4729V8.58853H72.3064V12.7748H67.4729V16.0678H72.5991V20.4407H63.5474ZM17.6269 36.4265H14.6165L12.2691 31.1376V36.4265L9.65648 36.4267V22.9141H12.5697C13.7107 22.9141 14.5058 22.9834 14.9553 23.1221C15.4047 23.2603 15.7926 23.4926 16.1185 23.8187C16.4865 24.1876 16.7694 24.6584 16.9673 25.2307C17.1652 25.8031 17.2643 26.434 17.2643 27.1228C17.2643 28.169 17.0699 29.0197 16.681 29.6749C16.2919 30.3304 15.7249 30.7655 14.9797 30.9812L17.6742 36.2451L21.1548 22.9141H24.6479L28.1828 36.4267H25.4091L24.8922 34.0085H20.9311L20.4003 36.4267H17.6268L17.6269 36.4265ZM24.3055 31.3779H21.532L22.5591 26.9198C22.622 26.6319 22.6814 26.3428 22.7374 26.0525C22.7983 25.7361 22.8577 25.4192 22.9155 25.1018C23.0039 25.5758 23.076 25.9634 23.1319 26.2646C23.1879 26.5661 23.2321 26.7848 23.2646 26.9198L24.3055 31.3779ZM29.1608 22.9141V36.4267H31.8503V29.7536C31.8487 29.3655 31.8359 28.9776 31.8119 28.5907C31.7863 28.1536 31.7455 27.6525 31.6896 27.0862C31.8901 27.6646 32.0752 28.1677 32.2452 28.5953C32.4149 29.0231 32.5396 29.3075 32.619 29.4492L36.4821 36.4267H39.1579V22.9141H36.4821V29.5874C36.4838 29.9755 36.4966 30.3634 36.5207 30.7502C36.5514 31.2501 36.5921 31.7487 36.6429 32.2457C36.4379 31.6551 36.2502 31.1456 36.0804 30.718C35.9105 30.2903 35.7882 30.0059 35.7135 29.8643L31.8503 22.9141H29.1608ZM43.0316 33.4549C42.6286 33.1471 42.2202 32.6829 41.8055 32.0611L40.5479 34.8024C41.0885 35.4853 41.6505 35.9868 42.2352 36.3067C42.8199 36.6265 43.4684 36.7866 44.181 36.7866C45.3685 36.7866 46.3185 36.3512 47.031 35.481C47.7439 34.61 48.1001 33.4581 48.1001 32.0238C48.1001 31.458 48.037 30.9426 47.9113 30.4779C47.7857 30.0134 47.6014 29.6151 47.3595 29.2825C47.0009 28.7965 46.2533 28.3504 45.1169 27.9442L44.9913 27.8983C44.4653 27.7134 44.1101 27.5193 43.926 27.3165C43.7419 27.1137 43.65 26.8425 43.65 26.5042C43.65 26.1721 43.7548 25.8997 43.9644 25.6876C44.1739 25.4755 44.4465 25.3691 44.7817 25.3691C45.1076 25.3691 45.4371 25.46 45.7702 25.6412C46.103 25.8229 46.4281 26.0925 46.7447 26.449L47.618 23.8C47.1663 23.394 46.6877 23.0909 46.1824 22.8909C45.677 22.691 45.1425 22.591 44.5792 22.591C43.5357 22.591 42.6871 22.9989 42.0328 23.8141C41.3783 24.6296 41.0512 25.6828 41.0512 26.975C41.0512 27.9724 41.2582 28.7567 41.6729 29.3289C42.0872 29.9011 42.7955 30.3663 43.7966 30.7227C44.5277 30.9815 44.997 31.232 45.2045 31.4752C45.4115 31.718 45.5152 32.0643 45.5152 32.5133C45.5152 32.9193 45.3953 33.2549 45.1554 33.5193C44.9156 33.7841 44.6095 33.9164 44.2369 33.9164C43.8362 33.9164 43.4344 33.7627 43.0316 33.4549ZM49.6648 22.9141V36.4267H52.3823V31.1197H55.7287V28.2213H52.3823V25.877H55.9313V22.9141H49.6648ZM57.4472 22.9141V36.4267L63.7138 36.4265V33.3994H60.1649V31.1197H63.5114V28.2213H60.1649V25.877H63.7138V22.9141H57.4472ZM65.558 22.9141V36.4267L68.1709 36.4265V31.1376L70.5183 36.4265H73.669L70.8818 30.9812C71.627 30.7655 72.1938 30.3304 72.5829 29.6749C72.9716 29.0197 73.1662 28.169 73.1662 27.1228C73.1662 26.434 73.0671 25.8031 72.8692 25.2307C72.671 24.6584 72.3884 24.1876 72.0204 23.8186C71.6943 23.4926 71.3064 23.2603 70.857 23.1221C70.4075 22.9834 69.6125 22.9141 68.4714 22.9141H65.558ZM68.688 29.3014H68.1709V25.7476H68.7298C69.3398 25.7476 69.7743 25.8908 70.0326 26.1768C70.291 26.4631 70.4203 26.9441 70.4203 27.6211C70.4203 28.1999 70.2816 28.6246 70.0045 28.8952C69.7277 29.1661 69.2887 29.3014 68.688 29.3014ZM3.21531 26.1077V36.4267H6.00271V26.1077H8.29419V22.9141H0.923828V26.1077H3.21531ZM12.7861 29.3014H12.2692V25.7476H12.8281C13.4383 25.7476 13.8728 25.8909 14.131 26.1768C14.3897 26.4631 14.5187 26.9441 14.5187 27.6211C14.5187 28.2 14.38 28.6246 14.103 28.8952C13.8258 29.1661 13.387 29.3014 12.7861 29.3014ZM1.04556 8.28012H19.4771V12.1449H1.04556V8.28012ZM19.4761 16.482H1.04461V20.3467H19.4761V16.482Z" fill="white"/>
<path fill-rule="evenodd" clip-rule="evenodd" d="M19.4771 0.787109H1.04556V4.6519H19.4771V0.787109ZM32.8912 0.922387L34.7477 10.2015C34.8353 10.6194 34.916 11.0547 34.99 11.508C35.064 11.9614 35.1412 12.4813 35.2221 13.0678C35.3231 12.3744 35.4088 11.8036 35.4793 11.3546C35.5499 10.9058 35.6189 10.5212 35.6862 10.2015L37.4217 0.922387H41.4886L37.3109 20.4407H33.5774L31.7509 12.108C31.6834 11.8145 31.5726 11.2414 31.4179 10.3882C31.3505 10.0062 31.2968 9.70818 31.2565 9.49494C31.2306 9.63849 31.1968 9.82684 31.155 10.0598L31.1152 10.2815C30.9606 11.1436 30.8429 11.7527 30.7622 12.108L28.9659 20.4407H25.2221L21.0545 0.922387H25.1211L26.8164 10.2547C26.8971 10.7348 26.9762 11.2148 27.0535 11.6947C27.1307 12.1746 27.2032 12.6679 27.2705 13.1744C27.334 12.7827 27.3996 12.3916 27.4673 12.0011C27.5696 11.4178 27.6755 10.8355 27.7851 10.2545L29.642 0.922158H32.8912V0.922387ZM42.982 20.4407V0.922387H47.0488V20.4407H42.982ZM50.298 20.4407V0.922387H54.5059C56.1538 0.922387 57.3025 1.02219 57.9518 1.22225C58.601 1.42208 59.1609 1.75786 59.6321 2.22868C60.1634 2.76202 60.5721 3.442 60.8581 4.26861C61.1441 5.09522 61.2869 6.0064 61.2869 7.0017C61.2869 8.51283 61.0061 9.74137 60.4444 10.688C59.8826 11.6347 59.0637 12.2633 57.9874 12.5745L62.0137 20.4407H57.4626L54.0721 12.8014V20.4409H50.298V20.4407ZM54.0721 10.1483H54.8187C55.6866 10.1483 56.3205 9.9528 56.7209 9.56178C57.1212 9.17075 57.3213 8.55738 57.3213 7.72191C57.3213 6.74435 57.1348 6.04868 56.7612 5.63538C56.3878 5.2223 55.7606 5.01542 54.8791 5.01542H54.0721V10.1483ZM63.5474 20.4407V0.922387H72.5991V5.20207H67.4729V8.58853H72.3064V12.7748H67.4729V16.0678H72.5991V20.4407H63.5474ZM17.6269 36.4265H14.6165L12.2691 31.1376V36.4265L9.65648 36.4267V22.9141H12.5697C13.7107 22.9141 14.5058 22.9834 14.9553 23.1221C15.4047 23.2603 15.7926 23.4926 16.1185 23.8187C16.4865 24.1876 16.7694 24.6584 16.9673 25.2307C17.1652 25.8031 17.2643 26.434 17.2643 27.1228C17.2643 28.169 17.0699 29.0197 16.681 29.6749C16.2919 30.3304 15.7249 30.7655 14.9797 30.9812L17.6742 36.2451L21.1548 22.9141H24.6479L28.1828 36.4267H25.4091L24.8922 34.0085H20.9311L20.4003 36.4267H17.6268L17.6269 36.4265ZM24.3055 31.3779H21.532L22.5591 26.9198C22.622 26.6319 22.6814 26.3428 22.7374 26.0525C22.7983 25.7361 22.8577 25.4192 22.9155 25.1018C23.0039 25.5758 23.076 25.9634 23.1319 26.2646C23.1879 26.5661 23.2321 26.7848 23.2646 26.9198L24.3055 31.3779ZM29.1608 22.9141V36.4267H31.8503V29.7536C31.8487 29.3655 31.8359 28.9776 31.8119 28.5907C31.7863 28.1536 31.7455 27.6525 31.6896 27.0862C31.8901 27.6646 32.0752 28.1677 32.2452 28.5953C32.4149 29.0231 32.5396 29.3075 32.619 29.4492L36.4821 36.4267H39.1579V22.9141H36.4821V29.5874C36.4838 29.9755 36.4966 30.3634 36.5207 30.7502C36.5514 31.2501 36.5921 31.7487 36.6429 32.2457C36.4379 31.6551 36.2502 31.1456 36.0804 30.718C35.9105 30.2903 35.7882 30.0059 35.7135 29.8643L31.8503 22.9141H29.1608ZM43.0316 33.4549C42.6286 33.1471 42.2202 32.6829 41.8055 32.0611L40.5479 34.8024C41.0885 35.4853 41.6505 35.9868 42.2352 36.3067C42.8199 36.6265 43.4684 36.7866 44.181 36.7866C45.3685 36.7866 46.3185 36.3512 47.031 35.481C47.7439 34.61 48.1001 33.4581 48.1001 32.0238C48.1001 31.458 48.037 30.9426 47.9113 30.4779C47.7857 30.0134 47.6014 29.6151 47.3595 29.2825C47.0009 28.7965 46.2533 28.3504 45.1169 27.9442L44.9913 27.8983C44.4653 27.7134 44.1101 27.5193 43.926 27.3165C43.7419 27.1137 43.65 26.8425 43.65 26.5042C43.65 26.1721 43.7548 25.8997 43.9644 25.6876C44.1739 25.4755 44.4465 25.3691 44.7817 25.3691C45.1076 25.3691 45.4371 25.46 45.7702 25.6412C46.103 25.8229 46.4281 26.0925 46.7447 26.449L47.618 23.8C47.1663 23.394 46.6877 23.0909 46.1824 22.8909C45.677 22.691 45.1425 22.591 44.5792 22.591C43.5357 22.591 42.6871 22.9989 42.0328 23.8141C41.3783 24.6296 41.0512 25.6828 41.0512 26.975C41.0512 27.9724 41.2582 28.7567 41.6729 29.3289C42.0872 29.9011 42.7955 30.3663 43.7966 30.7227C44.5277 30.9815 44.997 31.232 45.2045 31.4752C45.4115 31.718 45.5152 32.0643 45.5152 32.5133C45.5152 32.9193 45.3953 33.2549 45.1554 33.5193C44.9156 33.7841 44.6095 33.9164 44.2369 33.9164C43.8362 33.9164 43.4344 33.7627 43.0316 33.4549ZM49.6648 22.9141V36.4267H52.3823V31.1197H55.7287V28.2213H52.3823V25.877H55.9313V22.9141H49.6648ZM57.4472 22.9141V36.4267L63.7138 36.4265V33.3994H60.1649V31.1197H63.5114V28.2213H60.1649V25.877H63.7138V22.9141H57.4472ZM65.558 22.9141V36.4267L68.1709 36.4265V31.1376L70.5183 36.4265H73.669L70.8818 30.9812C71.627 30.7655 72.1938 30.3304 72.5829 29.6749C72.9716 29.0197 73.1662 28.169 73.1662 27.1228C73.1662 26.434 73.0671 25.8031 72.8692 25.2307C72.671 24.6584 72.3884 24.1876 72.0204 23.8186C71.6943 23.4926 71.3064 23.2603 70.857 23.1221C70.4075 22.9834 69.6125 22.9141 68.4714 22.9141H65.558ZM68.688 29.3014H68.1709V25.7476H68.7298C69.3398 25.7476 69.7743 25.8908 70.0326 26.1768C70.291 26.4631 70.4203 26.9441 70.4203 27.6211C70.4203 28.1999 70.2816 28.6246 70.0045 28.8952C69.7277 29.1661 69.2887 29.3014 68.688 29.3014ZM3.21531 26.1077V36.4267H6.00271V26.1077H8.29419V22.9141H0.923828V26.1077H3.21531ZM12.7861 29.3014H12.2692V25.7476H12.8281C13.4383 25.7476 13.8728 25.8909 14.131 26.1768C14.3897 26.4631 14.5187 26.9441 14.5187 27.6211C14.5187 28.2 14.38 28.6246 14.103 28.8952C13.8258 29.1661 13.387 29.3014 12.7861 29.3014ZM1.04556 8.28012H19.4771V12.1449H1.04556V8.28012ZM19.4761 16.482H1.04461V20.3467H19.4761V16.482Z" fill="url(#paint0_linear_3218_52409)"/>
<defs>
<linearGradient id="paint0_linear_3218_52409" x1="37.2963" y1="0.787109" x2="37.8693" y2="36.7775" gradientUnits="userSpaceOnUse">
<stop stop-color="#9EEBBA"/>
<stop offset="1" stop-color="#FFF2B9"/>
</linearGradient>
</defs>
</svg>
