<svg width="357" height="222" viewBox="0 0 357 222" fill="none" xmlns="http://www.w3.org/2000/svg">
<path d="M2 2H355" stroke="#E6EDED" stroke-width="1.5" stroke-linecap="round" stroke-linejoin="round" stroke-dasharray="3 9"/>
<path d="M2 182L18.489 174.983L26.5653 166.746L33.9685 164.61L38.0067 169.186L56.8513 157.898L64.2545 160.644L78.0515 154.847L98.9152 117.627L138.623 110H157.132L170.929 120.373L181.024 106.339H190.783V99.6271H198.859L208.281 84.3729L234.866 52.6441H252.028L288.034 43.7966L298.466 36.1695H304.523L308.561 31.5932L340.194 20L345.241 5.05085L355 2" stroke="#051213" stroke-width="2.5" stroke-linecap="round" stroke-linejoin="round"/>
<path d="M2 182H355" stroke="#E6EDED" stroke-width="1.5" stroke-linecap="round" stroke-linejoin="round" stroke-dasharray="3 9"/>
<path opacity="0.5" d="M5.374 217V209.482H2.728V208.53H5.388L5.556 206.794H6.564V217H5.374ZM9.28011 217V216.02L12.9341 212.128C13.3634 211.661 13.6994 211.241 13.9421 210.868C14.1941 210.495 14.3201 210.145 14.3201 209.818V209.356C14.3201 208.833 14.1428 208.427 13.7881 208.138C13.4428 207.849 12.9854 207.704 12.4161 207.704C11.7068 207.704 11.1794 207.9 10.8341 208.292C10.4981 208.684 10.3394 209.216 10.3581 209.888H9.18211C9.17278 209.216 9.30344 208.642 9.57411 208.166C9.84478 207.681 10.2274 207.307 10.7221 207.046C11.2168 206.785 11.8001 206.654 12.4721 206.654C13.0974 206.654 13.6434 206.771 14.1101 207.004C14.5768 207.228 14.9408 207.55 15.2021 207.97C15.4634 208.381 15.5941 208.875 15.5941 209.454C15.5941 210.042 15.4541 210.588 15.1741 211.092C14.8941 211.587 14.4648 212.128 13.8861 212.716L10.7921 215.978H15.7621V217H9.28011ZM21.9026 217V206.794H23.8066L26.9706 215.474H27.0406L30.1906 206.794H32.1366V217H30.9326V208.18H30.8486L30.6806 208.712L27.6426 217H26.3826L23.3586 208.726L23.1766 208.18H23.0926V208.726L23.1066 217H21.9026ZM37.3024 217.14C36.3411 217.14 35.6178 216.818 35.1324 216.174C34.6564 215.521 34.4184 214.611 34.4184 213.444V213.29C34.4184 212.039 34.6704 211.101 35.1744 210.476C35.6878 209.851 36.3971 209.538 37.3024 209.538C37.8438 209.538 38.3198 209.669 38.7304 209.93C39.1504 210.191 39.4444 210.546 39.6124 210.994H39.7104L39.7664 209.664H40.8864V217H39.7104V215.698H39.6124C39.4351 216.137 39.1364 216.487 38.7164 216.748C38.3058 217.009 37.8344 217.14 37.3024 217.14ZM37.7084 216.16C38.3244 216.16 38.8098 215.959 39.1644 215.558C39.5191 215.157 39.6964 214.625 39.6964 213.962V212.716C39.6964 212.044 39.5191 211.507 39.1644 211.106C38.8098 210.705 38.3244 210.504 37.7084 210.504C37.0831 210.504 36.5884 210.691 36.2244 211.064C35.8604 211.437 35.6784 211.96 35.6784 212.632V214.06C35.6784 214.723 35.8604 215.241 36.2244 215.614C36.5884 215.978 37.0831 216.16 37.7084 216.16ZM42.6346 219.338V218.386H45.4206V216.188L42.4526 209.664H43.6986L45.6866 214.326L45.9666 215.026H46.0366L46.3166 214.326L48.3466 209.664H49.5646L46.5966 216.188V218.442C46.5966 218.741 46.5126 218.965 46.3446 219.114C46.1766 219.263 45.9526 219.338 45.6726 219.338H42.6346ZM54.616 217V216.02L58.27 212.128C58.6994 211.661 59.0354 211.241 59.278 210.868C59.53 210.495 59.656 210.145 59.656 209.818V209.356C59.656 208.833 59.4787 208.427 59.124 208.138C58.7787 207.849 58.3214 207.704 57.752 207.704C57.0427 207.704 56.5154 207.9 56.17 208.292C55.834 208.684 55.6754 209.216 55.694 209.888H54.518C54.5087 209.216 54.6394 208.642 54.91 208.166C55.1807 207.681 55.5634 207.307 56.058 207.046C56.5527 206.785 57.136 206.654 57.808 206.654C58.4334 206.654 58.9794 206.771 59.446 207.004C59.9127 207.228 60.2767 207.55 60.538 207.97C60.7994 208.381 60.93 208.875 60.93 209.454C60.93 210.042 60.79 210.588 60.51 211.092C60.23 211.587 59.8007 212.128 59.222 212.716L56.128 215.978H61.098V217H54.616ZM66.1232 217.126C65.4138 217.126 64.7932 216.963 64.2612 216.636C63.7385 216.3 63.3325 215.763 63.0432 215.026C62.7538 214.279 62.6092 213.281 62.6092 212.03V211.778C62.6092 209.995 62.9125 208.698 63.5192 207.886C64.1258 207.074 64.9938 206.668 66.1232 206.668C67.2525 206.668 68.1205 207.074 68.7272 207.886C69.3338 208.698 69.6372 209.995 69.6372 211.778V212.03C69.6372 213.281 69.4878 214.279 69.1892 215.026C68.8998 215.763 68.4938 216.3 67.9712 216.636C67.4485 216.963 66.8325 217.126 66.1232 217.126ZM66.1232 216.076C66.8698 216.076 67.4298 215.81 67.8032 215.278C68.1858 214.746 68.3772 214.023 68.3772 213.108V210.686C68.3772 209.79 68.1952 209.071 67.8312 208.53C67.4672 207.979 66.8978 207.704 66.1232 207.704C65.3485 207.704 64.7745 207.979 64.4012 208.53C64.0372 209.071 63.8552 209.79 63.8552 210.686V213.108C63.8552 214.023 64.0465 214.746 64.4292 215.278C64.8118 215.81 65.3765 216.076 66.1232 216.076ZM71.1727 217V216.02L74.8267 212.128C75.256 211.661 75.592 211.241 75.8347 210.868C76.0867 210.495 76.2127 210.145 76.2127 209.818V209.356C76.2127 208.833 76.0354 208.427 75.6807 208.138C75.3354 207.849 74.878 207.704 74.3087 207.704C73.5994 207.704 73.072 207.9 72.7267 208.292C72.3907 208.684 72.232 209.216 72.2507 209.888H71.0747C71.0654 209.216 71.196 208.642 71.4667 208.166C71.7374 207.681 72.12 207.307 72.6147 207.046C73.1094 206.785 73.6927 206.654 74.3647 206.654C74.99 206.654 75.536 206.771 76.0027 207.004C76.4694 207.228 76.8334 207.55 77.0947 207.97C77.356 208.381 77.4867 208.875 77.4867 209.454C77.4867 210.042 77.3467 210.588 77.0667 211.092C76.7867 211.587 76.3574 212.128 75.7787 212.716L72.6847 215.978H77.6547V217H71.1727ZM79.3758 217V216.02L83.0298 212.128C83.4591 211.661 83.7951 211.241 84.0378 210.868C84.2898 210.495 84.4158 210.145 84.4158 209.818V209.356C84.4158 208.833 84.2385 208.427 83.8838 208.138C83.5385 207.849 83.0811 207.704 82.5118 207.704C81.8025 207.704 81.2751 207.9 80.9298 208.292C80.5938 208.684 80.4351 209.216 80.4538 209.888H79.2778C79.2685 209.216 79.3991 208.642 79.6698 208.166C79.9405 207.681 80.3231 207.307 80.8178 207.046C81.3125 206.785 81.8958 206.654 82.5678 206.654C83.1931 206.654 83.7391 206.771 84.2058 207.004C84.6725 207.228 85.0365 207.55 85.2978 207.97C85.5591 208.381 85.6898 208.875 85.6898 209.454C85.6898 210.042 85.5498 210.588 85.2698 211.092C84.9898 211.587 84.5605 212.128 83.9818 212.716L80.8878 215.978H85.8578V217H79.3758Z" fill="#051213"/>
<path opacity="0.5" d="M273.374 217V209.482H270.728V208.53H273.388L273.556 206.794H274.564V217H273.374ZM277.28 217V216.02L280.934 212.128C281.363 211.661 281.699 211.241 281.942 210.868C282.194 210.495 282.32 210.145 282.32 209.818V209.356C282.32 208.833 282.143 208.427 281.788 208.138C281.443 207.849 280.985 207.704 280.416 207.704C279.707 207.704 279.179 207.9 278.834 208.292C278.498 208.684 278.339 209.216 278.358 209.888H277.182C277.173 209.216 277.303 208.642 277.574 208.166C277.845 207.681 278.227 207.307 278.722 207.046C279.217 206.785 279.8 206.654 280.472 206.654C281.097 206.654 281.643 206.771 282.11 207.004C282.577 207.228 282.941 207.55 283.202 207.97C283.463 208.381 283.594 208.875 283.594 209.454C283.594 210.042 283.454 210.588 283.174 211.092C282.894 211.587 282.465 212.128 281.886 212.716L278.792 215.978H283.762V217H277.28ZM289.903 217V206.794H291.807L294.971 215.474H295.041L298.191 206.794H300.137V217H298.933V208.18H298.849L298.681 208.712L295.643 217H294.383L291.359 208.726L291.177 208.18H291.093V208.726L291.107 217H289.903ZM305.302 217.14C304.341 217.14 303.618 216.818 303.132 216.174C302.656 215.521 302.418 214.611 302.418 213.444V213.29C302.418 212.039 302.67 211.101 303.174 210.476C303.688 209.851 304.397 209.538 305.302 209.538C305.844 209.538 306.32 209.669 306.73 209.93C307.15 210.191 307.444 210.546 307.612 210.994H307.71L307.766 209.664H308.886V217H307.71V215.698H307.612C307.435 216.137 307.136 216.487 306.716 216.748C306.306 217.009 305.834 217.14 305.302 217.14ZM305.708 216.16C306.324 216.16 306.81 215.959 307.164 215.558C307.519 215.157 307.696 214.625 307.696 213.962V212.716C307.696 212.044 307.519 211.507 307.164 211.106C306.81 210.705 306.324 210.504 305.708 210.504C305.083 210.504 304.588 210.691 304.224 211.064C303.86 211.437 303.678 211.96 303.678 212.632V214.06C303.678 214.723 303.86 215.241 304.224 215.614C304.588 215.978 305.083 216.16 305.708 216.16ZM310.635 219.338V218.386H313.421V216.188L310.453 209.664H311.699L313.687 214.326L313.967 215.026H314.037L314.317 214.326L316.347 209.664H317.565L314.597 216.188V218.442C314.597 218.741 314.513 218.965 314.345 219.114C314.177 219.263 313.953 219.338 313.673 219.338H310.635ZM322.616 217V216.02L326.27 212.128C326.699 211.661 327.035 211.241 327.278 210.868C327.53 210.495 327.656 210.145 327.656 209.818V209.356C327.656 208.833 327.479 208.427 327.124 208.138C326.779 207.849 326.321 207.704 325.752 207.704C325.043 207.704 324.515 207.9 324.17 208.292C323.834 208.684 323.675 209.216 323.694 209.888H322.518C322.509 209.216 322.639 208.642 322.91 208.166C323.181 207.681 323.563 207.307 324.058 207.046C324.553 206.785 325.136 206.654 325.808 206.654C326.433 206.654 326.979 206.771 327.446 207.004C327.913 207.228 328.277 207.55 328.538 207.97C328.799 208.381 328.93 208.875 328.93 209.454C328.93 210.042 328.79 210.588 328.51 211.092C328.23 211.587 327.801 212.128 327.222 212.716L324.128 215.978H329.098V217H322.616ZM334.123 217.126C333.414 217.126 332.793 216.963 332.261 216.636C331.739 216.3 331.333 215.763 331.043 215.026C330.754 214.279 330.609 213.281 330.609 212.03V211.778C330.609 209.995 330.913 208.698 331.519 207.886C332.126 207.074 332.994 206.668 334.123 206.668C335.253 206.668 336.121 207.074 336.727 207.886C337.334 208.698 337.637 209.995 337.637 211.778V212.03C337.637 213.281 337.488 214.279 337.189 215.026C336.9 215.763 336.494 216.3 335.971 216.636C335.449 216.963 334.833 217.126 334.123 217.126ZM334.123 216.076C334.87 216.076 335.43 215.81 335.803 215.278C336.186 214.746 336.377 214.023 336.377 213.108V210.686C336.377 209.79 336.195 209.071 335.831 208.53C335.467 207.979 334.898 207.704 334.123 207.704C333.349 207.704 332.775 207.979 332.401 208.53C332.037 209.071 331.855 209.79 331.855 210.686V213.108C331.855 214.023 332.047 214.746 332.429 215.278C332.812 215.81 333.377 216.076 334.123 216.076ZM339.173 217V216.02L342.827 212.128C343.256 211.661 343.592 211.241 343.835 210.868C344.087 210.495 344.213 210.145 344.213 209.818V209.356C344.213 208.833 344.035 208.427 343.681 208.138C343.335 207.849 342.878 207.704 342.309 207.704C341.599 207.704 341.072 207.9 340.727 208.292C340.391 208.684 340.232 209.216 340.251 209.888H339.075C339.065 209.216 339.196 208.642 339.467 208.166C339.737 207.681 340.12 207.307 340.615 207.046C341.109 206.785 341.693 206.654 342.365 206.654C342.99 206.654 343.536 206.771 344.003 207.004C344.469 207.228 344.833 207.55 345.095 207.97C345.356 208.381 345.487 208.875 345.487 209.454C345.487 210.042 345.347 210.588 345.067 211.092C344.787 211.587 344.357 212.128 343.779 212.716L340.685 215.978H345.655V217H339.173ZM351.533 217V214.494H346.759V213.542L350.077 206.794H351.337L348.075 213.388V213.486L351.519 213.472L351.771 211.246H352.723V213.472H354.417V214.494H352.723V217H351.533Z" fill="#051213"/>
</svg>
