<svg width="65" height="40" viewBox="0 0 65 40" fill="none" xmlns="http://www.w3.org/2000/svg">
<path d="M41.3696 4.2793H23.9062V35.7227H41.3696V4.2793Z" fill="#FF5A00"/>
<path d="M41.3696 4.2793H23.9062V35.7227H41.3696V4.2793Z" fill="#EE6726"/>
<path d="M25.0692 20C25.0692 13.6117 28.0659 7.94175 32.6642 4.27832C29.2801 1.61165 25.0111 0 20.3547 0C9.32384 0 0.398438 8.94498 0.398438 20C0.398438 31.055 9.32384 40 20.3547 40C25.0111 40 29.2801 38.3884 32.6642 35.7217C28.0594 32.11 25.0692 26.3884 25.0692 20Z" fill="#EB001B"/>
<path d="M25.0692 20C25.0692 13.6117 28.0659 7.94175 32.6642 4.27832C29.2801 1.61165 25.0111 0 20.3547 0C9.32384 0 0.398438 8.94498 0.398438 20C0.398438 31.055 9.32384 40 20.3547 40C25.0111 40 29.2801 38.3884 32.6642 35.7217C28.0594 32.11 25.0692 26.3884 25.0692 20Z" fill="#DA3428"/>
<path d="M64.9298 20C64.9298 31.055 56.0044 40 44.9736 40C40.3172 40 36.0482 38.3884 32.6641 35.7217C37.3205 32.0518 40.2591 26.3884 40.2591 20C40.2591 13.6117 37.2624 7.94175 32.6641 4.27832C36.0418 1.61165 40.3107 0 44.9672 0C56.0044 0 64.9298 9.00324 64.9298 20Z" fill="#F79E1B"/>
<path d="M64.9298 20C64.9298 31.055 56.0044 40 44.9736 40C40.3172 40 36.0482 38.3884 32.6641 35.7217C37.3205 32.0518 40.2591 26.3884 40.2591 20C40.2591 13.6117 37.2624 7.94175 32.6641 4.27832C36.0418 1.61165 40.3107 0 44.9672 0C56.0044 0 64.9298 9.00324 64.9298 20Z" fill="#EEA13C"/>
<path fill-rule="evenodd" clip-rule="evenodd" d="M32.6712 35.7155C37.3236 32.0454 40.2592 26.3845 40.2592 19.9993C40.2592 13.6116 37.2607 7.9421 32.6631 4.27864C28.0655 7.9421 25.0693 13.6116 25.0693 19.9993C25.0693 26.3877 28.0595 32.1093 32.6642 35.721C32.6666 35.7191 32.6689 35.7173 32.6712 35.7155ZM32.6631 3L33.2863 3.49656C38.1093 7.33961 41.2592 13.2912 41.2592 19.9993C41.2592 26.7028 38.1732 32.6524 33.2832 36.5064L32.6657 36.993L32.0471 36.5078C27.2074 32.7118 24.0693 26.7032 24.0693 19.9993C24.0693 13.2914 27.2167 7.33977 32.0399 3.49656L32.6631 3Z" fill="#ED6726"/>
</svg>
