<svg width="93" height="30" viewBox="0 0 93 30" fill="none" xmlns="http://www.w3.org/2000/svg">
<g clip-path="url(#clip0_3218_59219)">
<path d="M60.1688 0.046875C53.615 0.046875 47.7578 3.44437 47.7578 9.72009C47.7578 16.9179 58.1453 17.4151 58.1453 21.0315C58.1453 22.5543 56.4008 23.9171 53.42 23.9171C49.1909 23.9171 46.0299 22.0128 46.0299 22.0128L44.6772 28.3467C44.6772 28.3467 48.3187 29.9554 53.153 29.9554C60.3185 29.9554 65.9576 26.3916 65.9576 20.0078C65.9576 12.4015 55.5267 11.9192 55.5267 8.56326C55.5267 7.37039 56.9589 6.06388 59.9304 6.06388C63.2836 6.06388 66.0186 7.44893 66.0186 7.44893L67.3426 1.33214C67.3426 1.33214 64.3655 0.046875 60.1679 0.046875H60.1688ZM0.204824 0.508868L0.0458984 1.43193C0.0458984 1.43193 2.80308 1.93643 5.28675 2.94357C8.48467 4.09763 8.71197 4.77029 9.25065 6.85666L15.1189 29.4786H22.9857L35.1047 0.508868H27.2564L19.469 20.2055L16.2914 3.50905C16.0004 1.59825 14.5238 0.507944 12.7175 0.507944H0.205748L0.204824 0.508868ZM38.2611 0.508868L32.1045 29.4786H39.5888L45.7232 0.508868H38.2611ZM80.0031 0.508868C78.1985 0.508868 77.2422 1.47536 76.5409 3.16348L65.576 29.4786H73.4243L74.9424 25.0925H84.5038L85.4269 29.4786H92.3522L86.3111 0.508868H80.0031ZM81.0241 8.33596L83.3507 19.2067H77.1184L81.025 8.33596H81.0241Z" fill="white"/>
<path d="M60.1688 0.046875C53.615 0.046875 47.7578 3.44437 47.7578 9.72009C47.7578 16.9179 58.1453 17.4151 58.1453 21.0315C58.1453 22.5543 56.4008 23.9171 53.42 23.9171C49.1909 23.9171 46.0299 22.0128 46.0299 22.0128L44.6772 28.3467C44.6772 28.3467 48.3187 29.9554 53.153 29.9554C60.3185 29.9554 65.9576 26.3916 65.9576 20.0078C65.9576 12.4015 55.5267 11.9192 55.5267 8.56326C55.5267 7.37039 56.9589 6.06388 59.9304 6.06388C63.2836 6.06388 66.0186 7.44893 66.0186 7.44893L67.3426 1.33214C67.3426 1.33214 64.3655 0.046875 60.1679 0.046875H60.1688ZM0.204824 0.508868L0.0458984 1.43193C0.0458984 1.43193 2.80308 1.93643 5.28675 2.94357C8.48467 4.09763 8.71197 4.77029 9.25065 6.85666L15.1189 29.4786H22.9857L35.1047 0.508868H27.2564L19.469 20.2055L16.2914 3.50905C16.0004 1.59825 14.5238 0.507944 12.7175 0.507944H0.205748L0.204824 0.508868ZM38.2611 0.508868L32.1045 29.4786H39.5888L45.7232 0.508868H38.2611ZM80.0031 0.508868C78.1985 0.508868 77.2422 1.47536 76.5409 3.16348L65.576 29.4786H73.4243L74.9424 25.0925H84.5038L85.4269 29.4786H92.3522L86.3111 0.508868H80.0031ZM81.0241 8.33596L83.3507 19.2067H77.1184L81.025 8.33596H81.0241Z" fill="#1E579C"/>
</g>
<defs>
<clipPath id="clip0_3218_59219">
<rect width="92.3987" height="30" fill="white"/>
</clipPath>
</defs>
</svg>
