<svg width="45" height="45" viewBox="0 0 45 45" fill="none" xmlns="http://www.w3.org/2000/svg">
<g clip-path="url(#clip0_3218_50355)">
<path d="M22.5 44.9648C34.6503 44.9648 44.5 35.1151 44.5 22.9648C44.5 10.8146 34.6503 0.964844 22.5 0.964844C10.3497 0.964844 0.5 10.8146 0.5 22.9648C0.5 35.1151 10.3497 44.9648 22.5 44.9648Z" fill="white"/>
<path d="M31.5986 17.6587C31.4506 17.7734 28.8392 19.2449 28.8392 22.5169C28.8392 26.3015 32.1622 27.6404 32.2616 27.6735C32.2463 27.7551 31.7337 29.5071 30.5096 31.2923C29.4181 32.8633 28.2781 34.4317 26.544 34.4317C24.8098 34.4317 24.3635 33.4243 22.3615 33.4243C20.4106 33.4243 19.7169 34.4648 18.1307 34.4648C16.5444 34.4648 15.4376 33.0112 14.165 31.226C12.691 29.1297 11.5 25.873 11.5 22.7821C11.5 17.8244 14.7235 15.1951 17.896 15.1951C19.5818 15.1951 20.9869 16.3019 22.0453 16.3019C23.0527 16.3019 24.6236 15.1288 26.5414 15.1288C27.2682 15.1288 29.8797 15.1951 31.5986 17.6587ZM25.631 13.03C26.4241 12.0889 26.9852 10.7832 26.9852 9.47745C26.9852 9.29638 26.9698 9.11276 26.9367 8.96484C25.6463 9.0133 24.111 9.82428 23.1853 10.8979C22.4584 11.7242 21.7801 13.03 21.7801 14.3535C21.7801 14.5525 21.8132 14.7514 21.8285 14.8151C21.9101 14.8304 22.0428 14.8483 22.1754 14.8483C23.3332 14.8483 24.7894 14.073 25.631 13.03Z" fill="#092426"/>
</g>
<defs>
<clipPath id="clip0_3218_50355">
<rect width="44" height="44" fill="white" transform="translate(0.5 0.964844)"/>
</clipPath>
</defs>
</svg>
