<svg width="45" height="45" viewBox="0 0 45 45" fill="none" xmlns="http://www.w3.org/2000/svg">
<g clip-path="url(#clip0_3218_50336)">
<path d="M22.5 44.9648C34.6503 44.9648 44.5 35.1151 44.5 22.9648C44.5 10.8146 34.6503 0.964844 22.5 0.964844C10.3497 0.964844 0.5 10.8146 0.5 22.9648C0.5 35.1151 10.3497 44.9648 22.5 44.9648Z" fill="#F7931A"/>
<path d="M32.3848 20.2423C32.8166 17.3603 30.6207 15.8107 27.6204 14.7767L28.5939 10.8717L26.2179 10.2805L25.2692 14.0823C24.6449 13.9256 24.0042 13.7798 23.3648 13.6341L24.3204 9.80747L21.9444 9.21484L20.9709 13.1185C20.4539 13.0002 19.9452 12.8847 19.4529 12.761L19.4557 12.7486L16.1777 11.9305L15.5452 14.4687C15.5452 14.4687 17.3093 14.873 17.2722 14.8977C18.2347 15.1383 18.4079 15.775 18.3791 16.281L17.2708 20.7291C17.3368 20.7456 17.4221 20.7703 17.5183 20.8075L17.2667 20.7456L15.7129 26.9771C15.5947 27.2686 15.2963 27.7072 14.6226 27.5408C14.6473 27.5752 12.8956 27.1105 12.8956 27.1105L11.7158 29.8302L14.8096 30.6016C15.3843 30.746 15.9481 30.8972 16.5022 31.0388L15.5191 34.9878L17.8937 35.5791L18.8672 31.6741C19.5162 31.8487 20.1459 32.011 20.7619 32.165L19.7912 36.0535L22.1672 36.6447L23.1503 32.704C27.2038 33.4712 30.2508 33.1618 31.5337 29.4961C32.5677 26.5453 31.4828 24.8417 29.3502 23.7321C30.9039 23.3746 32.0727 22.353 32.3848 20.2423V20.2423ZM26.9536 27.8571C26.2207 30.8092 21.2501 29.2128 19.6386 28.8127L20.9448 23.5808C22.5563 23.9837 27.7222 24.7798 26.9536 27.8571ZM27.6892 20.1997C27.0196 22.8851 22.8836 21.5197 21.5429 21.1856L22.7254 16.4418C24.0661 16.776 28.3877 17.3988 27.6892 20.1997Z" fill="white"/>
</g>
<defs>
<clipPath id="clip0_3218_50336">
<rect width="44" height="44" fill="white" transform="translate(0.5 0.964844)"/>
</clipPath>
</defs>
</svg>
