<svg width="45" height="45" viewBox="0 0 45 45" fill="none" xmlns="http://www.w3.org/2000/svg">
<g clip-path="url(#clip0_3218_50365)">
<path d="M22.5 44.9648C34.6503 44.9648 44.5 35.1151 44.5 22.9648C44.5 10.8146 34.6503 0.964844 22.5 0.964844C10.3497 0.964844 0.5 10.8146 0.5 22.9648C0.5 35.1151 10.3497 44.9648 22.5 44.9648Z" fill="white"/>
<path d="M12.0243 26.2297C12.0243 27.2988 12.259 28.1197 12.5657 28.6163C12.9679 29.2667 13.5677 29.5423 14.1792 29.5423C14.9679 29.5423 15.6894 29.3465 17.0798 27.4235C18.1938 25.8821 19.5063 23.7185 20.3895 22.3621L21.8851 20.0642C22.9241 18.4683 24.1266 16.6942 25.5054 15.4916C26.631 14.5101 27.8452 13.9648 29.0672 13.9648C31.1188 13.9648 33.073 15.1537 34.5686 17.3835C36.2055 19.8256 37 22.9016 37 26.0758C37 27.9629 36.628 29.3495 35.9951 30.4449C35.3836 31.5043 34.1918 32.5627 32.187 32.5627V29.5423C33.9036 29.5423 34.332 27.9648 34.332 26.1596C34.332 23.587 33.7322 20.7321 32.4109 18.6922C31.4732 17.2453 30.258 16.3611 28.9211 16.3611C27.4752 16.3611 26.3116 17.4517 25.0039 19.3962C24.3087 20.4293 23.5949 21.6883 22.7936 23.109L21.9114 24.6718C20.1392 27.8139 19.6904 28.5296 18.8043 29.7107C17.2512 31.7789 15.925 32.5627 14.1792 32.5627C12.1081 32.5627 10.7984 31.6659 9.98734 30.3144C9.32522 29.2131 9 27.7682 9 26.1216L12.0243 26.2297Z" fill="#0081FB"/>
<path d="M11.3848 17.5968C12.7713 15.4595 14.7723 13.9648 17.0673 13.9648C18.3965 13.9648 19.7178 14.3582 21.0975 15.4848C22.6068 16.7165 24.2153 18.7448 26.2222 22.0875L26.9417 23.2871C28.6788 26.181 29.6671 27.6698 30.2455 28.3719C30.9894 29.2735 31.5104 29.5423 32.1871 29.5423C33.9038 29.5423 34.3322 27.9648 34.3322 26.1596L37.0002 26.0758C37.0002 27.9629 36.6282 29.3495 35.9953 30.4449C35.3838 31.5043 34.192 32.5627 32.1871 32.5627C30.9408 32.5627 29.8366 32.292 28.6155 31.1401C27.6769 30.256 26.5795 28.6854 25.7353 27.2735L23.2241 23.0788C21.9641 20.9736 20.8083 19.404 20.1394 18.6932C19.4198 17.9288 18.4948 17.0057 17.0187 17.0057C15.8239 17.0057 14.8093 17.8441 13.9602 19.1265L11.3848 17.5968Z" fill="url(#paint0_linear_3218_50365)"/>
<path d="M17.0185 17.0057C15.8238 17.0057 14.8092 17.8441 13.9601 19.1265C12.7595 20.9386 12.0243 23.6377 12.0243 26.2297C12.0243 27.2988 12.259 28.1197 12.5657 28.6163L9.98734 30.3144C9.32522 29.2131 9 27.7682 9 26.1216C9 23.1275 9.82181 20.0067 11.3846 17.5968C12.7712 15.4595 14.7722 13.9648 17.0672 13.9648L17.0185 17.0057Z" fill="url(#paint1_linear_3218_50365)"/>
</g>
<defs>
<linearGradient id="paint0_linear_3218_50365" x1="14.9398" y1="25.3572" x2="34.2192" y2="26.331" gradientUnits="userSpaceOnUse">
<stop stop-color="#0064E1"/>
<stop offset="0.4" stop-color="#0064E1"/>
<stop offset="0.83" stop-color="#0073EE"/>
<stop offset="1" stop-color="#0082FB"/>
</linearGradient>
<linearGradient id="paint1_linear_3218_50365" x1="13.3817" y1="27.4994" x2="13.3817" y2="20.3913" gradientUnits="userSpaceOnUse">
<stop stop-color="#0082FB"/>
<stop offset="1" stop-color="#0064E0"/>
</linearGradient>
<clipPath id="clip0_3218_50365">
<rect width="44" height="44" fill="white" transform="translate(0.5 0.964844)"/>
</clipPath>
</defs>
</svg>
