<svg width="45" height="45" viewBox="0 0 45 45" fill="none" xmlns="http://www.w3.org/2000/svg">
<g clip-path="url(#clip0_3218_50343)">
<path d="M22.5 44.9648C34.6503 44.9648 44.5 35.1151 44.5 22.9648C44.5 10.8146 34.6503 0.964844 22.5 0.964844C10.3497 0.964844 0.5 10.8146 0.5 22.9648C0.5 35.1151 10.3497 44.9648 22.5 44.9648Z" fill="#E82127"/>
<path d="M23.0018 37.8584L26.4992 18.1885C29.8329 18.1885 30.8845 18.554 31.0363 20.0461C31.0363 20.0461 33.2726 19.2123 34.4006 17.5188C29.9991 15.4792 25.5766 15.3872 25.5766 15.3872L22.9959 18.5304L23.0018 18.53L20.4212 15.3867C20.4212 15.3867 15.9986 15.4788 11.5977 17.5184C12.7246 19.2119 14.9618 20.0457 14.9618 20.0457C15.1145 18.5535 16.1648 18.188 19.4761 18.1856L23.0018 37.8584Z" fill="white"/>
<path d="M23 14.4791C26.558 14.4519 30.6305 15.0295 34.7995 16.8466C35.3568 15.8437 35.5 15.4004 35.5 15.4004C30.9426 13.5974 26.6747 12.9803 22.9995 12.9648C19.3245 12.9803 15.0568 13.5975 10.5 15.4004C10.5 15.4004 10.7033 15.9464 11.2 16.8466C15.3682 15.0295 19.4414 14.4519 22.9995 14.4791H23Z" fill="white"/>
</g>
<defs>
<clipPath id="clip0_3218_50343">
<rect width="44" height="44" fill="white" transform="translate(0.5 0.964844)"/>
</clipPath>
</defs>
</svg>
