<svg width="49" height="49" viewBox="0 0 49 49" fill="none" xmlns="http://www.w3.org/2000/svg">
<g clip-path="url(#clip0_2743_505)">
<path d="M24.3945 48.418C37.6494 48.418 48.3945 37.6728 48.3945 24.418C48.3945 11.1631 37.6494 0.417969 24.3945 0.417969C11.1397 0.417969 0.394531 11.1631 0.394531 24.418C0.394531 37.6728 11.1397 48.418 24.3945 48.418Z" fill="#F0F0F0"/>
<path d="M41.189 7.27522C36.8602 3.03397 30.9335 0.417969 24.3948 0.417969C22.3078 0.417969 16.2016 3.03397 11.873 7.27522H41.189Z" fill="#6DA544"/>
<path d="M24.393 20.99H48.1482C47.8019 18.5689 47.0947 16.2645 46.0821 14.1328H23.3496L24.393 20.99Z" fill="#6DA544"/>
<path d="M2.70483 34.703H46.0828C47.0955 32.5714 47.8026 30.2668 48.1489 27.8457H0.638672C0.985078 30.2669 1.69205 32.5715 2.70483 34.703Z" fill="#6DA544"/>
<path d="M7.59961 41.5605C11.9283 45.8018 17.855 48.4178 24.3938 48.4178C30.9326 48.4178 36.8593 45.8018 41.188 41.5605H7.59961Z" fill="#6DA544"/>
<path d="M24.3938 0.417969C12.3032 0.417969 2.30255 9.359 0.638672 20.9894H24.3938V0.417969Z" fill="#D80027"/>
<path d="M12.393 18.8185L11.3496 16.7316V12.5577L13.9583 10.4707L16.567 12.5577V15.6881L17.6104 14.6446V16.7316L15.5235 18.8185H12.393Z" fill="#F0F0F0"/>
<path d="M6.78161 12.418L7.05789 13.2683H7.95189L7.22861 13.7939L7.50498 14.6442L6.78161 14.1186L6.05823 14.6442L6.33461 13.7939L5.61133 13.2683H6.50533L6.78161 12.418Z" fill="#F0F0F0"/>
<path d="M8.8695 10.332L9.14578 11.1823H10.0399L9.3165 11.708L9.59278 12.5582L8.8695 12.0327L8.14622 12.5582L8.42259 11.708L7.69922 11.1823H8.59312L8.8695 10.332Z" fill="#F0F0F0"/>
<path d="M10.9554 8.24414L11.2317 9.09445H12.1256L11.4024 9.62011L11.6786 10.4703L10.9554 9.94486L10.2321 10.4703L10.5083 9.62011L9.78516 9.09445H10.6791L10.9554 8.24414Z" fill="#F0F0F0"/>
<path d="M21.137 12.418L20.8607 13.2683H19.9668L20.69 13.7939L20.4137 14.6442L21.137 14.1186L21.8604 14.6442L21.5841 13.7939L22.3073 13.2683H21.4134L21.137 12.418Z" fill="#F0F0F0"/>
<path d="M19.0491 10.332L18.7728 11.1823H17.8789L18.6021 11.708L18.3258 12.5582L19.0491 12.0327L19.7725 12.5582L19.4961 11.708L20.2194 11.1823H19.3255L19.0491 10.332Z" fill="#F0F0F0"/>
<path d="M16.9633 8.24414L16.6869 9.09445H15.793L16.5162 9.62011L16.2399 10.4703L16.9633 9.94486L17.6865 10.4703L17.4103 9.62011L18.1334 9.09445H17.2395L16.9633 8.24414Z" fill="#F0F0F0"/>
<path d="M13.9593 7.20117L13.683 8.05148H12.7891L13.5123 8.57705L13.236 9.42727L13.9593 8.9018L14.6826 9.42727L14.4063 8.57705L15.1295 8.05148H14.2356L13.9593 7.20117Z" fill="#F0F0F0"/>
</g>
<defs>
<clipPath id="clip0_2743_505">
<rect x="0.394531" y="0.417969" width="48" height="48" rx="24" fill="white"/>
</clipPath>
</defs>
</svg>
