<svg width="49" height="49" viewBox="0 0 49 49" fill="none" xmlns="http://www.w3.org/2000/svg">
<g clip-path="url(#clip0_2743_522)">
<path d="M34.8295 2.79941C31.6743 1.27372 28.1345 0.417969 24.3948 0.417969C20.6551 0.417969 17.1153 1.27372 13.96 2.79941L11.873 24.418L13.96 46.0365C17.1153 47.5622 20.6551 48.418 24.3948 48.418C28.1345 48.418 31.6743 47.5622 34.8295 46.0365L36.9165 24.418L34.8295 2.79941Z" fill="#D80027"/>
<path d="M13.9598 2.80078C5.93197 6.68269 0.394531 14.9035 0.394531 24.4185C0.394531 33.9335 5.93197 42.1543 13.9598 46.0362V2.80078Z" fill="black"/>
<path d="M34.8301 2.80078V46.0362C42.8579 42.1543 48.3953 33.9335 48.3953 24.4185C48.3953 14.9035 42.8579 6.68269 34.8301 2.80078Z" fill="#496E2D"/>
<path d="M24.3947 16.0703C19.7842 16.0703 16.0469 19.8078 16.0469 24.4181C16.0469 29.0284 19.7843 32.7659 24.3947 32.7659C29.005 32.7659 32.7424 29.0284 32.7424 24.4181C32.7424 19.8078 29.0051 16.0703 24.3947 16.0703ZM24.3947 29.6355C21.5132 29.6355 19.1773 27.2995 19.1773 24.4181C19.1773 21.5367 21.5132 19.2007 24.3947 19.2007C27.2761 19.2007 29.612 21.5367 29.612 24.4181C29.612 27.2995 27.2762 29.6355 24.3947 29.6355Z" fill="#FFDA44"/>
<path d="M24.3956 21.2871C23.2429 21.2871 22.3086 22.2214 22.3086 23.3741V26.5045H26.4825V23.3741C26.4825 22.2214 25.5482 21.2871 24.3956 21.2871Z" fill="#FFDA44"/>
</g>
<defs>
<clipPath id="clip0_2743_522">
<rect x="0.394531" y="0.417969" width="48" height="48" rx="24" fill="white"/>
</clipPath>
</defs>
</svg>
