<svg width="49" height="49" viewBox="0 0 49 49" fill="none" xmlns="http://www.w3.org/2000/svg">
<g clip-path="url(#clip0_2743_529)">
<path d="M47.5677 30.6794C48.1058 28.683 48.3945 26.5847 48.3945 24.4185C48.3945 22.2522 48.1058 20.1539 47.5677 18.1575L22.3076 0.509766C17.6181 0.913828 13.3147 2.66602 9.78584 5.37736L1.22131 18.1575C0.683281 20.1539 0.394531 22.2522 0.394531 24.4185C0.394531 26.5721 0.679813 28.6589 1.21184 30.6447L9.78575 43.4595C13.3146 46.1709 17.618 47.9232 22.3075 48.3271L47.5677 30.6794Z" fill="#FFDA44"/>
<path d="M1.2207 30.6797C2.60933 35.8321 5.6698 40.2978 9.78523 43.4599V30.6797H1.2207Z" fill="#0052B4"/>
<path d="M22.3066 48.3275C22.9946 48.3867 23.6903 48.4188 24.3936 48.4188C35.4823 48.4188 44.8128 40.8981 47.5668 30.6797H22.3066V48.3275Z" fill="#0052B4"/>
<path d="M47.5668 18.1571C44.8128 7.93869 35.4823 0.417969 24.3936 0.417969C23.6903 0.417969 22.9946 0.450031 22.3066 0.509281V18.1571H47.5668Z" fill="#0052B4"/>
<path d="M9.78523 5.37695C5.6698 8.53914 2.60933 13.0047 1.2207 18.1571H9.78523V5.37695Z" fill="#0052B4"/>
<path d="M48.1914 21.2874H19.1772H19.1772V0.988281C16.9592 1.48009 14.8565 2.27725 12.9163 3.33597V21.2873H0.597688C0.464094 22.3121 0.394531 23.3568 0.394531 24.4178C0.394531 25.4788 0.464094 26.5235 0.597688 27.5482H12.9162H12.9163V45.4996C14.8565 46.5582 16.9592 47.3555 19.1772 47.8473V27.5485V27.5483H48.1914C48.3248 26.5235 48.3945 25.4788 48.3945 24.4178C48.3945 23.3568 48.3248 22.3121 48.1914 21.2874Z" fill="#D80027"/>
</g>
<defs>
<clipPath id="clip0_2743_529">
<rect x="0.394531" y="0.417969" width="48" height="48" rx="24" fill="white"/>
</clipPath>
</defs>
</svg>
