<svg width="49" height="49" viewBox="0 0 49 49" fill="none" xmlns="http://www.w3.org/2000/svg">
<g clip-path="url(#clip0_2743_555)">
<path d="M24.3945 48.418C37.6494 48.418 48.3945 37.6728 48.3945 24.418C48.3945 11.1631 37.6494 0.417969 24.3945 0.417969C11.1397 0.417969 0.394531 11.1631 0.394531 24.418C0.394531 37.6728 11.1397 48.418 24.3945 48.418Z" fill="#D80027"/>
<path d="M37.9605 18.231H29.2674C29.804 17.669 30.1343 16.9083 30.1343 16.0699C30.1343 14.341 28.7328 12.9395 27.0039 12.9395C25.9147 12.9395 24.956 13.496 24.3952 14.3398C23.8345 13.496 22.8756 12.9395 21.7865 12.9395C20.0577 12.9395 18.6561 14.341 18.6561 16.0699C18.6561 16.9083 18.9864 17.6691 19.523 18.231H10.8301C10.8301 20.5362 12.8379 22.4048 15.143 22.4048H15.0038C15.0038 24.7101 16.8725 26.5789 19.1779 26.5789C19.1779 27.3255 19.3746 28.0254 19.7181 28.6314L16.256 32.0937L18.9123 34.7498L22.6803 30.9819C22.8278 31.036 22.9805 31.0794 23.1382 31.109L20.8613 36.2497L24.3952 40.0699L27.9291 36.2495L25.6522 31.1088C25.81 31.0792 25.9626 31.0359 26.1102 30.9817L29.8782 34.7496L32.5345 32.0934L29.0722 28.6311C29.4158 28.0252 29.6126 27.3252 29.6126 26.5786C31.9178 26.5786 33.7865 24.71 33.7865 22.4045H33.6475C35.9525 22.4047 37.9605 20.5362 37.9605 18.231Z" fill="black"/>
</g>
<defs>
<clipPath id="clip0_2743_555">
<rect x="0.394531" y="0.417969" width="48" height="48" rx="24" fill="white"/>
</clipPath>
</defs>
</svg>
