<svg width="49" height="49" viewBox="0 0 49 49" fill="none" xmlns="http://www.w3.org/2000/svg">
<g clip-path="url(#clip0_2743_558)">
<path d="M24.3941 0.417969C37.6488 0.417969 48.3941 11.1632 48.3941 24.418C48.3941 37.6727 37.6488 48.418 24.3941 48.418C24.3941 47.3745 21.2637 24.418 21.2637 24.418L24.3941 0.417969Z" fill="#F0F0F0"/>
<path d="M24.3945 48.418C11.1398 48.418 0.394531 37.6727 0.394531 24.418C0.394531 11.1632 11.1398 0.417969 24.3945 0.417969" fill="#496E2D"/>
<path d="M29.5508 19.8145L27.5817 22.528L24.3926 21.4938L26.3649 24.205L24.396 26.9186L27.5838 25.8807L29.5561 28.5919L29.5541 25.2393L32.742 24.2013L29.553 23.1672L29.5508 19.8145Z" fill="#D80027"/>
<path d="M26.3862 31.2008C22.6403 31.2008 19.6035 28.1641 19.6035 24.4182C19.6035 20.6723 22.6403 17.6356 26.3862 17.6356C27.5541 17.6356 28.6531 17.9309 29.6126 18.4508C28.1073 16.9788 26.0489 16.0703 23.7775 16.0703C19.167 16.0703 15.4297 19.8078 15.4297 24.4181C15.4297 29.0284 19.1671 32.7659 23.7775 32.7659C26.049 32.7659 28.1074 31.8573 29.6126 30.3854C28.6531 30.9055 27.5541 31.2008 26.3862 31.2008Z" fill="#D80027"/>
</g>
<defs>
<clipPath id="clip0_2743_558">
<rect x="0.394531" y="0.417969" width="48" height="48" rx="24" fill="white"/>
</clipPath>
</defs>
</svg>
