<svg width="49" height="49" viewBox="0 0 49 49" fill="none" xmlns="http://www.w3.org/2000/svg">
<g clip-path="url(#clip0_2743_564)">
<path d="M24.3945 48.418C37.6494 48.418 48.3945 37.6728 48.3945 24.418C48.3945 11.1631 37.6494 0.417969 24.3945 0.417969C11.1397 0.417969 0.394531 11.1631 0.394531 24.418C0.394531 37.6728 11.1397 48.418 24.3945 48.418Z" fill="#F0F0F0"/>
<path d="M36.0379 3.42847C32.5894 1.51147 28.6198 0.417969 24.3945 0.417969C11.1407 0.417969 0.396219 11.1615 0.394531 24.4152L17.0902 16.0702L36.0379 3.42847Z" fill="#0052B4"/>
<path d="M0.394531 24.4199C0.396219 37.6735 11.1407 48.4171 24.3945 48.4171C28.6198 48.4171 32.5894 47.3238 36.0379 45.4066L17.0902 32.7649L0.394531 24.4199Z" fill="#0052B4"/>
<path d="M38.038 4.67337C37.3933 4.22722 36.7254 3.81228 36.0371 3.42969L0.394531 24.416V24.4188C0.394531 24.4188 0.394531 24.4208 0.394531 24.4216L36.0372 45.4078C36.7255 45.0252 37.3933 44.6103 38.0381 44.1642L4.50284 24.4188L38.038 4.67337Z" fill="#D80027"/>
<path d="M42.1329 23.5231H39.2741C40.0175 22.6306 39.9716 21.3028 39.1342 20.4655C40.0212 19.5785 40.0212 18.1403 39.1342 17.2532L39.0807 17.3068C39.9677 16.4198 40.0212 14.928 39.1342 14.041L26.2852 26.89C27.1722 27.7772 28.5852 27.7666 29.4722 26.8795L29.7195 26.6535L35.8721 26.0942V28.7404H37.9591V25.9044L41.0895 25.6199L42.1329 23.5231Z" fill="#A2001D"/>
<path d="M26.4823 29.6358L24.3945 28.5924L26.4823 27.5488H40.0474V29.6358H26.4823Z" fill="#FFDA44"/>
</g>
<defs>
<clipPath id="clip0_2743_564">
<rect x="0.394531" y="0.417969" width="48" height="48" rx="24" fill="white"/>
</clipPath>
</defs>
</svg>
