<svg width="49" height="49" viewBox="0 0 49 49" fill="none" xmlns="http://www.w3.org/2000/svg">
<g clip-path="url(#clip0_2743_572)">
<path d="M13.96 46.0365C17.1153 47.5622 20.655 48.418 24.3948 48.418C28.1345 48.418 31.6743 47.5622 34.8295 46.0365L36.9165 24.418L34.8295 2.79941C31.6743 1.27372 28.1345 0.417969 24.3948 0.417969C20.655 0.417969 17.1153 1.27372 13.96 2.79941L11.873 24.418L13.96 46.0365Z" fill="#FFDA44"/>
<path d="M34.8301 46.0362C42.858 42.1544 48.3953 33.9335 48.3953 24.4185C48.3953 14.9035 42.858 6.68259 34.8301 2.80078V46.0362Z" fill="#D80027"/>
<path d="M13.9598 46.0362V2.80078C5.93188 6.68259 0.394531 14.9034 0.394531 24.4185C0.394531 33.9336 5.93188 42.1544 13.9598 46.0362Z" fill="#0052B4"/>
<path d="M24.3945 32.7657C24.3945 28.936 24.3945 24.418 24.3945 24.418H30.6554V27.5484C30.6554 28.0922 29.612 30.085 27.0364 31.7223C26.0609 32.3426 25.0512 32.5421 24.3945 32.7657Z" fill="#D80027"/>
<path d="M18.1328 18.1562H24.3937V24.4172H18.1328V18.1562Z" fill="#D80027"/>
<path d="M27.5251 16.0694C27.5251 14.9167 26.5907 13.9824 25.4381 13.9824C25.0575 13.9824 24.7018 14.0859 24.3947 14.2639C24.0874 14.0859 23.7318 13.9824 23.3512 13.9824C22.1987 13.9824 21.2642 14.9167 21.2642 16.0694H16.0469V26.504C16.0469 30.3887 19.1318 32.6352 21.551 33.7998C21.37 34.109 21.2642 34.4677 21.2642 34.852C21.2642 36.0047 22.1987 36.939 23.3512 36.939C23.7318 36.939 24.0875 36.8355 24.3947 36.6575C24.7019 36.8355 25.0575 36.939 25.4381 36.939C26.5907 36.939 27.5251 36.0047 27.5251 34.852C27.5251 34.4677 27.4193 34.109 27.2382 33.7998C29.6574 32.6352 32.7424 30.3888 32.7424 26.504V16.0694H27.5251ZM29.612 26.504C29.612 27.0479 29.612 28.7027 27.0365 30.3401C26.061 30.9604 25.0513 31.3625 24.3947 31.5861C23.738 31.3625 22.7283 30.9604 21.7528 30.3401C19.1773 28.7027 19.1773 27.0479 19.1773 26.504V19.1998H29.612V26.504Z" fill="#FF9811"/>
</g>
<defs>
<clipPath id="clip0_2743_572">
<rect x="0.394531" y="0.417969" width="48" height="48" rx="24" fill="white"/>
</clipPath>
</defs>
</svg>
