<svg width="49" height="49" viewBox="0 0 49 49" fill="none" xmlns="http://www.w3.org/2000/svg">
<g clip-path="url(#clip0_2743_580)">
<path d="M0.394531 24.418C0.394531 11.1632 11.1398 0.417969 24.3945 0.417969C37.6493 0.417969 48.3945 11.1632 48.3945 24.418C47.3511 24.418 24.3945 27.5484 24.3945 27.5484L0.394531 24.418Z" fill="#D80027"/>
<path d="M48.3945 24.418C48.3945 37.6727 37.6493 48.418 24.3945 48.418C11.1398 48.418 0.394531 37.6727 0.394531 24.418" fill="black"/>
<path d="M21.1055 19.5062L23.14 20.9828L22.3647 23.3742L24.3978 21.8952L26.4325 23.3717L25.6542 20.9811L27.6871 19.5023L25.1732 19.5038L24.3948 17.1133L23.6194 19.5047L21.1055 19.5062Z" fill="#FFDA44"/>
<path d="M30.3953 14.0256C28.5041 12.9337 26.4363 12.4183 24.3953 12.4219V15.5516C25.9038 15.5489 27.4322 15.9295 28.8301 16.7367C33.0655 19.1821 34.5219 24.6174 32.0764 28.8528C29.6312 33.0882 24.196 34.5446 19.9605 32.0993C18.7265 31.3869 17.7304 30.4195 16.9962 29.3033L14.3828 31.0286C15.3763 32.5389 16.7259 33.8464 18.3953 34.8101C24.1257 38.1186 31.4792 36.1482 34.7875 30.4179C38.0959 24.6875 36.1257 17.334 30.3953 14.0256Z" fill="#FFDA44"/>
<path d="M17.4764 22.3301C16.6467 23.8469 17.2038 25.7491 18.7205 26.5788L28.8876 32.1345C28.1962 33.3983 28.5634 34.9366 29.8272 35.628L32.5736 37.1304C33.8375 37.8219 35.4229 37.3576 36.1143 36.0937L37.6166 33.3474L17.4764 22.3301Z" fill="#FFDA44"/>
</g>
<defs>
<clipPath id="clip0_2743_580">
<rect x="0.394531" y="0.417969" width="48" height="48" rx="24" fill="white"/>
</clipPath>
</defs>
</svg>
