<svg width="49" height="49" viewBox="0 0 49 49" fill="none" xmlns="http://www.w3.org/2000/svg">
<g clip-path="url(#clip0_2743_587)">
<path d="M48.3945 24.418C48.3945 37.6727 37.6493 48.418 24.3945 48.418C11.1398 48.418 0.394531 37.6727 0.394531 24.418C0.394531 24.4237 24.3945 0.420594 24.3945 0.417969C37.6493 0.417969 48.3945 11.1632 48.3945 24.418Z" fill="#0052B4"/>
<path d="M24.3301 24.4177H24.3943C24.3943 24.3962 24.3943 24.3752 24.3943 24.3535C24.3729 24.375 24.3515 24.3964 24.3301 24.4177Z" fill="#F0F0F0"/>
<path d="M24.3945 12.9397C24.3945 8.71672 24.3945 5.94969 24.3945 0.417969H24.3905C11.1374 0.420219 0.394531 11.1644 0.394531 24.418H12.9163V17.3669L19.9673 24.418H24.3304C24.3518 24.3966 24.3732 24.3752 24.3946 24.3538C24.3946 22.7368 24.3946 21.2941 24.3946 19.9909L17.3434 12.9397H24.3945Z" fill="#F0F0F0"/>
<path d="M12.537 3.54883C8.78336 5.68623 5.6627 8.8068 3.52539 12.5605V24.4184H9.7863V9.80992V9.80973H24.395C24.395 7.83508 24.395 5.95389 24.395 3.54883H12.537Z" fill="#D80027"/>
<path d="M24.3943 21.4663L15.8673 12.9395H12.916V12.9396L24.3941 24.4176H24.3943C24.3943 24.4176 24.3943 22.3826 24.3943 21.4663Z" fill="#D80027"/>
<path d="M40.983 27.9307C41.6731 26.9812 42.1341 25.8217 42.1341 24.4175V13.9828C41.262 14.6379 40.1783 15.0262 39.0037 15.0262C37.2969 15.0262 35.7816 14.2066 34.8297 12.9395C33.8778 14.2066 32.3625 15.0262 30.6558 15.0262C29.4811 15.0262 28.3974 14.6378 27.5254 13.983V24.4175C27.5254 25.8217 27.9864 26.9812 28.6765 27.9307H40.983Z" fill="#F3F3F3"/>
<path d="M38.8105 22.4818C39.1428 21.6712 39.4012 20.4865 39.4012 19.8969C39.4012 18.9495 38.1661 18.1816 38.1661 18.1816C38.1661 18.1816 36.931 18.9495 36.931 19.8969C36.931 20.4866 37.1895 21.6713 37.5216 22.4818L36.8086 24.0915C37.2277 24.262 37.6857 24.3567 38.1662 24.3567C38.6467 24.3567 39.1046 24.2619 39.5238 24.0915L38.8105 22.4818Z" fill="#FF9811"/>
<path d="M33.9837 17.2699C33.1159 17.3875 31.9606 17.7564 31.4501 18.0512C30.6297 18.5249 30.582 19.9783 30.582 19.9783C30.582 19.9783 31.8647 20.6639 32.685 20.1902C33.1958 19.8954 34.0924 19.0794 34.628 18.3864L36.3789 18.1989C36.3169 17.751 36.1695 17.3069 35.9296 16.8909C35.6892 16.4749 35.3785 16.1254 35.0213 15.8477L33.9837 17.2699Z" fill="#FF9811"/>
<path d="M31.8836 24.0564C32.4192 24.749 33.3161 25.565 33.8268 25.8599C34.6472 26.3335 35.9298 25.6481 35.9298 25.6481C35.9298 25.6481 35.882 24.1945 35.0618 23.7208C34.551 23.426 33.3959 23.0574 32.5279 22.94L31.4904 21.5176C31.1333 21.7953 30.8224 22.145 30.5822 22.5605C30.3421 22.9767 30.1951 23.4206 30.1328 23.8688L31.8836 24.0564Z" fill="#FF9811"/>
<path d="M28.418 27.5488C30.3668 30.6759 34.8294 31.7226 34.8294 31.7226C34.8294 31.7226 39.2919 30.6759 41.2409 27.5488H28.418Z" fill="#338AF3"/>
</g>
<defs>
<clipPath id="clip0_2743_587">
<rect x="0.394531" y="0.417969" width="48" height="48" rx="24" fill="white"/>
</clipPath>
</defs>
</svg>
