<svg width="49" height="49" viewBox="0 0 49 49" fill="none" xmlns="http://www.w3.org/2000/svg">
<g clip-path="url(#clip0_2743_602)">
<path d="M0.394531 24.4172C0.394531 26.0611 0.560281 27.6663 0.875187 29.2172L24.3945 30.6781L47.914 29.2172C48.229 27.6663 48.3945 26.0611 48.3945 24.4172C48.3945 22.7733 48.2288 21.1681 47.914 19.6172L24.3945 18.1562L0.875187 19.6172C0.560281 21.1681 0.394531 22.7733 0.394531 24.4172H0.394531Z" fill="#0052B4"/>
<path d="M47.9138 29.2188H0.875C3.09866 40.1734 12.7835 48.4187 24.3943 48.4187C36.0052 48.4187 45.69 40.1734 47.9138 29.2188Z" fill="#F0F0F0"/>
<path d="M0.875 19.618H47.9139C45.69 8.66328 36.0054 0.417969 24.3943 0.417969C12.7833 0.417969 3.09866 8.66328 0.875 19.618Z" fill="black"/>
<path d="M34.8285 19.6179H13.959L18.2227 17.6123L15.9522 13.483L20.582 14.3685L21.1689 9.69141L24.3937 13.1315L27.6187 9.69141L28.2052 14.3685L32.8353 13.483L30.5649 17.6124L34.8285 19.6179Z" fill="#FFDA44"/>
<path d="M0.394531 24.4184C0.394531 37.6732 11.1398 48.4184 24.3945 48.4184L5.19416 10.0176C2.18066 14.029 0.394531 19.015 0.394531 24.4184Z" fill="#A2001D"/>
<path d="M24.3945 48.4184C37.6493 48.4184 48.3945 37.6732 48.3945 24.4184C48.3945 19.015 46.6084 14.029 43.5949 10.0176L24.3945 48.4184Z" fill="#A2001D"/>
</g>
<defs>
<clipPath id="clip0_2743_602">
<rect x="0.394531" y="0.417969" width="48" height="48" rx="24" fill="white"/>
</clipPath>
</defs>
</svg>
