<svg width="49" height="49" viewBox="0 0 49 49" fill="none" xmlns="http://www.w3.org/2000/svg">
<g clip-path="url(#clip0_2743_543)">
<path d="M48.3945 24.4187C48.3945 21.483 47.8665 18.6707 46.9017 16.0709L24.3945 15.0273L1.88731 16.0708C0.922625 18.6707 0.394531 21.483 0.394531 24.4187C0.394531 27.3543 0.922625 30.1666 1.88731 32.7664L24.3945 33.81L46.9017 32.7665C47.8665 30.1666 48.3945 27.3543 48.3945 24.4187Z" fill="#0052B4"/>
<path d="M24.3939 48.4178C34.7131 48.4178 43.5101 41.9048 46.9012 32.7656H1.88672C5.27775 41.9048 14.0748 48.4178 24.3939 48.4178Z" fill="#FF9811"/>
<path d="M1.88672 16.0702H46.9012C43.5101 6.93097 34.7131 0.417969 24.3939 0.417969C14.0748 0.417969 5.27775 6.93097 1.88672 16.0702Z" fill="#D80027"/>
</g>
<defs>
<clipPath id="clip0_2743_543">
<rect x="0.394531" y="0.417969" width="48" height="48" rx="24" fill="white"/>
</clipPath>
</defs>
</svg>
