<svg width="49" height="49" viewBox="0 0 49 49" fill="none" xmlns="http://www.w3.org/2000/svg">
<g clip-path="url(#clip0_2743_547)">
<path d="M24.3945 48.418C37.6494 48.418 48.3945 37.6728 48.3945 24.418C48.3945 11.1631 37.6494 0.417969 24.3945 0.417969C11.1397 0.417969 0.394531 11.1631 0.394531 24.418C0.394531 37.6728 11.1397 48.418 24.3945 48.418Z" fill="#FFDA44"/>
<path d="M24.3944 48.4181C31.6685 48.4181 38.1863 45.1815 42.5876 40.0703H6.20117C10.6025 45.1815 17.1202 48.4181 24.3944 48.4181Z" fill="#338AF3"/>
<path d="M48.3945 24.418C48.3945 11.1632 37.6493 0.417969 24.3945 0.417969C11.1398 0.417969 0.394531 11.1632 0.394531 24.418C0.394531 26.5842 0.683281 28.6826 1.22131 30.6789H47.5678C48.1058 28.6826 48.3945 26.5842 48.3945 24.418Z" fill="#338AF3"/>
<path d="M2.30273 33.8086C2.76539 34.8957 3.30623 35.9412 3.91758 36.939H44.8725C45.4838 35.9411 46.0246 34.8956 46.4875 33.8086H2.30273Z" fill="#338AF3"/>
<path d="M11.3921 15.5543L6.70312 13.4849L11.3921 11.4155L13.4615 6.72656L15.5308 11.4155L20.2197 13.4849L15.5308 15.5543L13.4615 20.2432L11.3921 15.5543Z" fill="#F0F0F0"/>
<path d="M13.463 9.3125L14.7409 12.2083L17.6368 13.4864L14.7409 14.7644L13.463 17.6603L12.1849 14.7644L9.28906 13.4864L12.1849 12.2083L13.463 9.3125Z" fill="#D80027"/>
</g>
<defs>
<clipPath id="clip0_2743_547">
<rect x="0.394531" y="0.417969" width="48" height="48" rx="24" fill="white"/>
</clipPath>
</defs>
</svg>
