<svg width="49" height="49" viewBox="0 0 49 49" fill="none" xmlns="http://www.w3.org/2000/svg">
<g clip-path="url(#clip0_2743_610)">
<path d="M48.3945 24.418C48.3945 37.6727 37.6493 48.418 24.3945 48.418C11.1398 48.418 0.394531 37.6727 0.394531 24.418C0.394531 24.4236 24.3945 0.420687 24.3945 0.417969C37.6493 0.417969 48.3945 11.1632 48.3945 24.418Z" fill="#0052B4"/>
<path d="M24.3947 0.417969C24.3933 0.417969 24.3919 0.418969 24.3906 0.418969L24.3947 0.417969Z" fill="#F0F0F0"/>
<path d="M24.3301 24.4177H24.3943C24.3943 24.396 24.3943 24.3752 24.3943 24.3535C24.3729 24.375 24.3515 24.3964 24.3301 24.4177Z" fill="#F0F0F0"/>
<path d="M24.3945 12.9397C24.3945 8.71672 24.3945 5.9495 24.3945 0.417969H24.3905C11.1375 0.420125 0.394531 11.1643 0.394531 24.4179H12.9163V17.3667L19.9674 24.4179H24.3304C24.3519 24.3965 24.3733 24.3751 24.3946 24.3537C24.3946 22.7367 24.3946 21.294 24.3946 19.9909L17.3434 12.9397H24.3945Z" fill="#F0F0F0"/>
<path d="M12.537 3.54883C8.78336 5.68623 5.6628 8.8068 3.52539 12.5605V24.4184H9.7863V9.80983V9.80973H24.395C24.395 7.83508 24.395 5.95389 24.395 3.54883H12.537Z" fill="#D80027"/>
<path d="M24.3942 21.4662L15.8674 12.9395H12.916C12.916 12.9394 12.916 12.9395 12.916 12.9395L24.3941 24.4176H24.3942C24.3942 24.4176 24.3942 22.3827 24.3942 21.4662Z" fill="#D80027"/>
<path d="M14.8691 28.5918L16.1863 31.346L19.1607 30.6585L17.8287 33.4056L20.2206 35.3024L17.2425 35.9737L17.2508 39.0265L14.8691 37.1166L12.4875 39.0265L12.4958 35.9737L9.51758 35.3024L11.9096 33.4056L10.5774 30.6585L13.552 31.346L14.8691 28.5918Z" fill="#F0F0F0"/>
<path d="M36.3281 33.8105L36.9867 35.1876L38.4739 34.8439L37.8078 36.2174L39.0039 37.1659L37.5147 37.5015L37.5189 39.0279L36.3281 38.0729L35.1372 39.0279L35.1414 37.5015L33.6523 37.1659L34.8483 36.2174L34.1823 34.8439L35.6695 35.1876L36.3281 33.8105Z" fill="#F0F0F0"/>
<path d="M30.2012 19.2012L30.8597 20.5784L32.347 20.2345L31.681 21.608L32.8769 22.5565L31.3879 22.8921L31.3919 24.4185L30.2012 23.4635L29.0104 24.4185L29.0144 22.8921L27.5254 22.5565L28.7214 21.608L28.0554 20.2345L29.5426 20.5784L30.2012 19.2012Z" fill="#F0F0F0"/>
<path d="M36.3281 10.8535L36.9867 12.2307L38.4739 11.8869L37.8079 13.2605L39.0038 14.2088L37.5147 14.5445L37.5189 16.071L36.3281 15.116L35.1372 16.071L35.1414 14.5445L33.6523 14.2088L34.8482 13.2605L34.1823 11.8869L35.6695 12.2307L36.3281 10.8535Z" fill="#F0F0F0"/>
<path d="M41.6797 17.1152L42.3382 18.4924L43.8255 18.1485L43.1595 19.5221L44.3554 20.4705L42.8663 20.8063L42.8704 22.3326L41.6797 21.3777L40.4889 22.3326L40.4929 20.8063L39.0039 20.4705L40.1999 19.5221L39.5339 18.1485L41.021 18.4924L41.6797 17.1152Z" fill="#F0F0F0"/>
<path d="M37.8526 24.418L38.3706 26.0123H40.047L38.6907 26.9977L39.2089 28.5919L37.8526 27.6066L36.4964 28.5919L37.0144 26.9977L35.6582 26.0123H37.3345L37.8526 24.418Z" fill="#F0F0F0"/>
</g>
<defs>
<clipPath id="clip0_2743_610">
<rect x="0.394531" y="0.417969" width="48" height="48" rx="24" fill="white"/>
</clipPath>
</defs>
</svg>
