<svg width="49" height="49" viewBox="0 0 49 49" fill="none" xmlns="http://www.w3.org/2000/svg">
<g clip-path="url(#clip0_2743_631)">
<path d="M48.3945 24.4187C48.3945 21.483 47.8665 18.6707 46.9017 16.0709L24.3945 15.0273L1.88731 16.0708C0.922625 18.6707 0.394531 21.483 0.394531 24.4187C0.394531 27.3543 0.922625 30.1666 1.88731 32.7664L24.3945 33.81L46.9017 32.7665C47.8665 30.1666 48.3945 27.3543 48.3945 24.4187Z" fill="#D80027"/>
<path d="M24.3939 48.4178C34.7131 48.4178 43.5101 41.9048 46.9012 32.7656H1.88672C5.27775 41.9048 14.0748 48.4178 24.3939 48.4178Z" fill="#6DA544"/>
<path d="M1.88672 16.0702H46.9012C43.5101 6.93097 34.7131 0.417969 24.3939 0.417969C14.0748 0.417969 5.27775 6.93097 1.88672 16.0702Z" fill="#338AF3"/>
<path d="M24.9155 31.2008C21.1696 31.2008 18.1328 28.1641 18.1328 24.4182C18.1328 20.6723 21.1696 17.6356 24.9155 17.6356C26.0834 17.6356 27.1824 17.9309 28.1419 18.4508C26.6366 16.9788 24.5782 16.0703 22.3068 16.0703C17.6963 16.0703 13.959 19.8078 13.959 24.4181C13.959 29.0284 17.6964 32.7659 22.3068 32.7659C24.5783 32.7659 26.6367 31.8573 28.1419 30.3854C27.1824 30.9055 26.0834 31.2008 24.9155 31.2008Z" fill="#F0F0F0"/>
<path d="M30.1332 19.7227L31.0316 22.2493L33.4535 21.0979L32.3022 23.5198L34.8288 24.4183L32.3022 25.3168L33.4535 27.7388L31.0316 26.5873L30.1332 29.114L29.2348 26.5873L26.8128 27.7388L27.9642 25.3168L25.4375 24.4183L27.9642 23.5198L26.8128 21.0979L29.2348 22.2493L30.1332 19.7227Z" fill="#F0F0F0"/>
</g>
<defs>
<clipPath id="clip0_2743_631">
<rect x="0.394531" y="0.417969" width="48" height="48" rx="24" fill="white"/>
</clipPath>
</defs>
</svg>
