<svg width="49" height="49" viewBox="0 0 49 49" fill="none" xmlns="http://www.w3.org/2000/svg">
<g clip-path="url(#clip0_2743_638)">
<path d="M24.3945 48.418C37.6494 48.418 48.3945 37.6728 48.3945 24.418C48.3945 11.1631 37.6494 0.417969 24.3945 0.417969C11.1397 0.417969 0.394531 11.1631 0.394531 24.418C0.394531 37.6728 11.1397 48.418 24.3945 48.418Z" fill="#F0F0F0"/>
<path d="M0.394531 24.4178C0.394531 33.5148 5.45609 41.4292 12.9163 45.4996V3.33594C5.45609 7.40637 0.394531 15.3207 0.394531 24.4178Z" fill="#D80027"/>
<path d="M0.394531 24.4174C0.394531 35.506 7.91525 44.8366 18.1336 47.5906V1.24414C7.91525 3.99814 0.394531 13.3287 0.394531 24.4174Z" fill="#0052B4"/>
<path d="M9.00391 8.76562V12.6787C9.00391 14.6237 10.5806 16.2004 12.5256 16.2004C14.4707 16.2004 16.0473 14.6237 16.0473 12.6787V8.76562H9.00391Z" fill="#D80027"/>
<path d="M12.5246 14.1143C11.7334 14.1143 11.0898 13.4707 11.0898 12.6796V10.8535H13.9594V12.6796C13.9594 13.4707 13.3158 14.1143 12.5246 14.1143Z" fill="#F0F0F0"/>
<path d="M26.4829 25.462H20.222C20.222 24.3094 19.2875 23.375 18.135 23.375C16.9824 23.375 16.048 24.3094 16.048 25.462H9.78711C9.78711 26.6146 10.7911 27.5489 11.9435 27.5489H11.8741C11.8741 28.7016 12.8083 29.6359 13.961 29.6359C13.961 30.7886 14.8953 31.7229 16.048 31.7229H20.222C21.3745 31.7229 22.3089 30.7886 22.3089 29.6359C23.4615 29.6359 24.3959 28.7016 24.3959 27.5489H24.3264C25.4789 27.5489 26.4829 26.6146 26.4829 25.462Z" fill="#FFDA44"/>
<path d="M27.3406 22.1216L26.7927 22.9988L27.4573 23.7908L26.4538 23.541L25.9059 24.4178L25.8336 23.3861L24.8301 23.1359L25.7892 22.7485L25.717 21.7168L26.3818 22.5092L27.3406 22.1216Z" fill="#FFDA44"/>
<path d="M24.1429 19.4395L23.9281 20.4511L24.8237 20.9681L23.7951 21.0767L23.5801 22.0881L23.1594 21.1433L22.1309 21.2513L22.8995 20.5592L22.479 19.6146L23.3745 20.1316L24.1429 19.4395Z" fill="#FFDA44"/>
<path d="M20.2208 18.0117L20.3647 19.0359L21.3831 19.2155L20.4537 19.6688L20.5976 20.6931L19.8793 19.9491L18.9497 20.4024L19.4352 19.4892L18.7168 18.7454L19.7354 18.9248L20.2208 18.0117Z" fill="#FFDA44"/>
<path d="M16.0471 18.0117L16.5327 18.9248L17.5511 18.7453L16.8327 19.4894L17.3182 20.4025L16.3888 19.9491L15.6703 20.6929L15.8143 19.6688L14.8848 19.2156L15.9032 19.0359L16.0471 18.0117Z" fill="#FFDA44"/>
<path d="M12.1258 19.4395L12.8944 20.1316L13.7899 19.6146L13.3695 20.5596L14.1378 21.2514L13.1095 21.1433L12.6886 22.0881L12.4739 21.0765L11.4453 20.9685L12.3408 20.4512L12.1258 19.4395Z" fill="#FFDA44"/>
<path d="M8.92903 22.1215L9.88819 22.5091L10.5526 21.7168L10.4808 22.7487L11.4396 23.1362L10.436 23.3861L10.3636 24.4177L9.816 23.5409L8.8125 23.7909L9.47728 22.9987L8.92903 22.1215Z" fill="#FFDA44"/>
</g>
<defs>
<clipPath id="clip0_2743_638">
<rect x="0.394531" y="0.417969" width="48" height="48" rx="24" fill="white"/>
</clipPath>
</defs>
</svg>
