<svg width="49" height="49" viewBox="0 0 49 49" fill="none" xmlns="http://www.w3.org/2000/svg">
<g clip-path="url(#clip0_2743_658)">
<path d="M24.3945 48.418C37.6494 48.418 48.3945 37.6728 48.3945 24.418C48.3945 11.1631 37.6494 0.417969 24.3945 0.417969C11.1397 0.417969 0.394531 11.1631 0.394531 24.418C0.394531 37.6728 11.1397 48.418 24.3945 48.418Z" fill="#F0F0F0"/>
<path d="M24.3938 0.417969C19.5773 0.417969 15.0931 1.83781 11.3345 4.28028L17.5069 8.41738L9.78516 12.4173L17.5069 16.4172L9.78516 20.4172L17.5069 24.4167L9.78516 28.4165L17.5069 32.4163L9.78516 36.4167L17.5069 40.4166L11.3337 44.555C15.0925 46.9979 19.5771 48.418 24.3938 48.418C37.6486 48.418 48.3938 37.6727 48.3938 24.418C48.3938 11.1632 37.6486 0.417969 24.3938 0.417969V0.417969Z" fill="#D80027"/>
</g>
<defs>
<clipPath id="clip0_2743_658">
<rect x="0.394531" y="0.417969" width="48" height="48" rx="24" fill="white"/>
</clipPath>
</defs>
</svg>
