<svg width="49" height="49" viewBox="0 0 49 49" fill="none" xmlns="http://www.w3.org/2000/svg">
<g clip-path="url(#clip0_2743_661)">
<path d="M24.3945 0.417969C37.6492 0.417969 48.3944 11.1632 48.3944 24.4179C48.3944 37.6726 37.6492 48.4179 24.3945 48.4179C11.1398 48.4179 0.394531 37.6726 0.394531 24.4179" fill="#FFDA44"/>
<path d="M23.873 11.0853H44.3521C43.0036 9.07088 41.358 7.27276 39.4784 5.75195H23.873V11.0853Z" fill="#D80027"/>
<path d="M23.873 21.7512H48.2466C48.042 19.9019 47.6276 18.1162 47.0273 16.418H23.873V21.7512Z" fill="#D80027"/>
<path d="M1.76228 32.4194H47.027C47.6273 30.7211 48.0419 28.9352 48.2464 27.0859H0.542969C0.747343 28.9353 1.16191 30.7212 1.76228 32.4194Z" fill="#D80027"/>
<path d="M9.31108 43.0853H39.4783C41.3579 41.5646 43.0036 39.7663 44.352 37.752H4.4375C5.786 39.7663 7.43149 41.5645 9.31108 43.0853Z" fill="#D80027"/>
<path d="M24.3946 0.417969C11.1398 0.417969 0.394438 11.1632 0.394531 24.4181C5.87196 24.4179 11.1398 24.4181 24.3945 24.4181L24.3946 0.417969Z" fill="#4A1F63"/>
<path d="M20.2201 12.9405V15.0274H19.1766V12.9405H17.0897V15.0274H16.0462V10.8535H11.8723V15.0274H10.8288V12.9405H8.74192V15.0274H7.69839V12.9405H5.61133V19.2013H22.307V12.9405H20.2201Z" fill="#F0F0F0"/>
</g>
<defs>
<clipPath id="clip0_2743_661">
<rect x="0.394531" y="0.417969" width="48" height="48" rx="24" fill="white"/>
</clipPath>
</defs>
</svg>
