<svg width="49" height="49" viewBox="0 0 49 49" fill="none" xmlns="http://www.w3.org/2000/svg">
<g clip-path="url(#clip0_2743_673)">
<path d="M34.8295 2.79941C31.6743 1.27372 28.1345 0.417969 24.3948 0.417969C20.6551 0.417969 17.1153 1.27372 13.96 2.79941L11.873 24.418L13.96 46.0365C17.1153 47.5622 20.6551 48.418 24.3948 48.418C28.1345 48.418 31.6743 47.5622 34.8295 46.0365L36.9165 24.418L34.8295 2.79941Z" fill="#FFDA44"/>
<path d="M13.9598 2.80078C5.93197 6.68259 0.394531 14.9034 0.394531 24.4185C0.394531 33.9336 5.93197 42.1544 13.9598 46.0362V2.80078Z" fill="#0052B4"/>
<path d="M34.8301 2.80078V46.0362C42.8579 42.1544 48.3953 33.9335 48.3953 24.4185C48.3953 14.9035 42.8579 6.68259 34.8301 2.80078Z" fill="#0052B4"/>
<path d="M31.6981 15.0264L33.0981 15.7264L31.6981 15.0264L30.298 14.3265C30.2137 14.4953 28.3856 18.2147 28.087 23.896H25.959V15.0264L24.3938 12.9395L22.8285 15.0264V23.896H20.7005C20.4018 18.2147 18.5739 14.4953 18.4894 14.3265L15.6895 15.7265C15.7088 15.7649 17.6112 19.6372 17.6112 25.4613V27.0265H22.8286V35.8961H25.959V27.0265H31.1764V25.4612C31.1764 22.4501 31.6974 19.9672 32.1345 18.4145C32.611 16.7214 33.0951 15.7326 33.0999 15.7228L31.6981 15.0264Z" fill="black"/>
</g>
<defs>
<clipPath id="clip0_2743_673">
<rect x="0.394531" y="0.417969" width="48" height="48" rx="24" fill="white"/>
</clipPath>
</defs>
</svg>
