<svg width="49" height="49" viewBox="0 0 49 49" fill="none" xmlns="http://www.w3.org/2000/svg">
<g clip-path="url(#clip0_2743_679)">
<path d="M24.3945 48.418C37.6494 48.418 48.3945 37.6728 48.3945 24.418C48.3945 11.1631 37.6494 0.417969 24.3945 0.417969C11.1397 0.417969 0.394531 11.1631 0.394531 24.418C0.394531 37.6728 11.1397 48.418 24.3945 48.418Z" fill="#F0F0F0"/>
<path d="M0.597656 27.5488C1.15603 31.8344 2.84559 35.764 5.35594 39.0298L18.1335 27.5488H0.597656Z" fill="#D80027"/>
<path d="M21.2642 48.2156V30.6797L9.7832 43.4573C13.0492 45.9677 16.9786 47.6573 21.2642 48.2156Z" fill="#D80027"/>
<path d="M21.2642 0.621094C16.9786 1.17947 13.0492 2.86903 9.7832 5.37937L21.2642 18.1571V0.621094Z" fill="#D80027"/>
<path d="M0.597656 21.2876H18.1335L5.35584 9.80664C2.8455 13.0725 1.15594 17.002 0.597656 21.2876Z" fill="#D80027"/>
<path d="M27.5254 0.621094V18.157L39.0066 5.37937C35.7406 2.86922 31.8111 1.17937 27.5254 0.621094Z" fill="#D80027"/>
<path d="M48.1922 21.2877C47.6338 17.0021 45.9443 13.0726 43.4339 9.80664L30.6562 21.2877H48.1922Z" fill="#D80027"/>
<path d="M30.6562 27.5488L43.434 39.0299C45.9443 35.764 47.6339 31.8344 48.1923 27.5488H30.6562Z" fill="#D80027"/>
<path d="M27.5254 48.2156C31.811 47.6572 35.7406 45.9677 39.0065 43.4572L27.5254 30.6797V48.2156Z" fill="#D80027"/>
<path d="M43.4344 39.0308L28.8212 24.4175L28.8211 24.4174L43.4344 9.80402C42.8042 8.98502 42.1148 8.19714 41.3646 7.44677C40.6144 6.69658 39.8264 6.00705 39.0073 5.37695L24.394 19.9902H24.394L9.78067 5.37695C8.96167 6.00714 8.1737 6.69648 7.42333 7.44677C6.67314 8.19714 5.98361 8.98502 5.35352 9.80411L19.9668 24.4173L19.9669 24.4174L5.35361 39.0308C5.9838 39.8497 6.67323 40.6376 7.42342 41.388C8.1737 42.1382 8.96167 42.8277 9.78077 43.4578L24.394 28.8445L39.0073 43.4578C39.8262 42.8276 40.6142 42.1382 41.3646 41.388C42.1149 40.6376 42.8042 39.8497 43.4344 39.0308Z" fill="#496E2D"/>
<path d="M27.5249 48.2148V27.5487V27.5485H48.1914C48.325 26.5237 48.3945 25.4789 48.3945 24.418C48.3945 23.3571 48.3249 22.3123 48.1914 21.2877H27.5251L27.525 21.2876V0.621219C26.5003 0.487813 25.4557 0.417969 24.3945 0.417969C23.3336 0.418063 22.2888 0.487813 21.2641 0.621219L21.2642 21.2874V21.2876H0.597781C0.464281 22.3123 0.394531 23.357 0.394531 24.418C0.394625 25.4791 0.464281 26.5237 0.597781 27.5484H21.264L21.2641 48.2148C22.2889 48.3482 23.3334 48.418 24.3945 48.418C25.4557 48.418 26.5003 48.3482 27.5249 48.2148Z" fill="#F0F0F0"/>
</g>
<defs>
<clipPath id="clip0_2743_679">
<rect x="0.394531" y="0.417969" width="48" height="48" rx="24" fill="white"/>
</clipPath>
</defs>
</svg>
