<svg width="49" height="49" viewBox="0 0 49 49" fill="none" xmlns="http://www.w3.org/2000/svg">
<g clip-path="url(#clip0_2743_692)">
<path d="M24.3945 48.418C37.6494 48.418 48.3945 37.6728 48.3945 24.418C48.3945 11.1631 37.6494 0.417969 24.3945 0.417969C11.1397 0.417969 0.394531 11.1631 0.394531 24.418C0.394531 37.6728 11.1397 48.418 24.3945 48.418Z" fill="#FCFCFC"/>
<path d="M10.3079 22.6784L7.69922 17.9456L10.3079 13.2871L12.9166 17.9456L10.3079 22.6784Z" fill="#A2001D"/>
<path d="M5.09111 22.6784L2.48242 17.9456L5.09111 13.2871L7.6998 17.9456L5.09111 22.6784Z" fill="#A2001D"/>
<path d="M10.3079 35.5476L7.69922 30.8148L10.3079 26.1562L12.9166 30.8148L10.3079 35.5476Z" fill="#A2001D"/>
<path d="M5.09111 35.5476L2.48242 30.8148L5.09111 26.1562L7.6998 30.8148L5.09111 35.5476Z" fill="#A2001D"/>
<path d="M12.9173 5.07669L12.1787 3.75781C10.854 4.54269 9.61158 5.45141 8.4668 6.46803L10.3086 9.80938L12.9173 5.07669Z" fill="#A2001D"/>
<path d="M10.3086 39.0273L8.44727 42.3513C9.59102 43.3693 10.8326 44.2794 12.1568 45.0659L12.9174 43.686L10.3086 39.0273Z" fill="#A2001D"/>
<path d="M15.0039 30.6797V46.5106C17.8885 47.7384 21.0622 48.4188 24.3952 48.4188C34.7144 48.4188 43.5114 41.9058 46.9024 32.7666L15.0039 30.6797Z" fill="#6DA544"/>
<path d="M46.9024 32.7658C47.8672 30.1658 48.3952 27.3537 48.3952 24.418C48.3952 11.1632 37.65 0.417969 24.3952 0.417969C21.0625 0.417969 17.8885 1.09794 15.0039 2.32559V32.7658H46.9024V32.7658Z" fill="#A2001D"/>
</g>
<defs>
<clipPath id="clip0_2743_692">
<rect x="0.394531" y="0.417969" width="48" height="48" rx="24" fill="white"/>
</clipPath>
</defs>
</svg>
