<svg width="49" height="49" viewBox="0 0 49 49" fill="none" xmlns="http://www.w3.org/2000/svg">
<g clip-path="url(#clip0_2743_707)">
<path d="M48.3945 24.4184C48.3945 16.1815 44.2443 8.91461 37.9214 4.59236L24.3945 3.54883L10.8676 4.59227C4.54484 8.91461 0.394531 16.1815 0.394531 24.4184C0.394531 32.6556 4.54484 39.9222 10.8676 44.2445L24.3945 45.288L37.9214 44.2446C44.2443 39.9222 48.3945 32.6556 48.3945 24.4184Z" fill="#0052B4"/>
<path d="M37.921 4.59191C34.0693 1.95884 29.412 0.417969 24.3941 0.417969C19.3763 0.417969 14.7189 1.95884 10.8672 4.59191H37.921Z" fill="#A2001D"/>
<path d="M10.8672 44.2441C14.7188 46.8772 19.3763 48.4181 24.3941 48.4181C29.412 48.4181 34.0693 46.8772 37.921 44.2441H10.8672Z" fill="#A2001D"/>
<path d="M24.3943 35.896C30.7336 35.896 35.8726 30.757 35.8726 24.4177C35.8726 18.0785 30.7336 12.9395 24.3943 12.9395C18.055 12.9395 12.916 18.0785 12.916 24.4177C12.916 30.757 18.055 35.896 24.3943 35.896Z" fill="#F0F0F0"/>
<path d="M24.3952 33.81C29.5819 33.81 33.7865 29.6053 33.7865 24.4187C33.7865 19.232 29.5819 15.0273 24.3952 15.0273C19.2085 15.0273 15.0039 19.232 15.0039 24.4187C15.0039 29.6053 19.2085 33.81 24.3952 33.81Z" fill="#6DA544"/>
<path d="M24.3937 30.6781C27.8515 30.6781 30.6546 27.875 30.6546 24.4172C30.6546 20.9594 27.8515 18.1562 24.3937 18.1562C20.9359 18.1562 18.1328 20.9594 18.1328 24.4172C18.1328 27.875 20.9359 30.6781 24.3937 30.6781Z" fill="#F0F0F0"/>
<path d="M24.3952 22.8535L21.0039 24.4188V27.0275L24.3952 29.1144L27.7865 27.0275V24.4188L24.3952 22.8535Z" fill="#0052B4"/>
<path d="M21.0039 21.2871H27.7865V24.4175H21.0039V21.2871Z" fill="#FFDA44"/>
</g>
<defs>
<clipPath id="clip0_2743_707">
<rect x="0.394531" y="0.417969" width="48" height="48" rx="24" fill="white"/>
</clipPath>
</defs>
</svg>
