<svg width="49" height="49" viewBox="0 0 49 49" fill="none" xmlns="http://www.w3.org/2000/svg">
<g clip-path="url(#clip0_2743_721)">
<path d="M48.3945 24.418C48.3945 37.6727 37.6493 48.418 24.3945 48.418C11.1398 48.418 0.394531 37.6727 0.394531 24.418C0.394531 24.4237 24.3945 0.420594 24.3945 0.417969C37.6493 0.417969 48.3945 11.1632 48.3945 24.418Z" fill="#D80027"/>
<path d="M24.3947 11.8965V19.9911L16.0469 11.8965H24.3947Z" fill="#0052B4"/>
<path d="M12.9165 24.4187H19.9675L12.9165 15.0273L11.873 22.3317L12.9165 24.4187Z" fill="#0052B4"/>
<path d="M24.3301 24.4177H24.3943C24.3943 24.3962 24.3943 24.3752 24.3943 24.3535C24.3729 24.375 24.3515 24.3964 24.3301 24.4177Z" fill="#F0F0F0"/>
<path d="M24.3945 12.9397C24.3945 8.71672 24.3945 5.94969 24.3945 0.417969H24.3905C11.1374 0.420219 0.394531 11.1644 0.394531 24.418H12.9163V17.3669L19.9673 24.418H24.3304C24.3518 24.3966 24.3732 24.3752 24.3946 24.3538C24.3946 22.7368 24.3946 21.2941 24.3946 19.9909L17.3434 12.9397H24.3945Z" fill="#F0F0F0"/>
<path d="M12.537 3.54883C8.78336 5.68623 5.6627 8.8068 3.52539 12.5605V25.4619H9.7863V9.80992V9.80973H25.4384C25.4384 7.83508 25.4384 5.95389 25.4384 3.54883H12.537Z" fill="#D80027"/>
<path d="M25.3484 22.4203L15.8673 12.9395H12.916V12.9396L25.3481 25.3717H25.3483C25.3484 25.3718 25.3484 23.3368 25.3484 22.4203Z" fill="#D80027"/>
<path d="M27.5254 12.9395V24.4176C27.5254 30.0089 42.1341 30.0089 42.1341 24.4176V12.9395H27.5254Z" fill="#F3F3F3"/>
<path d="M27.5254 24.4181V24.418C27.5254 30.0092 34.8297 31.7224 34.8297 31.7224C34.8297 31.7224 42.1341 30.0092 42.1341 24.418V24.4181H27.5254Z" fill="#6DA544"/>
<path d="M34.8288 19.8262L31.4375 21.2871V24.4175L34.8288 26.5045L38.2201 24.4175V21.2871L34.8288 19.8262Z" fill="#A2001D"/>
<path d="M31.4375 18.1562H38.2201V21.2867H31.4375V18.1562Z" fill="#338AF3"/>
</g>
<defs>
<clipPath id="clip0_2743_721">
<rect x="0.394531" y="0.417969" width="48" height="48" rx="24" fill="white"/>
</clipPath>
</defs>
</svg>
