<svg width="49" height="49" viewBox="0 0 49 49" fill="none" xmlns="http://www.w3.org/2000/svg">
<g clip-path="url(#clip0_2743_737)">
<path d="M41.3651 41.3889C31.9925 50.7615 16.7966 50.7615 7.42395 41.3889C-1.94861 32.0164 -1.94861 16.8203 7.42395 7.44766C7.42733 7.44766 28.9919 1.07576 38.3645 10.4483C47.7372 19.8209 41.3716 41.3824 41.3651 41.3889Z" fill="#FFDA44"/>
<path d="M41.365 41.3887C50.7375 32.0161 50.7375 16.8201 41.365 7.44743C31.9924 -1.92523 16.7965 -1.92514 7.42383 7.44743L41.365 41.3887Z" fill="#D80027"/>
<path d="M30.667 30.694C29.6811 31.0812 28.5356 31.0401 27.5418 30.4824C25.7858 29.4969 25.159 27.2662 26.1448 25.51L25.8455 25.3422C28.8522 24.6172 31.0766 21.8881 31.0376 18.6676C31.0134 16.6654 30.1188 14.8741 28.7194 13.6484L26.5281 15.8934C27.3565 16.5536 27.8936 17.5663 27.9074 18.7056C27.9318 20.7193 26.3135 22.3775 24.2998 22.4018L24.304 22.7446C22.1728 20.5034 18.6973 19.9416 15.9278 21.5856C14.206 22.6078 13.1022 24.2781 12.7402 26.1029L15.78 26.8783C15.9376 25.8307 16.5459 24.8593 17.5257 24.2775C19.2574 23.2496 21.5025 23.8222 22.5305 25.5538L22.8256 25.3787C21.9501 28.3448 23.2012 31.6357 26.0099 33.2122C27.7561 34.1923 29.7545 34.3131 31.5158 33.7141L30.667 30.694ZM24.325 24.4883L24.3248 24.4884L24.325 24.4883Z" fill="#FF9811"/>
<path d="M33.28 16.6728L31.5836 22.7263L26.494 21.7865L23.2178 15.0332L14.3671 18.1739L13.6691 16.207L11.3535 15.9218L13.0983 20.8389L19.1891 19.2811L20.92 24.1588L16.7095 30.3727L23.8549 36.467L22.5005 38.0548L23.4113 40.2031L26.7973 36.2334L22.4029 31.7374L25.7617 27.7996L33.2484 28.339L34.9536 19.1037L37.0059 19.4828L38.4111 17.62L33.28 16.6728ZM24.392 24.5816V24.5818V24.5816Z" fill="#FFEACF"/>
</g>
<defs>
<clipPath id="clip0_2743_737">
<rect x="0.394531" y="0.417969" width="48" height="48" rx="24" fill="white"/>
</clipPath>
</defs>
</svg>
