<svg width="49" height="49" viewBox="0 0 49 49" fill="none" xmlns="http://www.w3.org/2000/svg">
<g clip-path="url(#clip0_2743_746)">
<path d="M24.3945 48.418C37.6494 48.418 48.3945 37.6728 48.3945 24.418C48.3945 11.1631 37.6494 0.417969 24.3945 0.417969C11.1397 0.417969 0.394531 11.1631 0.394531 24.418C0.394531 37.6728 11.1397 48.418 24.3945 48.418Z" fill="#F0F0F0"/>
<path d="M7.42325 7.44661C2.27965 12.5902 -0.0403776 19.4878 0.461466 26.214L26.1905 0.484927C19.4643 -0.017011 12.5668 2.30302 7.42325 7.44661Z" fill="#FFDA44"/>
<path d="M8.96484 42.8003C18.3943 50.7336 32.4905 50.2643 41.3658 41.3891C50.2411 32.5139 50.7103 18.4177 42.7769 8.98828L8.96484 42.8003Z" fill="#0052B4"/>
<path d="M24.3086 23.4503L26.3769 22.33L24.3086 21.2097C23.8257 18.0727 21.3472 15.5941 18.2102 15.1113L17.0898 13.043L15.9695 15.1112C12.8326 15.594 10.354 18.0727 9.87105 21.2096L7.80273 22.33L9.87095 23.4503C10.3539 26.5873 12.8324 29.066 15.9694 29.5488L17.0898 31.6171L18.2101 29.5489C21.3472 29.066 23.8257 26.5873 24.3086 23.4503ZM17.0899 26.504C14.7847 26.504 12.916 24.6353 12.916 22.33C12.916 20.0247 14.7846 18.1561 17.0899 18.1561C19.3952 18.1561 21.2638 20.0247 21.2638 22.33C21.2638 24.6353 19.3951 26.504 17.0899 26.504Z" fill="black"/>
<path d="M17.0899 19.2012L17.9935 20.7663H19.8009L18.8972 22.3316L19.8009 23.8968H17.9935L17.0899 25.462L16.1862 23.8968H14.3789L15.2826 22.3316L14.3789 20.7663H16.1862L17.0899 19.2012Z" fill="#D80027"/>
</g>
<defs>
<clipPath id="clip0_2743_746">
<rect x="0.394531" y="0.417969" width="48" height="48" rx="24" fill="white"/>
</clipPath>
</defs>
</svg>
