<svg width="49" height="49" viewBox="0 0 49 49" fill="none" xmlns="http://www.w3.org/2000/svg">
<g clip-path="url(#clip0_2743_752)">
<path d="M24.3945 48.418C37.6494 48.418 48.3945 37.6728 48.3945 24.418C48.3945 11.1631 37.6494 0.417969 24.3945 0.417969C11.1397 0.417969 0.394531 11.1631 0.394531 24.418C0.394531 37.6728 11.1397 48.418 24.3945 48.418Z" fill="#F0F0F0"/>
<path d="M24.3943 0.417969C15.8846 0.417969 8.40994 4.847 4.14844 11.5254L36.6946 45.0288C43.7017 40.838 48.3943 33.1764 48.3943 24.418C48.3943 11.1632 37.6491 0.417969 24.3943 0.417969Z" fill="#FFDA44"/>
<path d="M48.3937 24.4171C48.3937 18.19 46.022 12.5174 42.1328 8.25195V40.5823C46.022 36.3168 48.3937 30.6441 48.3937 24.4171Z" fill="#0052B4"/>
<path d="M30.3747 45.5924L32.8887 45.5908L33.6642 43.1993L34.4425 45.5898L35.7034 45.5891C36.4766 45.1752 37.2244 44.7203 37.944 44.227L4.58412 10.8672C4.03437 11.6693 3.533 12.5069 3.08216 13.375L3.37859 14.2855L5.8925 14.2839L3.85962 15.7628L4.63794 18.1533L2.60319 16.677L1.38959 17.5597C0.742625 19.7325 0.394531 22.0339 0.394531 24.4168C0.394531 37.6715 11.1398 48.4168 24.3945 48.4168C27.1969 48.4168 29.8867 47.9357 32.3867 47.0525L30.3747 45.5924ZM5.74756 23.3733L6.52287 20.982L4.48831 19.5054L7.00222 19.5038L7.77762 17.1123L8.55594 19.5029L11.0698 19.5013L9.03687 20.9802L9.81519 23.3707L7.78044 21.8943L5.74756 23.3733ZM10.9249 28.5907L11.7002 26.1993L9.66566 24.7228L12.1796 24.7212L12.955 22.3297L13.7333 24.7202L16.2472 24.7187L14.2143 26.1976L14.9926 28.5881L12.9579 27.1117L10.9249 28.5907ZM16.1022 33.8081L16.8775 31.4167L14.8429 29.9402L17.3568 29.9386L18.1322 27.5471L18.9105 29.9376L21.4244 29.936L19.3916 31.4149L20.1699 33.8055L18.1351 32.3289L16.1022 33.8081ZM23.3124 37.5466L21.2794 39.0255L22.0547 36.6341L20.0202 35.1575L22.5341 35.1559L23.3096 32.7645L24.0879 35.155L26.6018 35.1534L24.5689 36.6323L25.3472 39.0228L23.3124 37.5466ZM26.4567 44.2428L27.2321 41.8515L25.1975 40.3749L27.7114 40.3733L28.4868 37.9818L29.2651 40.3724L31.779 40.3708L29.7462 41.8497L30.5245 44.2402L28.4897 42.7637L26.4567 44.2428Z" fill="#0052B4"/>
</g>
<defs>
<clipPath id="clip0_2743_752">
<rect x="0.394531" y="0.417969" width="48" height="48" rx="24" fill="white"/>
</clipPath>
</defs>
</svg>
