<svg width="49" height="49" viewBox="0 0 49 49" fill="none" xmlns="http://www.w3.org/2000/svg">
<g clip-path="url(#clip0_2743_758)">
<path d="M1.52778 17.1138C0.792594 19.4171 0.394438 21.8708 0.394531 24.4181C0.394438 26.9652 0.792594 29.419 1.52788 31.7224L24.3945 32.7661L47.2611 31.7224C47.9962 29.419 48.3944 26.9651 48.3944 24.4182C48.3944 21.871 47.9963 19.4171 47.2611 17.1138L24.3944 16.0703L1.52778 17.1138Z" fill="#F0F0F0"/>
<path d="M48.3945 24.4182C48.3945 22.9944 48.2698 21.5998 48.032 20.2441H0.757156C0.519219 21.5998 0.394531 22.9942 0.394531 24.4181C0.394531 25.842 0.519313 27.2364 0.757156 28.592H48.032C48.2697 27.2363 48.3945 25.8419 48.3945 24.4182Z" fill="black"/>
<path d="M24.394 48.4184C35.1018 48.4184 44.1702 41.4056 47.2606 31.7227H1.52734C4.61781 41.4055 13.6863 48.4182 24.394 48.4184Z" fill="#338AF3"/>
<path d="M24.3941 0.417969C13.6864 0.417969 4.618 7.43075 1.52734 17.1134L47.2605 17.1135C44.1702 7.43075 35.1017 0.417781 24.3941 0.417969Z" fill="#338AF3"/>
</g>
<defs>
<clipPath id="clip0_2743_758">
<rect x="0.394531" y="0.417969" width="48" height="48" rx="24" fill="white"/>
</clipPath>
</defs>
</svg>
