<svg width="49" height="49" viewBox="0 0 49 49" fill="none" xmlns="http://www.w3.org/2000/svg">
<g clip-path="url(#clip0_2743_764)">
<path d="M24.3945 48.418C37.6494 48.418 48.3945 37.6728 48.3945 24.418C48.3945 11.1631 37.6494 0.417969 24.3945 0.417969C11.1397 0.417969 0.394531 11.1631 0.394531 24.418C0.394531 37.6728 11.1397 48.418 24.3945 48.418Z" fill="#6DA544"/>
<path d="M24.3944 9.80859L44.2205 24.4173L24.3944 39.026L4.56836 24.4173L24.3944 9.80859Z" fill="#FFDA44"/>
<path d="M24.3947 32.7659C29.005 32.7659 32.7424 29.0284 32.7424 24.4181C32.7424 19.8077 29.005 16.0703 24.3947 16.0703C19.7843 16.0703 16.0469 19.8077 16.0469 24.4181C16.0469 29.0284 19.7843 32.7659 24.3947 32.7659Z" fill="#F0F0F0"/>
<path d="M20.22 23.8965C18.7684 23.8965 17.3675 24.1173 16.0488 24.527C16.1072 29.087 19.8201 32.7661 24.394 32.7661C27.2222 32.7661 29.7201 31.3582 31.2301 29.2066C28.6467 25.9725 24.6716 23.8965 20.22 23.8965Z" fill="#0052B4"/>
<path d="M32.5868 26.0175C32.6873 25.4996 32.7416 24.9653 32.7416 24.4181C32.7416 19.8077 29.0042 16.0703 24.3938 16.0703C20.9538 16.0703 18.0007 18.1517 16.7227 21.1233C17.8523 20.8893 19.022 20.766 20.22 20.766C25.0685 20.7659 29.4547 22.7813 32.5868 26.0175Z" fill="#0052B4"/>
</g>
<defs>
<clipPath id="clip0_2743_764">
<rect x="0.394531" y="0.417969" width="48" height="48" rx="24" fill="white"/>
</clipPath>
</defs>
</svg>
