<svg width="49" height="49" viewBox="0 0 49 49" fill="none" xmlns="http://www.w3.org/2000/svg">
<g clip-path="url(#clip0_2743_771)">
<path d="M0.394531 24.418C0.394531 11.1632 11.1398 0.417969 24.3945 0.417969C37.6493 0.417969 48.3945 11.1632 48.3945 24.418H0.394531Z" fill="#F0F0F0"/>
<path d="M18.1343 23.1074L16.8223 24.4195H18.1343V23.1074Z" fill="#0052B4"/>
<path d="M30.6562 23.1074V24.4194H31.9682L30.6562 23.1074Z" fill="#0052B4"/>
<path d="M1.08697 18.6797C0.635563 20.5187 0.394531 22.4405 0.394531 24.4187H7.96737L13.7064 18.6797H1.08697Z" fill="#0052B4"/>
<path d="M35.082 18.6797L40.821 24.4187H48.3941C48.3941 22.4405 48.1529 20.5187 47.7016 18.6797H35.082Z" fill="#0052B4"/>
<path d="M33.6076 18.6797H30.6562L36.3953 24.4187H39.3467L33.6076 18.6797Z" fill="#D80027"/>
<path d="M18.1337 21.6308V18.6797H18.1335L12.3945 24.4187H15.346L18.1337 21.6308Z" fill="#D80027"/>
<path d="M11.6372 4.08789C10.648 4.71002 9.70736 5.40208 8.82227 6.15742H13.7066L11.6372 4.08789Z" fill="#0052B4"/>
<path d="M39.9662 6.15742C39.0811 5.40198 38.1406 4.70992 37.1515 4.08789L35.082 6.15742H39.9662Z" fill="#0052B4"/>
<path d="M27.5253 15.5484H46.7018C45.7945 13.2685 44.5475 11.1612 43.0237 9.28747H27.5254H27.5253V0.621125C26.5006 0.487719 25.4558 0.417969 24.3949 0.417969C23.3337 0.417969 22.2891 0.487719 21.2645 0.621125V9.28738V9.28747H5.76598C4.24227 11.1612 2.9952 13.2685 2.08789 15.5484H21.2643H21.2644V24.418H27.5253V15.5485V15.5484Z" fill="#D80027"/>
<path d="M18.1339 6.15725V6.15716L14.5158 2.53906C13.8469 2.84159 13.195 3.17488 12.5605 3.53516L15.1826 6.15725H18.1339Z" fill="#D80027"/>
<path d="M30.6562 6.15784L34.2744 2.53975C33.5862 2.22859 32.8806 1.94959 32.1596 1.70312L30.6562 3.20659V6.15784Z" fill="#D80027"/>
<path d="M48.3945 24.418C48.3945 37.6727 37.6493 48.418 24.3945 48.418C11.1398 48.418 0.394531 37.6727 0.394531 24.418H48.3945Z" fill="#F0F0F0"/>
<path d="M44.3943 27.4791C42.3943 27.4791 42.3943 25.6504 40.3942 25.6504C38.3943 25.6504 38.3943 27.4791 36.3944 27.4791C34.3945 27.4791 34.3944 25.6504 32.3945 25.6504C30.3946 25.6504 30.3946 27.4791 28.3945 27.4791C26.3944 27.4791 26.3943 25.6504 24.3942 25.6504C22.3942 25.6504 22.3942 27.4791 20.3943 27.4791C18.3947 27.4791 18.3947 25.6504 16.3947 25.6504C14.3945 25.6504 14.3945 27.4791 12.3944 27.4791C10.3942 27.4791 10.3942 25.6504 8.39406 25.6504C6.39438 25.6504 6.39438 27.4791 4.39441 27.4791C2.40522 27.4791 2.39369 25.6705 0.425781 25.6512C0.481188 26.749 0.61225 27.8268 0.810438 28.8807C2.40456 29.115 2.54416 30.679 4.3945 30.679C6.39447 30.679 6.39447 28.8505 8.39416 28.8505C10.3943 28.8505 10.3943 30.679 12.3945 30.679C14.3946 30.679 14.3946 28.8505 16.3948 28.8505C18.3948 28.8505 18.3948 30.679 20.3944 30.679C22.3944 30.679 22.3944 28.8505 24.3943 28.8505C26.3944 28.8505 26.3944 30.679 28.3946 30.679C30.3948 30.679 30.3948 28.8505 32.3946 28.8505C34.3946 28.8505 34.3946 30.679 36.3945 30.679C38.3943 30.679 38.3944 28.8505 40.3943 28.8505C42.3945 28.8505 42.3945 30.679 44.3943 30.679C46.2449 30.679 46.3845 29.1151 47.9787 28.8808C48.177 27.8268 48.3078 26.7491 48.3635 25.6513C46.3953 25.6707 46.3835 27.4791 44.3943 27.4791Z" fill="#0052B4"/>
<path d="M40.3941 31.9121C38.3941 31.9121 38.3941 33.7408 36.3942 33.7408C34.3943 33.7408 34.3942 31.9121 32.3944 31.9121C30.3944 31.9121 30.3944 33.7408 28.3943 33.7408C26.3942 33.7408 26.3942 31.9121 24.394 31.9121C22.3941 31.9121 22.3941 33.7408 20.3942 33.7408C18.3945 33.7408 18.3945 31.9121 16.3945 31.9121C14.3944 31.9121 14.3944 33.7408 12.3942 33.7408C10.3941 33.7408 10.3941 31.9121 8.39391 31.9121C6.39422 31.9121 6.39422 33.7408 4.39425 33.7408C2.96522 33.7408 2.55703 32.8074 1.71094 32.2742C2.27419 33.9016 3.00694 35.4497 3.88941 36.8968C4.04288 36.9251 4.20994 36.9408 4.39425 36.9408C6.39422 36.9408 6.39422 35.1123 8.39391 35.1123C10.3941 35.1123 10.3941 36.9408 12.3942 36.9408C14.3944 36.9408 14.3944 35.1123 16.3945 35.1123C18.3945 35.1123 18.3945 36.9408 20.3942 36.9408C22.3942 36.9408 22.3942 35.1123 24.394 35.1123C26.3942 35.1123 26.3942 36.9408 28.3943 36.9408C30.3945 36.9408 30.3945 35.1123 32.3944 35.1123C34.3943 35.1123 34.3943 36.9408 36.3942 36.9408C38.3941 36.9408 38.3942 35.1123 40.3941 35.1123C42.3942 35.1123 42.3942 36.9408 44.3941 36.9408C44.5785 36.9408 44.7457 36.9251 44.8991 36.8967C45.7816 35.4497 46.5143 33.9016 47.0778 32.2743C46.2316 32.8072 45.8234 33.7408 44.3941 33.7408C42.3942 33.7408 42.3942 31.9121 40.3941 31.9121Z" fill="#0052B4"/>
<path d="M48.3809 23.6641C48.3829 23.7307 48.3853 23.7974 48.3868 23.8643C48.3853 23.7975 48.3828 23.7307 48.3809 23.6641Z" fill="#F0F0F0"/>
<path d="M0.402344 23.8643C0.403938 23.7975 0.406187 23.7308 0.40825 23.6641C0.406281 23.7308 0.403844 23.7976 0.402344 23.8643Z" fill="#F0F0F0"/>
<path d="M0.394531 24.4191C0.394531 24.234 0.397344 24.0495 0.401563 23.8652C0.39725 24.0495 0.394531 24.234 0.394531 24.4191Z" fill="#F0F0F0"/>
<path d="M0.394531 24.418C0.394531 24.8551 0.406906 25.2895 0.43025 25.7208C2.39366 25.7428 2.40669 27.5484 4.39447 27.5484C6.39444 27.5484 6.39444 25.7199 8.39412 25.7199C10.3943 25.7199 10.3943 27.5484 12.3944 27.5484C14.3946 27.5484 14.3946 25.7199 16.3948 25.7199C18.3947 25.7199 18.3947 27.5484 20.3944 27.5484C22.3944 27.5484 22.3944 25.7199 24.3942 25.7199C26.3944 25.7199 26.3944 27.5484 28.3946 27.5484C30.3947 27.5484 30.3947 25.7199 32.3946 25.7199C34.3946 25.7199 34.3946 27.5484 36.3944 27.5484C38.3943 27.5484 38.3944 25.7199 40.3943 25.7199C42.3944 25.7199 42.3944 27.5484 44.3943 27.5484C46.3823 27.5484 46.3953 25.7428 48.3591 25.7208C48.3822 25.2894 48.3945 24.8551 48.3945 24.418H0.394531Z" fill="#F0F0F0"/>
<path d="M48.3867 23.8652C48.3909 24.0494 48.3938 24.2339 48.3938 24.4191C48.3938 24.234 48.391 24.0495 48.3867 23.8652Z" fill="#F0F0F0"/>
<path d="M40.395 38.1719C38.3951 38.1719 38.3951 40.0006 36.3952 40.0006C34.3953 40.0006 34.3952 38.1719 32.3954 38.1719C30.3954 38.1719 30.3954 40.0006 28.3953 40.0006C26.3952 40.0006 26.3952 38.1719 24.395 38.1719C22.395 38.1719 22.395 40.0006 20.3952 40.0006C18.3955 40.0006 18.3955 38.1719 16.3955 38.1719C14.3954 38.1719 14.3954 40.0006 12.3952 40.0006C10.395 40.0006 10.395 38.1719 8.39489 38.1719C7.01358 38.1719 6.58617 39.0441 5.79492 39.5838C7.89389 42.155 10.5161 44.2817 13.4978 45.8043L24.3954 45.2553L35.2929 45.8042C38.2745 44.2815 40.8967 42.1551 42.9957 39.5839C42.204 39.0443 41.7766 38.1719 40.395 38.1719Z" fill="#0052B4"/>
<path d="M37.7056 38.7442L30.4048 40.1406L29.4799 32.7657L24.3947 38.1896L19.3097 32.7656L18.3844 40.1405L11.084 38.7441L14.6642 45.2552L13.495 45.8051C16.7657 47.4756 20.47 48.4178 24.3947 48.4178C28.3194 48.4178 32.0237 47.4756 35.2945 45.8053L34.1257 45.2555L37.7056 38.7442Z" fill="#FFDA44"/>
</g>
<defs>
<clipPath id="clip0_2743_771">
<rect x="0.394531" y="0.417969" width="48" height="48" rx="24" fill="white"/>
</clipPath>
</defs>
</svg>
