<svg width="49" height="49" viewBox="0 0 49 49" fill="none" xmlns="http://www.w3.org/2000/svg">
<g clip-path="url(#clip0_2743_829)">
<path d="M48.3945 24.418C48.3945 37.6727 37.6493 48.418 24.3945 48.418C11.1398 48.418 0.394531 37.6727 0.394531 24.418C0.394531 24.4237 24.3945 0.420594 24.3945 0.417969C37.6493 0.417969 48.3945 11.1632 48.3945 24.418Z" fill="#0052B4"/>
<path d="M24.3301 24.4177H24.3943C24.3943 24.3962 24.3943 24.3752 24.3943 24.3535C24.3729 24.375 24.3515 24.3964 24.3301 24.4177Z" fill="#F0F0F0"/>
<path d="M24.3945 12.9397C24.3945 8.71672 24.3945 5.94969 24.3945 0.417969H24.3905C11.1374 0.420219 0.394531 11.1644 0.394531 24.418H12.9163V17.3669L19.9673 24.418H24.3304C24.3518 24.3966 24.3732 24.3752 24.3946 24.3538C24.3946 22.7368 24.3946 21.2941 24.3946 19.9909L17.3434 12.9397H24.3945Z" fill="#F0F0F0"/>
<path d="M12.537 3.54883C8.78336 5.68623 5.6627 8.8068 3.52539 12.5605V24.4184H9.7863V9.80992V9.80973H24.395C24.395 7.83508 24.395 5.95389 24.395 3.54883H12.537Z" fill="#D80027"/>
<path d="M34.8286 24.418L28.3418 30.9048C29.5575 33.2496 32.0052 34.8527 34.8286 34.8527C37.6521 34.8527 40.0997 33.2496 41.3155 30.9048L34.8286 24.418Z" fill="#FFDA44"/>
<path d="M24.3943 21.4663L15.8673 12.9395H12.916V12.9396L24.3941 24.4176H24.3943C24.3943 24.4176 24.3943 22.3826 24.3943 21.4663Z" fill="#D80027"/>
<path d="M27.5254 12.9395V24.4176V24.4177C27.5255 30.0089 34.8297 31.7221 34.8297 31.7221C34.8297 31.7221 42.134 30.0089 42.1341 24.4177V24.4176V12.9395H27.5254Z" fill="#6DA544"/>
<path d="M33.2637 18.1562H36.3941V26.504H33.2637V18.1562Z" fill="#F0F0F0"/>
<path d="M34.8289 19.7223C35.6934 19.7223 36.3942 19.0215 36.3942 18.157C36.3942 17.2926 35.6934 16.5918 34.8289 16.5918C33.9645 16.5918 33.2637 17.2926 33.2637 18.157C33.2637 19.0215 33.9645 19.7223 34.8289 19.7223Z" fill="#A2001D"/>
<path d="M29.6113 15.0273H31.6983V17.1143H29.6113V15.0273Z" fill="#FFDA44"/>
<path d="M29.6113 19.7227H31.6983V21.8096H29.6113V19.7227Z" fill="#FFDA44"/>
<path d="M29.6113 24.418H31.6983V26.5049H29.6113V24.418Z" fill="#FFDA44"/>
<path d="M37.959 15.0273H40.046V17.1143H37.959V15.0273Z" fill="#FFDA44"/>
<path d="M37.959 19.7227H40.046V21.8096H37.959V19.7227Z" fill="#FFDA44"/>
<path d="M37.959 24.418H40.046V26.5049H37.959V24.418Z" fill="#FFDA44"/>
</g>
<defs>
<clipPath id="clip0_2743_829">
<rect x="0.394531" y="0.417969" width="48" height="48" rx="24" fill="white"/>
</clipPath>
</defs>
</svg>
