<svg width="49" height="49" viewBox="0 0 49 49" fill="none" xmlns="http://www.w3.org/2000/svg">
<g clip-path="url(#clip0_2743_800)">
<path d="M24.3945 48.418C37.6494 48.418 48.3945 37.6728 48.3945 24.418C48.3945 11.1631 37.6494 0.417969 24.3945 0.417969C11.1397 0.417969 0.394531 11.1631 0.394531 24.418C0.394531 37.6728 11.1397 48.418 24.3945 48.418Z" fill="#F0F0F0"/>
<path d="M44.3942 27.2896C42.3943 27.2896 42.3943 25.4609 40.3942 25.4609C38.3942 25.4609 38.3942 27.2896 36.3944 27.2896C34.3945 27.2896 34.3944 25.4609 32.3945 25.4609C30.3946 25.4609 30.3946 27.2896 28.3945 27.2896C26.3944 27.2896 26.3943 25.4609 24.3942 25.4609C22.3942 25.4609 22.3942 27.2896 20.3943 27.2896C18.3947 27.2896 18.3947 25.4609 16.3947 25.4609C14.3945 25.4609 14.3945 27.2896 12.3944 27.2896C10.3942 27.2896 10.3942 25.4609 8.39406 25.4609C6.39438 25.4609 6.39437 27.2896 4.39441 27.2896C2.40522 27.2896 2.39369 25.4811 0.425781 25.4618C0.481188 26.5595 0.61225 27.6373 0.810437 28.6914C2.40456 28.9255 2.54416 30.4895 4.39459 30.4895C6.39456 30.4895 6.39456 28.661 8.39425 28.661C10.3944 28.661 10.3944 30.4895 12.3946 30.4895C14.3947 30.4895 14.3947 28.661 16.3949 28.661C18.3948 28.661 18.3948 30.4895 20.3945 30.4895C22.3945 30.4895 22.3945 28.661 24.3944 28.661C26.3945 28.661 26.3945 30.4895 28.3947 30.4895C30.3948 30.4895 30.3948 28.661 32.3947 28.661C34.3947 28.661 34.3947 30.4895 36.3946 30.4895C38.3945 30.4895 38.3945 28.661 40.3944 28.661C42.3946 28.661 42.3946 30.4895 44.3944 30.4895C46.245 30.4895 46.3846 28.9256 47.9788 28.6914C48.1771 27.6372 48.3079 26.5596 48.3636 25.4618C46.3953 25.4812 46.3835 27.2896 44.3942 27.2896Z" fill="#0052B4"/>
<path d="M40.3951 31.7227C38.3951 31.7227 38.3951 33.5513 36.3952 33.5513C34.3954 33.5513 34.3953 31.7227 32.3954 31.7227C30.3954 31.7227 30.3954 33.5513 28.3954 33.5513C26.3952 33.5513 26.3952 31.7227 24.395 31.7227C22.3951 31.7227 22.3951 33.5513 20.3952 33.5513C18.3955 33.5513 18.3955 31.7227 16.3955 31.7227C14.3954 31.7227 14.3954 33.5513 12.3952 33.5513C10.3951 33.5513 10.3951 31.7227 8.39492 31.7227C6.39523 31.7227 6.39523 33.5513 4.39527 33.5513C2.92198 33.5513 2.53302 32.5597 1.63086 32.0373C2.17723 33.6703 2.89489 35.2246 3.76161 36.68C3.9493 36.7252 4.15798 36.7513 4.39517 36.7513C6.39514 36.7513 6.39514 34.9228 8.39483 34.9228C10.395 34.9228 10.395 36.7513 12.3951 36.7513C14.3953 36.7513 14.3953 34.9228 16.3955 34.9228C18.3954 34.9228 18.3954 36.7513 20.3951 36.7513C22.3951 36.7513 22.3951 34.9228 24.395 34.9228C26.3951 34.9228 26.3951 36.7513 28.3953 36.7513C30.3954 36.7513 30.3954 34.9228 32.3953 34.9228C34.3953 34.9228 34.3953 36.7513 36.3951 36.7513C38.395 36.7513 38.3951 34.9228 40.395 34.9228C42.3951 34.9228 42.3951 36.7513 44.395 36.7513C44.6324 36.7513 44.8413 36.7253 45.029 36.6799C45.8959 35.2246 46.6134 33.6703 47.1597 32.0374C46.2575 32.5597 45.8685 33.5514 44.395 33.5514C42.3952 33.5513 42.3952 31.7227 40.3951 31.7227Z" fill="#0052B4"/>
<path d="M47.8368 19.2568C46.3749 19.5602 46.1885 21.0299 44.3949 21.0299C42.3949 21.0299 42.3949 19.2012 40.3948 19.2012C38.3949 19.2012 38.3949 21.0299 36.395 21.0299C34.3951 21.0299 34.395 19.2012 32.3952 19.2012C30.3952 19.2012 30.3952 21.0299 28.3951 21.0299C26.3951 21.0299 26.395 19.2012 24.3948 19.2012C23.3142 19.2012 22.8173 19.735 22.2734 20.2259V23.4258C22.8173 22.935 23.3141 22.4013 24.3948 22.4013C26.395 22.4013 26.395 24.2298 28.3951 24.2298C30.3953 24.2298 30.3953 22.4013 32.3952 22.4013C34.3951 22.4013 34.3951 24.2298 36.395 24.2298C38.3949 24.2298 38.395 22.4013 40.3948 22.4013C42.395 22.4013 42.395 24.2298 44.3949 24.2298C46.2454 24.2298 46.385 22.6659 47.9792 22.4317C48.0814 22.4317 48.1956 22.4307 48.3125 22.4293C48.2239 21.3499 48.0636 20.2909 47.8368 19.2568Z" fill="#0052B4"/>
<path d="M46.0836 14.1309C45.6691 14.479 45.1901 14.7681 44.3949 14.7681C42.3949 14.7681 42.3949 12.9395 40.3948 12.9395C38.3949 12.9395 38.3949 14.7681 36.395 14.7681C34.3951 14.7681 34.395 12.9395 32.3952 12.9395C30.3952 12.9395 30.3952 14.7681 28.3951 14.7681C26.3951 14.7681 26.395 12.9395 24.3948 12.9395C23.3142 12.9395 22.8173 13.4733 22.2734 13.9641V17.1641C22.8173 16.6733 23.3141 16.1396 24.3948 16.1396C26.395 16.1396 26.395 17.9681 28.3951 17.9681C30.3951 17.9681 30.3951 16.1396 32.3951 16.1396C34.395 16.1396 34.395 17.9681 36.3949 17.9681C38.3948 17.9681 38.3948 16.1396 40.3947 16.1396C42.3949 16.1396 42.3949 17.9681 44.3948 17.9681C45.8139 17.9681 46.2272 17.0489 47.0616 16.5143C46.7772 15.699 46.4507 14.9035 46.0836 14.1309Z" fill="#0052B4"/>
<path d="M40.5657 6.68456C40.5102 6.68156 40.4537 6.67969 40.3949 6.67969C38.395 6.67969 38.395 8.50838 36.3951 8.50838C34.3951 8.50838 34.3951 6.67969 32.3952 6.67969C30.3953 6.67969 30.3953 8.50838 28.3951 8.50838C26.395 8.50838 26.395 6.67969 24.3948 6.67969C23.3142 6.67969 22.8173 7.2135 22.2734 7.70437V10.9043C22.8173 10.4136 23.3141 9.87984 24.3948 9.87984C26.395 9.87984 26.395 11.7083 28.3951 11.7083C30.3953 11.7083 30.3953 9.87984 32.3952 9.87984C34.3951 9.87984 34.3951 11.7083 36.395 11.7083C38.3949 11.7083 38.395 9.87984 40.3948 9.87984C42.395 9.87984 42.395 11.7083 44.3949 11.7083C44.5181 11.7083 44.6331 11.701 44.742 11.688C43.5804 9.83513 42.1737 8.15166 40.5657 6.68456Z" fill="#0052B4"/>
<path d="M30.5282 1.21034C29.9792 1.70422 29.4831 2.24666 28.3938 2.24666C26.3937 2.24666 26.3937 0.418156 24.3936 0.417969H24.3932C23.359 0.418063 22.8597 0.907156 22.3418 1.37956V4.57963C22.8596 4.10722 23.3591 3.61803 24.3936 3.61803C26.3938 3.61803 26.3938 5.44653 28.3939 5.44653C30.394 5.44653 30.394 3.61803 32.394 3.61803C34.3939 3.61803 34.3939 5.44653 36.3938 5.44653C37.233 5.44653 37.7197 5.12441 38.1502 4.75072C35.8687 3.15181 33.2964 1.94 30.5282 1.21034Z" fill="#0052B4"/>
<path d="M28.3951 46.0729C26.395 46.0729 26.395 44.2442 24.3948 44.2442C22.3948 44.2442 22.3948 46.0729 20.395 46.0729C18.3953 46.0729 18.3953 44.2442 16.3953 44.2442C14.8633 44.2442 14.504 45.3162 13.5215 45.8185C16.2309 47.1979 19.2371 48.0772 22.419 48.3366C22.9111 47.887 23.411 47.4443 24.3948 47.4443C25.3789 47.4443 25.8788 47.887 26.371 48.3367C29.5529 48.0774 32.5594 47.198 35.2689 45.8186C34.2862 45.3164 33.9269 44.2441 32.3951 44.2441C30.3953 44.2442 30.3953 46.0729 28.3951 46.0729Z" fill="#0052B4"/>
<path d="M36.3951 39.8111C34.3951 39.8111 34.3951 37.9824 32.3952 37.9824C30.3953 37.9824 30.3953 39.8111 28.3952 39.8111C26.395 39.8111 26.395 37.9824 24.3949 37.9824C22.3949 37.9824 22.3949 39.8111 20.395 39.8111C18.3953 39.8111 18.3953 37.9824 16.3954 37.9824C14.3952 37.9824 14.3952 39.8111 12.3951 39.8111C10.3949 39.8111 10.3949 37.9824 8.39475 37.9824C6.95653 37.9824 6.55266 38.9284 5.69531 39.4595C6.23269 40.1268 6.804 40.7656 7.40859 41.3712C7.67944 41.2555 7.99725 41.1825 8.39466 41.1825C10.3948 41.1825 10.3948 43.011 12.395 43.011C14.3951 43.011 14.3951 41.1825 16.3953 41.1825C18.3953 41.1825 18.3953 43.011 20.3949 43.011C22.3949 43.011 22.3949 41.1825 24.3948 41.1825C26.3949 41.1825 26.3949 43.011 28.3951 43.011C30.3953 43.011 30.3953 41.1825 32.3951 41.1825C34.395 41.1825 34.3951 43.011 36.395 43.011C38.3948 43.011 38.3949 41.1825 40.3948 41.1825C40.7927 41.1825 41.1105 41.2555 41.3815 41.3714C41.9862 40.7657 42.5575 40.1269 43.0949 39.4595C42.2375 38.9285 41.8336 37.9825 40.3949 37.9825C38.3949 37.9824 38.3949 39.8111 36.3951 39.8111Z" fill="#0052B4"/>
<path d="M24.3301 24.4177H24.3943C24.3943 24.3962 24.3943 24.3752 24.3943 24.3535C24.3729 24.375 24.3515 24.3964 24.3301 24.4177Z" fill="#F0F0F0"/>
<path d="M24.3947 12.9399V19.9911L16.0469 11.8965L24.3947 12.9399Z" fill="#0052B4"/>
<path d="M12.9166 24.4187H19.9675L12.9165 15.0273L11.873 22.3317L12.9166 24.4187Z" fill="#0052B4"/>
<path d="M24.3945 12.9397C24.3945 8.71672 24.3945 5.94969 24.3945 0.417969H24.3905C11.1375 0.420219 0.394531 11.1644 0.394531 24.418H12.9163V17.3669L19.9673 24.418H24.3304C24.3518 24.3966 24.3732 24.3752 24.3946 24.3538C24.3946 22.7368 24.3946 21.2941 24.3946 19.9909L17.3434 12.9397H24.3945Z" fill="#F0F0F0"/>
<path d="M12.537 3.54883C8.78336 5.68623 5.6628 8.8068 3.52539 12.5605V24.4184H9.7863V9.80992V9.80973H24.395C24.395 7.83508 24.395 5.95389 24.395 3.54883H12.537Z" fill="#D80027"/>
<path d="M24.3943 21.4663L15.8673 12.9395H12.916V12.9396L24.3941 24.4176H24.3943C24.3943 24.4176 24.3943 22.3826 24.3943 21.4663Z" fill="#D80027"/>
<path d="M31.6992 12.9395H41.0905L36.3949 17.6351L31.6992 12.9395Z" fill="#6DA544"/>
<path d="M35.3516 16.5918H37.4385V22.3309H35.3516V16.5918Z" fill="#A2001D"/>
<path d="M35.3516 31.7227H37.4385V37.4618H35.3516V31.7227Z" fill="#A2001D"/>
<path d="M42.6545 28.5915C42.6545 26.8626 41.253 25.461 39.5241 25.461C38.7222 25.461 37.9911 25.7629 37.4372 26.2588V24.4175H38.4806V22.3305H37.4372V21.2871H35.3502V22.3305H34.3068V24.4175H35.3502V26.2588C34.7962 25.7629 34.0652 25.461 33.2632 25.461C31.5344 25.461 30.1328 26.8626 30.1328 28.5915C30.1328 29.5184 30.536 30.3509 31.1763 30.9241V32.7654H41.611V30.9241C42.2513 30.3509 42.6545 29.5184 42.6545 28.5915Z" fill="#FFDA44"/>
<path d="M39.525 27.5488C39.1958 27.5488 38.9654 27.6934 38.8299 27.8145L37.438 29.0605H35.3511L33.9592 27.8145C33.8237 27.6934 33.5933 27.5488 33.2641 27.5488C32.6888 27.5488 32.2207 28.0169 32.2207 28.5923C32.2207 28.9975 32.4392 29.2536 32.5695 29.3703L33.2642 29.9924V30.6792H39.5251V29.9924L40.2199 29.3703C40.3501 29.2537 40.5687 28.9975 40.5687 28.5923C40.5685 28.0169 40.1004 27.5488 39.525 27.5488Z" fill="#D80027"/>
</g>
<defs>
<clipPath id="clip0_2743_800">
<rect x="0.394531" y="0.417969" width="48" height="48" rx="24" fill="white"/>
</clipPath>
</defs>
</svg>
