<svg width="49" height="49" viewBox="0 0 49 49" fill="none" xmlns="http://www.w3.org/2000/svg">
<g clip-path="url(#clip0_2743_851)">
<path d="M24.3949 48.4148C37.6478 48.4148 48.3914 37.6712 48.3914 24.4184C48.3914 11.1655 37.6478 0.421875 24.3949 0.421875C11.142 0.421875 0.398438 11.1655 0.398438 24.4184C0.398438 37.6712 11.142 48.4148 24.3949 48.4148Z" fill="#F0F0F0"/>
<path d="M3.61333 12.4199C2.53022 14.2957 1.73126 16.2568 1.19922 18.2544L41.3305 41.4244C42.7945 39.9647 44.0935 38.2921 45.1763 36.4164L3.61333 12.4199Z" fill="black"/>
<path d="M36.393 3.63638C26.7913 -1.90709 14.9523 -0.0595148 7.45898 7.41177L47.5903 30.5816C50.3141 20.3568 45.9945 9.17993 36.393 3.63638Z" fill="#FFDA44"/>
<path d="M12.3971 45.1993C21.9986 50.7427 33.8379 48.8952 41.331 41.424L1.19963 18.2539C-1.52396 28.479 2.79538 39.6558 12.3971 45.1993Z" fill="#FFDA44"/>
<path d="M31.1752 21.81C31.1752 25.5553 28.1389 28.5916 24.3935 28.5916C20.6481 28.5916 17.6119 25.5554 17.6119 21.81C17.6119 20.6422 17.9071 19.5433 18.4271 18.584C16.9554 20.089 16.0469 22.147 16.0469 24.4183C16.0469 29.028 19.7837 32.7649 24.3935 32.7649C29.0033 32.7649 32.7402 29.0281 32.7402 24.4183C32.7402 22.147 31.8317 20.089 30.36 18.584C30.8799 19.5435 31.1752 20.6422 31.1752 21.81Z" fill="#D80027"/>
<path d="M22.8281 13.9844H25.9581V29.6343H22.8281V13.9844Z" fill="#D80027"/>
<path d="M29.6109 17.1152H19.1777C19.1777 17.8355 19.8052 18.4194 20.5254 18.4194H20.4819C20.4819 19.1397 21.0659 19.7236 21.7861 19.7236C21.7861 20.4439 22.3701 21.0278 23.0903 21.0278H25.6986C26.4189 21.0278 27.0027 20.4439 27.0027 19.7236C27.723 19.7236 28.3069 19.1397 28.3069 18.4194H28.2635C28.9835 18.4193 29.6109 17.8356 29.6109 17.1152Z" fill="#D80027"/>
<path d="M17.0898 30.6777H31.6964V33.8077H17.0898V30.6777Z" fill="#D80027"/>
<path d="M27.5234 31.7207H33.7834V34.8507H27.5234V31.7207Z" fill="#D80027"/>
<path d="M15.0039 31.7207H21.2638V34.8507H15.0039V31.7207Z" fill="#D80027"/>
</g>
<defs>
<clipPath id="clip0_2743_851">
<rect x="0.394531" y="0.417969" width="48" height="48" rx="24" fill="white"/>
</clipPath>
</defs>
</svg>
