<svg width="49" height="49" viewBox="0 0 49 49" fill="none" xmlns="http://www.w3.org/2000/svg">
<g clip-path="url(#clip0_2743_868)">
<path d="M0.394531 24.418C0.394531 11.1632 11.1398 0.417969 24.3945 0.417969C37.6493 0.417969 48.3945 11.1632 48.3945 24.418C47.3511 24.418 24.3945 27.5484 24.3945 27.5484L0.394531 24.418Z" fill="#D80027"/>
<path d="M48.3945 24.418C48.3945 37.6727 37.6493 48.418 24.3945 48.418C11.1398 48.418 0.394531 37.6727 0.394531 24.418" fill="#6DA544"/>
<path d="M24.3951 16.0703L26.208 21.6501H32.0755L27.3287 25.0988L29.1417 30.679L24.3951 27.2304L19.6485 30.679L21.4617 25.0988L16.7148 21.6501H22.5821L24.3951 16.0703Z" fill="#FFDA44"/>
</g>
<defs>
<clipPath id="clip0_2743_868">
<rect x="0.394531" y="0.417969" width="48" height="48" rx="24" fill="white"/>
</clipPath>
</defs>
</svg>
