<svg width="49" height="49" viewBox="0 0 49 49" fill="none" xmlns="http://www.w3.org/2000/svg">
<g clip-path="url(#clip0_2743_872)">
<path d="M24.3945 48.418C37.6494 48.418 48.3945 37.6728 48.3945 24.418C48.3945 11.1631 37.6494 0.417969 24.3945 0.417969C11.1397 0.417969 0.394531 11.1631 0.394531 24.418C0.394531 37.6728 11.1397 48.418 24.3945 48.418Z" fill="#F0F0F0"/>
<path d="M39.008 5.37684C30.4156 -1.23497 18.3736 -1.23497 9.78125 5.37675L24.3946 19.9901L39.008 5.37684Z" fill="#D80027"/>
<path d="M24.3944 28.8439L9.78125 43.4571C18.3736 50.0689 30.4156 50.0689 39.008 43.4571L24.3946 28.8438L24.3944 28.8439Z" fill="#D80027"/>
<path d="M19.9667 24.4181L5.35339 9.80469C-1.25842 18.3971 -1.25842 30.4391 5.35339 39.0314L19.9667 24.4181Z" fill="#6DA544"/>
<path d="M28.8203 24.4181L43.4335 39.0314C50.0453 30.4391 50.0453 18.3971 43.4335 9.80469L28.8203 24.4181Z" fill="#6DA544"/>
<path d="M24.3937 34.8519C30.1567 34.8519 34.8285 30.1801 34.8285 24.4172C34.8285 18.6542 30.1567 13.9824 24.3937 13.9824C18.6308 13.9824 13.959 18.6542 13.959 24.4172C13.959 30.1801 18.6308 34.8519 24.3937 34.8519Z" fill="#F0F0F0"/>
<path d="M24.3946 17.1133L25.2982 18.6785H27.1056L26.2019 20.2437L27.1056 21.8089H25.2982L24.3946 23.3742L23.4909 21.8089H21.6836L22.5873 20.2437L21.6836 18.6785H23.4909L24.3946 17.1133Z" fill="#D80027"/>
<path d="M19.8009 24.418L20.7046 25.9832H22.5119L21.6082 27.5484L22.5119 29.1136H20.7046L19.8009 30.6789L18.8972 29.1136H17.0898L17.9935 27.5484L17.0898 25.9832H18.8972L19.8009 24.418Z" fill="#D80027"/>
<path d="M28.9884 24.418L29.8921 25.9832H31.6994L30.7957 27.5484L31.6994 29.1136H29.8921L28.9884 30.6789L28.0847 29.1136H26.2773L27.181 27.5484L26.2773 25.9832H28.0847L28.9884 24.418Z" fill="#D80027"/>
</g>
<defs>
<clipPath id="clip0_2743_872">
<rect x="0.394531" y="0.417969" width="48" height="48" rx="24" fill="white"/>
</clipPath>
</defs>
</svg>
