<svg width="49" height="49" viewBox="0 0 49 49" fill="none" xmlns="http://www.w3.org/2000/svg">
<g clip-path="url(#clip0_2743_885)">
<path d="M0.394531 24.4188C0.394531 28.5766 1.45231 32.4873 3.31269 35.897L24.3945 37.984L45.4764 35.897C47.3368 32.4873 48.3945 28.5766 48.3945 24.4188C48.3945 20.261 47.3368 16.3503 45.4764 12.9405L24.3945 10.8535L3.31269 12.9405C1.45231 16.3503 0.394531 20.261 0.394531 24.4188H0.394531Z" fill="#D80027"/>
<path d="M3.3125 12.9397H45.4761C41.4057 5.47944 33.4914 0.417969 24.3943 0.417969C15.2973 0.417969 7.38303 5.47944 3.3125 12.9397Z" fill="#0052B4"/>
<path d="M24.3943 48.4182C33.4914 48.4182 41.4057 43.3567 45.4762 35.8965H3.3125C7.38303 43.3567 15.2973 48.4182 24.3943 48.4182Z" fill="#0052B4"/>
<path d="M32.7415 29.1141V25.9837H30.6546V21.8097L28.5677 19.7228L26.4807 21.8097V17.6358L24.3937 15.5488L22.3068 17.6358V21.8097L20.2198 19.7228L18.1328 21.8097V25.9837H16.046V29.1141H13.959V32.2445H34.8285V29.1141H32.7415Z" fill="#F0F0F0"/>
</g>
<defs>
<clipPath id="clip0_2743_885">
<rect x="0.394531" y="0.417969" width="48" height="48" rx="24" fill="white"/>
</clipPath>
</defs>
</svg>
