<svg width="49" height="49" viewBox="0 0 49 49" fill="none" xmlns="http://www.w3.org/2000/svg">
<g clip-path="url(#clip0_2743_902)">
<path d="M24.3952 0.417969C21.4595 0.417969 18.6473 0.946063 16.0474 1.91075L15.0039 24.418L16.0473 46.9252C18.6473 47.89 21.4595 48.418 24.3952 48.418C27.3309 48.418 30.1431 47.89 32.743 46.9252L33.7865 24.418L32.7431 1.91075C30.1431 0.946063 27.3309 0.417969 24.3952 0.417969V0.417969Z" fill="#338AF3"/>
<path d="M48.3944 24.4174C48.3944 14.0982 41.8814 5.30119 32.7422 1.91016V46.9247C41.8814 43.5336 48.3944 34.7365 48.3944 24.4174Z" fill="#FFDA44"/>
<path d="M16.0468 46.9246V1.91016C6.90753 5.30119 0.394531 14.0982 0.394531 24.4174C0.394531 34.7365 6.90753 43.5336 16.0468 46.9246Z" fill="#F0F0F0"/>
</g>
<defs>
<clipPath id="clip0_2743_902">
<rect x="0.394531" y="0.417969" width="48" height="48" rx="24" fill="white"/>
</clipPath>
</defs>
</svg>
