<svg width="49" height="49" viewBox="0 0 49 49" fill="none" xmlns="http://www.w3.org/2000/svg">
<g clip-path="url(#clip0_2743_896)">
<path d="M24.3945 48.418C37.6494 48.418 48.3945 37.6728 48.3945 24.418C48.3945 11.1631 37.6494 0.417969 24.3945 0.417969C11.1397 0.417969 0.394531 11.1631 0.394531 24.418C0.394531 37.6728 11.1397 48.418 24.3945 48.418Z" fill="#F0F0F0"/>
<path d="M48.3953 24.4174C48.3953 14.9023 42.858 6.68083 34.8301 2.79883V46.0359C42.858 42.1539 48.3953 33.9325 48.3953 24.4174Z" fill="#D80027"/>
<path d="M0.394531 24.4174C0.394531 33.9324 5.93188 42.1539 13.9598 46.0359V2.79883C5.93188 6.68083 0.394531 14.9023 0.394531 24.4174Z" fill="#D80027"/>
<path d="M28.5686 27.548L32.7424 25.4611L30.6556 24.4176V22.3307L26.4816 24.4176L28.5686 20.2437H26.4816L24.3947 17.1133L22.3077 20.2437H20.2207L22.3077 24.4176L18.1337 22.3307V24.4176L16.0469 25.4611L20.2207 27.548L19.1773 29.635H23.3512V32.7654H25.4381V29.635H29.612L28.5686 27.548Z" fill="#D80027"/>
</g>
<defs>
<clipPath id="clip0_2743_896">
<rect x="0.394531" y="0.417969" width="48" height="48" rx="24" fill="white"/>
</clipPath>
</defs>
</svg>
