<svg width="49" height="49" viewBox="0 0 49 49" fill="none" xmlns="http://www.w3.org/2000/svg">
<g clip-path="url(#clip0_2743_906)">
<path d="M24.3945 48.418C37.6494 48.418 48.3945 37.6728 48.3945 24.418C48.3945 11.1631 37.6494 0.417969 24.3945 0.417969C11.1397 0.417969 0.394531 11.1631 0.394531 24.418C0.394531 37.6728 11.1397 48.418 24.3945 48.418Z" fill="#F0F0F0"/>
<path d="M24.3944 48.4181C31.6685 48.4181 38.1863 45.1815 42.5876 40.0703H6.20117C10.6025 45.1815 17.1202 48.4181 24.3944 48.4181Z" fill="#0052B4"/>
<path d="M48.3945 24.418C48.3945 11.1632 37.6493 0.417969 24.3945 0.417969C11.1398 0.417969 0.394531 11.1632 0.394531 24.418C0.394531 26.5842 0.683281 28.6826 1.22131 30.6789H47.5678C48.1058 28.6826 48.3945 26.5842 48.3945 24.418Z" fill="#0052B4"/>
<path d="M2.30273 33.8086C2.76539 34.8957 3.30623 35.9412 3.91777 36.939H44.8726C45.484 35.9411 46.0248 34.8956 46.4877 33.8086H2.30273Z" fill="#D80027"/>
<path d="M17.55 25.9824L17.9385 27.1781H19.1958L18.1787 27.9171L18.5672 29.1128L17.55 28.3738L16.5328 29.1128L16.9214 27.9171L15.9043 27.1781H17.1616L17.55 25.9824Z" fill="#FFDA44"/>
<path d="M17.55 41.6348L17.9385 42.8305H19.1958L18.1787 43.5695L18.5672 44.7652L17.55 44.0262L16.5328 44.7652L16.9214 43.5695L15.9043 42.8305H17.1616L17.55 41.6348Z" fill="#FFDA44"/>
<path d="M10.2648 36.3418L10.6533 37.5374H11.9106L10.8935 38.2763L11.282 39.4722L10.2648 38.7332L9.24764 39.4722L9.63633 38.2763L8.61914 37.5374H9.87633L10.2648 36.3418Z" fill="#FFDA44"/>
<path d="M13.0481 27.5469L13.4366 28.7427H14.6938L13.6768 29.4816L14.0653 30.6774L13.0481 29.9383L12.0309 30.6774L12.4196 29.4816L11.4023 28.7427H12.6596L13.0481 27.5469Z" fill="#FFDA44"/>
<path d="M8.61914 32.4713L9.87614 32.4714L10.2647 31.2754L10.6533 32.4713L11.9106 32.4712L10.8934 33.2102L11.282 34.406L10.2647 33.667L9.24764 34.4057L9.63614 33.2101L8.61914 32.4713Z" fill="#FFDA44"/>
<path d="M12.0311 42.972L12.4196 41.7765L11.4023 41.0376H12.6596L13.0482 39.8418L13.4368 41.0375H14.694L13.6768 41.7764L14.0653 42.9723L13.0481 42.2332L12.0311 42.972Z" fill="#FFDA44"/>
<path d="M24.8332 36.3418L24.4448 37.5374H23.1875L24.2045 38.2763L23.816 39.4722L24.8332 38.7332L25.8504 39.4722L25.4618 38.2763L26.479 37.5374H25.2217L24.8332 36.3418Z" fill="#FFDA44"/>
<path d="M22.05 27.5469L21.6616 28.7427H20.4043L21.4213 29.4816L21.0328 30.6774L22.05 29.9383L23.0672 30.6774L22.6786 29.4816L23.6958 28.7427H22.4385L22.05 27.5469Z" fill="#FFDA44"/>
<path d="M26.479 32.4713L25.2219 32.4714L24.8333 31.2754L24.4448 32.4713L23.1875 32.4712L24.2046 33.2102L23.816 34.406L24.8333 33.667L25.8504 34.4057L25.4619 33.2101L26.479 32.4713Z" fill="#FFDA44"/>
<path d="M23.0672 42.972L22.6788 41.7765L23.696 41.0376H22.4387L22.0501 39.8418L21.6616 41.0375H20.4043L21.4215 41.7764L21.033 42.9723L22.0502 42.2332L23.0672 42.972Z" fill="#FFDA44"/>
</g>
<defs>
<clipPath id="clip0_2743_906">
<rect x="0.394531" y="0.417969" width="48" height="48" rx="24" fill="white"/>
</clipPath>
</defs>
</svg>
