<svg width="49" height="49" viewBox="0 0 49 49" fill="none" xmlns="http://www.w3.org/2000/svg">
<g clip-path="url(#clip0_2743_942)">
<path d="M24.3945 48.418C37.6494 48.418 48.3945 37.6728 48.3945 24.418C48.3945 11.1631 37.6494 0.417969 24.3945 0.417969C11.1397 0.417969 0.394531 11.1631 0.394531 24.418C0.394531 37.6728 11.1397 48.418 24.3945 48.418Z" fill="#F0F0F0"/>
<path d="M45.4757 12.9404C42.3745 7.25642 37.0417 2.96558 30.6548 1.24414L29.6113 12.9404H45.4757Z" fill="#0052B4"/>
<path d="M3.3125 12.9404H19.1769L18.1334 1.24414C11.7465 2.96558 6.41384 7.25652 3.3125 12.9404Z" fill="#0052B4"/>
<path d="M29.6113 24.418V35.8962H45.4757C47.3362 32.4865 48.394 28.5758 48.394 24.418H29.6113Z" fill="#6DA544"/>
<path d="M19.1772 24.418H0.394531C0.394531 28.5758 1.45231 32.4865 3.31269 35.8962H19.1771V24.418H19.1772Z" fill="#6DA544"/>
<path d="M3.3125 35.8965C6.41384 41.5805 11.7465 45.8713 18.1334 47.5927L19.1769 37.3638L3.3125 35.8965Z" fill="#FFDA44"/>
<path d="M30.6548 47.5927C37.0417 45.8713 42.3745 41.5805 45.4757 35.8965L29.6113 37.3636L30.6548 47.5927Z" fill="#FFDA44"/>
<path d="M29.6113 37.3636L45.4758 35.8965H29.6113V37.3636Z" fill="#FFDA44"/>
<path d="M19.177 35.8965H3.3125L19.177 37.3636V35.8965Z" fill="#FFDA44"/>
<path d="M24.3937 0.417969C22.2274 0.417969 20.1291 0.706719 18.1328 1.24475V47.5913C20.1291 48.1292 22.2274 48.418 24.3937 48.418C26.56 48.418 28.6583 48.1292 30.6546 47.5912V1.24475C28.6583 0.706719 26.56 0.417969 24.3937 0.417969V0.417969Z" fill="#D80027"/>
<path d="M13.3033 5.63477L13.9507 7.62761H16.0463L14.3511 8.8593L14.9987 10.8521L13.3033 9.62055L11.608 10.8521L12.2557 8.8593L10.5605 7.62761H12.656L13.3033 5.63477Z" fill="#FFDA44"/>
</g>
<defs>
<clipPath id="clip0_2743_942">
<rect x="0.394531" y="0.417969" width="48" height="48" rx="24" fill="white"/>
</clipPath>
</defs>
</svg>
