<svg width="49" height="49" viewBox="0 0 49 49" fill="none" xmlns="http://www.w3.org/2000/svg">
<g clip-path="url(#clip0_2743_957)">
<path d="M24.3945 48.418C37.6494 48.418 48.3945 37.6728 48.3945 24.418C48.3945 11.1631 37.6494 0.417969 24.3945 0.417969C11.1397 0.417969 0.394531 11.1631 0.394531 24.418C0.394531 37.6728 11.1397 48.418 24.3945 48.418Z" fill="#F0F0F0"/>
<path d="M24.3945 0.417969C17.767 0.417969 11.767 3.10428 7.42383 7.44734L24.3945 24.418V0.417969Z" fill="black"/>
<path d="M0.394531 24.418C0.394531 31.0454 3.08084 37.0454 7.42391 41.3886L24.3945 24.418H0.394531Z" fill="black"/>
<path d="M24.3945 48.418C31.022 48.418 37.022 45.7317 41.3652 41.3886L24.3945 24.418V48.418Z" fill="black"/>
<path d="M48.3945 24.4179C48.3945 17.7904 45.7082 11.7904 41.3652 7.44727L24.3945 24.4179H48.3945Z" fill="black"/>
<path d="M16.0469 17.1135L24.3947 18.1572L32.7424 17.1135V12.1048L29.4033 13.7744L24.3947 8.76562L19.386 13.7744L16.0469 12.1048V17.1135Z" fill="#FFDA44"/>
<path d="M24.3947 36.9392C19.7916 36.9392 16.0469 33.1943 16.0469 28.5914V20.244L19.1773 17.1133H29.612L32.7424 20.244V28.5914C32.7424 33.1943 28.9977 36.9392 24.3947 36.9392Z" fill="#D80027"/>
<path d="M24.3951 33.8092C21.5182 33.8092 19.1777 31.4686 19.1777 28.5918V20.2441H29.6125V28.5917C29.6125 31.4686 27.272 33.8092 24.3951 33.8092Z" fill="#F0F0F0"/>
<path d="M16.0469 17.1133H19.1773V20.2437H16.0469V17.1133Z" fill="#FFDA44"/>
<path d="M29.6113 17.1133H32.7417V20.2437H29.6113V17.1133Z" fill="#FFDA44"/>
<path d="M29.6113 23.8965H32.7417V27.0269H29.6113V23.8965Z" fill="#FFDA44"/>
<path d="M16.0469 23.8965H19.1773V27.0269H16.0469V23.8965Z" fill="#FFDA44"/>
<path d="M24.3953 33.8085C23.8501 33.8085 23.3244 33.7242 22.8301 33.5684V36.7897C23.3375 36.8865 23.8602 36.939 24.3953 36.939C24.9305 36.939 25.4532 36.8865 25.9606 36.7897V33.5684C25.4662 33.7241 24.9406 33.8085 24.3953 33.8085Z" fill="#FFDA44"/>
<path d="M19.2463 29.4395L16.748 31.9377C17.1812 32.9239 17.7992 33.8106 18.5587 34.5541L20.7712 32.3416C19.9817 31.5787 19.4316 30.57 19.2463 29.4395Z" fill="#FFDA44"/>
<path d="M32.0407 31.9377L29.5424 29.4395C29.357 30.5699 28.807 31.5785 28.0176 32.3417L30.2301 34.5542C30.9895 33.8106 31.6075 32.9239 32.0407 31.9377Z" fill="#FFDA44"/>
<path d="M23.3516 21.9824V23.7215C23.3516 24.2977 23.8187 24.7649 24.395 24.7649C24.9713 24.7649 25.4384 24.2977 25.4384 23.7215V21.9824H23.3516Z" fill="#0052B4"/>
<path d="M23.3516 28.9395V30.6785C23.3516 31.2547 23.8187 31.722 24.395 31.722C24.9713 31.722 25.4384 31.2547 25.4384 30.6785V28.9395H23.3516Z" fill="#0052B4"/>
<path d="M26.4824 25.4609V27.2002C26.4824 27.7764 26.9496 28.2436 27.5259 28.2436C28.1021 28.2436 28.5693 27.7764 28.5693 27.2002V25.4609H26.4824Z" fill="#0052B4"/>
<path d="M23.3516 25.4609V27.2002C23.3516 27.7764 23.8187 28.2436 24.395 28.2436C24.9713 28.2436 25.4384 27.7764 25.4384 27.2002V25.4609H23.3516Z" fill="#0052B4"/>
<path d="M20.2207 25.4609V27.2002C20.2207 27.7764 20.6879 28.2436 21.2641 28.2436C21.8404 28.2436 22.3076 27.7764 22.3076 27.2002V25.4609H20.2207Z" fill="#0052B4"/>
</g>
<defs>
<clipPath id="clip0_2743_957">
<rect x="0.394531" y="0.417969" width="48" height="48" rx="24" fill="white"/>
</clipPath>
</defs>
</svg>
