<svg width="49" height="49" viewBox="0 0 49 49" fill="none" xmlns="http://www.w3.org/2000/svg">
<g clip-path="url(#clip0_2743_989)">
<path d="M24.3945 48.418C37.6494 48.418 48.3945 37.6728 48.3945 24.418C48.3945 11.1631 37.6494 0.417969 24.3945 0.417969C11.1397 0.417969 0.394531 11.1631 0.394531 24.418C0.394531 37.6728 11.1397 48.418 24.3945 48.418Z" fill="#D80027"/>
<path d="M13.5289 15.0234L15.6008 21.3984H22.3039L16.8852 25.3453L18.957 31.7203L13.5289 27.7828L8.10078 31.7203L10.182 25.3453L4.75391 21.3984H11.457L13.5289 15.0234Z" fill="#FFDA44"/>
<path d="M28.8484 37.5895L27.2641 35.6395L24.9203 36.5488L26.2797 34.4395L24.6953 32.4801L27.1234 33.127L28.4922 31.0176L28.6234 33.5301L31.0609 34.177L28.7078 35.077L28.8484 37.5895Z" fill="#FFDA44"/>
<path d="M31.9984 31.8707L32.7484 29.4707L30.6953 28.0176L33.2078 27.9801L33.9484 25.5801L34.7641 27.9613L37.2766 27.9332L35.2609 29.4332L36.0672 31.8145L34.0141 30.3613L31.9984 31.8707Z" fill="#FFDA44"/>
<path d="M36.2438 18.0324L35.1375 20.2918L36.9375 22.0449L34.4531 21.6887L33.3469 23.9387L32.9156 21.4637L30.4219 21.1074L32.6531 19.9355L32.2219 17.4512L34.0219 19.2043L36.2438 18.0324Z" fill="#FFDA44"/>
<path d="M28.9129 11.1895L28.7254 13.6926L31.0598 14.6395L28.6129 15.2395L28.4348 17.752L27.1129 15.6145L24.666 16.2145L26.2879 14.2926L24.9566 12.1645L27.291 13.1113L28.9129 11.1895Z" fill="#FFDA44"/>
</g>
<defs>
<clipPath id="clip0_2743_989">
<rect x="0.394531" y="0.417969" width="48" height="48" rx="24" fill="white"/>
</clipPath>
</defs>
</svg>
