<svg width="49" height="49" viewBox="0 0 49 49" fill="none" xmlns="http://www.w3.org/2000/svg">
<g clip-path="url(#clip0_2743_997)">
<path d="M24.3945 48.418C37.6494 48.418 48.3945 37.6728 48.3945 24.418C48.3945 11.1631 37.6494 0.417969 24.3945 0.417969C11.1397 0.417969 0.394531 11.1631 0.394531 24.418C0.394531 37.6728 11.1397 48.418 24.3945 48.418Z" fill="#6DA544"/>
<path d="M37.2363 34.8535L37.8949 36.2306L39.3821 35.8869L38.7161 37.2605L39.9121 38.2088L38.423 38.5445L38.4272 40.071L37.2363 39.116L36.0455 40.071L36.0496 38.5445L34.5605 38.2088L35.7565 37.2605L35.0905 35.8869L36.5777 36.2306L37.2363 34.8535Z" fill="#FFDA44"/>
<path d="M31.1093 20.2441L31.768 21.6212L33.2552 21.2775L32.5892 22.6511L33.7851 23.5995L32.2961 23.9351L32.3002 25.4615L31.1093 24.5066L29.9185 25.4615L29.9225 23.9351L28.4336 23.5995L29.6296 22.6511L28.9635 21.2775L30.4508 21.6212L31.1093 20.2441Z" fill="#FFDA44"/>
<path d="M37.2362 11.8965L37.8948 13.2736L39.382 12.9297L38.7161 14.3033L39.912 15.2518L38.4229 15.5873L38.4269 17.1139L37.2362 16.1588L36.0454 17.1139L36.0495 15.5873L34.5605 15.2518L35.7564 14.3033L35.0904 12.9297L36.5776 13.2736L37.2362 11.8965Z" fill="#FFDA44"/>
<path d="M42.5878 18.1582L43.2464 19.5353L44.7338 19.1915L44.0677 20.5651L45.2636 21.5135L43.7746 21.8491L43.7787 23.3757L42.5878 22.4206L41.397 23.3757L41.401 21.8491L39.9121 21.5135L41.1081 20.5651L40.442 19.1915L41.9292 19.5353L42.5878 18.1582Z" fill="#FFDA44"/>
<path d="M38.7627 25.4609L39.2808 27.0553H40.9572L39.6009 28.0407L40.119 29.6349L38.7627 28.6497L37.4066 29.6349L37.9245 28.0407L36.5684 27.0553H38.2447L38.7627 25.4609Z" fill="#FFDA44"/>
<path d="M27.0034 31.2008C23.2575 31.2008 20.2207 28.1641 20.2207 24.4182C20.2207 20.6723 23.2574 17.6356 27.0034 17.6356C28.1714 17.6356 29.2704 17.931 30.2298 18.4508C28.7247 16.9788 26.6664 16.0703 24.3946 16.0703C19.7843 16.0703 16.0469 19.8078 16.0469 24.4181C16.0469 29.0284 19.7843 32.7659 24.3946 32.7659C26.6663 32.7659 28.7247 31.8574 30.2297 30.3854C29.2704 30.9054 28.1714 31.2008 27.0034 31.2008Z" fill="#FFDA44"/>
<path d="M15.4881 9.80963C14.7662 8.56238 13.4185 7.72266 11.8739 7.72266C10.3293 7.72266 8.98164 8.56238 8.25977 9.80963H15.4881Z" fill="#FFDA44"/>
<path d="M15.5011 9.83398L11.8731 13.462L8.24503 9.83398C7.89825 10.4425 7.69922 11.1463 7.69922 11.8969C7.69922 14.2021 9.56794 16.0708 11.8732 16.0708C14.1784 16.0708 16.0471 14.2022 16.0471 11.8969C16.047 11.1463 15.8479 10.4425 15.5011 9.83398Z" fill="#FFDA44"/>
<path d="M10.8301 12.418V15.9387C11.1635 16.0244 11.5132 16.0701 11.8735 16.0701C12.2338 16.0701 12.5835 16.0243 12.917 15.9387V12.418H10.8301Z" fill="#A2001D"/>
</g>
<defs>
<clipPath id="clip0_2743_997">
<rect x="0.394531" y="0.417969" width="48" height="48" rx="24" fill="white"/>
</clipPath>
</defs>
</svg>
