<svg width="49" height="49" viewBox="0 0 49 49" fill="none" xmlns="http://www.w3.org/2000/svg">
<g clip-path="url(#clip0_2743_1013)">
<path d="M24.3945 48.418C37.6494 48.418 48.3945 37.6728 48.3945 24.418C48.3945 11.1631 37.6494 0.417969 24.3945 0.417969C11.1397 0.417969 0.394531 11.1631 0.394531 24.418C0.394531 37.6728 11.1397 48.418 24.3945 48.418Z" fill="#F0F0F0"/>
<path d="M48.3933 24.3477H22.3767C17.2114 29.5131 14.0878 33.5009 10.8984 36.6903L24.4637 37.9128L45.5138 35.8258C47.3508 32.4326 48.3941 28.5467 48.3941 24.4171C48.3941 24.3939 48.3933 24.3709 48.3933 24.3477Z" fill="#D80027"/>
<path d="M10.898 12.8702H45.4366C41.355 5.44822 33.4621 0.417969 24.3936 0.417969C17.7838 0.417969 11.7991 3.09088 7.45898 7.41397L10.898 12.8702Z" fill="#FFDA44"/>
<path d="M11.943 35.8262C9.78547 37.9837 8.95166 39.7914 7.39062 41.3524C11.7364 45.7161 17.75 48.4175 24.3952 48.4175C33.5204 48.4175 41.4558 43.3245 45.5149 35.8262H11.943Z" fill="#0052B4"/>
<path d="M7.42395 7.37695C-1.94861 16.7495 -1.94861 31.9455 7.42395 41.3182C11.297 37.4451 15.022 33.7201 24.3946 24.3476L7.42395 7.37695Z" fill="#6DA544"/>
<path d="M6.72425 24.3493C6.72425 20.8526 9.18172 17.9314 12.4633 17.2148C11.959 17.1046 11.4357 17.0449 10.8981 17.0449C6.86394 17.0449 3.59375 20.3151 3.59375 24.3493C3.59375 28.3834 6.86394 31.6536 10.8981 31.6536C11.4356 31.6536 11.9589 31.5939 12.4633 31.4837C9.18172 30.767 6.72425 27.846 6.72425 24.3493Z" fill="#F0F0F0"/>
<path d="M12.3821 18.0879L12.7707 19.2836H14.0279L13.0107 20.0226L13.3993 21.2183L12.3821 20.4794L11.3649 21.2183L11.7535 20.0226L10.7363 19.2836H11.9935L12.3821 18.0879Z" fill="#F0F0F0"/>
<path d="M12.3821 21.2188L12.7707 22.4145H14.0279L13.0107 23.1535L13.3993 24.3492L12.3821 23.6102L11.3649 24.3492L11.7535 23.1535L10.7363 22.4145H11.9935L12.3821 21.2188Z" fill="#F0F0F0"/>
<path d="M12.3821 24.3496L12.7707 25.5453H14.0279L13.0107 26.2843L13.3993 27.48L12.3821 26.741L11.3649 27.48L11.7535 26.2843L10.7363 25.5453H11.9935L12.3821 24.3496Z" fill="#F0F0F0"/>
<path d="M12.3821 27.4805L12.7707 28.6762H14.0279L13.0107 29.4152L13.3993 30.6109L12.3821 29.8719L11.3649 30.6109L11.7535 29.4152L10.7363 28.6762H11.9935L12.3821 27.4805Z" fill="#F0F0F0"/>
</g>
<defs>
<clipPath id="clip0_2743_1013">
<rect x="0.394531" y="0.417969" width="48" height="48" rx="24" fill="white"/>
</clipPath>
</defs>
</svg>
