<svg width="49" height="49" viewBox="0 0 49 49" fill="none" xmlns="http://www.w3.org/2000/svg">
<g clip-path="url(#clip0_2743_1025)">
<path d="M48.3945 24.418C48.3945 37.6727 37.6493 48.418 24.3945 48.418C11.1398 48.418 0.394531 37.6727 0.394531 24.418C0.394531 24.4237 24.3945 0.420594 24.3945 0.417969C37.6493 0.417969 48.3945 11.1632 48.3945 24.418Z" fill="#0052B4"/>
<path d="M24.3301 24.4177H24.3943C24.3943 24.3962 24.3943 24.3752 24.3943 24.3535C24.3729 24.375 24.3515 24.3964 24.3301 24.4177Z" fill="#F0F0F0"/>
<path d="M24.3945 12.9397C24.3945 8.71672 24.3945 5.94969 24.3945 0.417969H24.3905C11.1374 0.420219 0.394531 11.1644 0.394531 24.418H12.9163V17.3669L19.9673 24.418H24.3304C24.3518 24.3966 24.3732 24.3752 24.3946 24.3538C24.3946 22.7368 24.3946 21.2941 24.3946 19.9909L17.3434 12.9397H24.3945Z" fill="#F0F0F0"/>
<path d="M12.537 3.54883C8.78336 5.68623 5.6627 8.8068 3.52539 12.5605V24.4184H9.7863V9.80992V9.80973H24.395C24.395 7.83508 24.395 5.95389 24.395 3.54883H12.537Z" fill="#D80027"/>
<path d="M24.3943 21.4663L15.8673 12.9395H12.916V12.9396L24.3941 24.4176H24.3943C24.3943 24.4176 24.3943 22.3826 24.3943 21.4663Z" fill="#D80027"/>
<path d="M32.742 24.418L33.1862 25.7845H34.623L33.4606 26.629L33.9046 27.9956L32.742 27.151L31.5796 27.9956L32.0236 26.629L30.8613 25.7845H32.298L32.742 24.418Z" fill="#F0F0F0"/>
<path d="M26.8403 26.8638L28.1205 27.516L29.1365 26.5L28.9117 27.9192L30.192 28.5715L28.7728 28.7961L28.5481 30.2155L27.8957 28.9352L26.4766 29.16L27.4927 28.144L26.8403 26.8638Z" fill="#F0F0F0"/>
<path d="M24.3945 32.7654L25.761 32.3214L25.7612 30.8848L26.6055 32.047L27.9721 31.6029L27.1275 32.7654L27.9721 33.928L26.6055 33.484L25.7612 34.6463V33.2096L24.3945 32.7654Z" fill="#F0F0F0"/>
<path d="M26.8403 38.6681L27.4925 37.3878L26.4766 36.3719L27.8958 36.5967L28.5481 35.3164L28.7728 36.7356L30.192 36.9602L28.9117 37.6126L29.1365 39.0319L28.1205 38.0157L26.8403 38.6681Z" fill="#F0F0F0"/>
<path d="M32.7421 41.1128L32.2981 39.7462H30.8613L32.0237 38.9017L31.5797 37.5352L32.7421 38.3797L33.9047 37.5352L33.4607 38.9017L34.623 39.7462H33.1863L32.7421 41.1128Z" fill="#F0F0F0"/>
<path d="M38.6446 38.6681L37.3644 38.0159L36.3485 39.0319L36.5732 37.6126L35.293 36.9604L36.7122 36.7356L36.937 35.3164L37.5892 36.5967L39.0084 36.3719L37.9922 37.3879L38.6446 38.6681Z" fill="#F0F0F0"/>
<path d="M41.0893 32.7654L39.7227 33.2096V34.6463L38.8782 33.4839L37.5117 33.928L38.3563 32.7654L37.5117 31.6029L38.8782 32.047L39.7227 30.8848V32.3214L41.0893 32.7654Z" fill="#F0F0F0"/>
<path d="M38.6446 26.8638L37.9925 28.1439L39.0084 29.1599L37.5892 28.9351L36.937 30.2154L36.7122 28.796L35.293 28.5713L36.5732 27.9191L36.3485 26.5L37.3645 27.5159L38.6446 26.8638Z" fill="#F0F0F0"/>
</g>
<defs>
<clipPath id="clip0_2743_1025">
<rect x="0.394531" y="0.417969" width="48" height="48" rx="24" fill="white"/>
</clipPath>
</defs>
</svg>
