<svg width="49" height="49" viewBox="0 0 49 49" fill="none" xmlns="http://www.w3.org/2000/svg">
<g clip-path="url(#clip0_2743_1043)">
<path d="M24.3945 48.418C37.6494 48.418 48.3945 37.6728 48.3945 24.418C48.3945 11.1631 37.6494 0.417969 24.3945 0.417969C11.1397 0.417969 0.394531 11.1631 0.394531 24.418C0.394531 37.6728 11.1397 48.418 24.3945 48.418Z" fill="#FCFCFC"/>
<path d="M32.7516 20.7455C32.7516 15.6695 28.6368 11.5547 23.5609 11.5547C19.8152 11.5547 16.5951 13.7963 15.1634 17.0104L14.0299 21.1199L15.0733 22.1633L12.9863 26.3373L15.0733 27.3807L14.0299 28.4242V29.4676L15.0733 30.511V32.598L16.1167 33.6414L19.2471 32.598C19.2471 32.598 19.2471 33.6414 20.2906 34.685C21.334 35.7284 22.3776 37.8155 22.3776 37.8155C22.3776 37.8155 25.508 38.8589 27.595 35.7285C29.682 32.5981 31.769 31.5546 31.769 31.5546L29.7575 27.5314C31.597 25.8511 32.7516 23.4336 32.7516 20.7455Z" fill="black"/>
<path d="M33.5005 24.2605C37.7407 23.5453 38.447 15.2422 38.447 15.2422H32.6036C35.6297 22.5465 32.4623 23.0379 32.4623 23.0379C32.0332 22.7187 16.6772 15.444 16.1904 15.2591C16.0731 15.416 15.6414 15.8282 15.1166 17.1117C14.5917 18.3951 14.4629 19.5497 14.4629 19.5497C14.7087 19.7099 31.0168 25.4044 31.4479 25.4518C32.3033 26.0112 33.356 27.6837 32.7677 32.6429L38.3921 31.0578C38.3923 31.0578 36.4835 25.98 33.5005 24.2605Z" fill="#ACABB1"/>
</g>
<defs>
<clipPath id="clip0_2743_1043">
<rect x="0.394531" y="0.417969" width="48" height="48" rx="24" fill="white"/>
</clipPath>
</defs>
</svg>
