<svg width="49" height="49" viewBox="0 0 49 49" fill="none" xmlns="http://www.w3.org/2000/svg">
<g clip-path="url(#clip0_2743_1053)">
<path d="M48.3945 24.4187C48.3945 21.483 47.8664 18.6707 46.9017 16.0709L24.3945 15.0273L1.88731 16.0708C0.922625 18.6707 0.394531 21.483 0.394531 24.4187C0.394531 27.3543 0.922625 30.1666 1.88731 32.7664L24.3945 33.81L46.9017 32.7665C47.8664 30.1666 48.3945 27.3543 48.3945 24.4187Z" fill="#F0F0F0"/>
<path d="M24.3939 48.4178C34.7131 48.4178 43.5101 41.9048 46.9012 32.7656H1.88672C5.27775 41.9048 14.0748 48.4178 24.3939 48.4178Z" fill="#0052B4"/>
<path d="M1.88672 16.0702H46.9012C43.5101 6.93097 34.7131 0.417969 24.3939 0.417969C14.0748 0.417969 5.27775 6.93097 1.88672 16.0702Z" fill="#D80027"/>
<path d="M30.6564 17.113H26.4824L27.1781 11.8956L29.9606 9.80859L32.7432 11.8956V16.0695L30.6564 17.113Z" fill="#338AF3"/>
<path d="M18.1337 17.113H22.3077L21.612 11.8956L18.8294 9.80859L16.0469 11.8956V16.0695L18.1337 17.113Z" fill="#338AF3"/>
<path d="M27.1767 17.113H21.6113V11.8956L24.394 9.80859L27.1767 11.8956V17.113Z" fill="#0052B4"/>
<path d="M16.0469 16.0703V27.5485C16.0469 30.2816 17.3671 32.7122 19.4033 34.2359L20.8642 33.8703L22.7077 35.7249C23.2529 35.8372 23.817 35.8964 24.3947 35.8964C24.9694 35.8964 25.5307 35.838 26.073 35.7268L28.1774 33.9746L29.386 34.2325C31.4214 32.7089 32.7425 30.2808 32.7425 27.5485V16.0703H16.0469Z" fill="#F0F0F0"/>
<path d="M16.0469 16.0703H19.386V19.4094H16.0469V16.0703Z" fill="#D80027"/>
<path d="M22.7246 16.0703H26.0637V19.4094H22.7246V16.0703Z" fill="#D80027"/>
<path d="M29.4043 16.0703H32.7434V19.4094H29.4043V16.0703Z" fill="#D80027"/>
<path d="M19.3867 19.4102H22.7258V22.7492H19.3867V19.4102Z" fill="#D80027"/>
<path d="M26.0645 19.4102H29.4035V22.7492H26.0645V19.4102Z" fill="#D80027"/>
<path d="M16.0469 22.748H19.386V26.0871H16.0469V22.748Z" fill="#D80027"/>
<path d="M19.3867 26.0859H22.7258V29.425H19.3867V26.0859Z" fill="#D80027"/>
<path d="M22.7246 22.748H26.0637V26.0871H22.7246V22.748Z" fill="#D80027"/>
<path d="M29.4043 22.748H32.7434V26.0871H29.4043V22.748Z" fill="#D80027"/>
<path d="M26.0645 26.0859H29.4035V29.425H26.0645V26.0859Z" fill="#D80027"/>
<path d="M22.7246 29.4258H26.0637V32.7649H22.7246V29.4258Z" fill="#D80027"/>
<path d="M19.3854 29.4258H16.2617C16.5482 30.667 17.1115 31.8028 17.8838 32.7649H19.3854V29.4258Z" fill="#D80027"/>
<path d="M29.4043 32.7649H30.9058C31.6783 31.8028 32.2414 30.6669 32.5279 29.4258H29.4043V32.7649Z" fill="#D80027"/>
<path d="M19.3867 32.7656V34.2226C20.3579 34.9534 21.4928 35.4773 22.7258 35.7288V32.7656H19.3867Z" fill="#D80027"/>
<path d="M26.0645 32.7656V35.7288C27.2975 35.4775 28.4324 34.9534 29.4035 34.2226V32.7656H26.0645Z" fill="#D80027"/>
</g>
<defs>
<clipPath id="clip0_2743_1053">
<rect x="0.394531" y="0.417969" width="48" height="48" rx="24" fill="white"/>
</clipPath>
</defs>
</svg>
