<svg width="49" height="49" viewBox="0 0 49 49" fill="none" xmlns="http://www.w3.org/2000/svg">
<g clip-path="url(#clip0_2743_1078)">
<path d="M0.395531 4.5918H0.394531V44.2439H0.395531V24.418V4.5918Z" fill="#FF9811"/>
<path d="M24.3944 48.4178C37.6492 48.4178 48.3943 37.6727 48.3943 24.4179C48.3943 11.1631 37.6492 0.417969 24.3944 0.417969C11.1397 0.417969 0.394531 11.1631 0.394531 24.4179C0.394531 37.6727 11.1397 48.4178 24.3944 48.4178Z" fill="#F0F0F0"/>
<path d="M24.3944 0.417969C16.5426 0.417969 9.57195 4.18888 5.19336 10.018H43.5953C39.2168 4.18878 32.246 0.417969 24.3944 0.417969Z" fill="#0052B4"/>
<path d="M24.3944 48.4184C32.2461 48.4184 39.2168 44.6475 43.5954 38.8184H5.19336C9.57186 44.6475 16.5426 48.4184 24.3944 48.4184Z" fill="#0052B4"/>
<path d="M0.394531 24.4172C0.394531 26.0611 0.560281 27.6663 0.875187 29.2172H47.914C48.2289 27.6663 48.3945 26.0611 48.3945 24.4172C48.3945 22.7733 48.2288 21.1681 47.914 19.6172H0.875187C0.560281 21.1681 0.394531 22.7733 0.394531 24.4172Z" fill="#0052B4"/>
<path d="M7.42388 7.44727C-1.94859 16.8197 -1.94859 32.0158 7.42388 41.3884C11.297 37.5153 15.0219 33.7904 24.3944 24.4179L7.42388 7.44727Z" fill="#D80027"/>
<path d="M10.1084 18.1582L11.6622 22.9409H16.6915L12.6231 25.897L14.1769 30.6797L10.1084 27.7238L6.03977 30.6797L7.59395 25.897L3.52539 22.9409H8.55433L10.1084 18.1582Z" fill="#F0F0F0"/>
</g>
<defs>
<clipPath id="clip0_2743_1078">
<rect x="0.394531" y="0.417969" width="48" height="48" rx="24" fill="white"/>
</clipPath>
</defs>
</svg>
