<svg width="49" height="49" viewBox="0 0 49 49" fill="none" xmlns="http://www.w3.org/2000/svg">
<g clip-path="url(#clip0_2743_1087)">
<path d="M24.3945 48.418C37.6494 48.418 48.3945 37.6728 48.3945 24.418C48.3945 11.1631 37.6494 0.417969 24.3945 0.417969C11.1397 0.417969 0.394531 11.1631 0.394531 24.418C0.394531 37.6728 11.1397 48.418 24.3945 48.418Z" fill="#FFDA44"/>
<path d="M24.3945 48.4171C32.2695 48.4171 39.2585 44.6242 43.6347 38.7656H5.1543C9.53055 44.6242 16.5195 48.4171 24.3945 48.4171Z" fill="#0052B4"/>
<path d="M48.3945 24.418C48.3945 11.1632 37.6493 0.417969 24.3945 0.417969C11.1398 0.417969 0.394531 11.1632 0.394531 24.418C0.394531 27.2561 0.8885 29.9785 1.79291 32.5057H46.9961C47.9006 29.9785 48.3945 27.2561 48.3945 24.418Z" fill="#0052B4"/>
<path d="M16.8217 15.8105L18.1167 19.796H22.3077L18.9172 22.2596L20.2122 26.2453L16.8217 23.7819L13.4313 26.2453L14.7264 22.2596L11.3359 19.796H15.5268L16.8217 15.8105Z" fill="#F0F0F0"/>
<path d="M9.62536 11.6367L10.4024 14.0281H12.917L10.8827 15.5062L11.6597 17.8976L9.62536 16.4196L7.59108 17.8976L8.36817 15.5062L6.33398 14.0281H8.84855L9.62536 11.6367Z" fill="#F0F0F0"/>
</g>
<defs>
<clipPath id="clip0_2743_1087">
<rect x="0.394531" y="0.417969" width="48" height="48" rx="24" fill="white"/>
</clipPath>
</defs>
</svg>
