<svg width="49" height="49" viewBox="0 0 49 49" fill="none" xmlns="http://www.w3.org/2000/svg">
<g clip-path="url(#clip0_2743_1095)">
<path d="M24.3945 48.418C37.6494 48.418 48.3945 37.6728 48.3945 24.418C48.3945 11.1631 37.6494 0.417969 24.3945 0.417969C11.1397 0.417969 0.394531 11.1631 0.394531 24.418C0.394531 37.6728 11.1397 48.418 24.3945 48.418Z" fill="#FCFCFC"/>
<path d="M37.9604 21.2871C37.23 21.2871 36.3256 21.2871 34.83 21.2871C34.83 27.0501 30.158 31.7219 24.3952 31.7219C18.6321 31.7219 13.9605 27.0501 13.9605 21.2871C12.9517 21.2871 11.8386 21.2871 10.8301 21.2871C10.8301 27.4948 14.9997 32.7285 20.6913 34.3404C20.0673 35.5258 20.1623 37.0182 21.0537 38.1305C22.2245 37.1922 23.4365 36.2208 24.4648 35.397C25.493 36.2209 26.7052 37.1923 27.8759 38.1305C28.7761 37.0071 28.8647 35.4958 28.22 34.3047C33.8492 32.6533 37.9604 27.4506 37.9604 21.2871Z" fill="#6DA544"/>
<path d="M16.0469 20.2438C16.0469 20.2438 16.0469 25.4612 21.2642 25.4612L22.3077 26.5046H24.3947C24.3947 26.5046 25.4381 23.3742 27.5251 23.3742C27.5251 23.3742 27.5251 21.2872 29.612 21.2872C31.699 21.2872 32.7424 21.2872 32.7424 21.2872C32.7424 21.2872 31.699 17.1133 36.9164 13.9829L34.8294 12.9395C34.8294 12.9395 27.5251 18.1568 22.3077 17.1134V19.2004H20.2207L19.1773 18.1569L16.0469 20.2438Z" fill="#FFDA44"/>
</g>
<defs>
<clipPath id="clip0_2743_1095">
<rect x="0.394531" y="0.417969" width="48" height="48" rx="24" fill="white"/>
</clipPath>
</defs>
</svg>
