<svg width="49" height="49" viewBox="0 0 49 49" fill="none" xmlns="http://www.w3.org/2000/svg">
<g clip-path="url(#clip0_2743_1103)">
<path d="M45.7305 13.4122C44.6215 11.2636 43.1679 9.24684 41.3668 7.44572C39.5656 5.6445 37.5487 4.19091 35.4002 3.08203L18.4925 18.5138L3.06055 35.4216C4.16952 37.5702 5.62311 39.5871 7.42423 41.3882C9.22536 43.1893 11.2422 44.6429 13.3908 45.7519L30.2985 30.32L45.7305 13.4122Z" fill="#FFDA44"/>
<path d="M7.42364 41.3895C8.43042 42.3963 9.5047 43.2943 10.6315 44.0849L44.0612 10.6549C43.2708 9.52814 42.3729 8.45386 41.3661 7.44708C40.3592 6.4403 39.285 5.54245 38.1583 4.75195L4.72852 38.1817C5.51892 39.3083 6.41677 40.3828 7.42364 41.3895Z" fill="#D80027"/>
<path d="M7.42335 7.44659C-0.148552 15.0185 -1.60215 26.3902 3.05967 35.4225L35.3993 3.08299C26.3669 -1.57873 14.9952 -0.124945 7.42335 7.44659Z" fill="#338AF3"/>
<path d="M41.3665 41.3899C48.9383 33.8181 50.3918 22.4464 45.7302 13.4141L13.3906 45.7536C22.423 50.4153 33.7948 48.9618 41.3665 41.3899Z" fill="#338AF3"/>
<path d="M13.1835 7.7207L14.4786 11.7067H18.6696L15.279 14.17L16.5741 18.1559L13.1835 15.6925L9.79277 18.1559L11.088 14.17L7.69727 11.7067H11.8883L13.1835 7.7207Z" fill="#FFDA44"/>
</g>
<defs>
<clipPath id="clip0_2743_1103">
<rect x="0.394531" y="0.417969" width="48" height="48" rx="24" fill="white"/>
</clipPath>
</defs>
</svg>
