<svg width="49" height="49" viewBox="0 0 49 49" fill="none" xmlns="http://www.w3.org/2000/svg">
<g clip-path="url(#clip0_2743_1117)">
<path d="M22.3075 26.5049C22.3075 26.5049 7.43789 7.44406 7.42383 7.44744C11.7669 3.10428 17.767 0.417969 24.3945 0.417969C37.6492 0.417969 48.3945 11.1632 48.3945 24.418L22.3075 26.5049Z" fill="#338AF3"/>
<path d="M22.3075 24.418C22.3075 24.418 7.43789 41.3919 7.42383 41.3885C11.7669 45.7317 17.767 48.418 24.3945 48.418C37.6492 48.418 48.3945 37.6727 48.3945 24.418H22.3075Z" fill="#6DA544"/>
<path d="M7.42395 7.44727C-1.94861 16.8198 -1.94861 32.0159 7.42395 41.3885C11.297 37.5154 15.022 33.7904 24.3946 24.4179L7.42395 7.44727Z" fill="#F0F0F0"/>
<path d="M10.1084 18.1562L11.6623 22.939H16.6916L12.6231 25.8951L14.1769 30.6781L10.1084 27.722L6.03977 30.6781L7.59395 25.8951L3.52539 22.939H8.55433L10.1084 18.1562Z" fill="#D80027"/>
</g>
<defs>
<clipPath id="clip0_2743_1117">
<rect x="0.394531" y="0.417969" width="48" height="48" rx="24" fill="white"/>
</clipPath>
</defs>
</svg>
