<svg width="49" height="49" viewBox="0 0 49 49" fill="none" xmlns="http://www.w3.org/2000/svg">
<g clip-path="url(#clip0_2743_1122)">
<path d="M24.3945 48.418C37.6494 48.418 48.3945 37.6728 48.3945 24.418C48.3945 11.1631 37.6494 0.417969 24.3945 0.417969C11.1397 0.417969 0.394531 11.1631 0.394531 24.418C0.394531 37.6728 11.1397 48.418 24.3945 48.418Z" fill="#F0F0F0"/>
<path d="M29.0898 47.957C38.5776 46.0749 46.0515 38.601 47.9336 29.1133H29.0898V47.957Z" fill="#496E2D"/>
<path d="M0.855469 29.1133C2.7375 38.601 10.2114 46.0749 19.6992 47.957V29.1133H0.855469Z" fill="#496E2D"/>
<path d="M47.9336 19.7227C46.0515 10.235 38.5776 2.76103 29.0898 0.878906V19.7227H47.9336Z" fill="#496E2D"/>
<path d="M19.6992 0.878906C10.2114 2.76103 2.7375 10.235 0.855469 19.7227H19.6992V0.878906Z" fill="#496E2D"/>
<path d="M22.8296 29.1133H19.6992V47.957C20.7208 48.1596 21.7658 48.2969 22.8296 48.3654V29.1133Z" fill="#FFDA44"/>
<path d="M22.8296 19.7228V0.470703C21.7658 0.539141 20.7207 0.676484 19.6992 0.879078V19.7228H22.8296Z" fill="#FFDA44"/>
<path d="M25.9606 0.470188C25.4429 0.436719 24.9214 0.417969 24.3953 0.417969C23.8693 0.417969 23.3478 0.436719 22.8301 0.470188V19.7224H25.9605V0.470188H25.9606Z" fill="black"/>
<path d="M22.8301 48.3654C23.3478 48.3989 23.8693 48.4176 24.3953 48.4176C24.9214 48.4176 25.4429 48.3989 25.9606 48.3654V29.1133H22.8302V48.3654H22.8301Z" fill="black"/>
<path d="M19.6994 22.8531V19.7227H0.855641C0.652953 20.7443 0.515703 21.7893 0.447266 22.8531H19.6994Z" fill="#FFDA44"/>
<path d="M29.0898 22.8531H48.3421C48.2736 21.7893 48.1363 20.7443 47.9337 19.7227H29.0899V22.8531H29.0898Z" fill="#FFDA44"/>
<path d="M29.0898 25.984H48.3421C48.3754 25.4664 48.3942 24.9448 48.3942 24.4188C48.3942 23.8927 48.3754 23.3711 48.342 22.8535H29.0898V25.984Z" fill="black"/>
<path d="M0.44675 22.8535C0.413375 23.3711 0.394531 23.8927 0.394531 24.4188C0.394531 24.9448 0.413375 25.4664 0.44675 25.984H19.699V22.8536H0.44675V22.8535Z" fill="black"/>
<path d="M24.3943 35.896C30.7336 35.896 35.8726 30.757 35.8726 24.4177C35.8726 18.0785 30.7336 12.9395 24.3943 12.9395C18.055 12.9395 12.916 18.0785 12.916 24.4177C12.916 30.757 18.055 35.896 24.3943 35.896Z" fill="#D80027"/>
<path d="M27.0096 25.6988C26.1558 23.9914 25.0461 22.2607 25.0461 22.2607C25.0461 22.2607 25.0736 21.4728 25.0736 21.0033C25.0736 20.296 24.5002 19.7227 23.793 19.7227C23.123 19.7227 22.574 20.2374 22.518 20.8928C21.9911 20.9272 21.5742 21.3643 21.5742 21.8998C21.5742 22.2892 21.7948 22.6266 22.1177 22.7952C22.2782 22.4198 22.5924 22.1268 22.9811 21.9932C23.0445 22.045 23.1126 22.0913 23.1852 22.1306L23.3493 22.2092C23.3493 22.2092 22.7409 23.924 22.7409 24.8452C22.7409 27.4349 24.4485 28.2336 24.4485 28.2336V28.2603L23.5947 29.114H25.3022V27.4064L26.156 28.2602C26.1635 28.2442 27.7732 27.2261 27.0096 25.6988Z" fill="#496E2D"/>
<path d="M24.3937 15.0273L24.7822 16.223H26.0394L25.0223 16.9621L25.4109 18.1577L24.3937 17.4188L23.3765 18.1577L23.7651 16.9621L22.748 16.223H24.0052L24.3937 15.0273Z" fill="#496E2D"/>
<path d="M18.8748 16.8204L19.8918 17.5594L20.909 16.8203L20.5205 18.0162L21.5377 18.755L20.2804 18.7551L19.8919 19.9508L19.5033 18.7551L18.2461 18.755L19.2632 18.016L18.8748 16.8204Z" fill="#496E2D"/>
<path d="M15.4629 21.516H16.72L17.1086 20.3203L17.4971 21.516L18.7544 21.5159L17.7373 22.255L18.1259 23.4507L17.1086 22.7117L16.0915 23.4506L16.4799 22.2549L15.4629 21.516Z" fill="#496E2D"/>
<path d="M15.4629 27.3213L16.4799 26.5825L16.0914 25.3867L17.1086 26.1257L18.1258 25.3867L17.7373 26.5824L18.7545 27.3214L17.4971 27.3215L17.1086 28.5171L16.72 27.3213H15.4629Z" fill="#496E2D"/>
<path d="M18.8749 32.017L19.2633 30.8215L18.2461 30.0825H19.5034L19.892 28.8867L20.2805 30.0824H21.5378L20.5206 30.8215L20.9091 32.0171L19.8919 31.2781L18.8749 32.017Z" fill="#496E2D"/>
<path d="M24.3937 33.8101L24.0052 32.6146H22.748L23.7651 31.8755L23.3765 30.6798L24.3937 31.4186L25.4108 30.6797L25.0223 31.8755L26.0394 32.6145L24.7822 32.6146L24.3937 33.8101Z" fill="#496E2D"/>
<path d="M29.9148 32.017L28.8978 31.2781L27.8807 32.0172L28.2691 30.8215L27.252 30.0825L28.5092 30.0824L28.8976 28.8867L29.2863 30.0825H30.5435L29.5264 30.8215L29.9148 32.017Z" fill="#496E2D"/>
<path d="M33.3267 27.3212H32.0696L31.681 28.517L31.2925 27.3214H30.0352L31.0523 26.5823L30.6637 25.3867L31.681 26.1257L32.698 25.3867L32.3097 26.5824L33.3267 27.3212Z" fill="#496E2D"/>
<path d="M33.3267 21.5159L32.3097 22.2548L32.6981 23.4505L31.681 22.7116L30.6638 23.4507L31.0523 22.2549L30.0352 21.516L31.2925 21.5158L31.6809 20.3203L32.0696 21.5159H33.3267Z" fill="#496E2D"/>
<path d="M29.9148 16.8203L29.5264 18.0159L30.5435 18.7549H29.2863L28.8978 19.9507L28.5092 18.755L27.252 18.7551L28.2691 18.0159L27.8806 16.8204L28.8978 17.5593L29.9148 16.8203Z" fill="#496E2D"/>
</g>
<defs>
<clipPath id="clip0_2743_1122">
<rect x="0.394531" y="0.417969" width="48" height="48" rx="24" fill="white"/>
</clipPath>
</defs>
</svg>
