<svg width="49" height="49" viewBox="0 0 49 49" fill="none" xmlns="http://www.w3.org/2000/svg">
<g clip-path="url(#clip0_2743_1152)">
<path d="M24.3945 48.418C37.6494 48.418 48.3945 37.6728 48.3945 24.418C48.3945 11.1631 37.6494 0.417969 24.3945 0.417969C11.1397 0.417969 0.394531 11.1631 0.394531 24.418C0.394531 37.6728 11.1397 48.418 24.3945 48.418Z" fill="#F0F0F0"/>
<path d="M1.2207 30.6797C3.43677 38.9018 9.91086 45.376 18.1331 47.5921V30.6797H1.2207Z" fill="#D80027"/>
<path d="M18.133 1.24414C9.91086 3.46011 3.43667 9.9343 1.2207 18.1565H18.1331V1.24414H18.133Z" fill="#0052B4"/>
<path d="M47.5686 18.1565C45.3526 9.9343 38.8784 3.46011 30.6562 1.24414V18.1565H47.5686V18.1565Z" fill="#D80027"/>
<path d="M30.6562 47.5921C38.8784 45.376 45.3526 38.9019 47.5687 30.6797H30.6562V47.5921Z" fill="#0052B4"/>
<path d="M30.6546 24.4172C30.6546 27.875 27.8516 30.6781 24.3937 30.6781C20.9359 30.6781 18.1328 27.875 18.1328 24.4172C18.1328 20.9593 24.3937 18.1562 24.3937 18.1562C24.3937 18.1562 30.6546 20.9593 30.6546 24.4172Z" fill="#496E2D"/>
<path d="M18.1328 24.4172C18.1328 20.9593 20.9359 18.1562 24.3937 18.1562C27.8516 18.1562 30.6546 20.9593 30.6546 24.4172" fill="#0052B4"/>
<path d="M20.873 21.2871V25.2001C20.873 27.1452 22.4497 28.7219 24.3948 28.7219C26.3398 28.7219 27.9165 27.1452 27.9165 25.2001V21.2871H20.873Z" fill="#D80027"/>
</g>
<defs>
<clipPath id="clip0_2743_1152">
<rect x="0.394531" y="0.417969" width="48" height="48" rx="24" fill="white"/>
</clipPath>
</defs>
</svg>
