<svg width="49" height="49" viewBox="0 0 49 49" fill="none" xmlns="http://www.w3.org/2000/svg">
<g clip-path="url(#clip0_2743_1161)">
<path d="M24.3945 48.418C37.6494 48.418 48.3945 37.6728 48.3945 24.418C48.3945 11.1631 37.6494 0.417969 24.3945 0.417969C11.1397 0.417969 0.394531 11.1631 0.394531 24.418C0.394531 37.6728 11.1397 48.418 24.3945 48.418Z" fill="#FFDA44"/>
<path d="M24.3947 0.417969C18.5187 0.417969 13.1369 2.53081 8.96484 6.03678L34.8294 24.418L8.96484 42.7992C13.1369 46.3051 18.5187 48.418 24.3947 48.418C37.6494 48.418 48.3947 37.6727 48.3947 24.418C48.3947 11.1632 37.6494 0.417969 24.3947 0.417969Z" fill="#D80027"/>
<path d="M7.42395 7.44727C-1.94861 16.8198 -1.94861 32.0159 7.42395 41.3885C11.297 37.5154 15.022 33.7904 24.3946 24.4179L7.42395 7.44727Z" fill="black"/>
<path d="M7.04967 18.9199L10.7022 22.3767L15.1185 19.9707L12.96 24.5129L16.6125 27.9697L11.6256 27.3202L9.46673 31.8623L8.54358 26.9187L3.55664 26.269L7.97283 23.8633L7.04967 18.9199Z" fill="#F0F0F0"/>
</g>
<defs>
<clipPath id="clip0_2743_1161">
<rect x="0.394531" y="0.417969" width="48" height="48" rx="24" fill="white"/>
</clipPath>
</defs>
</svg>
