<svg width="49" height="49" viewBox="0 0 49 49" fill="none" xmlns="http://www.w3.org/2000/svg">
<g clip-path="url(#clip0_2743_1166)">
<path d="M0.394531 24.418C0.394531 11.1632 11.1398 0.417969 24.3945 0.417969C37.6493 0.417969 48.3945 11.1632 48.3945 24.418L24.3945 26.5049L0.394531 24.418Z" fill="#FFDA44"/>
<path d="M3.60547 36.4188C7.75531 43.5921 15.5107 48.4188 24.394 48.4188C33.2772 48.4188 41.0326 43.5921 45.1825 36.4188L24.394 34.8535L3.60547 36.4188Z" fill="#D80027"/>
<path d="M45.183 36.418C47.2251 32.8879 48.3945 28.7896 48.3945 24.418H0.394531C0.394531 28.7896 1.56397 32.8879 3.60603 36.418H45.183Z" fill="#0052B4"/>
<path d="M24.3947 32.7659C29.005 32.7659 32.7424 29.0284 32.7424 24.4181C32.7424 19.8077 29.005 16.0703 24.3947 16.0703C19.7843 16.0703 16.0469 19.8077 16.0469 24.4181C16.0469 29.0284 19.7843 32.7659 24.3947 32.7659Z" fill="#FFDA44"/>
<path d="M24.3951 29.6355C21.5182 29.6355 19.1777 27.2949 19.1777 24.4181V21.2877C19.1777 18.4108 21.5183 16.0703 24.3951 16.0703C27.2719 16.0703 29.6125 18.4109 29.6125 21.2877V24.4181C29.6125 27.295 27.272 29.6355 24.3951 29.6355Z" fill="#338AF3"/>
<path d="M32.7426 11.8956H26.4817C26.4817 10.743 25.5473 9.80859 24.3947 9.80859C23.2422 9.80859 22.3078 10.743 22.3078 11.8956H16.0469C16.0469 13.0482 17.0508 13.9825 18.2033 13.9825H18.1338C18.1338 15.1352 19.0682 16.0695 20.2208 16.0695C20.2208 17.2222 21.1551 18.1565 22.3078 18.1565H26.4817C27.6344 18.1565 28.5687 17.2222 28.5687 16.0695C29.7213 16.0695 30.6557 15.1352 30.6557 13.9825H30.5862C31.7387 13.9825 32.7426 13.0481 32.7426 11.8956Z" fill="black"/>
</g>
<defs>
<clipPath id="clip0_2743_1166">
<rect x="0.394531" y="0.417969" width="48" height="48" rx="24" fill="white"/>
</clipPath>
</defs>
</svg>
