<svg width="49" height="49" viewBox="0 0 49 49" fill="none" xmlns="http://www.w3.org/2000/svg">
<g clip-path="url(#clip0_2743_1173)">
<path d="M24.3945 48.418C37.6494 48.418 48.3945 37.6728 48.3945 24.418C48.3945 11.1631 37.6494 0.417969 24.3945 0.417969C11.1397 0.417969 0.394531 11.1631 0.394531 24.418C0.394531 37.6728 11.1397 48.418 24.3945 48.418Z" fill="#F0F0F0"/>
<path d="M24.3939 0.417969C14.0748 0.417969 5.27775 6.93097 1.88672 16.0702H46.9012C43.5101 6.93097 34.7131 0.417969 24.3939 0.417969Z" fill="#D80027"/>
<path d="M24.3939 48.4178C34.7131 48.4178 43.5101 41.9048 46.9012 32.7656H1.88672C5.27775 41.9048 14.0748 48.4178 24.3939 48.4178Z" fill="black"/>
<path d="M32.7426 21.8096H26.4817C26.4817 20.6571 25.5473 19.7227 24.3947 19.7227C23.2422 19.7227 22.3078 20.6571 22.3078 21.8096H16.0469C16.0469 22.9623 17.0508 23.8966 18.2034 23.8966H18.1338C18.1338 25.0493 19.0682 25.9836 20.2208 25.9836C20.2208 27.1362 21.1551 28.0705 22.3078 28.0705H26.4817C27.6344 28.0705 28.5687 27.1362 28.5687 25.9836C29.7213 25.9836 30.6557 25.0493 30.6557 23.8966H30.5862C31.7387 23.8966 32.7426 22.9623 32.7426 21.8096Z" fill="#FF9811"/>
</g>
<defs>
<clipPath id="clip0_2743_1173">
<rect x="0.394531" y="0.417969" width="48" height="48" rx="24" fill="white"/>
</clipPath>
</defs>
</svg>
