<svg width="49" height="49" viewBox="0 0 49 49" fill="none" xmlns="http://www.w3.org/2000/svg">
<g clip-path="url(#clip0_2743_1178)">
<path d="M24.3945 48.418C37.6494 48.418 48.3945 37.6728 48.3945 24.418C48.3945 11.1631 37.6494 0.417969 24.3945 0.417969C11.1397 0.417969 0.394531 11.1631 0.394531 24.418C0.394531 37.6728 11.1397 48.418 24.3945 48.418Z" fill="#F0F0F0"/>
<path d="M24.394 0.417969C14.8789 0.417969 6.65739 5.95531 2.77539 13.9832H46.0124C42.1305 5.95531 33.9089 0.417969 24.394 0.417969Z" fill="#0052B4"/>
<path d="M24.394 48.4188C33.9089 48.4188 42.1305 42.8814 46.0125 34.8535H2.77539C6.65739 42.8814 14.8789 48.4188 24.394 48.4188Z" fill="#0052B4"/>
<path d="M19.5742 25.4611L24.3939 17.1133L29.2136 25.4611H19.5742Z" fill="#FFDA44"/>
<path d="M30.6546 28.2168L24.3937 31.3473L18.1328 28.2168V24.043H30.6546V28.2168Z" fill="#6DA544"/>
<path d="M30.2973 17.4727L28.0838 19.6862C29.028 20.6303 29.612 21.9347 29.612 23.3754C29.612 26.2569 27.2761 28.5928 24.3947 28.5928C21.5133 28.5928 19.1773 26.2568 19.1773 23.3754C19.1773 21.9347 19.7613 20.6303 20.7055 19.6862L18.492 17.4727C16.9812 18.9832 16.0469 21.0701 16.0469 23.3754C16.0469 27.9859 19.7843 31.7232 24.3947 31.7232C29.005 31.7232 32.7424 27.9858 32.7424 23.3754C32.7423 21.0701 31.808 18.9832 30.2973 17.4727Z" fill="#FFDA44"/>
</g>
<defs>
<clipPath id="clip0_2743_1178">
<rect x="0.394531" y="0.417969" width="48" height="48" rx="24" fill="white"/>
</clipPath>
</defs>
</svg>
