<svg width="49" height="49" viewBox="0 0 49 49" fill="none" xmlns="http://www.w3.org/2000/svg">
<g clip-path="url(#clip0_2743_1186)">
<path d="M24.3945 48.418C37.6494 48.418 48.3945 37.6728 48.3945 24.418C48.3945 11.1631 37.6494 0.417969 24.3945 0.417969C11.1397 0.417969 0.394531 11.1631 0.394531 24.418C0.394531 37.6728 11.1397 48.418 24.3945 48.418Z" fill="#F0F0F0"/>
<path d="M48.1914 21.2876H27.5251H27.525V0.621125C26.5002 0.487719 25.4555 0.417969 24.3945 0.417969C23.3336 0.417969 22.2888 0.487719 21.2641 0.621125V21.2874V21.2875H0.597688C0.464281 22.3123 0.394531 23.3568 0.394531 24.418C0.394531 25.4791 0.464281 26.5237 0.597688 27.5484H21.2639H21.264V48.2148C22.2888 48.3482 23.3336 48.418 24.3945 48.418C25.4555 48.418 26.5002 48.3483 27.5249 48.2148V27.5486V27.5485H48.1914C48.3248 26.5237 48.3945 25.4791 48.3945 24.418C48.3945 23.3568 48.3248 22.3123 48.1914 21.2876Z" fill="#D80027"/>
</g>
<defs>
<clipPath id="clip0_2743_1186">
<rect x="0.394531" y="0.417969" width="48" height="48" rx="24" fill="white"/>
</clipPath>
</defs>
</svg>
