<svg width="49" height="49" viewBox="0 0 49 49" fill="none" xmlns="http://www.w3.org/2000/svg">
<g clip-path="url(#clip0_2743_1197)">
<path d="M22.3075 22.3301C22.3075 22.3301 7.43789 41.391 7.42383 41.3876C11.7669 45.7307 17.767 48.417 24.3945 48.417C37.6492 48.417 48.3945 37.6718 48.3945 24.417L22.3075 22.3301Z" fill="#338AF3"/>
<path d="M22.3075 24.418C22.3075 24.418 7.43789 7.44406 7.42383 7.44744C11.7669 3.10428 17.767 0.417969 24.3945 0.417969C37.6492 0.417969 48.3945 11.1632 48.3945 24.418H22.3075Z" fill="#6DA544"/>
<path d="M7.42395 7.44727C-1.94861 16.8198 -1.94861 32.0159 7.42395 41.3885C7.4233 41.3924 48.3946 24.4179 48.3946 24.4179L7.42395 7.44727Z" fill="#D80027"/>
<path d="M12.9161 14.5059C8.31311 14.5059 4.56836 18.2507 4.56836 22.8536V25.984C4.56836 30.5871 8.3132 34.3318 12.9161 34.3318C17.5191 34.3318 21.2639 30.587 21.2639 25.984V22.8536C21.264 18.2507 17.5192 14.5059 12.9161 14.5059ZM18.1335 25.9841C18.1335 28.3159 16.5958 30.2949 14.4813 30.9613V27.5494L16.696 25.3346L14.4825 23.1211L14.4813 22.3333V21.2886H11.351V24.4189L9.13773 26.632L11.351 28.8452V30.9614C9.23645 30.295 7.69877 28.316 7.69877 25.9842V22.8538C7.69877 19.9769 10.0393 17.6365 12.9161 17.6365C15.793 17.6365 18.1335 19.977 18.1335 22.8538V25.9841Z" fill="#FFDA44"/>
</g>
<defs>
<clipPath id="clip0_2743_1197">
<rect x="0.394531" y="0.417969" width="48" height="48" rx="24" fill="white"/>
</clipPath>
</defs>
</svg>
