<svg width="49" height="49" viewBox="0 0 49 49" fill="none" xmlns="http://www.w3.org/2000/svg">
<g clip-path="url(#clip0_2743_1206)">
<path d="M0.394531 24.4172C0.394531 27.353 0.922625 30.1652 1.88741 32.7652L24.3945 34.8519L46.9017 32.7651C47.8665 30.1652 48.3945 27.353 48.3945 24.4172C48.3945 21.5217 47.8816 18.746 46.942 16.1761L24.3945 13.9824L1.84709 16.1762C0.907438 18.746 0.394531 21.5217 0.394531 24.4172H0.394531Z" fill="#FFDA44"/>
<path d="M24.3939 48.4178C34.7131 48.4178 43.5101 41.9048 46.9012 32.7656H1.88672C5.27775 41.9048 14.0748 48.4178 24.3939 48.4178Z" fill="#D80027"/>
<path d="M24.3939 0.417969C14.0748 0.417969 5.27775 6.93097 1.88672 16.0702H46.9012C43.5101 6.93097 34.7131 0.417969 24.3939 0.417969Z" fill="#6DA544"/>
<path d="M24.3943 35.896C30.7336 35.896 35.8726 30.757 35.8726 24.4177C35.8726 18.0785 30.7336 12.9395 24.3943 12.9395C18.055 12.9395 12.916 18.0785 12.916 24.4177C12.916 30.757 18.055 35.896 24.3943 35.896Z" fill="#0052B4"/>
<path d="M24.3925 15.5293L26.4646 21.9064H33.1806L27.7451 25.8477L29.8335 32.2437L24.3925 28.2836L18.9599 32.2364L21.0398 25.8477L15.6094 21.9064H22.3205L24.3925 15.5293Z" fill="#FFDA44"/>
<path d="M32.6561 26.0048L26.0827 23.8688L30.1452 18.2776L28.4569 17.0508L24.3942 22.6424L20.332 17.0509L18.6435 18.2775L22.7059 23.8692L16.1328 26.0047L16.7776 27.9897L23.351 25.854V32.7654H25.4379V25.8539L32.011 27.9897L32.6561 26.0048Z" fill="#FFDA44"/>
</g>
<defs>
<clipPath id="clip0_2743_1206">
<rect x="0.394531" y="0.417969" width="48" height="48" rx="24" fill="white"/>
</clipPath>
</defs>
</svg>
