<svg width="49" height="49" viewBox="0 0 49 49" fill="none" xmlns="http://www.w3.org/2000/svg">
<g clip-path="url(#clip0_2743_1214)">
<path d="M24.3945 48.418C37.6494 48.418 48.3945 37.6728 48.3945 24.418C48.3945 11.1631 37.6494 0.417969 24.3945 0.417969C11.1397 0.417969 0.394531 11.1631 0.394531 24.418C0.394531 37.6728 11.1397 48.418 24.3945 48.418Z" fill="#0052B4"/>
<path d="M24.3931 9.80859L25.1702 12.2001H27.6846L25.6503 13.678L26.4274 16.0695L24.3931 14.5914L22.3587 16.0695L23.1358 13.678L21.1016 12.2001H23.616L24.3931 9.80859Z" fill="#FFDA44"/>
<path d="M14.064 14.0875L16.3046 15.229L18.0826 13.4512L17.6891 15.9346L19.9297 17.0762L17.4461 17.4696L17.0528 19.9532L15.9112 17.7127L13.4277 18.1061L15.2057 16.3282L14.064 14.0875Z" fill="#FFDA44"/>
<path d="M9.78516 24.4166L12.1766 23.6395V21.125L13.6545 23.1594L16.0461 22.3823L14.5679 24.4166L16.0461 26.4508L13.6545 25.6738L12.1766 27.7081V25.1937L9.78516 24.4166Z" fill="#FFDA44"/>
<path d="M14.064 34.7464L15.2056 32.5058L13.4277 30.7278L15.9113 31.1214L17.0527 28.8809L17.4461 31.3644L19.9296 31.7578L17.6893 32.8994L18.0826 35.3828L16.3046 33.6048L14.064 34.7464Z" fill="#FFDA44"/>
<path d="M24.3931 39.0263L23.6159 36.6349H21.1016L23.1359 35.1569L22.3587 32.7656L24.3931 34.2435L26.4274 32.7656L25.6503 35.1569L27.6846 36.6349H25.1701L24.3931 39.0263Z" fill="#FFDA44"/>
<path d="M34.7229 34.7464L32.4824 33.6049L30.7043 35.3829L31.0978 32.8993L28.8574 31.7578L31.3409 31.3644L31.7342 28.8809L32.8757 31.1214L35.3592 30.7278L33.5812 32.506L34.7229 34.7464Z" fill="#FFDA44"/>
<path d="M39.0029 24.4166L36.6114 25.1937V27.7081L35.1335 25.6738L32.7422 26.4508L34.2202 24.4166L32.7422 22.3823L35.1336 23.1594L36.6114 21.125V23.6396L39.0029 24.4166Z" fill="#FFDA44"/>
<path d="M34.7229 14.0875L33.5813 16.3281L35.3593 18.106L32.8756 17.7125L31.7342 19.953L31.3409 17.4695L28.8574 17.076L31.0978 15.9345L30.7043 13.4512L32.4825 15.229L34.7229 14.0875Z" fill="#FFDA44"/>
</g>
<defs>
<clipPath id="clip0_2743_1214">
<rect x="0.394531" y="0.417969" width="48" height="48" rx="24" fill="white"/>
</clipPath>
</defs>
</svg>
