<svg width="49" height="49" viewBox="0 0 49 49" fill="none" xmlns="http://www.w3.org/2000/svg">
<g clip-path="url(#clip0_2743_1225)">
<path d="M48.3945 24.418C48.3945 37.6727 37.6493 48.418 24.3945 48.418C11.1398 48.418 0.394531 37.6727 0.394531 24.418C0.394531 24.4237 24.3945 0.420594 24.3945 0.417969C37.6493 0.417969 48.3945 11.1632 48.3945 24.418Z" fill="#0052B4"/>
<path d="M24.3301 24.4177H24.3943C24.3943 24.3962 24.3943 24.3752 24.3943 24.3535C24.3729 24.375 24.3515 24.3964 24.3301 24.4177Z" fill="#F0F0F0"/>
<path d="M24.3945 12.9397C24.3945 8.71672 24.3945 5.94969 24.3945 0.417969H24.3905C11.1375 0.420219 0.394531 11.1644 0.394531 24.418H12.9163V17.3669L19.9674 24.418H24.3304L24.3946 24.3538C24.3946 22.7368 24.3946 21.2941 24.3946 19.9909L17.3434 12.9397H24.3945Z" fill="#F0F0F0"/>
<path d="M12.537 3.54883C8.78336 5.68623 5.6628 8.8068 3.52539 12.5605V24.4184H9.7863V9.80992V9.80973H24.395C24.395 7.83508 24.395 5.95389 24.395 3.54883H12.537Z" fill="#D80027"/>
<path d="M24.3942 21.4663L15.8674 12.9395H12.916V12.9396L24.394 24.4176H24.3942C24.3942 24.4176 24.3942 22.3826 24.3942 21.4663Z" fill="#D80027"/>
<path d="M39.0037 28.5918V29.6352H30.6559V28.5918H27.5254V32.7656H29.6124V33.8092H40.0472V32.7656H42.1341V28.5918H39.0037Z" fill="#FFDA44"/>
<path d="M27.5254 12.9395V24.4177C27.5254 30.0089 34.8297 31.7221 34.8297 31.7221C34.8297 31.7221 42.1341 30.0089 42.1341 24.4177V12.9395H27.5254Z" fill="#338AF3"/>
<path d="M34.8293 21.5C33.0033 21.5 33.0033 23.1696 31.1773 23.1696C29.3514 23.1696 29.3514 21.5 27.5254 21.5V24.4217C29.3514 24.4217 29.3514 26.0913 31.1773 26.0913C33.0033 26.0913 33.0033 24.4217 34.8293 24.4217C36.6554 24.4217 36.6554 26.0913 38.4817 26.0913C40.3079 26.0913 40.3078 24.4217 42.1341 24.4217V21.5C40.3079 21.5 40.3079 23.1696 38.4817 23.1696C36.6554 23.1696 36.6554 21.5 34.8293 21.5Z" fill="#F3F3F3"/>
<path d="M34.8293 15.6523C33.0033 15.6523 33.0033 17.3219 31.1773 17.3219C29.3514 17.3219 29.3514 15.6523 27.5254 15.6523V18.5741C29.3514 18.5741 29.3514 20.2437 31.1773 20.2437C33.0033 20.2437 33.0033 18.5741 34.8293 18.5741C36.6554 18.5741 36.6554 20.2437 38.4817 20.2437C40.3079 20.2437 40.3078 18.5741 42.1341 18.5741V15.6523C40.3079 15.6523 40.3079 17.3219 38.4817 17.3219C36.6554 17.3219 36.6554 15.6523 34.8293 15.6523Z" fill="#F3F3F3"/>
</g>
<defs>
<clipPath id="clip0_2743_1225">
<rect x="0.394531" y="0.417969" width="48" height="48" rx="24" fill="white"/>
</clipPath>
</defs>
</svg>
