<svg width="49" height="49" viewBox="0 0 49 49" fill="none" xmlns="http://www.w3.org/2000/svg">
<g clip-path="url(#clip0_2743_1239)">
<path d="M24.3945 48.418C37.6494 48.418 48.3945 37.6728 48.3945 24.418C48.3945 11.1631 37.6494 0.417969 24.3945 0.417969C11.1397 0.417969 0.394531 11.1631 0.394531 24.418C0.394531 37.6728 11.1397 48.418 24.3945 48.418Z" fill="#F0F0F0"/>
<path d="M47.3507 24.4185L48.1906 21.288C48.0511 20.2211 47.8419 19.176 47.5674 18.1576H22.3072V0.509766C21.2422 0.601453 20.1973 0.763547 19.1768 0.989859L15.0028 3.54886L12.9158 3.3382C11.8176 3.93745 10.7712 4.61995 9.78544 5.37736V18.1575H1.22091C0.9465 19.1759 0.73725 20.221 0.59775 21.288L1.43756 24.4185L0.597656 27.5489C0.737156 28.6158 0.946406 29.661 1.22081 30.6793H9.78534V43.4595C10.7711 44.217 11.8176 44.8994 12.9158 45.4986L16.0462 45.288L19.1766 47.847C20.1972 48.0732 21.2421 48.2353 22.307 48.327V30.6794H47.5672C47.8416 29.661 48.0508 28.6159 48.1903 27.549L47.3507 24.4185Z" fill="#0052B4"/>
<path d="M48.1914 21.2874H19.1772H19.1772V0.988281C16.9592 1.48009 14.8565 2.27725 12.9163 3.33597V21.2873H0.597688C0.464281 22.3121 0.394531 23.3568 0.394531 24.4178C0.394531 25.4788 0.464281 26.5235 0.597688 27.5482H12.9162H12.9163V45.4996C14.8565 46.5582 16.9592 47.3555 19.1772 47.8473V27.5485V27.5483H48.1914C48.3248 26.5235 48.3945 25.4788 48.3945 24.4178C48.3945 23.3568 48.3248 22.3121 48.1914 21.2874Z" fill="#D80027"/>
</g>
<defs>
<clipPath id="clip0_2743_1239">
<rect x="0.394531" y="0.417969" width="48" height="48" rx="24" fill="white"/>
</clipPath>
</defs>
</svg>
