<svg width="49" height="49" viewBox="0 0 49 49" fill="none" xmlns="http://www.w3.org/2000/svg">
<g clip-path="url(#clip0_2743_1243)">
<path d="M48.3945 24.418C48.3945 37.6727 37.6493 48.418 24.3945 48.418C11.1398 48.418 0.394531 37.6727 0.394531 24.418C0.394531 24.4237 24.3945 0.420594 24.3945 0.417969C37.6493 0.417969 48.3945 11.1632 48.3945 24.418Z" fill="#338AF3"/>
<path d="M24.3947 11.8965V19.9911L16.0469 11.8965H24.3947Z" fill="#0052B4"/>
<path d="M12.9165 24.4187H19.9676L12.9165 15.0273L11.873 22.3317L12.9165 24.4187Z" fill="#0052B4"/>
<path d="M24.3301 24.4177H24.3943C24.3943 24.3962 24.3943 24.3752 24.3943 24.3535C24.3729 24.375 24.3515 24.3964 24.3301 24.4177Z" fill="#F0F0F0"/>
<path d="M24.3945 12.9397C24.3945 8.71672 24.3945 5.94969 24.3945 0.417969H24.3905C11.1375 0.420219 0.394531 11.1644 0.394531 24.418H12.9163V17.3669L19.9674 24.418H24.3305C24.3519 24.3966 24.3733 24.3752 24.3947 24.3538C24.3947 22.7368 24.3947 21.2941 24.3947 19.9909L17.3434 12.9397H24.3945Z" fill="#F0F0F0"/>
<path d="M12.537 3.54883C8.78336 5.68623 5.6628 8.8068 3.52539 12.5605V24.4184H9.7863V9.80992V9.80973H24.395C24.395 7.83508 24.395 5.95389 24.395 3.54883H12.537Z" fill="#D80027"/>
<path d="M24.3942 21.4663L15.8674 12.9395H12.916V12.9396L24.394 24.4176H24.3942C24.3942 24.4176 24.3942 22.3826 24.3942 21.4663Z" fill="#D80027"/>
<path d="M27.5254 16.0694V24.4171C27.5254 30.0083 34.8297 31.7215 34.8297 31.7215C34.8297 31.7215 42.1341 30.0083 42.1341 24.4171V16.0694L34.8297 13.9824L27.5254 16.0694Z" fill="#F3F3F3"/>
<path d="M42.1341 16.0699V12.9395H27.5254V16.0699H33.7861V22.3309H27.5254V24.4176V24.4178L33.7861 24.4179V31.402C34.4159 31.6248 34.8297 31.7221 34.8297 31.7221C34.8297 31.7221 35.2434 31.625 35.8731 31.402V24.4178H42.1341V24.4176V22.3308H35.8731V16.0698H42.1341V16.0699Z" fill="#D80027"/>
</g>
<defs>
<clipPath id="clip0_2743_1243">
<rect x="0.394531" y="0.417969" width="48" height="48" rx="24" fill="white"/>
</clipPath>
</defs>
</svg>
