<svg width="49" height="49" viewBox="0 0 49 49" fill="none" xmlns="http://www.w3.org/2000/svg">
<g clip-path="url(#clip0_2743_1264)">
<path d="M24.3945 48.418C37.6494 48.418 48.3945 37.6728 48.3945 24.418C48.3945 11.1631 37.6494 0.417969 24.3945 0.417969C11.1397 0.417969 0.394531 11.1631 0.394531 24.418C0.394531 37.6728 11.1397 48.418 24.3945 48.418Z" fill="#F0F0F0"/>
<path d="M3.3125 12.9397H45.4761C41.4057 5.47944 33.4914 0.417969 24.3943 0.417969C15.2973 0.417969 7.38303 5.47944 3.3125 12.9397Z" fill="#D80027"/>
<path d="M24.3943 48.4182C33.4914 48.4182 41.4057 43.3567 45.4762 35.8965H3.3125C7.38303 43.3567 15.2973 48.4182 24.3943 48.4182Z" fill="#D80027"/>
<path d="M32.7424 24.4181C32.7424 29.0285 29.005 31.7224 24.3947 31.7224C19.7843 31.7224 16.0469 29.0285 16.0469 24.4181C16.0469 19.8077 19.7843 16.0703 24.3947 16.0703C29.005 16.0703 32.7424 19.8077 32.7424 24.4181Z" fill="#FFDA44"/>
<path d="M32.7424 24.418C32.7424 29.0284 29.005 32.7657 24.3947 32.7657C19.7843 32.7657 16.0469 29.0284 16.0469 24.418" fill="#0052B4"/>
<path d="M19.1777 22.332H21.2647V26.506H19.1777V22.332Z" fill="#D80027"/>
<path d="M27.5254 22.332H29.6124V26.506H27.5254V22.332Z" fill="#D80027"/>
<path d="M23.3516 19.2012H25.4385V26.5055H23.3516V19.2012Z" fill="#D80027"/>
</g>
<defs>
<clipPath id="clip0_2743_1264">
<rect x="0.394531" y="0.417969" width="48" height="48" rx="24" fill="white"/>
</clipPath>
</defs>
</svg>
