<svg width="49" height="49" viewBox="0 0 49 49" fill="none" xmlns="http://www.w3.org/2000/svg">
<g clip-path="url(#clip0_2743_1283)">
<path d="M24.3945 48.418C37.6494 48.418 48.3945 37.6728 48.3945 24.418C48.3945 11.1631 37.6494 0.417969 24.3945 0.417969C11.1397 0.417969 0.394531 11.1631 0.394531 24.418C0.394531 37.6728 11.1397 48.418 24.3945 48.418Z" fill="#F0F0F0"/>
<path d="M24.3951 0.417969C14.4731 0.417969 5.95795 6.43916 2.30273 15.0267H46.4876C42.8324 6.43916 34.3171 0.417969 24.3951 0.417969Z" fill="#A2001D"/>
<path d="M24.3951 48.4173C34.3171 48.4173 42.8324 42.3961 46.4875 33.8086H2.30273C5.95795 42.3961 14.4731 48.4173 24.3951 48.4173Z" fill="#496E2D"/>
<path d="M47.5677 18.1562H1.22131C0.683281 20.1525 0.394531 22.2509 0.394531 24.4172C0.394531 26.5834 0.683281 28.6818 1.22131 30.6781H47.5678C48.1058 28.6818 48.3945 26.5834 48.3945 24.4172C48.3945 22.2509 48.1058 20.1525 47.5677 18.1562Z" fill="#0052B4"/>
</g>
<defs>
<clipPath id="clip0_2743_1283">
<rect x="0.394531" y="0.417969" width="48" height="48" rx="24" fill="white"/>
</clipPath>
</defs>
</svg>
