<svg width="49" height="49" viewBox="0 0 49 49" fill="none" xmlns="http://www.w3.org/2000/svg">
<g clip-path="url(#clip0_2743_1296)">
<path d="M1.88672 32.7666C5.27775 41.9057 14.0748 48.4188 24.3939 48.4188C34.7131 48.4188 43.5101 41.9057 46.9012 32.7666L24.3939 30.6797L1.88672 32.7666Z" fill="#FFDA44"/>
<path d="M24.3939 0.417969C14.0748 0.417969 5.27775 6.93097 1.88672 16.0702L24.3939 18.1571L46.9012 16.0701C43.5101 6.93097 34.7131 0.417969 24.3939 0.417969Z" fill="black"/>
<path d="M1.88731 16.0703C0.922625 18.6703 0.394531 21.4824 0.394531 24.4181C0.394531 27.3538 0.922625 30.1659 1.88731 32.7659H46.9018C47.8665 30.1659 48.3945 27.3538 48.3945 24.4181C48.3945 21.4824 47.8665 18.6703 46.9017 16.0703H1.88731Z" fill="#D80027"/>
</g>
<defs>
<clipPath id="clip0_2743_1296">
<rect x="0.394531" y="0.417969" width="48" height="48" rx="24" fill="white"/>
</clipPath>
</defs>
</svg>
