<svg width="49" height="49" viewBox="0 0 49 49" fill="none" xmlns="http://www.w3.org/2000/svg">
<g clip-path="url(#clip0_2743_1305)">
<path d="M24.3945 48.418C37.6494 48.418 48.3945 37.6728 48.3945 24.418C48.3945 11.1631 37.6494 0.417969 24.3945 0.417969C11.1397 0.417969 0.394531 11.1631 0.394531 24.418C0.394531 37.6728 11.1397 48.418 24.3945 48.418Z" fill="#F9F9F9"/>
<path d="M24.394 48.4178C34.7131 48.4178 43.5102 41.9048 46.9012 32.7656H1.88672C5.27784 41.9048 14.0748 48.4178 24.394 48.4178Z" fill="#D80027"/>
<path d="M33.7856 20.2445V17.1141H34.829V15.0272H32.7421V16.0707H30.6552V15.0272H28.5682V17.1141H29.6117V20.2445H27.5247V12.9404H28.5682V10.8535H26.4813V11.8968H25.4377V10.8535H23.3509V11.8968H22.3073V10.8535H20.2204V12.9404H21.2639V20.2445H19.1769V17.1141H20.2204V15.0272H18.1334V16.0707H16.0465V15.0272H13.9595V17.1141H15.003V20.2445H12.916V28.5924H35.8726V20.2445H33.7856Z" fill="#D80027"/>
<path d="M24.3945 27.5488C22.6657 27.5488 21.2641 28.9504 21.2641 30.6792C21.2641 32.042 22.1355 33.2011 23.3511 33.6309V37.9837H20.2207V42.1576H25.4381V33.631C26.6537 33.2012 27.525 32.0422 27.525 30.6793C27.525 28.9505 26.1234 27.5488 24.3945 27.5488ZM24.3945 31.7228C23.8183 31.7228 23.3511 31.2555 23.3511 30.6793C23.3511 30.103 23.8183 29.6359 24.3945 29.6359C24.9708 29.6359 25.438 30.103 25.438 30.6793C25.438 31.2555 24.9708 31.7228 24.3945 31.7228Z" fill="#FFDA44"/>
</g>
<defs>
<clipPath id="clip0_2743_1305">
<rect x="0.394531" y="0.417969" width="48" height="48" rx="24" fill="white"/>
</clipPath>
</defs>
</svg>
