<svg width="49" height="49" viewBox="0 0 49 49" fill="none" xmlns="http://www.w3.org/2000/svg">
<g clip-path="url(#clip0_2743_1319)">
<path d="M0.394531 24.418C0.394531 11.1632 11.1398 0.417969 24.3945 0.417969C37.6493 0.417969 48.3945 11.1632 48.3945 24.418C47.3511 24.418 24.3945 27.5484 24.3945 27.5484L0.394531 24.418Z" fill="#F0F0F0"/>
<path d="M48.3945 24.418C48.3945 37.6727 37.6493 48.418 24.3945 48.418C11.1398 48.418 0.394531 37.6727 0.394531 24.418" fill="#D80027"/>
<path d="M17.0896 35.896C23.4289 35.896 28.5679 30.757 28.5679 24.4177C28.5679 18.0785 23.4289 12.9395 17.0896 12.9395C10.7503 12.9395 5.61133 18.0785 5.61133 24.4177C5.61133 30.757 10.7503 35.896 17.0896 35.896Z" fill="#F0F0F0"/>
<path d="M5.61133 24.4177C5.61133 18.0786 10.7503 12.9395 17.0896 12.9395C23.429 12.9395 28.5679 18.0785 28.5679 24.4177" fill="#D80027"/>
</g>
<defs>
<clipPath id="clip0_2743_1319">
<rect x="0.394531" y="0.417969" width="48" height="48" rx="24" fill="white"/>
</clipPath>
</defs>
</svg>
