<svg width="49" height="49" viewBox="0 0 49 49" fill="none" xmlns="http://www.w3.org/2000/svg">
<g clip-path="url(#clip0_2743_1311)">
<path d="M24.3945 48.418C37.6494 48.418 48.3945 37.6728 48.3945 24.418C48.3945 11.1631 37.6494 0.417969 24.3945 0.417969C11.1397 0.417969 0.394531 11.1631 0.394531 24.418C0.394531 37.6728 11.1397 48.418 24.3945 48.418Z" fill="#F0F0F0"/>
<path d="M24.3945 18.1574H47.5677C46.966 15.9248 46.0513 13.821 44.872 11.8965H24.3945V18.1574Z" fill="#338AF3"/>
<path d="M9.45569 43.2004H39.335C41.5253 41.4559 43.4037 39.3369 44.8727 36.9395H3.91797C5.38713 39.3368 7.2655 41.4559 9.45569 43.2004Z" fill="#338AF3"/>
<path d="M8.74319 6.22461C6.85637 7.84939 5.22522 9.76273 3.91797 11.8961H8.74319V6.22461Z" fill="#338AF3"/>
<path d="M24.3945 24.4172C24.3945 21.9725 24.3945 19.9266 24.3945 18.1562H15.0032V24.4172H8.74231V18.1562H1.22131C0.683281 20.1526 0.394531 22.2509 0.394531 24.4172C0.394531 26.5834 0.683281 28.6817 1.22131 30.6781H47.5678C48.1058 28.6817 48.3945 26.5834 48.3945 24.4172H24.3945Z" fill="#338AF3"/>
<path d="M24.3952 0.417969C21.0625 0.417969 17.8886 1.09794 15.0039 2.32559V11.8962H24.3952C24.3952 9.71075 24.3952 7.85197 24.3952 5.63534H39.3349C35.2352 2.37022 30.0436 0.417969 24.3952 0.417969Z" fill="#338AF3"/>
</g>
<defs>
<clipPath id="clip0_2743_1311">
<rect x="0.394531" y="0.417969" width="48" height="48" rx="24" fill="white"/>
</clipPath>
</defs>
</svg>
