<svg width="49" height="49" viewBox="0 0 49 49" fill="none" xmlns="http://www.w3.org/2000/svg">
<g clip-path="url(#clip0_2743_1324)">
<path d="M24.3945 48.418C37.6494 48.418 48.3945 37.6728 48.3945 24.418C48.3945 11.1631 37.6494 0.417969 24.3945 0.417969C11.1397 0.417969 0.394531 11.1631 0.394531 24.418C0.394531 37.6728 11.1397 48.418 24.3945 48.418Z" fill="#FFDA44"/>
<path d="M10.8672 4.59191C14.7189 1.95884 19.3762 0.417969 24.3941 0.417969C29.412 0.417969 34.0693 1.95884 37.921 4.59191L24.3941 5.63534L10.8672 4.59191Z" fill="#A2001D"/>
<path d="M24.3954 24.4184L22.8637 22.8867L22.457 23.6152L24.3954 24.4184Z" fill="#0052B4"/>
<path d="M7.42395 7.44727C-1.94861 16.8198 -1.94861 32.0159 7.42395 41.3885C11.297 37.5154 15.022 33.7904 24.3946 24.4179L7.42395 7.44727Z" fill="#496E2D"/>
<path d="M41.3652 7.44727C50.7377 16.8198 50.7377 32.0159 41.3652 41.3885C37.4921 37.5154 33.7671 33.7904 24.3945 24.4179L41.3652 7.44727Z" fill="#496E2D"/>
<path d="M24.3947 32.7659C29.005 32.7659 32.7424 29.0284 32.7424 24.4181C32.7424 19.8077 29.005 16.0703 24.3947 16.0703C19.7843 16.0703 16.0469 19.8077 16.0469 24.4181C16.0469 29.0284 19.7843 32.7659 24.3947 32.7659Z" fill="#A2001D"/>
<path d="M24.3938 16.0703L26.265 21.8293H32.321L27.4219 25.3893L29.293 31.1485L24.3938 27.5892L19.4945 31.1485L21.366 25.3893L16.4668 21.8293H22.5225L24.3938 16.0703Z" fill="#FFDA44"/>
<path d="M24.4032 0.417969H24.3871C17.7634 0.420125 11.7671 3.10541 7.42578 7.44622H41.3645C37.0231 3.10541 31.0268 0.420125 24.4032 0.417969Z" fill="#A2001D"/>
<path d="M7.42578 41.3906C11.7688 45.733 17.7683 48.4188 24.395 48.4188C31.0217 48.4188 37.0212 45.733 41.3642 41.3906H7.42578Z" fill="#A2001D"/>
<path d="M24.3958 3.02734L24.7844 4.22303H26.0416L25.0245 4.96206L25.4131 6.15775L24.3958 5.41881L23.3787 6.15775L23.7673 4.96206L22.75 4.22303H24.0072L24.3958 3.02734Z" fill="#FFDA44"/>
<path d="M18.5755 3.02734L18.9641 4.22303H20.2213L19.2042 4.96206L19.5928 6.15775L18.5755 5.41881L17.5585 6.15775L17.947 4.96206L16.9297 4.22303H18.1869L18.5755 3.02734Z" fill="#FFDA44"/>
<path d="M30.2141 3.02734L30.6027 4.22303H31.8599L30.8428 4.96206L31.2314 6.15775L30.2141 5.41881L29.197 6.15775L29.5856 4.96206L28.5684 4.22303H29.8255L30.2141 3.02734Z" fill="#FFDA44"/>
<path d="M24.3958 42.6797L24.7844 43.8754H26.0416L25.0245 44.6144L25.4131 45.8101L24.3958 45.0711L23.3787 45.8101L23.7673 44.6144L22.75 43.8754H24.0072L24.3958 42.6797Z" fill="#FFDA44"/>
<path d="M18.5755 42.6797L18.9641 43.8754H20.2213L19.2042 44.6144L19.5928 45.8101L18.5755 45.0711L17.5585 45.8101L17.947 44.6144L16.9297 43.8754H18.1869L18.5755 42.6797Z" fill="#FFDA44"/>
<path d="M30.2141 42.6797L30.6027 43.8754H31.8599L30.8428 44.6144L31.2314 45.8101L30.2141 45.0711L29.197 45.8101L29.5856 44.6144L28.5684 43.8754H29.8255L30.2141 42.6797Z" fill="#FFDA44"/>
<path d="M7.7078 24.0218C8.32421 24.9958 8.03452 26.285 7.06055 26.9015C6.08668 27.518 4.79743 27.2283 4.18093 26.2543C3.06483 24.491 3.71199 21.6113 3.71199 21.6113C3.71199 21.6113 6.59161 22.2585 7.7078 24.0218Z" fill="#FFDA44"/>
<path d="M6.50242 27.0634C7.0787 27.0634 7.54586 26.5963 7.54586 26.02C7.54586 25.4437 7.0787 24.9766 6.50242 24.9766C5.92615 24.9766 5.45898 25.4437 5.45898 26.02C5.45898 26.5963 5.92615 27.0634 6.50242 27.0634Z" fill="#A2001D"/>
</g>
<defs>
<clipPath id="clip0_2743_1324">
<rect x="0.394531" y="0.417969" width="48" height="48" rx="24" fill="white"/>
</clipPath>
</defs>
</svg>
