<svg width="49" height="49" viewBox="0 0 49 49" fill="none" xmlns="http://www.w3.org/2000/svg">
<g clip-path="url(#clip0_2743_1347)">
<path d="M10.8672 44.2432C14.7188 46.8762 19.3763 48.4172 24.3941 48.4172C29.4119 48.4172 34.0693 46.8762 37.921 44.2432L24.3941 42.1562L10.8672 44.2432Z" fill="#D80027"/>
<path d="M37.921 4.59191C34.0693 1.95894 29.4119 0.417969 24.3941 0.417969C19.3763 0.417969 14.7188 1.95894 10.8672 4.59191L24.3941 6.67887L37.921 4.59191Z" fill="#D80027"/>
<path d="M48.3945 24.4179C48.3945 16.4763 43.6399 8.50098 37.9214 4.5918H10.8676C4.54484 8.91405 0.394531 16.181 0.394531 24.4179C0.394531 32.655 4.54484 39.9217 10.8676 44.2439H37.9214C44.2443 39.9217 48.3945 32.655 48.3945 24.4179Z" fill="#0052B4"/>
<path d="M23.0371 39.5671C22.7091 39.2859 15.0039 32.5876 15.0039 24.4174C15.0039 16.2472 22.709 9.54886 23.0371 9.2677L24.3952 8.10352L25.7534 9.26761C26.0813 9.54886 33.7865 16.2471 33.7865 24.4174C33.7865 32.5877 26.0814 39.2861 25.7534 39.5671L24.3952 40.7313L23.0371 39.5671Z" fill="#D80027"/>
<path d="M31.6985 24.4188C31.6985 17.1144 24.3942 10.8535 24.3942 10.8535C24.3942 10.8535 17.0898 17.1146 17.0898 24.4188C17.0898 26.6533 17.7739 28.7898 18.7229 30.6797H30.0655C31.0144 28.7898 31.6985 26.6533 31.6985 24.4188Z" fill="#338AF3"/>
<path d="M31.6985 24.418C31.6985 26.6525 31.0144 28.789 30.0655 30.6789L24.3942 31.7223L18.7229 30.6789C17.7739 28.7891 17.0898 26.6525 17.0898 24.418H31.6985Z" fill="#0052B4"/>
<path d="M24.394 37.984C24.394 37.984 27.9122 34.9674 30.0653 30.6797H18.7227C20.8757 34.9674 24.394 37.984 24.394 37.984Z" fill="#FFDA44"/>
<path d="M19.6992 20.2441H29.0905L24.3949 24.9398L19.6992 20.2441Z" fill="#6DA544"/>
<path d="M22.8301 23.375H25.9605V32.7663H22.8301V23.375Z" fill="#A2001D"/>
</g>
<defs>
<clipPath id="clip0_2743_1347">
<rect x="0.394531" y="0.417969" width="48" height="48" rx="24" fill="white"/>
</clipPath>
</defs>
</svg>
