<svg width="49" height="49" viewBox="0 0 49 49" fill="none" xmlns="http://www.w3.org/2000/svg">
<g clip-path="url(#clip0_2743_1358)">
<path d="M24.3945 48.418C37.6494 48.418 48.3945 37.6728 48.3945 24.418C48.3945 11.1631 37.6494 0.417969 24.3945 0.417969C11.1397 0.417969 0.394531 11.1631 0.394531 24.418C0.394531 37.6728 11.1397 48.418 24.3945 48.418Z" fill="#F0F0F0"/>
<path d="M48.3953 24.4174C48.3953 14.9023 42.858 6.68083 34.8301 2.79883V46.0359C42.858 42.1539 48.3953 33.9324 48.3953 24.4174Z" fill="#338AF3"/>
<path d="M0.394531 24.4174C0.394531 33.9324 5.93188 42.1539 13.9598 46.0359V2.79883C5.93188 6.68083 0.394531 14.9023 0.394531 24.4174Z" fill="#338AF3"/>
<path d="M30.6665 28.4755L26.6085 24.4174L30.4712 20.5545L30.2962 18.5143L29.1903 17.4082L24.3948 22.2037L19.5993 17.4082L18.4935 18.5143L18.3184 20.5545L22.1812 24.4174L18.123 28.4755L20.3367 30.6889L24.3948 26.631L28.453 30.6889L30.6665 28.4755Z" fill="#ACABB1"/>
<path d="M30.2974 18.5156L28.0839 20.7292C29.0281 21.6733 29.6121 22.9777 29.6121 24.4184C29.6121 27.2999 27.2762 29.6358 24.3948 29.6358C21.5133 29.6358 19.1773 27.2999 19.1773 24.4184C19.1773 22.9777 19.7613 21.6733 20.7055 20.7292L18.492 18.5156C16.9812 20.0261 16.0469 22.1131 16.0469 24.4184C16.0469 29.0288 19.7843 32.7662 24.3947 32.7662C29.005 32.7662 32.7424 29.0287 32.7424 24.4184C32.7424 22.1132 31.8081 20.0262 30.2974 18.5156Z" fill="#6DA544"/>
</g>
<defs>
<clipPath id="clip0_2743_1358">
<rect x="0.394531" y="0.417969" width="48" height="48" rx="24" fill="white"/>
</clipPath>
</defs>
</svg>
