<svg width="49" height="49" viewBox="0 0 49 49" fill="none" xmlns="http://www.w3.org/2000/svg">
<g clip-path="url(#clip0_2743_1369)">
<path d="M24.3947 0.417969C22.2285 0.417969 20.13 0.706719 18.1337 1.24475L16.0469 24.418L18.1338 47.5912C20.13 48.1292 22.2285 48.418 24.3947 48.418C37.6494 48.418 48.3947 37.6727 48.3947 24.418C48.3947 11.1632 37.6494 0.417969 24.3947 0.417969Z" fill="#FFDA44"/>
<path d="M16.0469 24.418L18.1338 47.5912C20.13 48.1292 22.2285 48.418 24.3947 48.418C37.6494 48.418 48.3947 37.6727 48.3947 24.418H16.0469Z" fill="#6DA544"/>
<path d="M0.394531 24.4178C0.394531 33.5148 5.45609 41.4292 12.9163 45.4996V3.33594C5.45609 7.40637 0.394531 15.3207 0.394531 24.4178Z" fill="#D80027"/>
<path d="M0.394531 24.4174C0.394531 35.506 7.91525 44.8366 18.1336 47.5906V1.24414C7.91525 3.99814 0.394531 13.3287 0.394531 24.4174Z" fill="#D80027"/>
<path d="M9.46389 18.1562L11.0178 22.939H16.0471L11.9785 25.8951L13.5324 30.6781L9.46389 27.722L5.39523 30.6781L6.94942 25.8951L2.88086 22.939H7.90989L9.46389 18.1562Z" fill="black"/>
</g>
<defs>
<clipPath id="clip0_2743_1369">
<rect x="0.394531" y="0.417969" width="48" height="48" rx="24" fill="white"/>
</clipPath>
</defs>
</svg>
