<svg width="49" height="49" viewBox="0 0 49 49" fill="none" xmlns="http://www.w3.org/2000/svg">
<g clip-path="url(#clip0_2743_1376)">
<path d="M32.7431 1.91084C30.143 0.946062 27.3308 0.417969 24.395 0.417969C21.4594 0.417969 18.6473 0.946063 16.0474 1.91066L15.0039 24.418L16.0473 46.9253C18.6473 47.89 21.4594 48.418 24.395 48.418C27.3309 48.418 30.143 47.89 32.7431 46.9251L33.7865 24.418L32.7431 1.91084Z" fill="#FFDA44"/>
<path d="M0.394531 24.4175C0.394531 34.7365 6.90753 43.5337 16.0468 46.9246V1.91016C6.90753 5.30128 0.394531 14.0982 0.394531 24.4175Z" fill="#D80027"/>
<path d="M48.3944 24.4175C48.3944 14.0982 41.8814 5.30128 32.7422 1.91016V46.9247C41.8814 43.5337 48.3944 34.7365 48.3944 24.4175Z" fill="#6DA544"/>
</g>
<defs>
<clipPath id="clip0_2743_1376">
<rect x="0.394531" y="0.417969" width="48" height="48" rx="24" fill="white"/>
</clipPath>
</defs>
</svg>
