<svg width="49" height="49" viewBox="0 0 49 49" fill="none" xmlns="http://www.w3.org/2000/svg">
<g clip-path="url(#clip0_2743_1380)">
<path d="M24.3945 48.418C37.6494 48.418 48.3945 37.6728 48.3945 24.418C48.3945 11.1631 37.6494 0.417969 24.3945 0.417969C11.1397 0.417969 0.394531 11.1631 0.394531 24.418C0.394531 37.6728 11.1397 48.418 24.3945 48.418Z" fill="#F0F0F0"/>
<path d="M24.394 0.417969C20.1508 0.417969 16.1657 1.52066 12.707 3.45284V45.3831C16.1658 47.3153 20.1508 48.418 24.394 48.418C37.6488 48.418 48.394 37.6727 48.394 24.418C48.394 11.1632 37.6488 0.417969 24.394 0.417969Z" fill="#6DA544"/>
<path d="M12.7781 3.41406C11.2682 4.25078 9.85844 5.24528 8.57041 6.37591C8.70062 6.26172 8.83216 6.14884 8.96472 6.03747L27.3458 24.4187L8.96463 42.7998C8.83197 42.6885 8.70053 42.5756 8.57031 42.4614C9.85834 43.592 11.2683 44.5864 12.778 45.4233L48.3945 24.4187L12.7781 3.41406Z" fill="#F0F0F0"/>
<path d="M10.7513 4.67188C10.0194 5.17869 9.31642 5.72403 8.64658 6.30687L24.3947 24.4173L8.64648 42.5277C9.31633 43.1106 10.0193 43.656 10.7512 44.1628L44.2864 24.4173L10.7513 4.67188Z" fill="#FFDA44"/>
<path d="M8.96461 6.03711C8.43108 6.48542 7.9162 6.95539 7.42383 7.44767L22.3075 24.4183L7.42383 41.3889C7.9162 41.8813 8.43098 42.3514 8.96461 42.7995L27.3458 24.4183L8.96461 6.03711Z" fill="black"/>
<path d="M7.42395 7.44727C-1.94861 16.8198 -1.94861 32.0159 7.42395 41.3885C11.297 37.5154 15.022 33.7904 24.3946 24.4179L7.42395 7.44727Z" fill="#D80027"/>
</g>
<defs>
<clipPath id="clip0_2743_1380">
<rect x="0.394531" y="0.417969" width="48" height="48" rx="24" fill="white"/>
</clipPath>
</defs>
</svg>
