<svg width="49" height="49" viewBox="0 0 49 49" fill="none" xmlns="http://www.w3.org/2000/svg">
<g clip-path="url(#clip0_2743_1387)">
<path d="M48.3945 24.418C48.3945 37.6727 37.6493 48.418 24.3945 48.418C11.1398 48.418 0.394531 37.6727 0.394531 24.418C0.394531 11.1632 24.3945 0.417969 24.3945 0.417969C24.3945 0.417969 48.3945 11.1632 48.3945 24.418Z" fill="#A2001D"/>
<path d="M0.394531 24.418C0.394531 11.1632 11.1398 0.417969 24.3945 0.417969C37.6493 0.417969 48.3945 11.1632 48.3945 24.418" fill="#0052B4"/>
<path d="M32.7424 30.6781L24.3947 29.6345L16.0469 30.6781V18.1562H32.7424V30.6781Z" fill="#F0F0F0"/>
<path d="M24.3946 29.635C26.6998 29.635 28.5686 27.7662 28.5686 25.461C28.5686 23.1558 26.6998 21.2871 24.3946 21.2871C22.0894 21.2871 20.2207 23.1558 20.2207 25.461C20.2207 27.7662 22.0894 29.635 24.3946 29.635Z" fill="#0052B4"/>
<path d="M24.3936 27.5489C25.5462 27.5489 26.4806 26.6146 26.4806 25.462C26.4806 24.3094 25.5462 23.375 24.3936 23.375C23.241 23.375 22.3066 24.3094 22.3066 25.462C22.3066 26.6146 23.241 27.5489 24.3936 27.5489Z" fill="#A2001D"/>
<path d="M21.2637 20.2441H27.5245L24.3941 23.3746L21.2637 20.2441Z" fill="#6DA544"/>
<path d="M23.3516 22.3301H25.4385V28.591H23.3516V22.3301Z" fill="#FFDA44"/>
<path d="M27.7338 27.9648H21.0554L16.0469 30.678H32.7424L27.7338 27.9648Z" fill="#6DA544"/>
</g>
<defs>
<clipPath id="clip0_2743_1387">
<rect x="0.394531" y="0.417969" width="48" height="48" rx="24" fill="white"/>
</clipPath>
</defs>
</svg>
