<svg width="49" height="49" viewBox="0 0 49 49" fill="none" xmlns="http://www.w3.org/2000/svg">
<g clip-path="url(#clip0_2743_1396)">
<path d="M24.3945 48.418C37.6494 48.418 48.3945 37.6728 48.3945 24.418C48.3945 11.1631 37.6494 0.417969 24.3945 0.417969C11.1397 0.417969 0.394531 11.1631 0.394531 24.418C0.394531 37.6728 11.1397 48.418 24.3945 48.418Z" fill="#F0F0F0"/>
<path d="M24.3939 48.418C30.4799 48.418 36.0357 46.1515 40.2664 42.418H8.52148C12.7521 46.1515 18.308 48.418 24.3939 48.418Z" fill="#D80027"/>
<path d="M1.15039 30.4179C1.69836 32.5465 2.53142 34.5607 3.6058 36.4179H45.1827C46.2571 34.5607 47.0901 32.5465 47.6381 30.4179L24.3943 28.5918L1.15039 30.4179Z" fill="#0052B4"/>
<path d="M47.6389 18.418C47.0909 16.2893 46.2579 14.2752 45.1835 12.418L24.395 11.8962C24.395 7.70441 24.395 3.74281 24.395 0.417969C22.6121 0.417969 20.8746 0.6125 19.2025 0.981219C19.1705 0.988344 3.52539 13.329 3.52539 24.418C3.92542 24.4875 24.395 26.5049 24.395 26.5049C24.395 26.5049 24.395 21.9336 24.395 18.418H47.6389Z" fill="#0052B4"/>
<path d="M24.3945 15.3915V3.39152H16.7938L19.2028 0.982422C9.31306 3.16361 1.71416 11.444 0.551094 21.6785C0.448906 22.5775 0.394531 23.4911 0.394531 24.4176H12.5511V19.6342L17.3818 24.4176H25.9679L16.7937 15.3915H24.3945Z" fill="#F0F0F0"/>
<path d="M24.4055 24.4188L15.3794 15.3927H12.5511V15.3928L21.5771 24.4188H9.52494V12.4188H45.183C43.8763 10.16 42.2115 8.13466 40.2671 6.41875H9.52494V5.58203C7.10356 7.49612 5.06056 9.86688 3.52494 12.5644V24.4188H0.394531C0.394531 26.4905 0.657031 28.5011 1.15062 30.4187H47.6384C48.132 28.501 48.3945 26.4905 48.3945 24.4188H24.4055Z" fill="#D80027"/>
</g>
<defs>
<clipPath id="clip0_2743_1396">
<rect x="0.394531" y="0.417969" width="48" height="48" rx="24" fill="white"/>
</clipPath>
</defs>
</svg>
