<svg width="49" height="49" viewBox="0 0 49 49" fill="none" xmlns="http://www.w3.org/2000/svg">
<g clip-path="url(#clip0_2743_1404)">
<path d="M24.3945 48.418C37.6494 48.418 48.3945 37.6728 48.3945 24.418C48.3945 11.1631 37.6494 0.417969 24.3945 0.417969C11.1397 0.417969 0.394531 11.1631 0.394531 24.418C0.394531 37.6728 11.1397 48.418 24.3945 48.418Z" fill="#F0F0F0"/>
<path d="M24.394 48.4188C33.9089 48.4188 42.1305 42.8814 46.0125 34.8535H2.77539C6.65739 42.8814 14.8789 48.4188 24.394 48.4188Z" fill="#338AF3"/>
<path d="M24.394 0.417969C14.8789 0.417969 6.65739 5.95531 2.77539 13.9832H46.0124C42.1305 5.95531 33.9089 0.417969 24.394 0.417969Z" fill="#338AF3"/>
<path d="M15.1646 16.0703L15.9416 18.4618H18.4561L16.4219 19.9397L17.199 22.3311L15.1646 20.8532L13.1302 22.3311L13.9073 19.9397L11.873 18.4618H14.3875L15.1646 16.0703Z" fill="#338AF3"/>
<path d="M15.1646 26.5059L15.9416 28.8974H18.4561L16.4219 30.3753L17.199 32.7667L15.1646 31.2887L13.1302 32.7667L13.9073 30.3753L11.873 28.8974H14.3875L15.1646 26.5059Z" fill="#338AF3"/>
<path d="M33.6236 16.0703L34.4007 18.4618H36.9152L34.8809 19.9397L35.658 22.3311L33.6236 20.8532L31.5892 22.3311L32.3663 19.9397L30.332 18.4618H32.8466L33.6236 16.0703Z" fill="#338AF3"/>
<path d="M33.6236 26.5059L34.4007 28.8974H36.9152L34.8809 30.3753L35.658 32.7667L33.6236 31.2887L31.5892 32.7667L32.3663 30.3753L30.332 28.8974H32.8466L33.6236 26.5059Z" fill="#338AF3"/>
<path d="M24.3931 21.2871L25.1702 23.6787H27.6847L25.6504 25.1565L26.4275 27.5479L24.3931 26.07L22.3588 27.5479L23.1358 25.1565L21.1016 23.6787H23.616L24.3931 21.2871Z" fill="#338AF3"/>
</g>
<defs>
<clipPath id="clip0_2743_1404">
<rect x="0.394531" y="0.417969" width="48" height="48" rx="24" fill="white"/>
</clipPath>
</defs>
</svg>
