<svg width="49" height="49" viewBox="0 0 49 49" fill="none" xmlns="http://www.w3.org/2000/svg">
<g clip-path="url(#clip0_2743_1414)">
<path d="M24.3945 48.418C37.6494 48.418 48.3945 37.6728 48.3945 24.418C48.3945 11.1631 37.6494 0.417969 24.3945 0.417969C11.1397 0.417969 0.394531 11.1631 0.394531 24.418C0.394531 37.6728 11.1397 48.418 24.3945 48.418Z" fill="#D80027"/>
<path d="M26.872 18.5747C26.3266 20.8434 25.3575 20.4107 24.8819 22.3892C22.0803 21.7156 20.355 18.8984 21.0286 16.0967C21.7019 13.2952 24.5193 11.5698 27.321 12.2434C26.3697 16.2003 27.36 16.5457 26.872 18.5747Z" fill="#F0F0F0"/>
<path d="M19.6024 20.2564C21.5915 21.476 20.8805 22.2642 22.6151 23.328C21.1087 25.7843 17.8964 26.5545 15.4399 25.0482C12.9836 23.5419 12.2133 20.3294 13.7196 17.873C17.1889 20.0004 17.8232 19.1654 19.6024 20.2564Z" fill="#F0F0F0"/>
<path d="M18.9554 27.6895C20.7302 26.1747 21.2598 27.0944 22.8075 25.7734C24.6783 27.965 24.418 31.2583 22.2265 33.1291C20.0348 34.9998 16.7416 34.7393 14.8711 32.5479C17.9662 29.9057 17.3679 29.0443 18.9554 27.6895Z" fill="#F0F0F0"/>
<path d="M25.8236 30.6028C24.9311 28.4468 25.9694 28.2271 25.1914 26.3471C27.8538 25.2453 30.9056 26.5103 32.0075 29.1727C33.1093 31.8351 31.8441 34.8868 29.1817 35.9887C27.6257 32.2285 26.6218 32.5312 25.8236 30.6028Z" fill="#F0F0F0"/>
<path d="M30.7181 24.9685C28.3918 25.1511 28.5035 24.0954 26.4752 24.2546C26.2499 21.3822 28.3962 18.8706 31.2688 18.6451C34.1413 18.4202 36.6529 20.5663 36.8781 23.439C32.8209 23.7571 32.7985 24.8055 30.7181 24.9685Z" fill="#F0F0F0"/>
</g>
<defs>
<clipPath id="clip0_2743_1414">
<rect x="0.394531" y="0.417969" width="48" height="48" rx="24" fill="white"/>
</clipPath>
</defs>
</svg>
