<svg width="49" height="49" viewBox="0 0 49 49" fill="none" xmlns="http://www.w3.org/2000/svg">
<g clip-path="url(#clip0_2743_1434)">
<path d="M24.3945 48.418C37.6494 48.418 48.3945 37.6728 48.3945 24.418C48.3945 11.1631 37.6494 0.417969 24.3945 0.417969C11.1397 0.417969 0.394531 11.1631 0.394531 24.418C0.394531 37.6728 11.1397 48.418 24.3945 48.418Z" fill="#F0F0F0"/>
<path d="M24.394 0.417969C14.8789 0.417969 6.65739 5.95531 2.77539 13.9832H46.0124C42.1305 5.95531 33.9089 0.417969 24.394 0.417969Z" fill="#FF9811"/>
<path d="M24.394 48.4188C33.9089 48.4188 42.1305 42.8814 46.0125 34.8535H2.77539C6.65739 42.8814 14.8789 48.4188 24.394 48.4188Z" fill="#6DA544"/>
<path d="M24.3947 32.7659C29.005 32.7659 32.7424 29.0284 32.7424 24.4181C32.7424 19.8077 29.005 16.0703 24.3947 16.0703C19.7843 16.0703 16.0469 19.8077 16.0469 24.4181C16.0469 29.0284 19.7843 32.7659 24.3947 32.7659Z" fill="#0052B4"/>
<path d="M24.3951 29.6359C27.2766 29.6359 29.6125 27.3 29.6125 24.4185C29.6125 21.5371 27.2766 19.2012 24.3951 19.2012C21.5136 19.2012 19.1777 21.5371 19.1777 24.4185C19.1777 27.3 21.5136 29.6359 24.3951 29.6359Z" fill="#F0F0F0"/>
<path d="M24.394 17.9805L26.0035 21.6309L29.9695 21.1996L27.613 24.4187L29.9695 27.6378L26.0035 27.2064L24.394 30.8568L22.7844 27.2064L18.8184 27.6377L21.1749 24.4187L18.8184 21.1996L22.7844 21.6309L24.394 17.9805Z" fill="#0052B4"/>
</g>
<defs>
<clipPath id="clip0_2743_1434">
<rect x="0.394531" y="0.417969" width="48" height="48" rx="24" fill="white"/>
</clipPath>
</defs>
</svg>
