<svg width="49" height="49" viewBox="0 0 49 49" fill="none" xmlns="http://www.w3.org/2000/svg">
<g clip-path="url(#clip0_2743_1444)">
<path d="M24.3945 48.418C37.6494 48.418 48.3945 37.6728 48.3945 24.418C48.3945 11.1631 37.6494 0.417969 24.3945 0.417969C11.1397 0.417969 0.394531 11.1631 0.394531 24.418C0.394531 37.6728 11.1397 48.418 24.3945 48.418Z" fill="#F0F0F0"/>
<path d="M32.1896 18.1563H29.0496C29.0755 18.5014 29.0903 18.8496 29.0903 19.1998C29.0903 21.5214 28.51 23.7717 27.4983 25.3735C27.1862 25.8676 26.6618 26.5653 25.9598 27.0359V18.1562H22.8294V27.0359C22.1275 26.5653 21.6029 25.8677 21.2908 25.3735C20.2791 23.7717 19.6989 21.5214 19.6989 19.1998C19.6989 18.8496 19.7137 18.5013 19.7395 18.1563H16.5995C16.5793 18.4997 16.5684 18.8476 16.5684 19.1998C16.5684 25.6363 20.006 30.6781 24.3944 30.6781C28.7829 30.6781 32.2205 25.6363 32.2205 19.1998C32.2207 18.8476 32.2097 18.4997 32.1896 18.1563Z" fill="#D80027"/>
<path d="M10.307 11.8962H13.4374V13.9832H16.5678V11.8962H19.6982V13.9832H22.8286V11.8962H25.959V13.9832H29.0894V11.8962H32.2198V13.9832H35.3502V11.8962H38.4806V13.9832H46.0122C42.1305 5.95531 33.9089 0.417969 24.394 0.417969C14.879 0.417969 6.65739 5.95531 2.77539 13.9832H10.307V11.8962Z" fill="#6DA544"/>
<path d="M38.4809 34.8535V36.9405H35.3505V34.8535H32.2201V36.9405H29.0897V34.8535H25.9593V36.9405H22.8289V34.8535H19.6985V36.9405H16.5681V34.8535H13.4374V36.9405H10.307V34.8535H2.77539C6.65739 42.8814 14.8789 48.4188 24.394 48.4188C33.909 48.4188 42.1305 42.8814 46.0125 34.8535H38.4809Z" fill="#D80027"/>
</g>
<defs>
<clipPath id="clip0_2743_1444">
<rect x="0.394531" y="0.417969" width="48" height="48" rx="24" fill="white"/>
</clipPath>
</defs>
</svg>
