<svg width="49" height="49" viewBox="0 0 49 49" fill="none" xmlns="http://www.w3.org/2000/svg">
<g clip-path="url(#clip0_2743_1449)">
<path d="M24.3945 48.418C37.6494 48.418 48.3945 37.6728 48.3945 24.418C48.3945 11.1631 37.6494 0.417969 24.3945 0.417969C11.1397 0.417969 0.394531 11.1631 0.394531 24.418C0.394531 37.6728 11.1397 48.418 24.3945 48.418Z" fill="#F0F0F0"/>
<path d="M24.3939 0.417969C14.0748 0.417969 5.27775 6.93097 1.88672 16.0702H46.9012C43.5101 6.93097 34.7131 0.417969 24.3939 0.417969Z" fill="#A2001D"/>
<path d="M24.3939 48.4178C34.7131 48.4178 43.5101 41.9048 46.9012 32.7656H1.88672C5.27775 41.9048 14.0748 48.4178 24.3939 48.4178Z" fill="black"/>
<path d="M18.6553 22.8519C18.6422 22.8519 18.6293 22.8528 18.6162 22.8529V22.8519H14.0284C14.261 21.9532 15.0764 21.2867 16.0466 21.2867V18.1562C13.1697 18.1562 10.8293 20.4968 10.8293 23.3736V25.9302V25.9824H18.6162H18.6553C18.943 25.9824 19.177 26.2165 19.177 26.5041V27.5476H8.74219V30.678H22.3074V26.504C22.3074 24.4903 20.6691 22.8519 18.6553 22.8519Z" fill="#496E2D"/>
<path d="M26.482 27.5476V18.1562H23.3516V30.6781H28.5689V27.5476H26.482Z" fill="#496E2D"/>
<path d="M36.9157 27.5477V18.1562H33.7853V27.5477H32.7417V24.4173H29.6113V30.6782H39.0026V27.5477H36.9157Z" fill="#496E2D"/>
</g>
<defs>
<clipPath id="clip0_2743_1449">
<rect x="0.394531" y="0.417969" width="48" height="48" rx="24" fill="white"/>
</clipPath>
</defs>
</svg>
