<svg width="49" height="49" viewBox="0 0 49 49" fill="none" xmlns="http://www.w3.org/2000/svg">
<g clip-path="url(#clip0_2743_1461)">
<path d="M24.3945 48.418C37.6494 48.418 48.3945 37.6728 48.3945 24.418C48.3945 11.1631 37.6494 0.417969 24.3945 0.417969C11.1397 0.417969 0.394531 11.1631 0.394531 24.418C0.394531 37.6728 11.1397 48.418 24.3945 48.418Z" fill="#D80027"/>
<path d="M33.28 16.5068L31.5836 22.5603L26.494 21.6205L23.2178 14.8672L14.3671 18.0079L13.6691 16.041L11.3535 15.7557L13.0983 20.6728L19.1891 19.1152L20.92 23.9929L16.7095 30.2068L23.8549 36.3012L22.5006 37.889L23.4113 40.0372L26.7973 36.0674L22.4029 31.5715L25.7617 27.6337L33.2484 28.1731L34.9536 18.9378L37.0059 19.3168L38.4111 17.454L33.28 16.5068Z" fill="#F0F0F0"/>
</g>
<defs>
<clipPath id="clip0_2743_1461">
<rect x="0.394531" y="0.417969" width="48" height="48" rx="24" fill="white"/>
</clipPath>
</defs>
</svg>
