<svg width="49" height="49" viewBox="0 0 49 49" fill="none" xmlns="http://www.w3.org/2000/svg">
<g clip-path="url(#clip0_2743_1464)">
<path d="M24.3945 48.418C37.6494 48.418 48.3945 37.6728 48.3945 24.418C48.3945 11.1631 37.6494 0.417969 24.3945 0.417969C11.1397 0.417969 0.394531 11.1631 0.394531 24.418C0.394531 37.6728 11.1397 48.418 24.3945 48.418Z" fill="#F0F0F0"/>
<path d="M33.4331 19.1998H27.4084L24.3962 13.9824L21.3841 19.1998H15.3594L18.3719 24.4172L15.3594 29.6345H21.3841L24.3962 34.8519L27.4084 29.6345H33.4331L30.4205 24.4172L33.4331 19.1998ZM28.097 24.4172L26.2468 27.6223H22.546L20.6954 24.4172L22.5459 21.212H26.2467L28.097 24.4172ZM24.3962 18.0068L25.0849 19.1997H23.7077L24.3962 18.0068ZM18.8449 21.212H20.2223L19.5336 22.4049L18.8449 21.212ZM18.8449 27.6223L19.5337 26.4294L20.2224 27.6223H18.8449ZM24.3962 30.8274L23.7076 29.6345H25.0849L24.3962 30.8274ZM29.9475 27.6223H28.5702L29.2589 26.4294L29.9475 27.6223ZM28.5702 21.212H29.9475L29.2588 22.4049L28.5702 21.212Z" fill="#0052B4"/>
<path d="M39.3351 5.63477H9.45569C7.26541 7.37927 5.38703 9.4982 3.91797 11.8957H44.8728C43.4037 9.4983 41.5253 7.37927 39.3351 5.63477Z" fill="#0052B4"/>
<path d="M9.45569 43.2004H39.335C41.5253 41.4559 43.4037 39.3369 44.8727 36.9395H3.91797C5.38713 39.3368 7.2655 41.4559 9.45569 43.2004Z" fill="#0052B4"/>
</g>
<defs>
<clipPath id="clip0_2743_1464">
<rect x="0.394531" y="0.417969" width="48" height="48" rx="24" fill="white"/>
</clipPath>
</defs>
</svg>
