<svg width="49" height="49" viewBox="0 0 49 49" fill="none" xmlns="http://www.w3.org/2000/svg">
<g clip-path="url(#clip0_2743_1487)">
<path d="M24.3945 48.418C37.6494 48.418 48.3945 37.6728 48.3945 24.418C48.3945 11.1631 37.6494 0.417969 24.3945 0.417969C11.1397 0.417969 0.394531 11.1631 0.394531 24.418C0.394531 37.6728 11.1397 48.418 24.3945 48.418Z" fill="#F0F0F0"/>
<path d="M43.4344 39.0307L28.8211 24.4175H28.821L43.4344 9.80402C42.8041 8.98502 42.1147 8.19705 41.3646 7.44677C40.6143 6.69658 39.8264 6.00705 39.0073 5.37695L24.394 19.9902L24.394 19.9903L9.78067 5.37695C8.96177 6.00714 8.1737 6.69648 7.42342 7.44677C6.67314 8.19705 5.9837 8.98502 5.35361 9.80402L19.9669 24.4172L19.967 24.4173L5.35352 39.0308C5.9838 39.8498 6.67323 40.6377 7.42333 41.388C8.17361 42.1382 8.96148 42.8277 9.78058 43.4578L24.394 28.8445L24.394 28.8444L39.0073 43.4577C39.8262 42.8275 40.6143 42.1381 41.3646 41.3879C42.1149 40.6376 42.8042 39.8497 43.4344 39.0307Z" fill="#D80027"/>
<path d="M20.2207 7.72323L24.3946 8.76667L28.5686 7.72323V4.17545L26.899 5.0102L24.3946 2.50586L21.8903 5.0102L20.2207 4.17545V7.72323Z" fill="#FFDA44"/>
<path d="M20.2207 7.72266V10.3315C20.2207 13.5265 24.3946 14.5055 24.3946 14.5055C24.3946 14.5055 28.5686 13.5264 28.5686 10.3315V7.72266H20.2207Z" fill="#D80027"/>
</g>
<defs>
<clipPath id="clip0_2743_1487">
<rect x="0.394531" y="0.417969" width="48" height="48" rx="24" fill="white"/>
</clipPath>
</defs>
</svg>
