<svg width="49" height="49" viewBox="0 0 49 49" fill="none" xmlns="http://www.w3.org/2000/svg">
<g clip-path="url(#clip0_2743_1498)">
<path d="M24.3945 48.418C37.6494 48.418 48.3945 37.6728 48.3945 24.418C48.3945 11.1631 37.6494 0.417969 24.3945 0.417969C11.1397 0.417969 0.394531 11.1631 0.394531 24.418C0.394531 37.6728 11.1397 48.418 24.3945 48.418Z" fill="#338AF3"/>
<path d="M37.9606 24.6797H10.8301C10.8301 26.5527 12.4614 28.071 14.3343 28.071H14.2214C14.2214 29.944 15.7397 31.4623 17.6127 31.4623C17.6127 33.3353 19.131 34.8536 21.004 34.8536H27.7866C29.6597 34.8536 31.178 33.3353 31.178 31.4623C33.051 31.4623 34.5693 29.944 34.5693 28.071H34.4564C36.329 28.071 37.9606 26.5527 37.9606 24.6797Z" fill="#FFDA44"/>
<path d="M33.7865 20.2441C33.7865 25.4308 29.5818 29.6355 24.3952 29.6355C19.2085 29.6355 15.0039 25.4308 15.0039 20.2441" fill="#338AF3"/>
<path d="M31.5673 20.2437L28.6362 21.6225L30.197 24.4612L27.0142 23.8523L26.6109 27.0676L24.394 24.7027L22.177 27.0676L21.7738 23.8523L18.591 24.461L20.1517 21.6224L17.2207 20.2437L20.1518 18.865L18.591 16.0264L21.7737 16.6352L22.1771 13.4199L24.394 15.7848L26.611 13.4199L27.0142 16.6352L30.1971 16.0264L28.6363 18.8651L31.5673 20.2437Z" fill="#FFDA44"/>
</g>
<defs>
<clipPath id="clip0_2743_1498">
<rect x="0.394531" y="0.417969" width="48" height="48" rx="24" fill="white"/>
</clipPath>
</defs>
</svg>
