<svg width="49" height="49" viewBox="0 0 49 49" fill="none" xmlns="http://www.w3.org/2000/svg">
<g clip-path="url(#clip0_2743_1503)">
<path d="M24.3945 48.418C37.6494 48.418 48.3945 37.6728 48.3945 24.418C48.3945 11.1631 37.6494 0.417969 24.3945 0.417969C11.1397 0.417969 0.394531 11.1631 0.394531 24.418C0.394531 37.6728 11.1397 48.418 24.3945 48.418Z" fill="#F0F0F0"/>
<path d="M24.394 0.417969C14.8789 0.417969 6.65739 5.95531 2.77539 13.9832H46.0124C42.1305 5.95531 33.9089 0.417969 24.394 0.417969Z" fill="black"/>
<path d="M24.394 48.4188C14.8789 48.4188 6.65739 42.8814 2.77539 34.8535H46.0124C42.1305 42.8814 33.9089 48.4188 24.394 48.4188Z" fill="#496E2D"/>
<path d="M47.2612 17.1133H1.52787C0.792687 19.4166 0.394531 21.8705 0.394531 24.4176C0.394531 26.9647 0.792687 29.4186 1.52787 31.722H47.2611C47.9964 29.4186 48.3945 26.9647 48.3945 24.4176C48.3945 21.8705 47.9964 19.4166 47.2612 17.1133Z" fill="#A2001D"/>
<path d="M31.8684 11.5091L29.0262 10.1973L24.3952 20.6833L19.7641 10.1973L16.9219 11.5091L22.6714 24.4184L16.9219 37.3277L19.7641 38.6395L24.3952 28.1535L29.0262 38.6395L31.8684 37.3277L26.1189 24.4184L31.8684 11.5091Z" fill="#F0F0F0"/>
<path d="M26.3257 12.7459C25.2254 11.5443 24.3953 10.8535 24.3953 10.8535C24.3953 10.8535 23.5651 11.5442 22.4648 12.7459V36.0915C23.5651 37.2933 24.3953 37.984 24.3953 37.984C24.3953 37.984 25.2254 37.2934 26.3257 36.0916V12.7459Z" fill="#F0F0F0"/>
<path d="M19.1777 17.2218V31.6135C20.3404 33.6737 21.7635 35.3623 22.83 36.4819V12.3535C21.7635 13.473 20.3403 15.1617 19.1777 17.2218Z" fill="#A2001D"/>
<path d="M29.6132 17.2218C28.4504 15.1616 27.0274 13.473 25.9609 12.3535V36.4819C27.0273 35.3623 28.4504 33.6737 29.6132 31.6135V17.2218Z" fill="#A2001D"/>
<path d="M29.6113 17.2227V31.6144C30.7884 29.5286 31.6983 27.0621 31.6983 24.4186C31.6983 21.7752 30.7884 19.3086 29.6113 17.2227Z" fill="black"/>
<path d="M19.1768 17.2227V31.6144C17.9998 29.5286 17.0898 27.0621 17.0898 24.4186C17.0898 21.7752 17.9998 19.3086 19.1768 17.2227Z" fill="black"/>
</g>
<defs>
<clipPath id="clip0_2743_1503">
<rect x="0.394531" y="0.417969" width="48" height="48" rx="24" fill="white"/>
</clipPath>
</defs>
</svg>
