<svg width="49" height="49" viewBox="0 0 49 49" fill="none" xmlns="http://www.w3.org/2000/svg">
<g clip-path="url(#clip0_2743_1516)">
<path d="M0.394531 24.418C0.394531 11.1632 11.1398 0.417969 24.3945 0.417969C37.6493 0.417969 48.3945 11.1632 48.3945 24.418" fill="#D80027"/>
<path d="M32.7424 22.738L29.3313 24.3423L31.1478 27.646L27.4439 26.9373L26.9746 30.6791L24.3947 27.927L21.8147 30.6791L21.3454 26.9373L17.6415 27.6458L19.4579 24.3423L16.0469 22.738L19.4579 21.1333L17.6415 17.8301L21.3453 18.5384L21.8148 14.7969L24.3947 17.5487L26.9747 14.7969L27.4439 18.5384L31.1479 17.8301L29.3316 21.1336L32.7424 22.738Z" fill="#FFDA44"/>
<path d="M30.6546 8.24494H25.959C25.959 7.38066 25.2581 6.67969 24.3937 6.67969C23.5293 6.67969 22.8285 7.38056 22.8285 8.24494H18.1328C18.1328 9.10931 18.8858 9.81019 19.7502 9.81019H19.698C19.698 10.6746 20.3987 11.3754 21.2632 11.3754C21.2632 12.2398 21.9639 12.9407 22.8285 12.9407H25.9589C26.8232 12.9407 27.5241 12.2399 27.5241 11.3754C28.3884 11.3754 29.0894 10.6747 29.0894 9.81019H29.0372C29.9016 9.81019 30.6546 9.10941 30.6546 8.24494Z" fill="#FFDA44"/>
<path d="M48.3945 24.418C48.3945 37.6727 37.6493 48.418 24.3945 48.418C11.1398 48.418 0.394531 37.6727 0.394531 24.418H48.3945Z" fill="#F0F0F0"/>
<path d="M24.3954 48.4179C31.8975 48.4179 38.5944 44.975 42.9956 39.584C42.204 39.0443 41.7765 38.1719 40.395 38.1719C38.3951 38.1719 38.3951 40.0006 36.3952 40.0006C34.3953 40.0006 34.3952 38.1719 32.3954 38.1719C30.3954 38.1719 30.3954 40.0006 28.3953 40.0006C26.3953 40.0006 26.3952 38.1719 24.395 38.1719C22.395 38.1719 22.395 40.0006 20.3952 40.0006C18.3955 40.0006 18.3955 38.1719 16.3955 38.1719C14.3954 38.1719 14.3954 40.0006 12.3952 40.0006C10.395 40.0006 10.395 38.1719 8.39489 38.1719C7.01358 38.1719 6.58617 39.0441 5.79492 39.5838C10.1959 44.975 16.8932 48.4179 24.3954 48.4179Z" fill="#0052B4"/>
<path d="M44.3943 27.4791C42.3943 27.4791 42.3943 25.6504 40.3942 25.6504C38.3943 25.6504 38.3943 27.4791 36.3944 27.4791C34.3945 27.4791 34.3944 25.6504 32.3945 25.6504C30.3946 25.6504 30.3946 27.4791 28.3945 27.4791C26.3944 27.4791 26.3943 25.6504 24.3942 25.6504C22.3942 25.6504 22.3942 27.4791 20.3943 27.4791C18.3947 27.4791 18.3947 25.6504 16.3947 25.6504C14.3945 25.6504 14.3945 27.4791 12.3944 27.4791C10.3942 27.4791 10.3942 25.6504 8.39406 25.6504C6.39438 25.6504 6.39438 27.4791 4.39441 27.4791C2.40522 27.4791 2.39369 25.6705 0.425781 25.6512C0.481188 26.749 0.61225 27.8268 0.810438 28.8807C2.40456 29.115 2.54416 30.679 4.3945 30.679C6.39447 30.679 6.39447 28.8505 8.39416 28.8505C10.3943 28.8505 10.3943 30.679 12.3945 30.679C14.3946 30.679 14.3946 28.8505 16.3948 28.8505C18.3948 28.8505 18.3948 30.679 20.3944 30.679C22.3944 30.679 22.3944 28.8505 24.3943 28.8505C26.3944 28.8505 26.3944 30.679 28.3946 30.679C30.3948 30.679 30.3948 28.8505 32.3946 28.8505C34.3946 28.8505 34.3946 30.679 36.3945 30.679C38.3943 30.679 38.3944 28.8505 40.3943 28.8505C42.3945 28.8505 42.3945 30.679 44.3943 30.679C46.2449 30.679 46.3845 29.1151 47.9787 28.8808C48.177 27.8268 48.3078 26.7491 48.3635 25.6513C46.3953 25.6707 46.3835 27.4791 44.3943 27.4791Z" fill="#0052B4"/>
<path d="M40.3941 31.9121C38.3941 31.9121 38.3941 33.7408 36.3942 33.7408C34.3943 33.7408 34.3942 31.9121 32.3944 31.9121C30.3944 31.9121 30.3944 33.7408 28.3943 33.7408C26.3942 33.7408 26.3942 31.9121 24.394 31.9121C22.3941 31.9121 22.3941 33.7408 20.3942 33.7408C18.3945 33.7408 18.3945 31.9121 16.3945 31.9121C14.3944 31.9121 14.3944 33.7408 12.3942 33.7408C10.3941 33.7408 10.3941 31.9121 8.39391 31.9121C6.39422 31.9121 6.39422 33.7408 4.39425 33.7408C2.96522 33.7408 2.55703 32.8074 1.71094 32.2742C2.27419 33.9016 3.00694 35.4497 3.88941 36.8968C4.04288 36.9251 4.20994 36.9408 4.39425 36.9408C6.39422 36.9408 6.39422 35.1123 8.39391 35.1123C10.3941 35.1123 10.3941 36.9408 12.3942 36.9408C14.3944 36.9408 14.3944 35.1123 16.3945 35.1123C18.3945 35.1123 18.3945 36.9408 20.3942 36.9408C22.3942 36.9408 22.3942 35.1123 24.394 35.1123C26.3942 35.1123 26.3942 36.9408 28.3943 36.9408C30.3945 36.9408 30.3945 35.1123 32.3944 35.1123C34.3943 35.1123 34.3943 36.9408 36.3942 36.9408C38.3941 36.9408 38.3942 35.1123 40.3941 35.1123C42.3942 35.1123 42.3942 36.9408 44.3941 36.9408C44.5786 36.9408 44.7457 36.9251 44.8991 36.8967C45.7816 35.4497 46.5142 33.9016 47.0778 32.2743C46.2316 32.8072 45.8233 33.7408 44.3941 33.7408C42.3942 33.7408 42.3942 31.9121 40.3941 31.9121Z" fill="#0052B4"/>
<path d="M48.3201 22.5216C46.3954 22.5671 46.3689 24.3482 44.3942 24.3482C42.3942 24.3482 42.3942 22.5195 40.3942 22.5195C38.3942 22.5195 38.3942 24.3482 36.3943 24.3482C34.3945 24.3482 34.3944 22.5195 32.3945 22.5195C30.3945 22.5195 30.3945 24.3482 28.3945 24.3482C26.3944 24.3482 26.3943 22.5195 24.3942 22.5195C22.3942 22.5195 22.3942 24.3482 20.3943 24.3482C18.3946 24.3482 18.3946 22.5195 16.3947 22.5195C14.3945 22.5195 14.3945 24.3482 12.3943 24.3482C10.3942 24.3482 10.3942 22.5195 8.39403 22.5195C6.39434 22.5195 6.39434 24.3482 4.39438 24.3482C2.42009 24.3482 2.39338 22.5672 0.468875 22.5216C0.420031 23.1473 0.394531 23.7795 0.394531 24.4177C0.394531 24.8548 0.406906 25.2892 0.43025 25.7205C2.39366 25.7426 2.40669 27.5481 4.39447 27.5481C6.39444 27.5481 6.39444 25.7196 8.39412 25.7196C10.3943 25.7196 10.3943 27.5481 12.3944 27.5481C14.3946 27.5481 14.3946 25.7196 16.3948 25.7196C18.3947 25.7196 18.3947 27.5481 20.3944 27.5481C22.3944 27.5481 22.3944 25.7196 24.3942 25.7196C26.3944 25.7196 26.3944 27.5481 28.3946 27.5481C30.3947 27.5481 30.3947 25.7196 32.3946 25.7196C34.3946 25.7196 34.3946 27.5481 36.3944 27.5481C38.3943 27.5481 38.3944 25.7196 40.3943 25.7196C42.3944 25.7196 42.3944 27.5481 44.3943 27.5481C46.3823 27.5481 46.3953 25.7426 48.3591 25.7205C48.3822 25.2891 48.3945 24.8548 48.3945 24.4177C48.3945 23.7795 48.369 23.1473 48.3201 22.5216Z" fill="#F0F0F0"/>
</g>
<defs>
<clipPath id="clip0_2743_1516">
<rect x="0.394531" y="0.417969" width="48" height="48" rx="24" fill="white"/>
</clipPath>
</defs>
</svg>
