<svg width="49" height="49" viewBox="0 0 49 49" fill="none" xmlns="http://www.w3.org/2000/svg">
<g clip-path="url(#clip0_2743_1527)">
<path d="M24.3945 48.418C37.6494 48.418 48.3945 37.6728 48.3945 24.418C48.3945 11.1631 37.6494 0.417969 24.3945 0.417969C11.1397 0.417969 0.394531 11.1631 0.394531 24.418C0.394531 37.6728 11.1397 48.418 24.3945 48.418Z" fill="#0052B4"/>
<path d="M10.9365 15.0273L11.4546 16.6218H13.1308L11.7747 17.6071L12.2927 19.2013L10.9365 18.2161L9.58022 19.2013L10.0984 17.6071L8.74219 16.6218H10.4183L10.9365 15.0273Z" fill="#F0F0F0"/>
<path d="M16.1532 13.4609L16.6713 15.0553H18.3475L16.9914 16.0406L17.5094 17.6348L16.1532 16.6496L14.797 17.6348L15.3151 16.0406L13.959 15.0553H15.6352L16.1532 13.4609Z" fill="#F0F0F0"/>
<path d="M21.372 11.8965L21.89 13.4909H23.5663L22.2102 14.4762L22.7281 16.0704L21.372 15.0851L20.0158 16.0704L20.5338 14.4762L19.1777 13.4909H20.854L21.372 11.8965Z" fill="#F0F0F0"/>
<path d="M37.8525 15.0273L37.3345 16.6218H35.6582L37.0144 17.6071L36.4963 19.2013L37.8525 18.2161L39.2088 19.2013L38.6906 17.6071L40.0468 16.6218H38.3706L37.8525 15.0273Z" fill="#F0F0F0"/>
<path d="M32.6357 13.4609L32.1177 15.0553H30.4414L31.7976 16.0406L31.2795 17.6348L32.6357 16.6496L33.9919 17.6348L33.4738 16.0406L34.8299 15.0553H33.1537L32.6357 13.4609Z" fill="#F0F0F0"/>
<path d="M27.417 11.8965L26.8989 13.4909H25.2227L26.5787 14.4762L26.0608 16.0704L27.417 15.0851L28.7732 16.0704L28.2551 14.4762L29.6112 13.4909H27.9349L27.417 11.8965Z" fill="#F0F0F0"/>
<path d="M28.5681 25.4615L24.3942 20.2441L22.3072 21.2876V23.3745L19.1768 25.4615H17.0898V28.1577C20.1487 29.3963 22.3072 32.3934 22.3072 35.8964H24.3942V33.8094L26.4812 31.7224L28.5681 33.8094L30.6551 31.7224V29.6355L32.7421 26.505L28.5681 25.4615Z" fill="#FFDA44"/>
</g>
<defs>
<clipPath id="clip0_2743_1527">
<rect x="0.394531" y="0.417969" width="48" height="48" rx="24" fill="white"/>
</clipPath>
</defs>
</svg>
