<svg width="49" height="49" viewBox="0 0 49 49" fill="none" xmlns="http://www.w3.org/2000/svg">
<g clip-path="url(#clip0_2743_1537)">
<path d="M46.9017 32.765C47.8664 30.165 48.3945 27.3529 48.3945 24.4172C48.3945 21.4815 47.8664 18.6694 46.9017 16.0694L24.3945 13.9824L1.88731 16.0694C0.922625 18.6694 0.394531 21.4815 0.394531 24.4172C0.394531 27.3529 0.922625 30.165 1.88731 32.765L24.3945 34.8519L46.9017 32.765Z" fill="#F0F0F0"/>
<path d="M24.394 48.4178C34.7131 48.4178 43.5102 41.9048 46.9012 32.7656H1.88672C5.27784 41.9048 14.0748 48.4178 24.394 48.4178Z" fill="#D80027"/>
<path d="M24.394 0.417969C14.0748 0.417969 5.27784 6.93097 1.88672 16.0702H46.9012C43.5102 6.93097 34.7131 0.417969 24.394 0.417969Z" fill="#6DA544"/>
<path d="M7.42395 7.44727C-1.94861 16.8198 -1.94861 32.0159 7.42395 41.3885C9.87036 38.9421 12.2582 36.5543 16.0467 32.7658V16.0701L7.42395 7.44727Z" fill="black"/>
</g>
<defs>
<clipPath id="clip0_2743_1537">
<rect x="0.394531" y="0.417969" width="48" height="48" rx="24" fill="white"/>
</clipPath>
</defs>
</svg>
