<svg width="49" height="49" viewBox="0 0 49 49" fill="none" xmlns="http://www.w3.org/2000/svg">
<g clip-path="url(#clip0_2743_1542)">
<path d="M24.3945 48.418C37.6494 48.418 48.3945 37.6728 48.3945 24.418C48.3945 11.1631 37.6494 0.417969 24.3945 0.417969C11.1397 0.417969 0.394531 11.1631 0.394531 24.418C0.394531 37.6728 11.1397 48.418 24.3945 48.418Z" fill="#D80027"/>
<path d="M36.1326 24.4172L31.3369 26.673L33.8907 31.318L28.6826 30.3216L28.023 35.5825L24.3953 31.7134L20.768 35.5825L20.108 30.3216L14.9004 31.3179L17.4542 26.6728L12.6582 24.4172L17.4542 22.1615L14.9004 17.5164L20.1079 18.5129L20.7681 13.252L24.3953 17.1211L28.0232 13.252L28.6826 18.5129L33.8909 17.5164L31.337 22.1618L36.1326 24.4172Z" fill="#FFDA44"/>
<path d="M24.3942 31.722C28.4283 31.722 31.6985 28.4517 31.6985 24.4176C31.6985 20.3835 28.4283 17.1133 24.3942 17.1133C20.3601 17.1133 17.0898 20.3835 17.0898 24.4176C17.0898 28.4517 20.3601 31.722 24.3942 31.722Z" fill="#D80027"/>
<path d="M20.7419 24.418C20.5659 24.418 20.3922 24.427 20.2207 24.444C20.227 25.4557 20.593 26.3817 21.1975 27.101C21.52 26.2332 22.0015 25.4418 22.6087 24.7646C22.0288 24.5415 21.3996 24.418 20.7419 24.418Z" fill="#FFDA44"/>
<path d="M22.9902 28.3491C23.429 28.5059 23.9014 28.5918 24.3941 28.5918C24.8869 28.5918 25.3593 28.5059 25.798 28.3491C25.5589 27.4105 25.0651 26.5726 24.3941 25.9141C23.7232 26.5725 23.2294 27.4105 22.9902 28.3491Z" fill="#FFDA44"/>
<path d="M28.0084 22.3318C27.2867 21.0843 25.9388 20.2441 24.3938 20.2441C22.8488 20.2441 21.501 21.0842 20.7793 22.3318C22.095 22.3384 23.3287 22.6962 24.3938 23.3139C25.4589 22.6962 26.6925 22.3384 28.0084 22.3318Z" fill="#FFDA44"/>
<path d="M26.1797 24.7646C26.7869 25.4417 27.2684 26.2331 27.5909 27.101C28.1954 26.3817 28.5614 25.4557 28.5677 24.444C28.3961 24.4269 28.2224 24.418 28.0465 24.418C27.389 24.4179 26.7598 24.5414 26.1797 24.7646Z" fill="#FFDA44"/>
</g>
<defs>
<clipPath id="clip0_2743_1542">
<rect x="0.394531" y="0.417969" width="48" height="48" rx="24" fill="white"/>
</clipPath>
</defs>
</svg>
