<svg width="49" height="49" viewBox="0 0 49 49" fill="none" xmlns="http://www.w3.org/2000/svg">
<g clip-path="url(#clip0_2743_1551)">
<path d="M46.0125 13.9832C42.1305 5.95531 33.909 0.417969 24.394 0.417969C14.8789 0.417969 6.65739 5.95531 2.77539 13.9832L24.394 16.0702L46.0125 13.9832Z" fill="#D80027"/>
<path d="M2.77539 34.8526C6.65739 42.8805 14.8789 48.4178 24.394 48.4178C33.909 48.4178 42.1305 42.8805 46.0125 34.8526L24.394 32.7656L2.77539 34.8526Z" fill="#D80027"/>
<path d="M46.0131 13.9824H2.77597C1.25028 17.1376 0.394531 20.6774 0.394531 24.4172C0.394531 28.157 1.25028 31.6968 2.77597 34.8519H46.013C47.5389 31.6968 48.3945 28.157 48.3945 24.4172C48.3945 20.6774 47.5389 17.1376 46.0131 13.9824Z" fill="#0052B4"/>
<path d="M24.3947 32.7659C29.005 32.7659 32.7424 29.0284 32.7424 24.4181C32.7424 19.8077 29.005 16.0703 24.3947 16.0703C19.7843 16.0703 16.0469 19.8077 16.0469 24.4181C16.0469 29.0284 19.7843 32.7659 24.3947 32.7659Z" fill="#F0F0F0"/>
</g>
<defs>
<clipPath id="clip0_2743_1551">
<rect x="0.394531" y="0.417969" width="48" height="48" rx="24" fill="white"/>
</clipPath>
</defs>
</svg>
