<svg width="49" height="49" viewBox="0 0 49 49" fill="none" xmlns="http://www.w3.org/2000/svg">
<g clip-path="url(#clip0_2743_1557)">
<path d="M24.3945 48.418C37.6494 48.418 48.3945 37.6728 48.3945 24.418C48.3945 11.1631 37.6494 0.417969 24.3945 0.417969C11.1397 0.417969 0.394531 11.1631 0.394531 24.418C0.394531 37.6728 11.1397 48.418 24.3945 48.418Z" fill="#F0F0F0"/>
<path d="M24.3939 0.417969C13.3053 0.417969 3.9747 7.93869 1.2207 18.1571H47.5672C44.8131 7.93869 35.4826 0.417969 24.3939 0.417969Z" fill="#A2001D"/>
<path d="M24.3939 48.4188C35.4826 48.4188 44.8131 40.8981 47.5671 30.6797H1.2207C3.9747 40.898 13.3053 48.4188 24.3939 48.4188Z" fill="#A2001D"/>
</g>
<defs>
<clipPath id="clip0_2743_1557">
<rect x="0.394531" y="0.417969" width="48" height="48" rx="24" fill="white"/>
</clipPath>
</defs>
</svg>
