<svg width="49" height="49" viewBox="0 0 49 49" fill="none" xmlns="http://www.w3.org/2000/svg">
<g clip-path="url(#clip0_2743_1562)">
<path d="M24.3945 48.418C37.6494 48.418 48.3945 37.6728 48.3945 24.418C48.3945 11.1631 37.6494 0.417969 24.3945 0.417969C11.1397 0.417969 0.394531 11.1631 0.394531 24.418C0.394531 37.6728 11.1397 48.418 24.3945 48.418Z" fill="#F0F0F0"/>
<path d="M24.394 0.417969C14.8789 0.417969 6.65739 5.95531 2.77539 13.9832H46.0124C42.1305 5.95531 33.9089 0.417969 24.394 0.417969Z" fill="#D80027"/>
<path d="M24.394 48.4188C33.9089 48.4188 42.1305 42.8814 46.0125 34.8535H2.77539C6.65739 42.8814 14.8789 48.4188 24.394 48.4188Z" fill="#D80027"/>
<path d="M30.6546 28.5916L24.3937 17.1133L18.1328 28.5916H22.8285V31.722H25.959V28.5916H30.6546Z" fill="#6DA544"/>
</g>
<defs>
<clipPath id="clip0_2743_1562">
<rect x="0.394531" y="0.417969" width="48" height="48" rx="24" fill="white"/>
</clipPath>
</defs>
</svg>
