<svg width="49" height="49" viewBox="0 0 49 49" fill="none" xmlns="http://www.w3.org/2000/svg">
<g clip-path="url(#clip0_2743_1568)">
<path d="M0.394531 24.4177C0.394531 28.1574 1.25019 31.6972 2.77597 34.8525L24.3945 35.896L46.0131 34.8526C47.5389 31.6972 48.3945 28.1574 48.3945 24.4177C48.3945 20.678 47.5389 17.1382 46.0131 13.983L24.3945 12.9395L2.77597 13.9829C1.25019 17.1382 0.394531 20.678 0.394531 24.4177H0.394531Z" fill="#F0F0F0"/>
<path d="M24.394 48.4188C33.9089 48.4188 42.1305 42.8814 46.0125 34.8535H2.77539C6.65739 42.8814 14.8789 48.4188 24.394 48.4188Z" fill="#6DA544"/>
<path d="M24.394 0.417969C14.8789 0.417969 6.65739 5.95531 2.77539 13.9832H46.0124C42.1305 5.95531 33.9089 0.417969 24.394 0.417969Z" fill="#0052B4"/>
<path d="M25.9602 23.8953V18.1562H22.8298V23.8953L19.0488 27.6764C20.1484 29.4764 22.1313 30.678 24.395 30.678C26.6587 30.678 28.6415 29.4764 29.7412 27.6764L25.9602 23.8953Z" fill="black"/>
</g>
<defs>
<clipPath id="clip0_2743_1568">
<rect x="0.394531" y="0.417969" width="48" height="48" rx="24" fill="white"/>
</clipPath>
</defs>
</svg>
