<svg width="49" height="49" viewBox="0 0 49 49" fill="none" xmlns="http://www.w3.org/2000/svg">
<g clip-path="url(#clip0_2743_1573)">
<path d="M24.3945 48.418C37.6494 48.418 48.3945 37.6728 48.3945 24.418C48.3945 11.1631 37.6494 0.417969 24.3945 0.417969C11.1397 0.417969 0.394531 11.1631 0.394531 24.418C0.394531 37.6728 11.1397 48.418 24.3945 48.418Z" fill="#F0F0F0"/>
<path d="M5.88086 9.14484H42.9091C41.5415 7.48875 39.9552 6.02016 38.1956 4.78125H10.5943C8.83473 6.01997 7.24858 7.48866 5.88086 9.14484Z" fill="#F0F0F0"/>
<path d="M0.394531 24.4181C0.394531 25.1537 0.4295 25.881 0.494281 26.5999H48.2948C48.3596 25.881 48.3945 25.1537 48.3945 24.4181C48.3945 23.6824 48.3596 22.9551 48.2948 22.2363H0.494281C0.4295 22.9551 0.394531 23.6824 0.394531 24.4181H0.394531Z" fill="#F0F0F0"/>
<path d="M3.0122 35.3264H45.778C46.4846 33.944 47.061 32.4842 47.4913 30.9629H1.29883C1.72905 32.4842 2.30561 33.944 3.0122 35.3264Z" fill="#F0F0F0"/>
<path d="M10.5943 44.055H38.1955C39.9551 42.8161 41.5414 41.3475 42.909 39.6914H5.88086C7.24858 41.3473 8.83473 42.8161 10.5943 44.055Z" fill="#F0F0F0"/>
<path d="M1.29883 17.8734H47.4915C47.0612 16.352 46.4847 14.8921 45.778 13.5098H3.0123C2.3057 14.8921 1.72914 16.352 1.29883 17.8734Z" fill="#F0F0F0"/>
<path d="M11.873 4.78156H38.1954C34.2917 2.033 29.532 0.417969 24.3948 0.417969C21.2644 0.417969 15.7768 2.033 11.873 4.78156Z" fill="#D80027"/>
<path d="M23.3516 13.5081H45.7779C44.9798 11.9469 44.0158 10.4845 42.9091 9.14453H23.3516V13.5081Z" fill="#D80027"/>
<path d="M23.3516 22.2366H48.2952C48.1603 20.7383 47.8889 19.2792 47.4913 17.873H23.3516V22.2366Z" fill="#D80027"/>
<path d="M1.29814 30.9632H47.4906C47.8883 29.5571 48.1596 28.0979 48.2946 26.5996H0.494141C0.629141 28.0979 0.900453 29.557 1.29814 30.9632Z" fill="#D80027"/>
<path d="M5.88047 39.6898H42.9087C44.0154 38.3496 44.9794 36.8873 45.7775 35.3262H3.01172C3.80981 36.8874 4.77375 38.3498 5.88047 39.6898Z" fill="#D80027"/>
<path d="M24.3944 48.4183C29.5316 48.4183 34.2913 46.8033 38.1951 44.0547H10.5938C14.4975 46.8033 19.2572 48.4183 24.3944 48.4183Z" fill="#D80027"/>
<path d="M1.29805 17.8725C0.900359 19.2788 0.629141 20.7378 0.494141 22.2361H24.3944V0.417969C13.4088 0.417969 4.1473 7.79909 1.29805 17.8725Z" fill="#0052B4"/>
<path d="M14.6807 6.67969L16.2346 11.4623H21.2639L17.1953 14.4185L18.7492 19.2014L14.6807 16.2455L10.612 19.2014L12.1662 14.4185L8.09766 11.4623H13.1267L14.6807 6.67969Z" fill="#F0F0F0"/>
</g>
<defs>
<clipPath id="clip0_2743_1573">
<rect x="0.394531" y="0.417969" width="48" height="48" rx="24" fill="white"/>
</clipPath>
</defs>
</svg>
