<svg width="49" height="49" viewBox="0 0 49 49" fill="none" xmlns="http://www.w3.org/2000/svg">
<g clip-path="url(#clip0_2743_1590)">
<path d="M2.77597 13.9835C1.25028 17.1387 0.394531 20.6784 0.394531 24.4182C0.394531 28.158 1.25028 31.6977 2.77597 34.853L24.3945 36.9399L46.0131 34.853C47.5388 31.6977 48.3945 28.158 48.3945 24.4182C48.3945 20.6784 47.5388 17.1387 46.0131 13.9835L24.3945 11.8965L2.77597 13.9835Z" fill="black"/>
<path d="M2.77734 34.8535C6.65916 42.8814 14.88 48.4188 24.3951 48.4188C33.91 48.4188 42.131 42.8814 46.0128 34.8535H2.77734Z" fill="#496E2D"/>
<path d="M2.77734 13.9832H46.0128C42.131 5.95531 33.91 0.417969 24.3951 0.417969C14.88 0.417969 6.65916 5.95531 2.77734 13.9832Z" fill="#D80027"/>
<path d="M29.9804 20.0293L31.9495 22.7429L35.1386 21.7088L33.1663 24.4201L35.1353 27.1336L31.9474 26.0956L29.9751 28.8068L29.9771 25.4542L26.7891 24.4162L29.9782 23.3822L29.9804 20.0293Z" fill="#F0F0F0"/>
<path d="M24.6069 31.2008C20.861 31.2008 17.8242 28.1641 17.8242 24.4182C17.8242 20.6723 20.861 17.6356 24.6069 17.6356C25.7748 17.6356 26.8738 17.9309 27.8333 18.4508C26.328 16.9788 24.2696 16.0703 21.9982 16.0703C17.3877 16.0703 13.6504 19.8078 13.6504 24.4181C13.6504 29.0284 17.3878 32.7659 21.9982 32.7659C24.2697 32.7659 26.3281 31.8573 27.8333 30.3854C26.8737 30.9055 25.7749 31.2008 24.6069 31.2008Z" fill="#F0F0F0"/>
</g>
<defs>
<clipPath id="clip0_2743_1590">
<rect x="0.394531" y="0.417969" width="48" height="48" rx="24" fill="white"/>
</clipPath>
</defs>
</svg>
