<svg width="49" height="49" viewBox="0 0 49 49" fill="none" xmlns="http://www.w3.org/2000/svg">
<g clip-path="url(#clip0_2743_1597)">
<path d="M48.3945 24.4175C48.3945 37.6723 37.6493 48.4175 24.3945 48.4175C11.1398 48.4175 0.394531 37.6723 0.394531 24.4175C1.43797 24.4175 24.3945 21.2871 24.3945 21.2871L48.3945 24.4175Z" fill="#D80027"/>
<path d="M0.394531 24.418C0.394531 11.1632 11.1398 0.417969 24.3945 0.417969C37.6493 0.417969 48.3945 11.1632 48.3945 24.418" fill="#0052B4"/>
<path d="M18.133 17.1129C18.133 15.3841 16.7315 13.9825 15.0026 13.9825C14.2006 13.9825 13.4696 14.2844 12.9157 14.7802V12.939H13.9591V10.852H12.9157V9.80859H10.8287V10.852H9.78527V12.939H10.8287V14.7802C10.2747 14.2844 9.54377 13.9825 8.74173 13.9825C7.01289 13.9825 5.61133 15.3841 5.61133 17.1129C5.61133 18.0398 6.01455 18.8723 6.65477 19.4456V21.2869H17.0895V19.4456C17.7299 18.8723 18.133 18.0398 18.133 17.1129Z" fill="#FFDA44"/>
</g>
<defs>
<clipPath id="clip0_2743_1597">
<rect x="0.394531" y="0.417969" width="48" height="48" rx="24" fill="white"/>
</clipPath>
</defs>
</svg>
