<svg width="49" height="49" viewBox="0 0 49 49" fill="none" xmlns="http://www.w3.org/2000/svg">
<g clip-path="url(#clip0_2743_1609)">
<path d="M24.3945 48.418C37.6494 48.418 48.3945 37.6728 48.3945 24.418C48.3945 11.1631 37.6494 0.417969 24.3945 0.417969C11.1397 0.417969 0.394531 11.1631 0.394531 24.418C0.394531 37.6728 11.1397 48.418 24.3945 48.418Z" fill="#496E2D"/>
<path d="M28.569 23.4163C27.9798 23.4163 27.4205 23.5338 26.9012 23.7207C27.1857 23.0866 27.3765 22.381 27.3765 21.6275C27.3765 18.6462 24.3951 16.4102 24.3951 16.4102C24.3951 16.4102 21.4138 18.6462 21.4138 21.6275C21.4138 22.3809 21.6046 23.0866 21.8891 23.7207C21.3696 23.5339 20.8103 23.4163 20.2213 23.4163C17.2399 23.4163 15.0039 26.3976 15.0039 26.3976C15.0039 26.3976 17.2399 29.3791 20.2213 29.3791C21.9692 29.3791 23.4601 28.3546 24.3952 27.5065C25.3304 28.3545 26.8212 29.3791 28.5692 29.3791C31.5505 29.3791 33.7865 26.3976 33.7865 26.3976C33.7865 26.3976 31.5503 23.4163 28.569 23.4163Z" fill="#F0F0F0"/>
<path d="M24.3958 9.80859L25.0116 11.7038H27.0045L25.3925 12.8753L26.0078 14.7706L24.3958 13.5991L22.7838 14.7706L23.3991 12.8753L21.7871 11.7038H23.78L24.3958 9.80859Z" fill="#FFDA44"/>
<path d="M16.8167 13.123L18.0015 14.1897L19.3822 13.3927L18.7338 14.8491L19.9185 15.916L18.333 15.7493L17.6847 17.2057L17.353 15.6463L15.7676 15.4796L17.1481 14.6824L16.8167 13.123Z" fill="#FFDA44"/>
<path d="M11.2695 18.6703L12.829 19.0018L13.6261 17.6211L13.7928 19.2065L15.3521 19.5382L13.8958 20.1867L14.0624 21.772L12.9955 20.5874L11.5392 21.2358L12.3363 19.8551L11.2695 18.6703Z" fill="#FFDA44"/>
<path d="M31.9728 13.123L30.7881 14.1897L29.4074 13.3927L30.0557 14.8491L28.8711 15.916L30.4566 15.7493L31.105 17.2057L31.4367 15.6463L33.0221 15.4796L31.6415 14.6824L31.9728 13.123Z" fill="#FFDA44"/>
<path d="M37.52 18.6703L35.9606 19.0018L35.1635 17.6211L34.9968 19.2065L33.4375 19.5382L34.8938 20.1867L34.7271 21.772L35.7941 20.5874L37.2504 21.2358L36.4532 19.8551L37.52 18.6703Z" fill="#FFDA44"/>
<path d="M24.3939 37.727C26.7621 37.727 28.945 36.9369 30.696 35.6074H18.0918C19.8429 36.9368 22.0256 37.727 24.3939 37.727Z" fill="#F0F0F0"/>
<path d="M14.8281 31.4668C15.1593 32.2249 15.5793 32.9348 16.0727 33.5864H32.715C33.2083 32.9349 33.6283 32.2249 33.9595 31.4668H14.8281Z" fill="#F0F0F0"/>
</g>
<defs>
<clipPath id="clip0_2743_1609">
<rect x="0.394531" y="0.417969" width="48" height="48" rx="24" fill="white"/>
</clipPath>
</defs>
</svg>
