<svg width="49" height="49" viewBox="0 0 49 49" fill="none" xmlns="http://www.w3.org/2000/svg">
<g clip-path="url(#clip0_2743_1621)">
<path d="M24.3945 48.418C37.6494 48.418 48.3945 37.6728 48.3945 24.418C48.3945 11.1631 37.6494 0.417969 24.3945 0.417969C11.1397 0.417969 0.394531 11.1631 0.394531 24.418C0.394531 37.6728 11.1397 48.418 24.3945 48.418Z" fill="#F0F0F0"/>
<path d="M16.0469 24.4183V46.9256C18.6467 47.8903 21.459 48.4183 24.3947 48.4183C37.6494 48.4183 48.3947 37.6731 48.3947 24.4183C48.3947 11.1636 16.0469 24.4183 16.0469 24.4183Z" fill="#6DA544"/>
<path d="M24.3947 0.417969C21.459 0.417969 18.6467 0.946063 16.0469 1.91075V24.418H48.3947C48.3947 11.1632 37.6494 0.417969 24.3947 0.417969Z" fill="#D80027"/>
</g>
<defs>
<clipPath id="clip0_2743_1621">
<rect x="0.394531" y="0.417969" width="48" height="48" rx="24" fill="white"/>
</clipPath>
</defs>
</svg>
