<svg width="49" height="49" viewBox="0 0 49 49" fill="none" xmlns="http://www.w3.org/2000/svg">
<g clip-path="url(#clip0_2743_1625)">
<path d="M34.8295 2.79941C31.6743 1.27372 28.1345 0.417969 24.3948 0.417969C20.655 0.417969 17.1153 1.27372 13.96 2.79941L11.873 24.418L13.96 46.0365C17.1153 47.5622 20.655 48.418 24.3948 48.418C28.1345 48.418 31.6743 47.5622 34.8295 46.0365L36.9165 24.418L34.8295 2.79941Z" fill="#FFDA44"/>
<path d="M13.9598 2.80078C5.93188 6.68269 0.394531 14.9035 0.394531 24.4185C0.394531 33.9335 5.93188 42.1543 13.9598 46.0362V2.80078Z" fill="#0052B4"/>
<path d="M34.8301 2.80078V46.0362C42.8579 42.1543 48.3953 33.9335 48.3953 24.4185C48.3953 14.9035 42.8579 6.68269 34.8301 2.80078Z" fill="#0052B4"/>
<path d="M31.1773 26.5051L32.7424 28.592V20.2442L31.1773 22.3311H26.4816V17.6355L28.5686 16.0703H20.2207L22.3077 17.6355V22.3311H17.612L16.0469 20.2442V28.592L17.612 26.5051H22.3077V31.2007L20.2207 32.7659H28.5686L26.4816 31.2007V26.5051H31.1773Z" fill="#D80027"/>
<path d="M30.6546 23.3737H25.4372V18.1562H23.3503V23.3737H18.1328V25.4606H23.3503V30.6781H25.4372V25.4606H30.6546V23.3737Z" fill="#F0F0F0"/>
</g>
<defs>
<clipPath id="clip0_2743_1625">
<rect x="0.394531" y="0.417969" width="48" height="48" rx="24" fill="white"/>
</clipPath>
</defs>
</svg>
