<svg width="49" height="49" viewBox="0 0 49 49" fill="none" xmlns="http://www.w3.org/2000/svg">
<g clip-path="url(#clip0_2743_1637)">
<path d="M24.3945 48.418C37.6494 48.418 48.3945 37.6728 48.3945 24.418C48.3945 11.1631 37.6494 0.417969 24.3945 0.417969C11.1397 0.417969 0.394531 11.1631 0.394531 24.418C0.394531 37.6728 11.1397 48.418 24.3945 48.418Z" fill="#F0F0F0"/>
<path d="M23.3496 24.4172H48.393C48.393 22.2509 48.1043 20.1526 47.5663 18.1562H23.3496V24.4172Z" fill="#D80027"/>
<path d="M23.3496 11.8957H44.8705C43.4013 9.4983 41.523 7.37927 39.3328 5.63477H23.3496V11.8957Z" fill="#D80027"/>
<path d="M24.3948 48.4166C30.0431 48.4166 35.2347 46.4643 39.3345 43.1992H9.45508C13.5549 46.4643 18.7465 48.4166 24.3948 48.4166Z" fill="#D80027"/>
<path d="M3.91648 36.9386H44.8714C46.0508 35.0141 46.9655 32.9103 47.5671 30.6777H1.2207C1.8223 32.9103 2.73702 35.0141 3.91648 36.9386Z" fill="#D80027"/>
<path d="M24.3945 24.418C24.3945 11.1632 24.3945 9.60059 24.3945 0.417969C11.1398 0.417969 0.394531 11.1632 0.394531 24.418H24.3945Z" fill="#0052B4"/>
<path d="M16.3545 20.9617C13.0769 20.9617 10.4198 18.3045 10.4198 15.0269C10.4198 11.7493 13.077 9.09216 16.3545 9.09216C17.3765 9.09216 18.3381 9.35062 19.1776 9.8055C17.8606 8.51766 16.0595 7.72266 14.0719 7.72266C10.038 7.72266 6.76758 10.9929 6.76758 15.027C6.76758 19.0611 10.038 22.3313 14.0719 22.3313C16.0595 22.3313 17.8606 21.5363 19.1776 20.2485C18.3381 20.7032 17.3766 20.9617 16.3545 20.9617Z" fill="#FFDA44"/>
<path d="M18.0275 10.8535L19.0811 13.0568L21.4606 12.5071L20.395 14.7045L22.3087 16.222L19.9261 16.7591L19.9328 19.2014L18.0275 17.6735L16.1221 19.2014L16.1287 16.7591L13.7461 16.222L15.6597 14.7045L14.5941 12.5071L16.9737 13.0568L18.0275 10.8535Z" fill="#FFDA44"/>
</g>
<defs>
<clipPath id="clip0_2743_1637">
<rect x="0.394531" y="0.417969" width="48" height="48" rx="24" fill="white"/>
</clipPath>
</defs>
</svg>
