<svg width="49" height="49" viewBox="0 0 49 49" fill="none" xmlns="http://www.w3.org/2000/svg">
<g clip-path="url(#clip0_2743_1648)">
<path d="M24.3945 48.418C37.6494 48.418 48.3945 37.6728 48.3945 24.418C48.3945 11.1631 37.6494 0.417969 24.3945 0.417969C11.1397 0.417969 0.394531 11.1631 0.394531 24.418C0.394531 37.6728 11.1397 48.418 24.3945 48.418Z" fill="#D80027"/>
<path d="M8.74219 12.9395H40.0465V35.896H8.74219V12.9395Z" fill="#6DA544"/>
<path d="M28.2592 31.2008C24.5133 31.2008 21.4766 28.1641 21.4766 24.4182C21.4766 20.6723 24.5133 17.6356 28.2592 17.6356C29.4271 17.6356 30.5262 17.9309 31.4856 18.4508C29.9805 16.9788 27.9222 16.0703 25.6505 16.0703C21.0403 16.0703 17.3027 19.8078 17.3027 24.4181C17.3027 29.0284 21.0403 32.7659 25.6505 32.7659C27.9222 32.7659 29.9805 31.8573 31.4856 30.3854C30.5262 30.9055 29.4271 31.2008 28.2592 31.2008Z" fill="#F0F0F0"/>
</g>
<defs>
<clipPath id="clip0_2743_1648">
<rect x="0.394531" y="0.417969" width="48" height="48" rx="24" fill="white"/>
</clipPath>
</defs>
</svg>
