<svg width="49" height="49" viewBox="0 0 49 49" fill="none" xmlns="http://www.w3.org/2000/svg">
<g clip-path="url(#clip0_2743_1652)">
<path d="M32.7415 1.91075C30.1415 0.946063 27.3294 0.417969 24.3937 0.417969C21.458 0.417969 18.6459 0.946063 16.046 1.91075L13.959 24.418L16.046 46.9252C18.6459 47.89 21.458 48.418 24.3937 48.418C27.3294 48.418 30.1415 47.89 32.7415 46.9252L34.8285 24.418L32.7415 1.91075Z" fill="#FFDA44"/>
<path d="M48.3944 24.4173C48.3944 14.0982 41.8814 5.30109 32.7422 1.91016V46.9247C41.8814 43.5335 48.3944 34.7365 48.3944 24.4173Z" fill="#D80027"/>
<path d="M0.394531 24.4173C0.394531 34.7365 6.90753 43.5335 16.0468 46.9246V1.91016C6.90753 5.30109 0.394531 14.0982 0.394531 24.4173Z" fill="#6DA544"/>
</g>
<defs>
<clipPath id="clip0_2743_1652">
<rect x="0.394531" y="0.417969" width="48" height="48" rx="24" fill="white"/>
</clipPath>
</defs>
</svg>
