<svg width="49" height="49" viewBox="0 0 49 49" fill="none" xmlns="http://www.w3.org/2000/svg">
<g clip-path="url(#clip0_2743_1660)">
<path d="M24.3945 48.418C37.6493 48.418 48.3945 37.6727 48.3945 24.418C48.3945 20.3902 47.4008 16.5949 45.6475 13.2617L24.3663 24.4461L35.5508 3.16503C32.2176 1.41172 28.4223 0.417969 24.3945 0.417969C11.1398 0.417969 0.394531 11.1632 0.394531 24.418C0.394531 31.0454 3.08084 37.0454 7.42391 41.3886C11.7671 45.7318 17.7671 48.418 24.3945 48.418Z" fill="#0052B4"/>
<path d="M45.6228 13.2888C44.5242 11.1978 43.0959 9.23453 41.3377 7.47634C39.5795 5.71816 37.6165 4.28988 35.5253 3.19141L7.39648 41.4175L45.6228 13.2888Z" fill="#F0F0F0"/>
<path d="M7.39648 41.4158L45.6228 13.287C44.5242 11.196 43.0959 9.2328 41.3377 7.47461L7.39648 41.4158Z" fill="#FF9811"/>
<path d="M21.2352 14.4918L18.3042 15.8705L19.8651 18.7093L16.6823 18.1004L16.279 21.3156L14.062 18.9508L11.845 21.3156L11.4418 18.1004L8.25902 18.7091L9.81967 15.8704L6.88867 14.4918L9.81977 13.1131L8.25902 10.2745L11.4416 10.8832L11.845 7.66797L14.062 10.0328L16.279 7.66797L16.6823 10.8832L19.8652 10.2745L18.3043 13.1132L21.2352 14.4918Z" fill="#F0F0F0"/>
</g>
<defs>
<clipPath id="clip0_2743_1660">
<rect x="0.394531" y="0.417969" width="48" height="48" rx="24" fill="white"/>
</clipPath>
</defs>
</svg>
