<svg width="49" height="49" viewBox="0 0 49 49" fill="none" xmlns="http://www.w3.org/2000/svg">
<g clip-path="url(#clip0_2743_1665)">
<path d="M24.3945 48.418C37.6494 48.418 48.3945 37.6728 48.3945 24.418C48.3945 11.1631 37.6494 0.417969 24.3945 0.417969C11.1397 0.417969 0.394531 11.1631 0.394531 24.418C0.394531 37.6728 11.1397 48.418 24.3945 48.418Z" fill="#F0F0F0"/>
<path d="M48.1893 21.287C47.5272 16.2258 45.2538 11.3352 41.3655 7.44692C37.4772 3.55864 32.5866 1.28511 27.5254 0.623047L27.5255 21.287H48.1893Z" fill="#0052B4"/>
<path d="M21.2635 0.623047C16.2023 1.28511 11.3117 3.55855 7.42339 7.44683C3.5352 11.3352 1.26167 16.2259 0.599609 21.2871L21.2636 21.287L21.2635 0.623047Z" fill="#0052B4"/>
<path d="M0.599609 27.5488C1.26167 32.61 3.5352 37.5008 7.42339 41.389C11.3117 45.2771 16.2022 47.5506 21.2636 48.2129L21.2635 27.549L0.599609 27.5488Z" fill="#0052B4"/>
<path d="M27.5254 48.2126C32.5866 47.5506 37.4771 45.2771 41.3654 41.3889C45.2537 37.5006 47.5271 32.61 48.1892 27.5488H27.5254V48.2126Z" fill="#0052B4"/>
<path d="M32.5886 15.6474C32.5886 15.3283 32.848 15.0689 33.1672 15.0689H34.407C36.3667 15.0689 37.9612 13.4745 37.9612 11.5149C37.9612 9.55523 36.3668 7.96083 34.407 7.96083H33.2297C32.8454 7.67217 32.3299 7.49414 31.7612 7.49414C30.575 7.49414 29.6134 8.26336 29.6134 9.2123C29.6134 10.152 30.5566 10.9144 31.727 10.9292L31.7264 10.9361H34.407C34.7262 10.9361 34.9856 11.1956 34.9856 11.5147C34.9856 11.8338 34.7262 12.0932 34.407 12.0932H33.1672C31.2075 12.0932 29.6133 13.6875 29.6133 15.6472C29.6133 17.6069 31.2074 19.2013 33.1672 19.2013H37.9611V16.2258H33.1672C32.848 16.2259 32.5886 15.9665 32.5886 15.6474Z" fill="#F0F0F0"/>
<path d="M13.8053 15.6474C13.8053 15.3283 14.0647 15.0689 14.384 15.0689H15.6237C17.5835 15.0689 19.1779 13.4745 19.1779 11.5149C19.1779 9.55523 17.5835 7.96083 15.6237 7.96083H14.4464C14.0621 7.67217 13.5466 7.49414 12.9779 7.49414C11.7917 7.49414 10.8301 8.26336 10.8301 9.2123C10.8301 10.152 11.7733 10.9144 12.9437 10.9292L12.9431 10.9361H15.6238C15.943 10.9361 16.2024 11.1956 16.2024 11.5147C16.2024 11.8338 15.943 12.0932 15.6238 12.0932H14.384C12.4243 12.0932 10.8301 13.6875 10.8301 15.6472C10.8301 17.6069 12.4242 19.2013 14.384 19.2013H19.1778V16.2258H14.384C14.0647 16.2259 13.8053 15.9665 13.8053 15.6474Z" fill="#F0F0F0"/>
<path d="M32.5887 37.79C32.5887 37.4708 32.8481 37.2114 33.1673 37.2114H34.4071C36.3668 37.2114 37.9613 35.6171 37.9613 33.6575C37.9613 31.6978 36.3669 30.1034 34.4071 30.1034H33.2298C32.8455 29.8147 32.33 29.6367 31.7613 29.6367C30.575 29.6367 29.6134 30.406 29.6134 31.3549C29.6134 32.2946 30.5566 33.057 31.727 33.0718L31.7264 33.0787H34.407C34.7262 33.0787 34.9856 33.3382 34.9856 33.6573C34.9856 33.9764 34.7262 34.2358 34.407 34.2358H33.1672C31.2075 34.2358 29.6133 35.8301 29.6133 37.7898C29.6133 39.7494 31.2074 41.3438 33.1672 41.3438H37.9612V38.3685H33.1673C32.8481 38.3686 32.5887 38.109 32.5887 37.79Z" fill="#F0F0F0"/>
<path d="M13.8054 37.79C13.8054 37.4708 14.0648 37.2114 14.384 37.2114H15.6238C17.5835 37.2114 19.178 35.6171 19.178 33.6575C19.178 31.6978 17.5836 30.1034 15.6238 30.1034H14.4465C14.0622 29.8147 13.5467 29.6367 12.978 29.6367C11.7917 29.6367 10.8301 30.406 10.8301 31.3549C10.8301 32.2946 11.7733 33.057 12.9437 33.0718L12.9431 33.0787H15.6238C15.943 33.0787 16.2024 33.3382 16.2024 33.6573C16.2024 33.9764 15.943 34.2358 15.6238 34.2358H14.384C12.4243 34.2358 10.8301 35.8301 10.8301 37.7898C10.8301 39.7494 12.4242 41.3438 14.384 41.3438H19.1779V38.3685H14.384C14.0648 38.3686 13.8054 38.109 13.8054 37.79Z" fill="#F0F0F0"/>
</g>
<defs>
<clipPath id="clip0_2743_1665">
<rect x="0.394531" y="0.417969" width="48" height="48" rx="24" fill="white"/>
</clipPath>
</defs>
</svg>
