<svg width="49" height="49" viewBox="0 0 49 49" fill="none" xmlns="http://www.w3.org/2000/svg">
<g clip-path="url(#clip0_2743_1677)">
<path d="M24.3945 48.418C37.6494 48.418 48.3945 37.6728 48.3945 24.418C48.3945 11.1631 37.6494 0.417969 24.3945 0.417969C11.1397 0.417969 0.394531 11.1631 0.394531 24.418C0.394531 37.6728 11.1397 48.418 24.3945 48.418Z" fill="#496E2D"/>
<path d="M24.3947 28.1451C20.3985 28.1451 17.06 25.3365 16.2409 21.586C16.1151 22.1626 16.0469 22.7604 16.0469 23.3749C16.0469 27.9854 19.7842 31.7227 24.3947 31.7227C29.0051 31.7227 32.7424 27.9853 32.7424 23.3749C32.7424 22.7604 32.6742 22.1626 32.5484 21.5859C31.7293 25.3366 28.3908 28.1451 24.3947 28.1451Z" fill="#FFDA44"/>
<path d="M24.395 17.1133L25.172 19.5047H27.6866L25.6524 20.9827L26.4294 23.3742L24.395 21.8961L22.3607 23.3742L23.1378 20.9827L21.1035 19.5047H23.618L24.395 17.1133Z" fill="#FFDA44"/>
</g>
<defs>
<clipPath id="clip0_2743_1677">
<rect x="0.394531" y="0.417969" width="48" height="48" rx="24" fill="white"/>
</clipPath>
</defs>
</svg>
