<svg width="49" height="49" viewBox="0 0 49 49" fill="none" xmlns="http://www.w3.org/2000/svg">
<g clip-path="url(#clip0_2743_1682)">
<path d="M3.3125 12.9397L24.3943 15.0267L45.4762 12.9397C41.4057 5.47944 33.4914 0.417969 24.3943 0.417969C15.2973 0.417969 7.38303 5.47944 3.3125 12.9397Z" fill="#D80027"/>
<path d="M3.31269 35.8953L24.3945 37.9823L45.4764 35.8953C47.3368 32.4855 48.3945 28.5749 48.3945 24.417L24.3945 22.3301L0.394531 24.417C0.394531 28.5749 1.45231 32.4855 3.31269 35.8953Z" fill="#FFDA44"/>
<path d="M3.31269 12.9395C1.45231 16.3492 0.394531 20.2599 0.394531 24.4177H48.3945C48.3945 20.2599 47.3368 16.3492 45.4764 12.9395H24.3945H3.31269Z" fill="#0052B4"/>
<path d="M24.3943 48.4182C33.4914 48.4182 41.4057 43.3567 45.4762 35.8965H3.3125C7.38303 43.3567 15.2973 48.4182 24.3943 48.4182Z" fill="#6DA544"/>
</g>
<defs>
<clipPath id="clip0_2743_1682">
<rect x="0.394531" y="0.417969" width="48" height="48" rx="24" fill="white"/>
</clipPath>
</defs>
</svg>
