<svg width="49" height="49" viewBox="0 0 49 49" fill="none" xmlns="http://www.w3.org/2000/svg">
<g clip-path="url(#clip0_2743_1687)">
<path d="M24.3945 48.418C37.6494 48.418 48.3945 37.6728 48.3945 24.418C48.3945 11.1631 37.6494 0.417969 24.3945 0.417969C11.1397 0.417969 0.394531 11.1631 0.394531 24.418C0.394531 37.6728 11.1397 48.418 24.3945 48.418Z" fill="#338AF3"/>
<path d="M11.873 26.5059H36.9165V29.6363H11.873V26.5059Z" fill="#818085"/>
<path d="M16.0469 17.1135L24.3947 18.1571L32.7424 17.1135V12.1048L29.4033 13.7744L24.3947 8.76562L19.386 13.7744L16.0469 12.1048V17.1135Z" fill="#FFDA44"/>
<path d="M13.9606 32.766H10.8301V27.0268L11.8736 25.4614L10.8301 23.8963V20.2441H13.9606V32.766Z" fill="#F0F0F0"/>
<path d="M37.9606 32.766H34.8301V20.2441H37.9606V23.8962L36.917 25.4877L37.9606 27.027V32.766Z" fill="#F0F0F0"/>
<path d="M10.8301 23.8965H37.9605V27.0269H10.8301V23.8965Z" fill="#ACABB1"/>
<path d="M24.3947 36.9393C19.7916 36.9393 16.0469 33.1944 16.0469 28.5915V17.1133H32.7425V28.5915C32.7424 33.1944 28.9977 36.9393 24.3947 36.9393Z" fill="#F0F0F0"/>
<path d="M24.3951 33.8092C21.5182 33.8092 19.1777 31.4686 19.1777 28.5918V20.2441H29.6125V28.5918C29.6125 31.4686 27.272 33.8092 24.3951 33.8092Z" fill="#0052B4"/>
<path d="M16.0469 17.1133H19.1773V20.2437H16.0469V17.1133Z" fill="#D80027"/>
<path d="M29.6113 17.1133H32.7417V20.2437H29.6113V17.1133Z" fill="#D80027"/>
<path d="M29.6113 23.8965H32.7417V27.0269H29.6113V23.8965Z" fill="#D80027"/>
<path d="M16.0469 23.8965H19.1773V27.0269H16.0469V23.8965Z" fill="#D80027"/>
<path d="M22.8301 17.1133H25.9605V20.2437H22.8301V17.1133Z" fill="#D80027"/>
<path d="M24.3953 33.8085C23.8501 33.8085 23.3244 33.7242 22.8301 33.5684V36.7897C23.3375 36.8865 23.8602 36.939 24.3953 36.939C24.9305 36.939 25.4532 36.8865 25.9606 36.7897V33.5684C25.4662 33.7241 24.9406 33.8085 24.3953 33.8085Z" fill="#D80027"/>
<path d="M19.2463 29.4395L16.748 31.9377C17.1812 32.9239 17.7992 33.8106 18.5587 34.5541L20.7712 32.3416C19.9817 31.5787 19.4316 30.57 19.2463 29.4395Z" fill="#D80027"/>
<path d="M32.0407 31.9377L29.5424 29.4395C29.357 30.5699 28.807 31.5785 28.0176 32.3417L30.2301 34.5542C30.9895 33.8106 31.6075 32.9239 32.0407 31.9377Z" fill="#D80027"/>
</g>
<defs>
<clipPath id="clip0_2743_1687">
<rect x="0.394531" y="0.417969" width="48" height="48" rx="24" fill="white"/>
</clipPath>
</defs>
</svg>
