<svg width="49" height="49" viewBox="0 0 49 49" fill="none" xmlns="http://www.w3.org/2000/svg">
<g clip-path="url(#clip0_2743_1706)">
<path d="M24.3945 48.418C37.6494 48.418 48.3945 37.6728 48.3945 24.418C48.3945 11.1631 37.6494 0.417969 24.3945 0.417969C11.1397 0.417969 0.394531 11.1631 0.394531 24.418C0.394531 37.6728 11.1397 48.418 24.3945 48.418Z" fill="#F0F0F0"/>
<path d="M48.3953 24.4174C48.3953 14.9023 42.858 6.68083 34.8301 2.79883V46.0359C42.858 42.1539 48.3953 33.9325 48.3953 24.4174Z" fill="#D80027"/>
<path d="M0.394531 24.4174C0.394531 33.9324 5.93188 42.1539 13.9598 46.0359V2.79883C5.93188 6.68083 0.394531 14.9023 0.394531 24.4174Z" fill="#6DA544"/>
<path d="M18.1328 24.417C18.1328 27.8748 20.9359 30.678 24.3937 30.678C27.8515 30.678 30.6546 27.8748 30.6546 24.417V22.3301H18.1328V24.417Z" fill="#6DA544"/>
<path d="M32.7426 20.2432H26.4817C26.4817 19.0907 25.5473 18.1562 24.3947 18.1562C23.2422 18.1562 22.3078 19.0907 22.3078 20.2432H16.0469C16.0469 21.3959 17.0508 22.3302 18.2033 22.3302H18.1338C18.1338 23.4828 19.0682 24.4172 20.2208 24.4172C20.2208 25.5698 21.1551 26.5041 22.3078 26.5041H26.4817C27.6344 26.5041 28.5687 25.5698 28.5687 24.4172C29.7213 24.4172 30.6557 23.4828 30.6557 22.3302H30.5861C31.7388 22.3302 32.7426 21.3959 32.7426 20.2432Z" fill="#FF9811"/>
</g>
<defs>
<clipPath id="clip0_2743_1706">
<rect x="0.394531" y="0.417969" width="48" height="48" rx="24" fill="white"/>
</clipPath>
</defs>
</svg>
