<svg width="49" height="49" viewBox="0 0 49 49" fill="none" xmlns="http://www.w3.org/2000/svg">
<g clip-path="url(#clip0_2743_1713)">
<path d="M24.3945 48.418C37.6494 48.418 48.3945 37.6728 48.3945 24.418C48.3945 11.1631 37.6494 0.417969 24.3945 0.417969C11.1397 0.417969 0.394531 11.1631 0.394531 24.418C0.394531 37.6728 11.1397 48.418 24.3945 48.418Z" fill="#338AF3"/>
<path d="M24.3946 10.8535L25.4305 14.0421H28.7834L26.071 16.0129L27.107 19.2014L24.3946 17.2308L21.6821 19.2014L22.7183 16.0129L20.0059 14.0421H23.3586L24.3946 10.8535Z" fill="#F0F0F0"/>
<path d="M10.8301 24.4183L14.0187 23.3822V20.0293L15.9894 22.7419L19.178 21.7058L17.2073 24.4183L19.178 27.1305L15.9894 26.0944L14.0187 28.8068V25.4541L10.8301 24.4183Z" fill="#F0F0F0"/>
<path d="M24.3948 37.9846L23.3587 34.796H20.0059L22.7184 32.8252L21.6824 29.6367L24.3948 31.6073L27.107 29.6367L26.0709 32.8252L28.7834 34.796H25.4307L24.3948 37.9846Z" fill="#F0F0F0"/>
<path d="M37.9612 24.418L34.7725 25.454V28.8068L32.8018 26.0944L29.6133 27.1304L31.5839 24.418L29.6133 21.7057L32.8018 22.7419L34.7725 20.0293V23.3821L37.9612 24.418Z" fill="#F0F0F0"/>
</g>
<defs>
<clipPath id="clip0_2743_1713">
<rect x="0.394531" y="0.417969" width="48" height="48" rx="24" fill="white"/>
</clipPath>
</defs>
</svg>
