<svg width="49" height="49" viewBox="0 0 49 49" fill="none" xmlns="http://www.w3.org/2000/svg">
<g clip-path="url(#clip0_2743_1720)">
<path d="M34.8295 2.79941C31.6743 1.27372 28.1345 0.417969 24.3948 0.417969C20.6551 0.417969 17.1153 1.27372 13.96 2.79941L11.873 24.418L13.96 46.0365C17.1153 47.5622 20.6551 48.418 24.3948 48.418C28.1345 48.418 31.6743 47.5622 34.8295 46.0365L36.9165 24.418L34.8295 2.79941Z" fill="#FFDA44"/>
<path d="M13.9598 2.80078C5.93197 6.68269 0.394531 14.9035 0.394531 24.4185C0.394531 33.9335 5.93197 42.1543 13.9598 46.0362V2.80078Z" fill="#0052B4"/>
<path d="M34.8301 2.80078V46.0362C42.8579 42.1543 48.3953 33.9335 48.3953 24.4185C48.3953 14.9035 42.8579 6.68269 34.8301 2.80078Z" fill="#D80027"/>
<path d="M32.7424 19.3001H27.0033C27.0033 17.8593 25.8354 16.6914 24.3947 16.6914C22.9539 16.6914 21.786 17.8593 21.786 19.3001H16.0469C16.0469 20.7186 17.2826 21.8685 18.7009 21.8685H18.6154C18.6154 23.2871 19.7654 24.4371 21.184 24.4371C21.184 25.6931 22.0861 26.7367 23.2774 26.9598L21.2534 31.5294C22.2232 31.9236 23.2832 32.1427 24.3947 32.1427C25.5061 32.1427 26.5661 31.9236 27.5358 31.5294L25.5119 26.9598C26.7032 26.7367 27.6053 25.6931 27.6053 24.4371C29.0239 24.4371 30.1739 23.2871 30.1739 21.8685H30.0883C31.5068 21.8685 32.7424 20.7185 32.7424 19.3001Z" fill="#FF9811"/>
<path d="M24.3952 22.8535L21.0039 24.4188V27.5492L24.3952 29.6361L27.7865 27.5492V24.4188L24.3952 22.8535Z" fill="#0052B4"/>
<path d="M21.0039 21.2871H27.7865V24.4175H21.0039V21.2871Z" fill="#D80027"/>
</g>
<defs>
<clipPath id="clip0_2743_1720">
<rect x="0.394531" y="0.417969" width="48" height="48" rx="24" fill="white"/>
</clipPath>
</defs>
</svg>
