<svg width="49" height="49" viewBox="0 0 49 49" fill="none" xmlns="http://www.w3.org/2000/svg">
<g clip-path="url(#clip0_2743_1730)">
<path d="M24.3952 48.418C27.3309 48.418 30.1431 47.89 32.743 46.9252L33.7865 24.418L32.7431 1.91075C30.1431 0.946063 27.3309 0.417969 24.3952 0.417969C21.4595 0.417969 18.6473 0.946063 16.0474 1.91075L15.0039 24.418L16.0473 46.9252C18.6473 47.89 21.4595 48.418 24.3952 48.418Z" fill="#0052B4"/>
<path d="M0.394531 24.4174C0.394531 34.7365 6.90753 43.5336 16.0468 46.9246V1.91016C6.90753 5.30119 0.394531 14.0982 0.394531 24.4174Z" fill="#A2001D"/>
<path d="M32.7422 1.91016V46.9247C41.8814 43.5336 48.3944 34.7365 48.3944 24.4174C48.3944 14.0982 41.8814 5.30119 32.7422 1.91016Z" fill="#A2001D"/>
<path d="M11.873 24.418H13.96V32.7657H11.873V24.418Z" fill="#FFDA44"/>
<path d="M3.52539 24.418H5.61236V32.7657H3.52539V24.418Z" fill="#FFDA44"/>
<path d="M8.74322 29.6349C9.89582 29.6349 10.8302 28.7005 10.8302 27.5479C10.8302 26.3953 9.89582 25.4609 8.74322 25.4609C7.59062 25.4609 6.65625 26.3953 6.65625 27.5479C6.65625 28.7005 7.59062 29.6349 8.74322 29.6349Z" fill="#FFDA44"/>
<path d="M8.74266 21.288C9.31893 21.288 9.78609 20.8209 9.78609 20.2446C9.78609 19.6683 9.31893 19.2012 8.74266 19.2012C8.16638 19.2012 7.69922 19.6683 7.69922 20.2446C7.69922 20.8209 8.16638 21.288 8.74266 21.288Z" fill="#FFDA44"/>
<path d="M6.65625 30.6777H10.8302V32.7647H6.65625V30.6777Z" fill="#FFDA44"/>
<path d="M6.65625 22.3301H10.8302V24.417H6.65625V22.3301Z" fill="#FFDA44"/>
<path d="M8.74369 12.9395L9.48281 15.2138H11.8742L9.93966 16.6195L10.6782 18.8939L8.74369 17.4882L6.80925 18.8939L7.54781 16.6195L5.61328 15.2138H8.00466L8.74369 12.9395Z" fill="#FFDA44"/>
</g>
<defs>
<clipPath id="clip0_2743_1730">
<rect x="0.394531" y="0.417969" width="48" height="48" rx="24" fill="white"/>
</clipPath>
</defs>
</svg>
