<svg width="49" height="49" viewBox="0 0 49 49" fill="none" xmlns="http://www.w3.org/2000/svg">
<g clip-path="url(#clip0_2743_1743)">
<path d="M24.3945 48.418C37.6494 48.418 48.3945 37.6728 48.3945 24.418C48.3945 11.1631 37.6494 0.417969 24.3945 0.417969C11.1397 0.417969 0.394531 11.1631 0.394531 24.418C0.394531 37.6728 11.1397 48.418 24.3945 48.418Z" fill="#FFDA44"/>
<path d="M48.3945 24.4179C48.3945 16.1809 44.2443 8.91395 37.9214 4.5918H10.8676C4.54484 8.91395 0.394531 16.1809 0.394531 24.4179C0.394531 32.655 4.54484 39.9218 10.8676 44.2439H37.9214C44.2443 39.9218 48.3945 32.655 48.3945 24.4179Z" fill="#A2001D"/>
<path d="M19.1777 18.1573H29.6125V13.9835L27.5255 15.0269L24.3951 11.8965L21.2647 15.0269L19.1777 13.9835V18.1573Z" fill="#FFDA44"/>
<path d="M33.7867 24.4179H28.5713C28.7759 24.0641 28.8948 23.6547 28.8948 23.2167C28.8948 21.8866 27.8165 20.8086 26.4867 20.8086C25.5678 20.8086 24.7698 21.3235 24.3638 22.08C23.9578 21.3234 23.1598 20.8086 22.2409 20.8086C20.9111 20.8086 19.8329 21.8866 19.8329 23.2167C19.8329 23.6547 19.9519 24.0642 20.1563 24.4179H15.0039C15.0039 26.0138 16.3939 27.3074 17.9898 27.3074H17.8936C17.8936 28.6165 18.7642 29.7218 19.9579 30.0768L17.6126 32.4223L19.8261 34.6359L22.9661 31.4959C23.0891 31.541 23.2163 31.577 23.3478 31.6017L21.4505 35.8857C22.3597 36.2554 23.3534 36.4606 24.3954 36.4606C25.4373 36.4606 26.431 36.2554 27.3403 35.8857L25.443 31.6017C25.5744 31.5771 25.7016 31.541 25.8245 31.4959L28.9645 34.6359L31.1779 32.4223L28.8325 30.0769C30.0261 29.7217 30.8969 28.6166 30.8969 27.3075H30.8006C32.3966 27.3074 33.7867 26.0138 33.7867 24.4179Z" fill="#FFDA44"/>
<path d="M24.3952 25.9824L21.0039 27.5476V30.6781L24.3952 32.765L27.7865 30.6781V27.5476L24.3952 25.9824Z" fill="#6DA544"/>
<path d="M21.0039 24.418H27.7865V28.5919H21.0039V24.418Z" fill="#0052B4"/>
</g>
<defs>
<clipPath id="clip0_2743_1743">
<rect x="0.394531" y="0.417969" width="48" height="48" rx="24" fill="white"/>
</clipPath>
</defs>
</svg>
