<svg width="49" height="49" viewBox="0 0 49 49" fill="none" xmlns="http://www.w3.org/2000/svg">
<g clip-path="url(#clip0_2743_1763)">
<path d="M24.3945 48.418C37.6494 48.418 48.3945 37.6728 48.3945 24.418C48.3945 11.1631 37.6494 0.417969 24.3945 0.417969C11.1397 0.417969 0.394531 11.1631 0.394531 24.418C0.394531 37.6728 11.1397 48.418 24.3945 48.418Z" fill="#D80027"/>
<path d="M38.5774 20.1132H27.7424L24.3942 9.80859L21.046 20.1132H10.2109L18.9767 26.4818L15.6284 36.7868L24.3942 30.418L33.16 36.7868L29.8117 26.4819L38.5774 20.1132ZM21.43 25.6847L22.5622 22.2001H26.2261L27.3584 25.6847V25.6848L24.3942 27.8383L21.4301 25.6848L21.43 25.6847ZM25.5481 20.1132H23.2404L24.3942 16.562L25.5481 20.1132ZM29.1335 24.395L28.4204 22.2002H32.1543L29.1335 24.395ZM20.3679 22.2002L19.6547 24.395L16.6338 22.2002H20.3679ZM19.598 31.323L20.7519 27.7718L22.6189 29.1282L19.598 31.323ZM26.1694 29.1283L28.0365 27.7719L29.1903 31.3231L26.1694 29.1283Z" fill="#FFDA44"/>
</g>
<defs>
<clipPath id="clip0_2743_1763">
<rect x="0.394531" y="0.417969" width="48" height="48" rx="24" fill="white"/>
</clipPath>
</defs>
</svg>
