<svg width="49" height="49" viewBox="0 0 49 49" fill="none" xmlns="http://www.w3.org/2000/svg">
<g clip-path="url(#clip0_2743_1766)">
<path d="M24.3945 48.418C37.6494 48.418 48.3945 37.6728 48.3945 24.418C48.3945 11.1631 37.6494 0.417969 24.3945 0.417969C11.1397 0.417969 0.394531 11.1631 0.394531 24.418C0.394531 37.6728 11.1397 48.418 24.3945 48.418Z" fill="#F0F0F0"/>
<path d="M13.3659 33.8086L7.42383 41.3871C11.7667 45.7305 17.766 48.4173 24.3936 48.4173C34.3152 48.4173 42.829 42.3958 46.484 33.8086H13.3659Z" fill="#FFDA44"/>
<path d="M46.5213 15.1136C42.8867 6.48003 34.3487 0.417969 24.3936 0.417969C17.766 0.417969 11.7667 3.10475 7.42383 7.44819L13.4341 15.1136H46.5213Z" fill="#496E2D"/>
<path d="M5.61133 18.0703V30.6789H47.5673C48.1056 28.6829 48.394 26.5844 48.394 24.4181C48.394 22.2204 48.0979 20.0923 47.5445 18.0703H5.61133Z" fill="black"/>
<path d="M7.42395 7.44727C-1.94861 16.8198 -1.94861 32.0159 7.42395 41.3885C11.297 37.5154 15.022 33.7904 24.3946 24.4179L7.42395 7.44727Z" fill="#A2001D"/>
<path d="M10.1084 18.1562L11.6623 22.939H16.6916L12.6231 25.8951L14.1769 30.6781L10.1084 27.722L6.03977 30.6781L7.59395 25.8951L3.52539 22.939H8.55433L10.1084 18.1562Z" fill="#FFDA44"/>
<path d="M5.56055 24.418H14.6565V28.5919H5.56055V24.418Z" fill="#F0F0F0"/>
<path d="M16.3796 19.6321L14.9039 18.1562L10.1087 22.9514L5.31361 18.1562L3.83789 19.6321L8.63723 24.4229L3.83789 29.2223L5.31361 30.6781L10.1087 25.8916L14.9039 30.6781L16.3796 29.2223L11.5802 24.4229L16.3796 19.6321Z" fill="black"/>
</g>
<defs>
<clipPath id="clip0_2743_1766">
<rect x="0.394531" y="0.417969" width="48" height="48" rx="24" fill="white"/>
</clipPath>
</defs>
</svg>
