<svg width="49" height="49" viewBox="0 0 49 49" fill="none" xmlns="http://www.w3.org/2000/svg">
<g clip-path="url(#clip0_2743_1775)">
<path d="M46.9017 32.765C47.8665 30.1651 48.3945 27.3529 48.3945 24.4172C48.3945 21.4815 47.8665 18.6693 46.9017 16.0694L24.3945 13.9824L1.88731 16.0694C0.922625 18.6693 0.394531 21.4815 0.394531 24.4172C0.394531 27.3529 0.922625 30.1651 1.88731 32.765L24.3945 34.8519L46.9017 32.765Z" fill="#6DA544"/>
<path d="M46.9012 16.0702C43.5101 6.93097 34.7131 0.417969 24.3939 0.417969C14.0748 0.417969 5.27775 6.93097 1.88672 16.0702H46.9012Z" fill="#FFDA44"/>
<path d="M24.3939 48.4178C34.7131 48.4178 43.5101 41.9048 46.9012 32.7656H1.88672C5.27775 41.9048 14.0748 48.4178 24.3939 48.4178Z" fill="#D80027"/>
<path d="M40.8529 20.7228H28.2804L24.3952 8.76562L20.51 20.7228H7.9375L18.1089 28.1127L14.2237 40.0701L24.3952 32.7656L34.5667 40.07L30.6816 28.1126L40.8529 20.7228Z" fill="#F0F0F0"/>
</g>
<defs>
<clipPath id="clip0_2743_1775">
<rect x="0.394531" y="0.417969" width="48" height="48" rx="24" fill="white"/>
</clipPath>
</defs>
</svg>
