<svg width="49" height="49" viewBox="0 0 49 49" fill="none" xmlns="http://www.w3.org/2000/svg">
<g clip-path="url(#clip0_2743_1780)">
<path d="M24.3945 48.418C37.6494 48.418 48.3945 37.6728 48.3945 24.418C48.3945 11.1631 37.6494 0.417969 24.3945 0.417969C11.1397 0.417969 0.394531 11.1631 0.394531 24.418C0.394531 37.6728 11.1397 48.418 24.3945 48.418Z" fill="#F0F0F0"/>
<path d="M7.42355 41.388C8.43033 42.3948 9.50452 43.2927 10.6313 44.0832L44.0596 10.6547C43.2692 9.52795 42.3714 8.45377 41.3645 7.44698C40.3577 6.4402 39.2835 5.54245 38.1568 4.75195L4.72852 38.1804C5.51892 39.307 6.41677 40.3813 7.42355 41.388Z" fill="#A2001D"/>
<path d="M7.42309 7.44825C-0.148532 15.0199 -1.60203 26.391 3.0595 35.4231L35.3978 3.08485C26.3657 -1.57668 14.9945 -0.122995 7.42309 7.44825Z" fill="#0052B4"/>
<path d="M41.3653 41.3889C48.9368 33.8174 50.3903 22.4462 45.7289 13.4141L13.3906 45.7524C22.4226 50.4139 33.7938 48.9604 41.3653 41.3889Z" fill="#496E2D"/>
<path d="M20.2197 13.9836L17.5304 15.2485L18.9625 17.8531L16.0423 17.2945L15.6722 20.2444L13.6382 18.0747L11.6041 20.2444L11.2341 17.2945L8.31383 17.853L9.74586 15.2484L7.05664 13.9836L9.74595 12.7185L8.31383 10.1141L11.234 10.6727L11.6042 7.72266L13.6382 9.89241L15.6723 7.72266L16.0423 10.6727L18.9625 10.1141L17.5306 12.7186L20.2197 13.9836Z" fill="#FFDA44"/>
</g>
<defs>
<clipPath id="clip0_2743_1780">
<rect x="0.394531" y="0.417969" width="48" height="48" rx="24" fill="white"/>
</clipPath>
</defs>
</svg>
