<svg width="49" height="49" viewBox="0 0 49 49" fill="none" xmlns="http://www.w3.org/2000/svg">
<g clip-path="url(#clip0_2743_1786)">
<path d="M24.3945 48.418C37.6494 48.418 48.3945 37.6728 48.3945 24.418C48.3945 11.1631 37.6494 0.417969 24.3945 0.417969C11.1397 0.417969 0.394531 11.1631 0.394531 24.418C0.394531 37.6728 11.1397 48.418 24.3945 48.418Z" fill="#0052B4"/>
<path d="M34.6937 26.0917C34.782 25.5463 34.8286 24.9871 34.8286 24.4173C34.8286 24.9871 34.782 25.5463 34.6937 26.0917L39.0025 24.4173L34.6937 22.743L32.327 21.8234L28.4818 20.3293L26.9877 16.4842C29.5072 17.31 31.5009 19.3038 32.3269 21.8233L34.6936 22.7429C33.9784 18.3277 30.4833 14.8325 26.0681 14.1173L24.3938 9.80859L22.7195 14.1174C18.3042 14.8327 14.8092 18.3278 14.094 22.743L9.78516 24.4173L14.0941 26.0917C14.8093 30.5069 18.3043 34.0019 22.7196 34.7171L24.3938 39.026L26.0682 34.7171C30.4834 34.0019 33.9785 30.5068 34.6937 26.0917ZM26.8696 21.9416L24.3938 24.4173H33.2406L26.8695 26.893L24.3938 24.4173V33.2641L21.9181 26.8929L24.3938 24.4173H15.5471L21.9181 21.9416L24.3938 24.4173V15.5706L26.8696 21.9416ZM21.7999 16.4842L20.3057 20.3294L16.4607 21.8235C17.2866 19.3038 19.2803 17.3102 21.7999 16.4842ZM16.4608 27.0112L20.3057 28.5053L21.7999 32.3503C19.2803 31.5244 17.2867 29.5308 16.4608 27.0112ZM26.9878 32.3503L28.4819 28.5053L32.3269 27.0112C31.5009 29.5308 29.5073 31.5244 26.9878 32.3503Z" fill="#F0F0F0"/>
<path d="M33.2412 24.418H24.3945L26.8703 26.8937L33.2412 24.418Z" fill="#0052B4"/>
<path d="M15.5469 24.4171H24.3936L21.9178 21.9414L15.5469 24.4171Z" fill="#0052B4"/>
<path d="M24.3937 33.2648V24.418L21.918 26.8937L24.3937 33.2648Z" fill="#0052B4"/>
<path d="M24.3945 24.417L26.8703 21.9414L24.3945 15.5703V24.417Z" fill="#0052B4"/>
<path d="M23.3516 3.54883H25.4385V7.72277H23.3516V3.54883Z" fill="#F0F0F0"/>
<path d="M3.52539 23.375H7.69933V25.462H3.52539V23.375Z" fill="#F0F0F0"/>
<path d="M23.3516 41.1133H25.4385V45.2872H23.3516V41.1133Z" fill="#F0F0F0"/>
<path d="M41.0898 23.375H45.2638V25.462H41.0898V23.375Z" fill="#F0F0F0"/>
</g>
<defs>
<clipPath id="clip0_2743_1786">
<rect x="0.394531" y="0.417969" width="48" height="48" rx="24" fill="white"/>
</clipPath>
</defs>
</svg>
