<svg width="49" height="49" viewBox="0 0 49 49" fill="none" xmlns="http://www.w3.org/2000/svg">
<g clip-path="url(#clip0_2743_1799)">
<path d="M24.3945 48.418C37.6494 48.418 48.3945 37.6728 48.3945 24.418C48.3945 11.1631 37.6494 0.417969 24.3945 0.417969C11.1397 0.417969 0.394531 11.1631 0.394531 24.418C0.394531 37.6728 11.1397 48.418 24.3945 48.418Z" fill="#0052B4"/>
<path d="M24.3945 48.418C37.6494 48.418 48.3945 37.6728 48.3945 24.418C48.3945 11.1631 37.6494 0.417969 24.3945 0.417969C11.1397 0.417969 0.394531 11.1631 0.394531 24.418C0.394531 37.6728 11.1397 48.418 24.3945 48.418Z" fill="#FFDA44"/>
<path d="M24.3949 0.417969C11.8433 0.417969 1.54411 10.0537 0.486328 22.331H48.3036C47.2457 10.0537 36.9465 0.417969 24.3949 0.417969Z" fill="#0052B4"/>
<path d="M24.3949 48.4189C36.9465 48.4189 47.2457 38.7832 48.3036 26.5059H0.486328C1.54411 38.7832 11.8433 48.4189 24.3949 48.4189Z" fill="#0052B4"/>
<path d="M20.2198 32.7667L17.5305 34.0317L18.9625 36.6362L16.0423 36.0775L15.6723 39.0276L13.6382 36.8579L11.6042 39.0276L11.2341 36.0775L8.31383 36.6361L9.74595 34.0316L7.05664 32.7667L9.74605 31.5017L8.31383 28.8973L11.234 29.4559L11.6043 26.5059L13.6382 28.6755L15.6724 26.5059L16.0423 29.4559L18.9626 28.8973L17.5306 31.5018L20.2198 32.7667Z" fill="#F0F0F0"/>
</g>
<defs>
<clipPath id="clip0_2743_1799">
<rect x="0.394531" y="0.417969" width="48" height="48" rx="24" fill="white"/>
</clipPath>
</defs>
</svg>
