<svg width="49" height="49" viewBox="0 0 49 49" fill="none" xmlns="http://www.w3.org/2000/svg">
<g clip-path="url(#clip0_2743_1806)">
<path d="M24.3945 48.418C37.6494 48.418 48.3945 37.6728 48.3945 24.418C48.3945 11.1631 37.6494 0.417969 24.3945 0.417969C11.1397 0.417969 0.394531 11.1631 0.394531 24.418C0.394531 37.6728 11.1397 48.418 24.3945 48.418Z" fill="#F0F0F0"/>
<path d="M48.253 27.0269C48.253 27.0267 48.2531 27.0265 48.2531 27.0261L21.9332 0.542969C20.7459 0.664 19.584 0.871563 18.4543 1.15928C8.07247 3.80256 0.394531 24.4182 0.394531 24.4182C0.394531 24.4182 33.9943 46.9027 37.8275 44.3086C38.5945 43.7896 39.3298 43.2273 40.03 42.6255L24.4316 27.0269H48.253Z" fill="#0052B4"/>
<path d="M42.1336 24.4172L18.7925 1.07617C8.24028 3.59964 0.394531 13.0915 0.394531 24.4172C0.394531 37.672 11.1398 48.4172 24.3945 48.4172C29.4223 48.4172 34.088 46.8701 37.9441 44.2276L18.1336 24.4172H42.1336Z" fill="#D80027"/>
<path d="M23.2197 35.8551L20.2886 34.4764L21.8495 31.6378L18.6666 32.2467L18.2633 29.0312L16.0464 31.3961L13.8295 29.0312L13.4261 32.2467L10.2434 31.6377L11.8042 34.4764L8.87305 35.8551L11.8042 37.2337L10.2434 40.0725L13.4263 39.4637L13.8294 42.6789L16.0464 40.3141L18.2633 42.6789L18.6666 39.4637L21.8494 40.0726L20.2885 37.2339L23.2197 35.8551Z" fill="#F0F0F0"/>
<path d="M21.263 13.7288L19.1311 12.7261L20.2663 10.6614L17.9513 11.1043L17.658 8.76562L16.0456 10.4857L14.4332 8.76562L14.1398 11.1043L11.8248 10.6614L12.9601 12.7261L10.8281 13.7288L16.0456 14.7724L21.263 13.7288Z" fill="#F0F0F0"/>
<path d="M22.307 13.7285C22.307 17.1863 19.5038 19.9894 16.0461 19.9894C12.5883 19.9894 9.78516 17.1863 9.78516 13.7285" fill="#F0F0F0"/>
</g>
<defs>
<clipPath id="clip0_2743_1806">
<rect x="0.394531" y="0.417969" width="48" height="48" rx="24" fill="white"/>
</clipPath>
</defs>
</svg>
