<svg width="49" height="49" viewBox="0 0 49 49" fill="none" xmlns="http://www.w3.org/2000/svg">
<g clip-path="url(#clip0_2743_1820)">
<path d="M48.3945 24.418C48.3945 37.6727 37.6493 48.418 24.3945 48.418C11.1398 48.418 0.394531 37.6727 0.394531 24.418C0.394531 24.4237 24.3945 0.420594 24.3945 0.417969C37.6493 0.417969 48.3945 11.1632 48.3945 24.418Z" fill="#0052B4"/>
<path d="M24.3301 24.4177H24.3943C24.3943 24.3962 24.3943 24.3752 24.3943 24.3535C24.3729 24.375 24.3515 24.3964 24.3301 24.4177Z" fill="#F0F0F0"/>
<path d="M24.3945 12.9397C24.3945 8.71672 24.3945 5.94969 24.3945 0.417969H24.3905C11.1375 0.420219 0.394531 11.1644 0.394531 24.418H12.9163V17.3669L19.9674 24.418H24.3304C24.3518 24.3966 24.3733 24.3752 24.3946 24.3538C24.3946 22.7368 24.3946 21.2941 24.3946 19.9909L17.3434 12.9397H24.3945Z" fill="#F0F0F0"/>
<path d="M12.537 3.54883C8.78336 5.68623 5.6628 8.8068 3.52539 12.5605V24.4184H9.7863V9.80992V9.80973H24.395C24.395 7.83508 24.395 5.95389 24.395 3.54883H12.537Z" fill="#D80027"/>
<path d="M24.3942 21.4663L15.8674 12.9395C15.8674 12.9395 12.916 12.9396 12.916 12.9395V12.9396L24.3941 24.4176H24.3942C24.3942 24.4176 24.3942 22.3826 24.3942 21.4663Z" fill="#D80027"/>
<path d="M41.9562 18.2266L42.4742 19.8209H44.1505L42.7943 20.8062L43.3124 22.4004L41.9562 21.4152L40.5999 22.4004L41.118 20.8062L39.7617 19.8209H41.4381L41.9562 18.2266Z" fill="#D80027"/>
<path d="M35.9654 29.7051L36.7425 32.0966H39.257L37.2226 33.5745L37.9998 35.966L35.9654 34.488L33.931 35.966L34.7082 33.5745L32.6738 32.0966H35.1883L35.9654 29.7051Z" fill="#D80027"/>
<path d="M36.1901 10.9219L36.8377 12.9149H38.9331L37.2378 14.1463L37.8854 16.1392L36.1901 14.9075L34.4949 16.1392L35.1425 14.1463L33.4473 12.9149H35.5426L36.1901 10.9219Z" fill="#D80027"/>
<path d="M30.4244 18.1582L31.2014 20.5498H33.7159L31.6816 22.0276L32.4587 24.4191L30.4244 22.9411L28.39 24.4191L29.1672 22.0276L27.1328 20.5498H29.6473L30.4244 18.1582Z" fill="#D80027"/>
</g>
<defs>
<clipPath id="clip0_2743_1820">
<rect x="0.394531" y="0.417969" width="48" height="48" rx="24" fill="white"/>
</clipPath>
</defs>
</svg>
