<svg width="49" height="49" viewBox="0 0 49 49" fill="none" xmlns="http://www.w3.org/2000/svg">
<g clip-path="url(#clip0_2743_1833)">
<path d="M24.3945 48.418C37.6494 48.418 48.3945 37.6728 48.3945 24.418C48.3945 11.1631 37.6494 0.417969 24.3945 0.417969C11.1397 0.417969 0.394531 11.1631 0.394531 24.418C0.394531 37.6728 11.1397 48.418 24.3945 48.418Z" fill="#F0F0F0"/>
<path d="M24.394 0.417969C14.8789 0.417969 6.65739 5.95531 2.77539 13.9832H46.0124C42.1305 5.95531 33.9089 0.417969 24.394 0.417969Z" fill="#338AF3"/>
<path d="M24.394 48.4188C33.9089 48.4188 42.1305 42.8814 46.0125 34.8535H2.77539C6.65739 42.8814 14.8789 48.4188 24.394 48.4188Z" fill="#338AF3"/>
<path d="M24.3942 17.1133C20.3601 17.1133 17.0898 20.3836 17.0898 24.4176C17.0898 28.4517 20.3601 31.722 24.3942 31.722C28.4282 31.722 31.6985 28.4517 31.6985 24.4176C31.6985 20.3836 28.4282 17.1133 24.3942 17.1133ZM24.3942 28.5916C22.0891 28.5916 20.2202 26.7229 20.2202 24.4176C20.2202 22.1123 22.089 20.2437 24.3942 20.2437C26.6994 20.2437 28.5681 22.1123 28.5681 24.4176C28.5681 26.7229 26.6993 28.5916 24.3942 28.5916Z" fill="#FFDA44"/>
<path d="M28.0087 25.4614L24.3939 24.418L20.7791 25.4614L19.5742 27.5484H29.2135L28.0087 25.4614Z" fill="#0052B4"/>
<path d="M24.3942 19.2012L21.9844 23.3751L24.3942 24.4185L26.8041 23.3751L24.3942 19.2012Z" fill="#338AF3"/>
<path d="M20.7793 25.4619H28.0089L26.804 23.375H21.9843L20.7793 25.4619Z" fill="#6DA544"/>
</g>
<defs>
<clipPath id="clip0_2743_1833">
<rect x="0.394531" y="0.417969" width="48" height="48" rx="24" fill="white"/>
</clipPath>
</defs>
</svg>
