<svg width="49" height="49" viewBox="0 0 49 49" fill="none" xmlns="http://www.w3.org/2000/svg">
<g clip-path="url(#clip0_2743_1853)">
<path d="M48.3945 24.418C48.3945 37.6727 37.6493 48.418 24.3945 48.418C11.1398 48.418 0.394531 37.6727 0.394531 24.418C0.394531 24.4237 24.3945 0.420594 24.3945 0.417969C37.6493 0.417969 48.3945 11.1632 48.3945 24.418Z" fill="#FFDA44"/>
<path d="M24.3947 11.8965V19.9911L16.0469 11.8965H24.3947Z" fill="#0052B4"/>
<path d="M12.9165 24.4187H19.9675L12.9165 15.0273L11.873 22.3317L12.9165 24.4187Z" fill="#0052B4"/>
<path d="M24.3301 24.4177H24.3943C24.3943 24.3962 24.3943 24.3752 24.3943 24.3535C24.3729 24.375 24.3515 24.3964 24.3301 24.4177Z" fill="#F0F0F0"/>
<path d="M24.3945 12.9397C24.3945 8.71672 24.3945 5.94969 24.3945 0.417969H24.3905C11.1374 0.420219 0.394531 11.1644 0.394531 24.418H12.9163V17.3669L19.9673 24.418H24.3304C24.3518 24.3966 24.3732 24.3752 24.3946 24.3538C24.3946 22.7368 24.3946 21.2941 24.3946 19.9909L17.3434 12.9397H24.3945Z" fill="#F0F0F0"/>
<path d="M24.3943 21.4663L15.8673 12.9395H12.916V12.9396L24.3941 24.4176H24.3943C24.3943 24.4176 24.3943 22.3826 24.3943 21.4663Z" fill="#D80027"/>
<path d="M12.537 3.54883C11.6118 4.0757 10.7254 4.66286 9.88239 5.30383H10.8671L8.26445 7.19514L9.25839 10.2549L6.6557 8.36392L6.37877 8.5652C5.29811 9.79239 4.33998 11.13 3.52539 12.5605V24.4184H9.7863V9.80992V9.80973H24.395C24.395 7.83508 24.395 5.95389 24.395 3.54883H12.537Z" fill="#D80027"/>
<path d="M10.6465 4.74414C10.3877 4.92536 10.1325 5.11164 9.88117 5.3028L8.26352 7.19411L6.65477 8.3628L6.37548 8.56567C5.78617 9.23505 5.23352 9.93742 4.7207 10.6699C5.30523 10.9536 5.96139 11.113 6.65477 11.113C9.10408 11.113 11.0895 9.12761 11.0895 6.6783C11.0897 5.98473 10.9303 5.32877 10.6465 4.74414Z" fill="#0052B4"/>
<path d="M6.375 8.56561L6.65428 8.36273L9.25697 10.2538L8.26294 7.19405L10.8654 5.30273H9.8805C8.60606 6.27202 7.43166 7.36552 6.375 8.56561Z" fill="#FFDA44"/>
<path d="M16.9836 4.5918L17.5016 6.18602H19.1779L17.8218 7.17142L18.3396 8.76564L16.9836 7.78033L15.6275 8.76564L16.1452 7.17142L14.7891 6.18602H16.4654L16.9836 4.5918Z" fill="#FFDA44"/>
<path d="M6.65534 15.0273L7.17341 16.6216H8.84966L7.49366 17.6071L8.01144 19.2013L6.65534 18.2159L5.29916 19.2013L5.81694 17.6071L4.46094 16.6216H6.13719L6.65534 15.0273Z" fill="#FFDA44"/>
</g>
<defs>
<clipPath id="clip0_2743_1853">
<rect x="0.394531" y="0.417969" width="48" height="48" rx="24" fill="white"/>
</clipPath>
</defs>
</svg>
