<svg width="49" height="49" viewBox="0 0 49 49" fill="none" xmlns="http://www.w3.org/2000/svg">
<g clip-path="url(#clip0_2743_1870)">
<path d="M34.8295 2.79941C31.6743 1.27372 28.1345 0.417969 24.3948 0.417969C20.655 0.417969 17.1153 1.27372 13.96 2.79941L11.873 24.418L13.96 46.0365C17.1153 47.5622 20.655 48.418 24.3948 48.418C28.1345 48.418 31.6743 47.5622 34.8295 46.0365L36.9165 24.418L34.8295 2.79941Z" fill="#F0F0F0"/>
<path d="M13.9598 2.80078C5.93188 6.68259 0.394531 14.9034 0.394531 24.4185C0.394531 33.9336 5.93188 42.1544 13.9598 46.0362V2.80078Z" fill="#6DA544"/>
<path d="M34.8301 2.80078V46.0362C42.858 42.1544 48.3953 33.9335 48.3953 24.4185C48.3953 14.9035 42.858 6.68259 34.8301 2.80078Z" fill="#6DA544"/>
<path d="M30.6546 31.7225L24.3937 11.8965L18.1328 31.7225H22.8285V36.9399H25.959V31.7225H30.6546Z" fill="#6DA544"/>
</g>
<defs>
<clipPath id="clip0_2743_1870">
<rect x="0.394531" y="0.417969" width="48" height="48" rx="24" fill="white"/>
</clipPath>
</defs>
</svg>
