<svg width="49" height="49" viewBox="0 0 49 49" fill="none" xmlns="http://www.w3.org/2000/svg">
<g clip-path="url(#clip0_2743_1884)">
<path d="M24.3945 48.418C37.6494 48.418 48.3945 37.6728 48.3945 24.418C48.3945 11.1631 37.6494 0.417969 24.3945 0.417969C11.1397 0.417969 0.394531 11.1631 0.394531 24.418C0.394531 37.6728 11.1397 48.418 24.3945 48.418Z" fill="#F0F0F0"/>
<path d="M6.20228 8.76562C5.36012 9.74372 4.59559 10.7902 3.91797 11.896H44.8728C44.1952 10.7902 43.4308 9.74363 42.5885 8.76562H6.20228Z" fill="#D80027"/>
<path d="M6.20219 40.0699H42.5885C43.4307 39.0918 44.1952 38.0452 44.8728 36.9395H3.91797C4.5955 38.0451 5.36003 39.0918 6.20219 40.0699Z" fill="#D80027"/>
<path d="M21.3241 20.0293L23.2932 22.7429L26.4823 21.7088L24.5101 24.4201L26.479 27.1336L23.291 26.0956L21.3188 28.8068L21.3208 25.4542L18.1328 24.4162L21.322 23.3822L21.3241 20.0293Z" fill="#D80027"/>
<path d="M15.9506 31.2008C12.2047 31.2008 9.16798 28.1641 9.16798 24.4182C9.16798 20.6723 12.2047 17.6356 15.9506 17.6356C17.1185 17.6356 18.2176 17.9309 19.177 18.4508C17.6719 16.9788 15.6134 16.0703 13.3419 16.0703C8.73148 16.0703 4.99414 19.8078 4.99414 24.4181C4.99414 29.0284 8.73158 32.7659 13.3419 32.7659C15.6134 32.7659 17.6719 31.8573 19.177 30.3854C18.2176 30.9055 17.1186 31.2008 15.9506 31.2008Z" fill="#D80027"/>
</g>
<defs>
<clipPath id="clip0_2743_1884">
<rect x="0.394531" y="0.417969" width="48" height="48" rx="24" fill="white"/>
</clipPath>
</defs>
</svg>
