<svg width="49" height="49" viewBox="0 0 49 49" fill="none" xmlns="http://www.w3.org/2000/svg">
<g clip-path="url(#clip0_2743_1876)">
<path d="M24.3945 48.418C37.6494 48.418 48.3945 37.6728 48.3945 24.418C48.3945 11.1631 37.6494 0.417969 24.3945 0.417969C11.1397 0.417969 0.394531 11.1631 0.394531 24.418C0.394531 37.6728 11.1397 48.418 24.3945 48.418Z" fill="#F0F0F0"/>
<path d="M24.3944 0.417969C17.1202 0.417969 10.6025 3.65459 6.20117 8.76575H42.5875C38.1863 3.65459 31.6685 0.417969 24.3944 0.417969Z" fill="#0052B4"/>
<path d="M42.5876 40.0703H6.20117C10.6025 45.1815 17.1202 48.4181 24.3944 48.4181C31.6685 48.4181 38.1863 45.1815 42.5876 40.0703Z" fill="#0052B4"/>
<path d="M44.872 11.8965H3.91709C1.68313 15.542 0.394531 19.8294 0.394531 24.4182C0.394531 29.007 1.68313 33.2945 3.91709 36.9399H44.872C47.1059 33.2945 48.3945 29.007 48.3945 24.4182C48.3945 19.8294 47.1059 15.542 44.872 11.8965Z" fill="#D80027"/>
<path d="M15.1605 33.6531C20.2607 33.6531 24.3953 29.5186 24.3953 24.4183C24.3953 19.3181 20.2607 15.1836 15.1605 15.1836C10.0603 15.1836 5.92578 19.3181 5.92578 24.4183C5.92578 29.5186 10.0603 33.6531 15.1605 33.6531Z" fill="#F0F0F0"/>
<path d="M15.1601 15.1836L17.2321 21.5606H23.9481L18.5128 25.502L20.601 31.898L15.1601 27.9378L9.72748 31.8906L11.8074 25.502L6.37695 21.5606H13.088L15.1601 15.1836Z" fill="#D80027"/>
</g>
<defs>
<clipPath id="clip0_2743_1876">
<rect x="0.394531" y="0.417969" width="48" height="48" rx="24" fill="white"/>
</clipPath>
</defs>
</svg>
