<svg width="49" height="49" viewBox="0 0 49 49" fill="none" xmlns="http://www.w3.org/2000/svg">
<g clip-path="url(#clip0_2743_1891)">
<path d="M24.3945 48.418C37.6494 48.418 48.3945 37.6728 48.3945 24.418C48.3945 11.1631 37.6494 0.417969 24.3945 0.417969C11.1397 0.417969 0.394531 11.1631 0.394531 24.418C0.394531 37.6728 11.1397 48.418 24.3945 48.418Z" fill="#338AF3"/>
<path d="M23.6377 39.5305C22.9907 39.4992 22.4554 39.0787 22.2457 38.5078C21.8753 38.9909 21.2387 39.2341 20.6116 39.0724C19.9834 38.9107 19.5442 38.391 19.4533 37.7878C18.9921 38.1864 18.3201 38.2948 17.7389 38.0101C17.1566 37.7242 16.8311 37.1262 16.8645 36.5178C16.3334 36.8162 15.6531 36.7871 15.1407 36.3905C14.6294 35.9939 14.4301 35.3439 14.5845 34.7543C14.0043 34.94 13.3449 34.7752 12.9222 34.2837C12.4996 33.7933 12.4348 33.116 12.7042 32.5703C12.0989 32.6349 11.4854 32.3407 11.1702 31.7752C10.854 31.2096 10.9271 30.5324 11.3017 30.0512C10.6954 29.9928 10.1528 29.5806 9.95869 28.9629C9.7636 28.3452 9.97229 27.6961 10.4366 27.3006C9.85435 27.121 9.40773 26.6076 9.34201 25.9639C9.27629 25.3201 9.61022 24.7285 10.1434 24.4342C9.61013 24.142 9.27413 23.5504 9.33779 22.9076H9.33882C9.40247 22.2627 9.8491 21.7483 10.4303 21.5667C9.96591 21.1723 9.75516 20.5243 9.94819 19.9064C10.1412 19.2877 10.6827 18.8744 11.2891 18.8139C10.9145 18.3339 10.8394 17.6565 11.1534 17.0901C11.4675 16.5245 12.0811 16.2292 12.6874 16.2928C12.4161 15.7471 12.4797 15.0699 12.9013 14.5774C13.3219 14.086 13.9813 13.92 14.5626 14.1037C14.406 13.5151 14.6043 12.864 15.1156 12.4665C15.6259 12.0688 16.3062 12.0386 16.8373 12.3349C16.8029 11.7267 17.1274 11.1286 17.7086 10.8417C18.2888 10.5557 18.9619 10.6622 19.4241 11.0608C19.5128 10.4578 19.9521 9.93603 20.5792 9.7731C21.2052 9.61035 21.8418 9.85138 22.2132 10.3334C22.4229 9.76269 22.9572 9.3411 23.6042 9.30875C24.2501 9.27547 24.824 9.63847 25.0912 10.1844C25.4105 9.66678 26.0178 9.36003 26.6574 9.45707C27.2981 9.55307 27.7897 10.0246 27.942 10.6143C28.3594 10.1697 29.0168 9.99341 29.6241 10.2166C30.2324 10.441 30.6185 11.0023 30.6477 11.6117C31.1454 11.2612 31.8258 11.2204 32.3757 11.5627C32.9257 11.9039 33.1897 12.531 33.0957 13.1331C33.654 12.89 34.3281 12.987 34.7977 13.4315C35.2673 13.8771 35.4008 14.5438 35.1879 15.1146C35.7837 14.9883 36.4245 15.2179 36.7959 15.749C37.1674 16.2791 37.1643 16.9594 36.8419 17.476C37.4502 17.4718 38.0315 17.8266 38.2892 18.4203C38.5459 19.0151 38.405 19.6819 37.9845 20.1233C38.5824 20.2423 39.0802 20.7066 39.2116 21.341C39.342 21.9754 39.0697 22.5984 38.5699 22.9459C39.1292 23.1829 39.5236 23.7369 39.5246 24.3838V24.4048V24.4183C39.5246 25.0652 39.1323 25.6204 38.573 25.8594C39.0739 26.2048 39.3483 26.8277 39.2179 27.4621C39.0885 28.0965 38.5918 28.562 37.9939 28.683C38.4155 29.1234 38.5584 29.7891 38.3028 30.385C38.0471 30.9797 37.4659 31.3356 36.8565 31.3324C37.1799 31.849 37.1852 32.5293 36.8148 33.0604C36.4444 33.5917 35.8047 33.8233 35.2088 33.698C35.4228 34.2677 35.2902 34.9356 34.8218 35.3822C34.3522 35.8279 33.6791 35.9259 33.1209 35.6848C33.2158 36.2859 32.9529 36.9141 32.4039 37.2574C31.855 37.6007 31.1747 37.561 30.6759 37.2115C30.6477 37.8208 30.2637 38.3833 29.6565 38.6087C29.0493 38.8341 29.6565 38.6087 29.6555 38.6087C29.0482 38.8331 28.3908 38.6578 27.9724 38.2144C27.8221 38.805 27.3317 39.2776 26.691 39.3758C26.0513 39.4728 25.443 39.1681 25.1227 38.6505C24.868 39.1754 24.3296 39.5323 23.716 39.5323C23.6899 39.5326 23.6638 39.5316 23.6377 39.5305Z" fill="#F3F3F3"/>
<path d="M24.3937 34.8519C30.1567 34.8519 34.8285 30.1801 34.8285 24.4172C34.8285 18.6542 30.1567 13.9824 24.3937 13.9824C18.6308 13.9824 13.959 18.6542 13.959 24.4172C13.959 30.1801 18.6308 34.8519 24.3937 34.8519Z" fill="#338AF3"/>
<path d="M26.6786 20.8761C27.1912 20.4959 27.525 19.8881 27.525 19.2007V18.1573C27.525 17.0046 26.5906 16.0703 25.438 16.0703H23.3511C22.1985 16.0703 21.2641 17.0046 21.2641 18.1573V19.2007C21.2641 19.8881 21.5979 20.4959 22.1105 20.8761L20.2207 40.0702C20.2207 40.0702 21.2641 41.1138 24.3946 41.1138C27.5251 41.1138 28.5686 40.0702 28.5686 40.0702L26.6786 20.8761Z" fill="#BDBCC1"/>
<path d="M24.395 16.0703L26.208 21.6501H32.0753L27.3287 25.099L29.1416 30.679L24.395 27.2304L19.6483 30.679L21.4615 25.099L16.7148 21.6501H22.582L24.395 16.0703Z" fill="#F0F0F0"/>
</g>
<defs>
<clipPath id="clip0_2743_1891">
<rect x="0.394531" y="0.417969" width="48" height="48" rx="24" fill="white"/>
</clipPath>
</defs>
</svg>
