<svg width="49" height="49" viewBox="0 0 49 49" fill="none" xmlns="http://www.w3.org/2000/svg">
<g clip-path="url(#clip0_2743_1905)">
<path d="M24.3945 48.418C37.6494 48.418 48.3945 37.6728 48.3945 24.418C48.3945 11.1631 37.6494 0.417969 24.3945 0.417969C11.1397 0.417969 0.394531 11.1631 0.394531 24.418C0.394531 37.6728 11.1397 48.418 24.3945 48.418Z" fill="#F0F0F0"/>
<path d="M0.394531 24.4178C0.394531 33.5148 5.45609 41.4292 12.9163 45.4996V3.33594C5.45609 7.40637 0.394531 15.3207 0.394531 24.4178Z" fill="#D80027"/>
<path d="M46.9018 32.7659C47.8665 30.1659 48.3945 27.3538 48.3945 24.4181C48.3945 21.4824 47.8665 18.6702 46.9018 16.0703H1.88741C0.922625 18.6702 0.394531 21.4824 0.394531 24.4181C0.394531 27.3538 0.922625 30.1659 1.88741 32.7659L24.3945 34.8528L46.9018 32.7659Z" fill="#D80027"/>
<path d="M24.3938 48.4178C34.7131 48.4178 43.51 41.9048 46.9012 32.7656H1.88672C5.27766 41.9048 14.0748 48.4178 24.3938 48.4178Z" fill="#6DA544"/>
<path d="M0.394531 24.4174C0.394531 35.506 7.91525 44.8366 18.1336 47.5906V1.24414C7.91525 3.99814 0.394531 13.3287 0.394531 24.4174Z" fill="#D80027"/>
<path d="M15.0777 10.9792L12.8642 8.76562L11.3886 10.2414L9.91294 8.76562L7.69941 10.9792L9.17512 12.4549L7.69922 13.9307L9.91275 16.1442L11.3885 14.6684L12.8642 16.1442L15.0777 13.9307L13.602 12.4549L15.0777 10.9792Z" fill="#F0F0F0"/>
</g>
<defs>
<clipPath id="clip0_2743_1905">
<rect x="0.394531" y="0.417969" width="48" height="48" rx="24" fill="white"/>
</clipPath>
</defs>
</svg>
