<svg width="49" height="49" viewBox="0 0 49 49" fill="none" xmlns="http://www.w3.org/2000/svg">
<g clip-path="url(#clip0_2743_1925)">
<path d="M24.3945 48.418C37.6494 48.418 48.3945 37.6728 48.3945 24.418C48.3945 11.1631 37.6494 0.417969 24.3945 0.417969C11.1397 0.417969 0.394531 11.1631 0.394531 24.418C0.394531 37.6728 11.1397 48.418 24.3945 48.418Z" fill="#F0F0F0"/>
<path d="M0.394531 24.4178C0.394531 33.5148 5.456 41.4291 12.9163 45.4996V3.33594C5.456 7.40647 0.394531 15.3207 0.394531 24.4178Z" fill="#F0F0F0"/>
<path d="M24.3943 0.417969C20.2365 0.417969 16.3258 1.47575 12.916 3.33613V45.4997C16.3258 47.3602 20.2365 48.418 24.3943 48.418C37.649 48.418 48.3943 37.6727 48.3943 24.418C48.3943 11.1632 37.649 0.417969 24.3943 0.417969Z" fill="#496E2D"/>
<path d="M34.6559 28.3869C31.6196 30.5807 27.3797 29.8979 25.186 26.8617C22.992 23.8253 23.675 19.5855 26.7113 17.3917C27.658 16.7077 28.7216 16.3034 29.8038 16.1628C27.7219 15.8515 25.5211 16.3206 23.6801 17.6508C19.9433 20.351 19.1026 25.5692 21.8027 29.3063C24.5028 33.0431 29.7211 33.8838 33.4582 31.1835C35.2993 29.8532 36.4357 27.9114 36.7936 25.8368C36.3205 26.8199 35.6027 27.7028 34.6559 28.3869Z" fill="#F0F0F0"/>
<path d="M34.5263 16.0703L36.2367 17.9135L38.5182 16.8568L37.2935 19.0528L39.0038 20.8962L36.5367 20.4101L35.3121 22.6063L35.012 20.1097L32.5449 19.6236L34.8265 18.5669L34.5263 16.0703Z" fill="#F0F0F0"/>
</g>
<defs>
<clipPath id="clip0_2743_1925">
<rect x="0.394531" y="0.417969" width="48" height="48" rx="24" fill="white"/>
</clipPath>
</defs>
</svg>
