<svg width="49" height="49" viewBox="0 0 49 49" fill="none" xmlns="http://www.w3.org/2000/svg">
<g clip-path="url(#clip0_2743_1936)">
<path d="M24.3945 48.418C37.6494 48.418 48.3945 37.6728 48.3945 24.418C48.3945 11.1631 37.6494 0.417969 24.3945 0.417969C11.1397 0.417969 0.394531 11.1631 0.394531 24.418C0.394531 37.6728 11.1397 48.418 24.3945 48.418Z" fill="#F0F0F0"/>
<path d="M15.0023 16.0702H46.9007C43.5098 6.93097 34.7127 0.417969 24.3936 0.417969C17.766 0.417969 11.7667 3.10475 7.42383 7.44819L15.0023 16.0702Z" fill="black"/>
<path d="M15.0023 32.7656H46.9007C43.5098 41.9048 34.7127 48.4178 24.3936 48.4178C17.766 48.4178 11.7667 45.7311 7.42383 41.3876L15.0023 32.7656Z" fill="#6DA544"/>
<path d="M7.42395 7.44727C-1.94861 16.8198 -1.94861 32.0159 7.42395 41.3885C11.297 37.5154 15.022 33.7904 24.3946 24.4179L7.42395 7.44727Z" fill="#D80027"/>
</g>
<defs>
<clipPath id="clip0_2743_1936">
<rect x="0.394531" y="0.417969" width="48" height="48" rx="24" fill="white"/>
</clipPath>
</defs>
</svg>
