<svg width="49" height="49" viewBox="0 0 49 49" fill="none" xmlns="http://www.w3.org/2000/svg">
<g clip-path="url(#clip0_2743_1941)">
<path d="M24.3945 48.418C37.6494 48.418 48.3945 37.6728 48.3945 24.418C48.3945 11.1631 37.6494 0.417969 24.3945 0.417969C11.1397 0.417969 0.394531 11.1631 0.394531 24.418C0.394531 37.6728 11.1397 48.418 24.3945 48.418Z" fill="#F0F0F0"/>
<path d="M0.394531 24.418C0.394531 37.6727 11.1398 48.418 24.3945 48.418C24.3945 39.2909 24.3945 24.418 24.3945 24.418C24.3945 24.418 8.74231 24.418 0.394531 24.418Z" fill="#0052B4"/>
<path d="M24.3945 0.417969C37.6493 0.417969 48.3945 11.1632 48.3945 24.418C39.2675 24.418 24.3945 24.418 24.3945 24.418C24.3945 24.418 24.3945 8.76575 24.3945 0.417969Z" fill="#D80027"/>
<path d="M14.6808 8.76562L16.2349 13.5486H21.2639L17.1953 16.5045L18.7493 21.2874L14.6808 18.3314L10.6122 21.2874L12.1662 16.5045L8.09766 13.5486H13.1267L14.6808 8.76562Z" fill="#0052B4"/>
<path d="M34.1085 27.5488L35.6626 32.3318H40.6916L36.623 35.2877L38.1771 40.0706L34.1085 37.1146L30.04 40.0706L31.594 35.2877L27.5254 32.3318H32.5544L34.1085 27.5488Z" fill="#D80027"/>
</g>
<defs>
<clipPath id="clip0_2743_1941">
<rect x="0.394531" y="0.417969" width="48" height="48" rx="24" fill="white"/>
</clipPath>
</defs>
</svg>
