<svg width="49" height="49" viewBox="0 0 49 49" fill="none" xmlns="http://www.w3.org/2000/svg">
<g clip-path="url(#clip0_2743_1947)">
<path d="M41.3652 41.3895C31.9926 50.762 16.7967 50.762 7.42394 41.3895C-1.94862 32.0169 -1.94862 16.8209 7.42403 7.44822C16.7966 -1.92434 30.5168 -0.448621 39.8894 8.92404C49.2618 18.2966 50.7377 32.0169 41.3652 41.3895Z" fill="black"/>
<path d="M7.42383 7.44731C16.7964 -1.92525 31.9922 -1.92507 41.365 7.4474C50.7375 16.82 50.7375 32.0159 41.365 41.3886" fill="#A2001D"/>
<path d="M18.7376 32.7656L19.1261 33.9614H20.3834L19.3662 34.7003L19.7548 35.8961L18.7376 35.1571L17.7204 35.8961L18.1089 34.7003L17.0918 33.9614H18.349L18.7376 32.7656Z" fill="#F0F0F0"/>
<path d="M15.5261 21.2871L16.1739 23.28H18.2692L16.5739 24.5116L17.2214 26.5046L15.5261 25.2728L13.831 26.5046L14.4786 24.5116L12.7832 23.28H14.8787L15.5261 21.2871Z" fill="#F0F0F0"/>
<path d="M15.5261 35.8965L16.1737 37.8894H18.2692L16.5737 39.1209L17.2214 41.1139L15.5261 39.8821L13.831 41.1139L14.4784 39.1209L12.7832 37.8894H14.8784L15.5261 35.8965Z" fill="#F0F0F0"/>
<path d="M21.653 26.5039L22.3007 28.4968H24.396L22.7008 29.7283L23.3483 31.7213L21.653 30.4895L19.9578 31.7213L20.6054 29.7283L18.9102 28.4968H21.0056L21.653 26.5039Z" fill="#F0F0F0"/>
<path d="M9.39919 26.5039L10.0469 28.4968H12.1421L10.4469 29.7283L11.0944 31.7213L9.39919 30.4895L7.70391 31.7213L8.35163 29.7283L6.65625 28.4968H8.75166L9.39919 26.5039Z" fill="#F0F0F0"/>
<path d="M40.5703 18.1895C39.4977 17.1169 38.104 16.4832 36.6064 16.3744L41.0895 12.8875C39.304 11.1021 36.911 10.2957 34.5758 10.4662C34.2963 9.46162 33.7633 8.51269 32.9733 7.72266L31.2024 11.2643C31.0863 11.0527 30.9392 10.8534 30.7597 10.6741C29.7409 9.65531 28.0892 9.65531 27.0705 10.6741C26.0518 11.6929 26.0516 13.3446 27.0705 14.3633C27.2498 14.5427 27.4491 14.6898 27.6608 14.806L24.1191 16.5769C24.9094 17.3672 25.859 17.9005 26.8641 18.1799C26.693 20.515 27.4985 22.9077 29.2841 24.6933L33.201 19.6572C33.4956 19.3671 33.8848 19.2068 34.2988 19.2068C34.7169 19.2068 35.1099 19.3696 35.4055 19.6654C35.7012 19.961 35.864 20.3541 35.864 20.7721C35.864 21.1902 35.7012 21.5832 35.4055 21.8789L36.8813 23.3547C37.571 22.6649 37.951 21.7478 37.951 20.7722C37.951 19.974 37.6964 19.2152 37.2263 18.5878C37.9113 18.7707 38.5586 19.129 39.0949 19.6654C40.7224 21.2928 40.7224 23.9408 39.0949 25.5682L40.5707 27.044C41.7531 25.8614 42.4044 24.2892 42.4044 22.6168C42.4041 20.9442 41.7528 19.372 40.5703 18.1895Z" fill="#FFDA44"/>
</g>
<defs>
<clipPath id="clip0_2743_1947">
<rect x="0.394531" y="0.417969" width="48" height="48" rx="24" fill="white"/>
</clipPath>
</defs>
</svg>
