<svg width="49" height="49" viewBox="0 0 49 49" fill="none" xmlns="http://www.w3.org/2000/svg">
<g clip-path="url(#clip0_2743_1968)">
<path d="M24.3945 48.418C37.6494 48.418 48.3945 37.6728 48.3945 24.418C48.3945 11.1631 37.6494 0.417969 24.3945 0.417969C11.1397 0.417969 0.394531 11.1631 0.394531 24.418C0.394531 37.6728 11.1397 48.418 24.3945 48.418Z" fill="#F0F0F0"/>
<path d="M24.3945 0.417969V24.418L7.42383 41.3886C11.767 45.7317 17.767 48.418 24.3945 48.418C37.6492 48.418 48.3945 37.6727 48.3945 24.418C48.3945 11.1632 24.3945 0.417969 24.3945 0.417969Z" fill="#D80027"/>
<path d="M24.3945 0.417969C17.767 0.417969 11.767 3.10428 7.42383 7.44734C13.3123 13.3358 15.4026 15.4262 24.3945 24.418H48.3945C48.3945 11.1632 37.6492 0.417969 24.3945 0.417969Z" fill="#0052B4"/>
<path d="M16.829 24.4175L13.898 23.0388L15.4588 20.2002L12.276 20.8091L11.8727 17.5938L9.6557 19.9585L7.4388 17.5938L7.03539 20.8091L3.85267 20.2001L5.41352 23.0388L2.48242 24.4175L5.41352 25.7962L3.85267 28.6349L7.03567 28.0261L7.4387 31.2413L9.6557 28.8766L11.8727 31.2413L12.276 28.0261L15.4586 28.635L13.8979 25.7963L16.829 24.4175Z" fill="#FFDA44"/>
<path d="M6.79617 9.80859L7.77155 11.172L9.36952 10.6658L8.37408 12.0147L9.34945 13.3781L7.75889 12.8483L6.76355 14.1971L6.77602 12.5209L5.18555 11.991L6.7838 11.4848L6.79617 9.80859Z" fill="#FFDA44"/>
<path d="M6.79617 34.6367L7.77155 36.0001L9.36952 35.4939L8.37408 36.8428L9.34945 38.2062L7.75889 37.6765L6.76355 39.0252L6.77602 37.349L5.18555 36.8191L6.7838 36.313L6.79617 34.6367Z" fill="#FFDA44"/>
<path d="M20.7081 22.2227L19.7328 23.5861L18.1348 23.0797L19.1302 24.4287L18.1548 25.7922L19.7454 25.2623L20.7408 26.6111L20.7283 24.9349L22.3187 24.4051L20.7206 23.8989L20.7081 22.2227Z" fill="#FFDA44"/>
</g>
<defs>
<clipPath id="clip0_2743_1968">
<rect x="0.394531" y="0.417969" width="48" height="48" rx="24" fill="white"/>
</clipPath>
</defs>
</svg>
