<svg width="49" height="49" viewBox="0 0 49 49" fill="none" xmlns="http://www.w3.org/2000/svg">
<g clip-path="url(#clip0_2743_1977)">
<path d="M48.3945 24.418C48.3945 37.6727 37.6493 48.418 24.3945 48.418C11.1398 48.418 0.394531 37.6727 0.394531 24.418C0.394531 24.4237 24.3945 0.420594 24.3945 0.417969C37.6493 0.417969 48.3945 11.1632 48.3945 24.418Z" fill="#0052B4"/>
<path d="M24.3301 24.4177H24.3943C24.3943 24.3962 24.3943 24.3752 24.3943 24.3535C24.3729 24.375 24.3515 24.3964 24.3301 24.4177Z" fill="#F0F0F0"/>
<path d="M24.3945 12.9397C24.3945 8.71672 24.3945 5.94969 24.3945 0.417969H24.3905C11.1374 0.420219 0.394531 11.1644 0.394531 24.418H12.9163V17.3669L19.9673 24.418H24.3304C24.3518 24.3966 24.3732 24.3752 24.3946 24.3538C24.3946 22.7368 24.3946 21.2941 24.3946 19.9909L17.3434 12.9397H24.3945Z" fill="#F0F0F0"/>
<path d="M12.537 3.54883C8.78336 5.68623 5.6627 8.8068 3.52539 12.5605V24.4184H9.7863V9.80992V9.80973H24.395C24.395 7.83508 24.395 5.95389 24.395 3.54883H12.537Z" fill="#D80027"/>
<path d="M24.3943 21.4663L15.8673 12.9395H12.916V12.9396L24.3941 24.4176H24.3943C24.3943 24.4176 24.3943 22.3826 24.3943 21.4663Z" fill="#D80027"/>
<path d="M37.9606 15.026L34.8301 16.0695L31.6997 15.026L30.6562 12.4173L31.6997 9.80859H37.9606L36.9171 12.4173L37.9606 15.026Z" fill="#ACABB1"/>
<path d="M27.5254 15.0273V26.5055C27.5254 32.0968 34.8297 33.81 34.8297 33.81C34.8297 33.81 42.1341 32.0968 42.1341 26.5055V15.0273H27.5254Z" fill="#338AF3"/>
<path d="M28.1836 29.2232C29.9791 32.6703 34.8295 33.8084 34.8295 33.8084C34.8295 33.8084 39.68 32.6703 41.4755 29.2232L34.8295 18.1562L28.1836 29.2232Z" fill="#6DA544"/>
<path d="M42.1341 26.3896L34.8297 15.0273L27.5254 26.3897V26.5055C27.5254 27.5403 27.7761 28.442 28.1838 29.2248L34.8297 18.8866L41.4757 29.2248C41.8834 28.4418 42.1341 27.5402 42.1341 26.5054V26.3896Z" fill="#FFDA44"/>
</g>
<defs>
<clipPath id="clip0_2743_1977">
<rect x="0.394531" y="0.417969" width="48" height="48" rx="24" fill="white"/>
</clipPath>
</defs>
</svg>
