<svg width="49" height="49" viewBox="0 0 49 49" fill="none" xmlns="http://www.w3.org/2000/svg">
<g clip-path="url(#clip0_2743_1993)">
<path d="M0.394531 24.4174C0.394531 34.7364 6.90753 43.5335 16.0466 46.9245L18.1336 24.4173L16.0466 1.91016C6.90753 5.30128 0.394531 14.0982 0.394531 24.4174Z" fill="#6DA544"/>
<path d="M48.3948 24.418C48.3948 11.1632 37.6496 0.417969 24.3948 0.417969C21.4592 0.417969 18.6469 0.946063 16.0469 1.91075V46.9252C18.6469 47.89 21.4592 48.418 24.3948 48.418C37.6496 48.418 48.3948 37.6727 48.3948 24.418Z" fill="#D80027"/>
<path d="M16.047 32.7659C20.6574 32.7659 24.3948 29.0284 24.3948 24.4181C24.3948 19.8077 20.6574 16.0703 16.047 16.0703C11.4366 16.0703 7.69922 19.8077 7.69922 24.4181C7.69922 29.0284 11.4366 32.7659 16.047 32.7659Z" fill="#FFDA44"/>
<path d="M11.3516 20.2441V25.4615C11.3516 28.0548 13.4538 30.1572 16.0472 30.1572C18.6406 30.1572 20.7429 28.0549 20.7429 25.4615V20.2441H11.3516Z" fill="#D80027"/>
<path d="M16.0477 27.0271C15.1846 27.0271 14.4824 26.3249 14.4824 25.4619V23.375H17.6128V25.462C17.6128 26.3249 16.9106 27.0271 16.0477 27.0271Z" fill="#F0F0F0"/>
</g>
<defs>
<clipPath id="clip0_2743_1993">
<rect x="0.394531" y="0.417969" width="48" height="48" rx="24" fill="white"/>
</clipPath>
</defs>
</svg>
