<svg width="49" height="49" viewBox="0 0 49 49" fill="none" xmlns="http://www.w3.org/2000/svg">
<g clip-path="url(#clip0_2743_1999)">
<path d="M24.3945 48.418C37.6494 48.418 48.3945 37.6728 48.3945 24.418C48.3945 11.1631 37.6494 0.417969 24.3945 0.417969C11.1397 0.417969 0.394531 11.1631 0.394531 24.418C0.394531 37.6728 11.1397 48.418 24.3945 48.418Z" fill="#F0F0F0"/>
<path d="M24.3944 0.417969C16.5426 0.417969 9.57186 4.18888 5.19336 10.018H43.5954C39.2169 4.18888 32.2461 0.417969 24.3944 0.417969Z" fill="#D80027"/>
<path d="M24.3944 48.4184C32.2461 48.4184 39.2169 44.6475 43.5954 38.8184H5.19336C9.57186 44.6475 16.5426 48.4184 24.3944 48.4184Z" fill="#D80027"/>
<path d="M0.394531 24.4172C0.394531 26.0611 0.560281 27.6663 0.875187 29.2172H47.9141C48.229 27.6663 48.3945 26.0611 48.3945 24.4172C48.3945 22.7733 48.2288 21.1681 47.914 19.6172H0.875187C0.560281 21.1681 0.394531 22.7733 0.394531 24.4172H0.394531Z" fill="#D80027"/>
<path d="M7.42395 7.44727C-1.94861 16.8198 -1.94861 32.0159 7.42395 41.3885C11.297 37.5154 15.022 33.7904 24.3946 24.4179L7.42395 7.44727Z" fill="#0052B4"/>
<path d="M10.1084 18.1562L11.6623 22.939H16.6916L12.6231 25.8951L14.1769 30.6781L10.1084 27.722L6.03977 30.6781L7.59395 25.8951L3.52539 22.939H8.55433L10.1084 18.1562Z" fill="#F0F0F0"/>
</g>
<defs>
<clipPath id="clip0_2743_1999">
<rect x="0.394531" y="0.417969" width="48" height="48" rx="24" fill="white"/>
</clipPath>
</defs>
</svg>
