<svg width="49" height="49" viewBox="0 0 49 49" fill="none" xmlns="http://www.w3.org/2000/svg">
<g clip-path="url(#clip0_2743_2007)">
<path d="M24.3945 48.418C37.6494 48.418 48.3945 37.6728 48.3945 24.418C48.3945 11.1631 37.6494 0.417969 24.3945 0.417969C11.1397 0.417969 0.394531 11.1631 0.394531 24.418C0.394531 37.6728 11.1397 48.418 24.3945 48.418Z" fill="#F0F0F0"/>
<path d="M48.3938 24.418C48.3938 11.1632 37.6486 0.417969 24.3938 0.417969C19.6988 0.417969 15.3194 1.7675 11.6202 4.09775L16.8808 6.33284L9.78516 9.34766L16.8808 12.3624L9.78516 15.377L16.8808 18.3915L9.78516 21.4057L16.8808 24.4197L9.78516 27.4343L16.8808 30.4487L9.78516 33.4629L16.8808 36.4773L9.78516 39.4919L16.8808 42.5061L11.6226 44.74C15.3213 47.0691 19.6998 48.418 24.3938 48.418C37.6486 48.418 48.3938 37.6727 48.3938 24.418Z" fill="#751A46"/>
</g>
<defs>
<clipPath id="clip0_2743_2007">
<rect x="0.394531" y="0.417969" width="48" height="48" rx="24" fill="white"/>
</clipPath>
</defs>
</svg>
