<svg width="49" height="49" viewBox="0 0 49 49" fill="none" xmlns="http://www.w3.org/2000/svg">
<g clip-path="url(#clip0_2743_2010)">
<path d="M24.3945 48.418C37.6494 48.418 48.3945 37.6728 48.3945 24.418C48.3945 11.1631 37.6494 0.417969 24.3945 0.417969C11.1397 0.417969 0.394531 11.1631 0.394531 24.418C0.394531 37.6728 11.1397 48.418 24.3945 48.418Z" fill="#FCFCFC"/>
<path d="M31.6982 20.2441V22.3311H34.5624C33.3671 23.9924 31.775 25.3485 29.9251 26.2618C29.4505 25.7687 28.7842 25.4615 28.046 25.4615C26.8014 25.4615 25.7612 26.3333 25.5007 27.4995C25.136 27.5315 24.7669 27.5485 24.3938 27.5485C24.0208 27.5485 23.6517 27.5313 23.287 27.4995C23.0265 26.3334 21.9862 25.4615 20.7417 25.4615C20.0034 25.4615 19.3373 25.7687 18.8626 26.2618C17.0127 25.3486 15.4207 23.9923 14.2253 22.3311H17.0895V20.2441H9.78516C9.78516 28.3122 16.3258 34.8528 24.3938 34.8528C32.4621 34.8528 39.0025 28.3122 39.0025 20.2441H31.6982Z" fill="#D80027"/>
</g>
<defs>
<clipPath id="clip0_2743_2010">
<rect x="0.394531" y="0.417969" width="48" height="48" rx="24" fill="white"/>
</clipPath>
</defs>
</svg>
