<svg width="49" height="49" viewBox="0 0 49 49" fill="none" xmlns="http://www.w3.org/2000/svg">
<g clip-path="url(#clip0_2743_2026)">
<path d="M13.4046 45.7599L31.0357 31.0592L45.7364 13.4282C43.4508 8.99866 39.8266 5.37251 35.3989 3.08398L17.7539 17.7775L3.06055 35.4223C5.34889 39.8502 8.97504 43.4743 13.4046 45.7599Z" fill="#FFDA44"/>
<path d="M41.3665 41.3899C48.9383 33.8181 50.3919 22.4465 45.7302 13.4141L13.3906 45.7536C22.423 50.4152 33.7947 48.9617 41.3665 41.3899Z" fill="#D80027"/>
<path d="M7.42326 7.44669C-0.148542 15.0185 -1.60204 26.3901 3.05948 35.4226L35.3991 3.08301C26.3667 -1.5787 14.9951 -0.125017 7.42326 7.44669Z" fill="#6DA544"/>
</g>
<defs>
<clipPath id="clip0_2743_2026">
<rect x="0.394531" y="0.417969" width="48" height="48" rx="24" fill="white"/>
</clipPath>
</defs>
</svg>
