<svg width="49" height="49" viewBox="0 0 49 49" fill="none" xmlns="http://www.w3.org/2000/svg">
<g clip-path="url(#clip0_2743_2013)">
<path d="M24.3945 48.418C37.6494 48.418 48.3945 37.6728 48.3945 24.418C48.3945 11.1631 37.6494 0.417969 24.3945 0.417969C11.1397 0.417969 0.394531 11.1631 0.394531 24.418C0.394531 37.6728 11.1397 48.418 24.3945 48.418Z" fill="#FFDA44"/>
<path d="M28.0444 48.1421C31.9478 47.5466 35.5408 46.0094 38.5872 43.7716L24.3945 24.418L28.0444 48.1421Z" fill="#D80027"/>
<path d="M20.744 0.693359C16.8407 1.28886 13.2477 2.82598 10.2012 5.0637L24.394 24.4175L20.744 0.693359Z" fill="#D80027"/>
<path d="M10.2012 43.7716C13.2475 46.0093 16.8405 47.5465 20.7438 48.1422L24.394 24.418L10.2012 43.7716Z" fill="#D80027"/>
<path d="M5.04027 10.2246C2.80245 13.2711 1.26552 16.8641 0.669922 20.7675L24.394 24.4174L5.04027 10.2246Z" fill="#D80027"/>
<path d="M0.669922 28.0678C1.26542 31.9712 2.80255 35.5643 5.04036 38.6106L24.394 24.418L0.669922 28.0678Z" fill="#D80027"/>
<path d="M48.1186 20.7674C47.523 16.8641 45.986 13.271 43.7482 10.2246L24.3945 24.4173L48.1186 20.7674Z" fill="#D80027"/>
<path d="M38.5872 5.06361C35.5408 2.82589 31.9478 1.28886 28.0444 0.693359L24.3945 24.4175L38.5872 5.06361Z" fill="#D80027"/>
<path d="M43.7484 38.6107C45.9861 35.5643 47.5231 31.9711 48.1188 28.0679L24.3945 24.418L43.7484 38.6107Z" fill="#D80027"/>
<path d="M24.3947 32.7659C29.005 32.7659 32.7424 29.0284 32.7424 24.4181C32.7424 19.8077 29.005 16.0703 24.3947 16.0703C19.7843 16.0703 16.0469 19.8077 16.0469 24.4181C16.0469 29.0284 19.7843 32.7659 24.3947 32.7659Z" fill="#D80027"/>
<path d="M24.3937 30.6781C27.8515 30.6781 30.6546 27.875 30.6546 24.4172C30.6546 20.9594 27.8515 18.1562 24.3937 18.1562C20.9359 18.1562 18.1328 20.9594 18.1328 24.4172C18.1328 27.875 20.9359 30.6781 24.3937 30.6781Z" fill="#FFDA44"/>
</g>
<defs>
<clipPath id="clip0_2743_2013">
<rect x="0.394531" y="0.417969" width="48" height="48" rx="24" fill="white"/>
</clipPath>
</defs>
</svg>
