<svg width="49" height="49" viewBox="0 0 49 49" fill="none" xmlns="http://www.w3.org/2000/svg">
<g clip-path="url(#clip0_2743_2030)">
<path d="M32.7415 1.91066C30.1415 0.946063 27.3294 0.417969 24.3937 0.417969C21.458 0.417875 18.6459 0.946063 16.046 1.91066L13.959 24.4179L16.046 46.9251C18.6458 47.89 21.458 48.418 24.3937 48.418C27.3293 48.418 30.1415 47.89 32.7415 46.9251L34.8284 24.418L32.7415 1.91066Z" fill="#FFDA44"/>
<path d="M48.3944 24.4174C48.3944 14.0983 41.8814 5.30109 32.7422 1.91016V46.9248C41.8814 43.5335 48.3943 34.7366 48.3944 24.4174Z" fill="#D80027"/>
<path d="M0.394531 24.4172C0.394531 34.7365 6.90753 43.5334 16.0466 46.9246L16.0467 1.91016C6.90753 5.30109 0.394531 14.098 0.394531 24.4172H0.394531Z" fill="#0052B4"/>
</g>
<defs>
<clipPath id="clip0_2743_2030">
<rect x="0.394531" y="0.417969" width="48" height="48" rx="24" fill="white"/>
</clipPath>
</defs>
</svg>
