<svg width="49" height="49" viewBox="0 0 49 49" fill="none" xmlns="http://www.w3.org/2000/svg">
<g clip-path="url(#clip0_2743_2034)">
<path d="M24.3945 48.418C37.6494 48.418 48.3945 37.6728 48.3945 24.418C48.3945 11.1631 37.6494 0.417969 24.3945 0.417969C11.1397 0.417969 0.394531 11.1631 0.394531 24.418C0.394531 37.6728 11.1397 48.418 24.3945 48.418Z" fill="#F0F0F0"/>
<path d="M46.9017 32.7659C47.8665 30.1659 48.3945 27.3538 48.3945 24.4181C48.3945 21.4824 47.8665 18.6703 46.9017 16.0703H1.88731C0.922625 18.6703 0.394531 21.4824 0.394531 24.4181C0.394531 27.3538 0.922625 30.1659 1.88731 32.7659L24.3945 34.8528L46.9017 32.7659Z" fill="#0052B4"/>
<path d="M24.3939 48.4178C34.7131 48.4178 43.5101 41.9048 46.9012 32.7656H1.88672C5.27775 41.9048 14.0748 48.4178 24.3939 48.4178Z" fill="#D80027"/>
</g>
<defs>
<clipPath id="clip0_2743_2034">
<rect x="0.394531" y="0.417969" width="48" height="48" rx="24" fill="white"/>
</clipPath>
</defs>
</svg>
