<svg width="49" height="49" viewBox="0 0 49 49" fill="none" xmlns="http://www.w3.org/2000/svg">
<g clip-path="url(#clip0_2743_2038)">
<path d="M0.394531 24.417C0.394531 28.5749 1.45231 32.4855 3.31269 35.8953L24.3945 37.9823L45.4764 35.8953C47.3368 32.4855 48.3945 28.5749 48.3945 24.417L24.3945 22.3301L0.394531 24.417Z" fill="#FFDA44"/>
<path d="M45.4764 12.9397C41.4058 5.47944 33.4916 0.417969 24.3945 0.417969C15.2975 0.417969 7.38322 5.47944 3.31269 12.9397C1.45231 16.3495 0.394531 20.2602 0.394531 24.418H48.3945C48.3945 20.2602 47.3368 16.3495 45.4764 12.9397Z" fill="#338AF3"/>
<path d="M24.3943 48.4182C33.4914 48.4182 41.4057 43.3567 45.4762 35.8965H3.3125C7.38303 43.3567 15.2973 48.4182 24.3943 48.4182Z" fill="#496E2D"/>
<path d="M27.5254 14.4643L30.4566 15.8431L28.8957 18.6818L32.0785 18.073L32.4819 21.2882L34.6987 18.9234L36.9157 21.2882L37.3189 18.073L40.5017 18.6817L38.941 15.843L41.872 14.4643L38.9409 13.0857L40.5017 10.247L37.319 10.8558L36.9156 7.64062L34.6987 10.0054L32.4818 7.64062L32.0785 10.8558L28.8956 10.247L30.4565 13.0858L27.5254 14.4643Z" fill="#FFDA44"/>
</g>
<defs>
<clipPath id="clip0_2743_2038">
<rect x="0.394531" y="0.417969" width="48" height="48" rx="24" fill="white"/>
</clipPath>
</defs>
</svg>
