<svg width="49" height="49" viewBox="0 0 49 49" fill="none" xmlns="http://www.w3.org/2000/svg">
<g clip-path="url(#clip0_2743_2052)">
<path d="M2.77597 13.9835C1.25028 17.1387 0.394531 20.6784 0.394531 24.4182C0.394531 28.158 1.25028 31.6977 2.77597 34.853L24.3945 36.9399L46.0131 34.853C47.5388 31.6977 48.3945 28.158 48.3945 24.4182C48.3945 20.6784 47.5388 17.1387 46.0131 13.9835L24.3945 11.8965L2.77597 13.9835Z" fill="#F0F0F0"/>
<path d="M2.77734 34.8535C6.65916 42.8814 14.8801 48.4188 24.3951 48.4188C33.91 48.4188 42.131 42.8814 46.0128 34.8535H2.77734Z" fill="#496E2D"/>
<path d="M2.77734 13.9832H46.0128C42.131 5.95531 33.9101 0.417969 24.3951 0.417969C14.88 0.417969 6.65916 5.95531 2.77734 13.9832Z" fill="black"/>
<path d="M7.42395 7.44727C-1.94861 16.8198 -1.94861 32.0159 7.42395 41.3885C11.297 37.5154 15.022 33.7904 24.3946 24.4179L7.42395 7.44727Z" fill="#D80027"/>
<path d="M30.6559 24.4176C30.6559 20.9209 33.1134 17.9998 36.395 17.2832C35.8906 17.173 35.3673 17.1133 34.8297 17.1133C30.7956 17.1133 27.5254 20.3835 27.5254 24.4176C27.5254 28.4518 30.7956 31.722 34.8297 31.722C35.3672 31.722 35.8905 31.6623 36.395 31.5521C33.1134 30.8355 30.6559 27.9143 30.6559 24.4176Z" fill="#D80027"/>
<path d="M36.7011 19.7227L37.7373 22.9115H41.0899L38.3776 24.8819L39.4137 28.0705L36.7011 26.0999L33.9888 28.0705L35.0251 24.8819L32.3125 22.9115H35.6651L36.7011 19.7227Z" fill="#D80027"/>
</g>
<defs>
<clipPath id="clip0_2743_2052">
<rect x="0.394531" y="0.417969" width="48" height="48" rx="24" fill="white"/>
</clipPath>
</defs>
</svg>
