<svg width="49" height="49" viewBox="0 0 49 49" fill="none" xmlns="http://www.w3.org/2000/svg">
<g clip-path="url(#clip0_2743_2060)">
<path d="M48.3945 24.418C48.3945 37.6727 37.6493 48.418 24.3945 48.418C11.1398 48.418 0.394531 37.6727 0.394531 24.418C8.63797 16.1745 15.6293 9.18322 24.3945 0.417969C37.6493 0.417969 48.3945 11.1632 48.3945 24.418Z" fill="#D80027"/>
<path d="M24.3945 24.418C24.3945 11.1632 24.3945 9.60059 24.3945 0.417969C11.1398 0.417969 0.394531 11.1632 0.394531 24.418H24.3945Z" fill="#0052B4"/>
<path d="M19.6184 16.0703L20.007 17.2661H21.2642L20.247 18.0049L20.6356 19.2007L19.6184 18.4617L18.6013 19.2007L18.9898 18.0049L17.9727 17.2661H19.2298L19.6184 16.0703Z" fill="#F0F0F0"/>
<path d="M13.3035 6.67969L13.951 8.67272H16.0465L14.3511 9.90413L14.9989 11.8971L13.3035 10.6653L11.6082 11.8971L12.2558 9.90413L10.5605 8.67272H12.6559L13.3035 6.67969Z" fill="#F0F0F0"/>
<path d="M19.5652 8.76562L20.2127 10.7588H22.3081L20.6129 11.9902L21.2604 13.9831L19.5652 12.7513L17.8699 13.9831L18.5175 11.9902L16.8223 10.7588H18.9176L19.5652 8.76562Z" fill="#F0F0F0"/>
<path d="M14.616 17.1152L15.2636 19.1083H17.3589L15.6636 20.3397L16.3113 22.3326L14.616 21.1009L12.9207 22.3326L13.5683 20.3397L11.873 19.1083H13.9685L14.616 17.1152Z" fill="#F0F0F0"/>
<path d="M9.12956 11.8965L9.77719 13.8895H11.8726L10.1772 15.1209L10.8248 17.1139L9.12956 15.8822L7.43438 17.1139L8.08191 15.1209L6.38672 13.8895H8.48203L9.12956 11.8965Z" fill="#F0F0F0"/>
</g>
<defs>
<clipPath id="clip0_2743_2060">
<rect x="0.394531" y="0.417969" width="48" height="48" rx="24" fill="white"/>
</clipPath>
</defs>
</svg>
