<svg width="49" height="49" viewBox="0 0 49 49" fill="none" xmlns="http://www.w3.org/2000/svg">
<g clip-path="url(#clip0_2743_2069)">
<path d="M48.3945 24.4175C48.3945 37.6723 37.6493 48.4175 24.3945 48.4175C11.1398 48.4175 0.394531 37.6723 0.394531 24.4175C1.43797 24.4175 24.3945 21.2871 24.3945 21.2871L48.3945 24.4175Z" fill="#338AF3"/>
<path d="M0.394531 24.418C0.394531 11.1632 11.1398 0.417969 24.3945 0.417969C37.6493 0.417969 48.3945 11.1632 48.3945 24.418" fill="#F0F0F0"/>
<path d="M33.9207 16.9785L24.3942 26.5051L14.8677 16.9785C13.6357 18.8073 12.916 21.0085 12.916 23.3746V26.505C12.916 31.5315 16.164 35.8134 20.6712 37.3631C20.0696 38.5421 20.171 40.0135 21.0526 41.1137C22.2233 40.1754 23.4354 39.204 24.4637 38.3801C25.4919 39.2041 26.7041 40.1755 27.8748 41.1137C28.7666 40.0007 28.8607 38.5073 28.2354 37.3213C32.681 35.7379 35.8724 31.4875 35.8724 26.505V23.3747C35.8725 21.0085 35.1527 18.8074 33.9207 16.9785Z" fill="#6DA544"/>
<path d="M24.3947 34.8533C19.7916 34.8533 16.0469 31.1085 16.0469 26.5055V23.3751C16.0469 18.7721 19.7917 15.0273 24.3947 15.0273C28.9976 15.0273 32.7424 18.7722 32.7424 23.3751V26.5055C32.7424 31.1085 28.9977 34.8533 24.3947 34.8533Z" fill="#FFDA44"/>
<path d="M29.6125 26.504V23.3736C29.6125 20.4967 27.2719 18.1562 24.3951 18.1562C21.5183 18.1562 19.1777 20.4968 19.1777 23.3736V26.504L24.3951 27.5475L29.6125 26.504Z" fill="#338AF3"/>
<path d="M19.1777 26.5059C19.1777 29.3828 21.5183 31.7232 24.3951 31.7232C27.2719 31.7232 29.6125 29.3827 29.6125 26.5059H19.1777Z" fill="#6DA544"/>
<path d="M30.6545 15.027C30.6545 13.2982 29.253 11.8966 27.5241 11.8966C26.7221 11.8966 25.9911 12.1985 25.4372 12.6943V10.8531H26.4806V8.76609H25.4372V7.72266H23.3502V8.76609H22.3068V10.8531H23.3502V12.6943C22.7962 12.1985 22.0652 11.8966 21.2632 11.8966C19.5344 11.8966 18.1328 13.2982 18.1328 15.027C18.1328 15.9539 18.536 16.7864 19.1763 17.3597V19.2009H29.611V17.3597C30.2513 16.7864 30.6545 15.9539 30.6545 15.027Z" fill="#FFDA44"/>
</g>
<defs>
<clipPath id="clip0_2743_2069">
<rect x="0.394531" y="0.417969" width="48" height="48" rx="24" fill="white"/>
</clipPath>
</defs>
</svg>
