<svg width="49" height="49" viewBox="0 0 49 49" fill="none" xmlns="http://www.w3.org/2000/svg">
<g clip-path="url(#clip0_2743_2085)">
<path d="M24.3945 48.418C37.6494 48.418 48.3945 37.6728 48.3945 24.418C48.3945 11.1631 37.6494 0.417969 24.3945 0.417969C11.1397 0.417969 0.394531 11.1631 0.394531 24.418C0.394531 37.6728 11.1397 48.418 24.3945 48.418Z" fill="#F0F0F0"/>
<path d="M48.1914 21.2876H27.5251H27.525V0.621125C26.5002 0.487719 25.4555 0.417969 24.3945 0.417969C23.3336 0.417969 22.2888 0.487719 21.2641 0.621125V21.2874V21.2875H0.597688C0.464281 22.3123 0.394531 23.357 0.394531 24.418C0.394531 25.4789 0.464281 26.5237 0.597688 27.5484H21.2639H21.264V48.2148C22.2888 48.3482 23.3336 48.418 24.3945 48.418C25.4555 48.418 26.5002 48.3483 27.5249 48.2148V27.5487V27.5485H48.1914C48.3248 26.5237 48.3945 25.4789 48.3945 24.418C48.3945 23.357 48.3248 22.3123 48.1914 21.2876Z" fill="#D80027"/>
<path d="M35.8725 8.76562C33.9275 8.76562 32.2934 10.0958 31.8301 11.896L35.8725 12.9395L39.9149 11.896C39.4516 10.0959 37.8174 8.76562 35.8725 8.76562Z" fill="black"/>
<path d="M31.6997 18.1568L36.9171 19.2003V16.9819C38.3838 16.6042 39.5382 15.4495 39.9158 13.9829L35.8736 12.9395H30.6562L31.6997 16.0699V18.1568Z" fill="black"/>
<path d="M39.916 11.8965H30.6562V13.9835V16.0704H31.6997V13.9835H39.9158C40.0016 13.65 40.0476 13.3003 40.0476 12.94C40.0476 12.5796 40.0019 12.23 39.916 11.8965Z" fill="#ACABB1"/>
<path d="M13.9604 8.76562C12.0154 8.76562 10.3813 10.0958 9.91797 11.896L13.9604 12.9395L18.0028 11.896C17.5395 10.0959 15.9053 8.76562 13.9604 8.76562Z" fill="black"/>
<path d="M9.78572 18.1568L15.0031 19.2003V16.9819C16.4698 16.6042 17.6243 15.4495 18.0018 13.9829L13.9597 12.9395H8.74219L9.78562 16.0699V18.1568H9.78572Z" fill="black"/>
<path d="M18.0021 11.8965H8.74219V13.9835V16.0704H9.78562V13.9835H18.0017C18.0876 13.65 18.1335 13.3003 18.1335 12.94C18.1335 12.5796 18.0879 12.23 18.0021 11.8965Z" fill="#ACABB1"/>
<path d="M35.8725 29.6348C33.9275 29.6348 32.2934 30.965 31.8301 32.7652L35.8725 33.8086L39.9149 32.7652C39.4516 30.965 37.8174 29.6348 35.8725 29.6348Z" fill="black"/>
<path d="M31.6997 39.026L36.9171 40.0694V37.851C38.3838 37.4734 39.5382 36.3187 39.9158 34.852L35.8736 33.8086H30.6562L31.6997 36.939V39.026Z" fill="black"/>
<path d="M39.916 32.7656H30.6562V34.8526V36.9396H31.6997V34.8526H39.9158C40.0016 34.5191 40.0476 34.1694 40.0476 33.8092C40.0476 33.4489 40.0019 33.0992 39.916 32.7656Z" fill="#ACABB1"/>
<path d="M13.9604 29.6348C12.0154 29.6348 10.3813 30.965 9.91797 32.7652L13.9604 33.8086L18.0028 32.7652C17.5395 30.965 15.9053 29.6348 13.9604 29.6348Z" fill="black"/>
<path d="M9.78572 39.026L15.0031 40.0694V37.851C16.4698 37.4734 17.6243 36.3187 18.0018 34.852L13.9597 33.8086H8.74219L9.78562 36.939V39.026H9.78572Z" fill="black"/>
<path d="M18.0021 32.7656H8.74219V34.8526V36.9396H9.78562V34.8526H18.0017C18.0876 34.5191 18.1335 34.1694 18.1335 33.8092C18.1335 33.4489 18.0879 33.0992 18.0021 32.7656Z" fill="#ACABB1"/>
</g>
<defs>
<clipPath id="clip0_2743_2085">
<rect x="0.394531" y="0.417969" width="48" height="48" rx="24" fill="white"/>
</clipPath>
</defs>
</svg>
