<svg width="49" height="49" viewBox="0 0 49 49" fill="none" xmlns="http://www.w3.org/2000/svg">
<g clip-path="url(#clip0_2743_2100)">
<path d="M24.3945 48.418C37.6494 48.418 48.3945 37.6728 48.3945 24.418C48.3945 11.1631 37.6494 0.417969 24.3945 0.417969C11.1397 0.417969 0.394531 11.1631 0.394531 24.418C0.394531 37.6728 11.1397 48.418 24.3945 48.418Z" fill="#6DA544"/>
<path d="M13.959 29.1133C13.959 30.8421 15.3605 32.2437 17.0894 32.2437H26.4807C26.4807 33.6844 27.6486 34.8524 29.0894 34.8524H32.2198C33.6605 34.8524 34.8285 33.6844 34.8285 32.2437V29.1133H13.959Z" fill="#F0F0F0"/>
<path d="M35.0909 13.9824V21.2868C35.0909 22.4375 34.1547 23.3737 33.0039 23.3737V26.5041C35.8808 26.5041 38.2213 24.1636 38.2213 21.2868V13.9824H35.0909Z" fill="#F0F0F0"/>
<path d="M12.6553 21.2868C12.6553 22.4375 11.7191 23.3737 10.5684 23.3737V26.5041C13.4453 26.5041 15.7857 24.1636 15.7857 21.2868V13.9824H12.6553V21.2868Z" fill="#F0F0F0"/>
<path d="M30.3945 13.9824H33.5249V21.2868H30.3945V13.9824Z" fill="#F0F0F0"/>
<path d="M25.6993 18.1564C25.6993 18.4441 25.4653 18.6781 25.1776 18.6781C24.89 18.6781 24.6559 18.444 24.6559 18.1564V13.9824H21.5255V18.1564C21.5255 18.4441 21.2914 18.6781 21.0038 18.6781C20.7162 18.6781 20.4821 18.444 20.4821 18.1564V13.9824H17.3516V18.1564C17.3516 20.1702 18.9899 21.8086 21.0038 21.8086C21.7794 21.8086 22.4986 21.5648 23.0908 21.1508C23.6828 21.5647 24.4021 21.8086 25.1777 21.8086C25.3339 21.8086 25.4875 21.7976 25.6385 21.7784C25.4167 22.6924 24.5936 23.3737 23.6125 23.3737V26.5041C26.4894 26.5041 28.8298 24.1636 28.8298 21.2868V18.1564V13.9824H25.6994V18.1564H25.6993Z" fill="#F0F0F0"/>
<path d="M17.3516 23.373H22.0472V26.5035H17.3516V23.373Z" fill="#F0F0F0"/>
</g>
<defs>
<clipPath id="clip0_2743_2100">
<rect x="0.394531" y="0.417969" width="48" height="48" rx="24" fill="white"/>
</clipPath>
</defs>
</svg>
