<svg width="49" height="49" viewBox="0 0 49 49" fill="none" xmlns="http://www.w3.org/2000/svg">
<g clip-path="url(#clip0_2743_2109)">
<path d="M24.3945 48.418C37.6494 48.418 48.3945 37.6728 48.3945 24.418C48.3945 11.1631 37.6494 0.417969 24.3945 0.417969C11.1397 0.417969 0.394531 11.1631 0.394531 24.418C0.394531 37.6728 11.1397 48.418 24.3945 48.418Z" fill="#F0F0F0"/>
<path d="M39.0063 5.37922C34.9594 2.2685 29.8936 0.417969 24.3948 0.417969C18.896 0.417969 13.8301 2.26859 9.7832 5.37922L24.3948 19.9907L39.0063 5.37922Z" fill="#0052B4"/>
<path d="M5.35569 9.80664C2.24516 13.8535 0.394531 18.9193 0.394531 24.4181C0.394531 29.917 2.24516 34.9828 5.35578 39.0298L19.9674 24.4181L5.35569 9.80664Z" fill="#0052B4"/>
<path d="M9.7832 43.4572C13.8302 46.5679 18.896 48.4185 24.3948 48.4185C29.8936 48.4185 34.9594 46.5678 39.0064 43.4572L24.3948 28.8457L9.7832 43.4572Z" fill="#0052B4"/>
<path d="M43.4338 39.0296C46.5445 34.9827 48.395 29.917 48.395 24.4181C48.395 18.9193 46.5445 13.8535 43.4338 9.80664L28.8223 24.4181L43.4338 39.0296Z" fill="#0052B4"/>
</g>
<defs>
<clipPath id="clip0_2743_2109">
<rect x="0.394531" y="0.417969" width="48" height="48" rx="24" fill="white"/>
</clipPath>
</defs>
</svg>
