<svg width="49" height="49" viewBox="0 0 49 49" fill="none" xmlns="http://www.w3.org/2000/svg">
<g clip-path="url(#clip0_2743_2116)">
<path d="M34.8295 2.79941C31.6743 1.27372 28.1345 0.417969 24.3948 0.417969C20.6551 0.417969 17.1153 1.27372 13.96 2.79941L11.873 24.418L13.96 46.0365C17.1153 47.5622 20.6551 48.418 24.3948 48.418C28.1345 48.418 31.6743 47.5622 34.8295 46.0365L36.9165 24.418L34.8295 2.79941Z" fill="#FFDA44"/>
<path d="M24.3944 16.0703L26.4663 22.4472H33.1721L27.7473 26.3887L29.8193 32.7659L24.3944 28.8246L18.9696 32.7659L21.0419 26.3887L15.6172 22.4472H22.3225L24.3944 16.0703Z" fill="#496E2D"/>
<path d="M13.9598 2.80078C5.93197 6.68269 0.394531 14.9035 0.394531 24.4185C0.394531 33.9335 5.93197 42.1543 13.9598 46.0362V2.80078Z" fill="#496E2D"/>
<path d="M34.8301 2.80078V46.0362C42.8579 42.1543 48.3953 33.9335 48.3953 24.4185C48.3953 14.9035 42.8579 6.68269 34.8301 2.80078Z" fill="#D80027"/>
</g>
<defs>
<clipPath id="clip0_2743_2116">
<rect x="0.394531" y="0.417969" width="48" height="48" rx="24" fill="white"/>
</clipPath>
</defs>
</svg>
