<svg width="49" height="49" viewBox="0 0 49 49" fill="none" xmlns="http://www.w3.org/2000/svg">
<g clip-path="url(#clip0_2743_2122)">
<path d="M24.3945 48.418C37.6494 48.418 48.3945 37.6728 48.3945 24.418C48.3945 11.1631 37.6494 0.417969 24.3945 0.417969C11.1397 0.417969 0.394531 11.1631 0.394531 24.418C0.394531 37.6728 11.1397 48.418 24.3945 48.418Z" fill="#F0F0F0"/>
<path d="M24.3945 0.417969C11.1398 0.417969 0.394531 11.1632 0.394531 24.418C0.394531 27.3537 0.922625 30.1659 1.88731 32.7658H46.9018C47.8665 30.1659 48.3945 27.3537 48.3945 24.418C48.3945 11.1632 37.6493 0.417969 24.3945 0.417969Z" fill="#0052B4"/>
<path d="M24.3939 0.417969C14.0748 0.417969 5.27775 6.93097 1.88672 16.0702H46.9012C43.5101 6.93097 34.7131 0.417969 24.3939 0.417969Z" fill="#D80027"/>
<path d="M6.59961 13.9824V25.9549C6.59961 32.7652 15.4966 34.852 15.4966 34.852C15.4966 34.852 24.3935 32.7652 24.3935 25.9549V13.9824H6.59961Z" fill="#D80027"/>
<path d="M10.2793 16.0695H20.7141V11.8956L18.6272 12.939L15.4968 9.80859L12.3663 12.939L10.2793 11.8956V16.0695Z" fill="#FFDA44"/>
<path d="M22.3074 27.6225L15.5248 20.8398L8.74219 27.6225L10.9557 29.836L15.5248 25.2669L20.0939 29.836L22.3074 27.6225Z" fill="#FFDA44"/>
<path d="M22.3074 21.2884H19.1428C19.3208 20.9813 19.4242 20.6256 19.4242 20.2452C19.4242 19.0924 18.4898 18.1582 17.3373 18.1582C16.5409 18.1582 15.8493 18.6043 15.4974 19.26C15.1456 18.6044 14.454 18.1582 13.6576 18.1582C12.505 18.1582 11.5706 19.0924 11.5706 20.2452C11.5706 20.6256 11.6741 20.9814 11.8521 21.2884H8.74219C8.74219 22.4411 9.74616 23.3754 10.8986 23.3754H10.8292C10.8292 24.528 11.7635 25.4624 12.9161 25.4624C12.9161 26.4829 13.6491 27.3308 14.617 27.5123L12.9727 31.225C13.7607 31.5453 14.6219 31.7233 15.5249 31.7233C16.4279 31.7233 17.2891 31.5453 18.0772 31.225L16.4328 27.5123C17.4008 27.331 18.1337 26.483 18.1337 25.4624C19.2863 25.4624 20.2207 24.528 20.2207 23.3754H20.1512C21.3036 23.3754 22.3074 22.441 22.3074 21.2884Z" fill="#F0F0F0"/>
</g>
<defs>
<clipPath id="clip0_2743_2122">
<rect x="0.394531" y="0.417969" width="48" height="48" rx="24" fill="white"/>
</clipPath>
</defs>
</svg>
