<svg width="49" height="49" viewBox="0 0 49 49" fill="none" xmlns="http://www.w3.org/2000/svg">
<g clip-path="url(#clip0_2743_2132)">
<path d="M24.3945 48.418C37.6494 48.418 48.3945 37.6728 48.3945 24.418C48.3945 11.1631 37.6494 0.417969 24.3945 0.417969C11.1397 0.417969 0.394531 11.1631 0.394531 24.418C0.394531 37.6728 11.1397 48.418 24.3945 48.418Z" fill="#F0F0F0"/>
<path d="M40.5957 6.71206C36.3263 2.80344 30.6393 0.417969 24.3948 0.417969C23.3726 0.417969 22.3652 0.482375 21.3765 0.606406L9.78614 13.9832L1.1543 30.4303C1.71192 32.5922 2.56448 34.6354 3.66445 36.5162L24.3948 24.418L40.5957 6.71206Z" fill="#FFDA44"/>
<path d="M44.3751 37.7148L10.7969 44.1948C14.6621 46.8574 19.3457 48.4175 24.3941 48.4175C32.7304 48.4175 40.0728 44.1666 44.3751 37.7148Z" fill="#6DA544"/>
<path d="M40.5986 6.71484L3.67773 36.5391C4.64345 38.1861 5.79967 39.7077 7.11658 41.0736L48.3944 24.4176C48.3944 17.4089 45.3896 11.1025 40.5986 6.71484Z" fill="#D80027"/>
<path d="M0.394531 24.417C0.394531 26.4933 0.658344 28.5079 1.154 30.4293L21.3762 0.605469C9.54622 2.08991 0.394531 12.1845 0.394531 24.417Z" fill="#0052B4"/>
</g>
<defs>
<clipPath id="clip0_2743_2132">
<rect x="0.394531" y="0.417969" width="48" height="48" rx="24" fill="white"/>
</clipPath>
</defs>
</svg>
