<svg width="49" height="49" viewBox="0 0 49 49" fill="none" xmlns="http://www.w3.org/2000/svg">
<g clip-path="url(#clip0_2743_2142)">
<path d="M24.3945 48.418C37.6494 48.418 48.3945 37.6728 48.3945 24.418C48.3945 11.1631 37.6494 0.417969 24.3945 0.417969C11.1397 0.417969 0.394531 11.1631 0.394531 24.418C0.394531 37.6728 11.1397 48.418 24.3945 48.418Z" fill="#F0F0F0"/>
<path d="M0.394531 24.4181C0.394531 11.1632 11.1398 0.417969 24.3945 0.417969C37.6493 0.417969 48.3945 11.1632 48.3945 24.4181" fill="#D80027"/>
<path d="M15.0035 12.939C15.0035 9.44233 17.461 6.52127 20.7426 5.80455C20.2383 5.69448 19.715 5.63477 19.1774 5.63477C15.1432 5.63477 11.873 8.90495 11.873 12.9391C11.873 16.9733 15.1432 20.2435 19.1774 20.2435C19.7149 20.2435 20.2382 20.1837 20.7426 20.0736C17.461 19.3569 15.0035 16.4358 15.0035 12.939Z" fill="#F0F0F0"/>
<path d="M24.3955 6.15625L24.9135 7.75047H26.5899L25.2336 8.73588L25.7517 10.3301L24.3955 9.34487L23.0393 10.3301L23.5574 8.73588L22.2012 7.75047H23.8774L24.3955 6.15625Z" fill="#F0F0F0"/>
<path d="M20.3293 9.28711L20.8472 10.8814H22.5236L21.1674 11.8667L21.6855 13.461L20.3293 12.4757L18.9729 13.461L19.491 11.8667L18.1348 10.8814H19.8111L20.3293 9.28711Z" fill="#F0F0F0"/>
<path d="M28.4619 9.28711L28.98 10.8814H30.6563L29.3 11.8667L29.8182 13.461L28.4619 12.4757L27.1057 13.461L27.6238 11.8667L26.2676 10.8814H27.9438L28.4619 9.28711Z" fill="#F0F0F0"/>
<path d="M26.8955 13.9824L27.4135 15.5767H29.0898L27.7336 16.562L28.2517 18.1563L26.8955 17.171L25.5393 18.1563L26.0574 16.562L24.7012 15.5767H26.3773L26.8955 13.9824Z" fill="#F0F0F0"/>
<path d="M21.8936 13.9824L22.4116 15.5767H24.088L22.7318 16.562L23.2499 18.1563L21.8936 17.171L20.5373 18.1563L21.0554 16.562L19.6992 15.5767H21.3756L21.8936 13.9824Z" fill="#F0F0F0"/>
</g>
<defs>
<clipPath id="clip0_2743_2142">
<rect x="0.394531" y="0.417969" width="48" height="48" rx="24" fill="white"/>
</clipPath>
</defs>
</svg>
