<svg width="49" height="49" viewBox="0 0 49 49" fill="none" xmlns="http://www.w3.org/2000/svg">
<g clip-path="url(#clip0_2743_2152)">
<path d="M10.8672 44.2432C14.719 46.8762 19.3762 48.4172 24.3941 48.4172C29.412 48.4172 34.0693 46.8762 37.921 44.2432L24.3941 42.1562L10.8672 44.2432Z" fill="#D80027"/>
<path d="M37.921 4.59191C34.0693 1.95894 29.412 0.417969 24.3941 0.417969C19.3762 0.417969 14.7188 1.95894 10.8672 4.59191L24.3941 6.67887L37.921 4.59191Z" fill="#D80027"/>
<path d="M10.8672 44.2432C14.719 46.8762 19.3762 48.4172 24.3941 48.4172C29.412 48.4172 34.0693 46.8762 37.921 44.2432L24.3941 42.1562L10.8672 44.2432Z" fill="#D80027"/>
<path d="M37.921 4.59191C34.0693 1.95894 29.412 0.417969 24.3941 0.417969C19.3762 0.417969 14.7188 1.95894 10.8672 4.59191L24.3941 6.67887L37.921 4.59191Z" fill="#D80027"/>
<path d="M48.3337 22.8527C47.7652 15.4455 43.2645 8.24402 37.9218 4.5918H10.868C4.94897 8.63814 0.933937 15.2651 0.445312 22.8527L24.3949 24.418L48.3337 22.8527Z" fill="#0052B4"/>
<path d="M0.445312 25.9832C0.933937 33.5709 4.94887 40.1978 10.8679 44.2441H37.9217C43.841 40.1979 47.8557 33.5709 48.3443 25.9832L24.3949 24.418L0.445312 25.9832Z" fill="#0052B4"/>
<path d="M48.3334 22.8531H25.9598V3.54883H22.8294V22.8531H0.445062C0.411781 23.3706 0.394531 23.8925 0.394531 24.4184C0.394531 24.9443 0.411688 25.4661 0.444969 25.9836H22.8294V45.288H25.9598V25.9836H48.3442C48.3774 25.4661 48.3945 24.9443 48.3945 24.4184C48.3945 23.8963 48.3734 23.3742 48.3334 22.8531Z" fill="#D80027"/>
<path d="M9.78516 24.4184L24.3937 15.2363L39.0025 24.4184L24.3937 33.6005L9.78516 24.4184Z" fill="#F0F0F0"/>
<path d="M16.0469 28.591H34.8294L30.6556 22.3301L28.5686 24.417L26.4816 23.3736L24.3947 26.504H20.2207L18.1337 24.417L16.0469 28.591Z" fill="#6DA544"/>
<path d="M24.3954 18.1562L24.9135 19.7505H26.5896L25.2335 20.7359L25.7516 22.3302L24.3954 21.3449L23.0392 22.3302L23.5573 20.7359L22.2012 19.7505H23.8773L24.3954 18.1562Z" fill="#FFDA44"/>
<path d="M24.3939 12.6133L5.61133 24.4188L24.3939 36.2244L43.1766 24.4188L24.3939 12.6133ZM11.494 24.4188L24.3939 16.3107L37.294 24.4188L24.3939 32.527L11.494 24.4188Z" fill="#D80027"/>
</g>
<defs>
<clipPath id="clip0_2743_2152">
<rect x="0.394531" y="0.417969" width="48" height="48" rx="24" fill="white"/>
</clipPath>
</defs>
</svg>
