<svg width="49" height="49" viewBox="0 0 49 49" fill="none" xmlns="http://www.w3.org/2000/svg">
<g clip-path="url(#clip0_2743_2167)">
<path d="M22.3075 26.5049C22.3075 26.5049 7.43789 7.44406 7.42383 7.44744C11.7669 3.10428 17.767 0.417969 24.3945 0.417969C37.6492 0.417969 48.3945 11.1632 48.3945 24.418L22.3075 26.5049Z" fill="#D80027"/>
<path d="M22.3075 24.418C22.3075 24.418 7.43789 41.3919 7.42383 41.3885C11.7669 45.7317 17.767 48.418 24.3945 48.418C37.6492 48.418 48.3945 37.6727 48.3945 24.418H22.3075Z" fill="#0052B4"/>
<path d="M7.42395 7.44727C-1.94861 16.8198 -1.94861 32.0159 7.42395 41.3885C11.297 37.5154 15.022 33.7904 24.3946 24.4179L7.42395 7.44727Z" fill="#F0F0F0"/>
<path d="M3.02594 24.418C3.01281 24.5903 3.00391 24.7639 3.00391 24.9396C3.00391 28.6855 6.04066 31.7222 9.78653 31.7222C13.5324 31.7222 16.5692 28.6855 16.5692 24.9396C16.5692 24.7639 16.5603 24.5902 16.5471 24.418H3.02594Z" fill="#FFDA44"/>
<path d="M9.78619 21.2872C10.9388 21.2872 11.8732 20.3529 11.8732 19.2003C11.8732 18.0476 10.9388 17.1133 9.78619 17.1133C8.63359 17.1133 7.69922 18.0476 7.69922 19.2003C7.69922 20.3529 8.63359 21.2872 9.78619 21.2872Z" fill="#FFDA44"/>
<path d="M5.08984 18.6797V25.4623C5.08984 29.0567 9.7855 30.158 9.7855 30.158C9.7855 30.158 14.4812 29.0567 14.4812 25.4623V18.6797H5.08984Z" fill="#D80027"/>
<path d="M9.78877 27.9728C8.91764 27.6593 7.17773 26.8582 7.17773 25.4613V20.7656H12.3952V25.4613C12.3952 26.8628 10.6555 27.662 9.78877 27.9728Z" fill="#338AF3"/>
<path d="M10.8294 23.3738V22.3303L9.78595 21.8086L8.74242 22.3303V23.3738L8.2207 23.8956V25.9825H11.3512V23.8956L10.8294 23.3738Z" fill="#F3F3F3"/>
</g>
<defs>
<clipPath id="clip0_2743_2167">
<rect x="0.394531" y="0.417969" width="48" height="48" rx="24" fill="white"/>
</clipPath>
</defs>
</svg>
