<svg width="49" height="49" viewBox="0 0 49 49" fill="none" xmlns="http://www.w3.org/2000/svg">
<g clip-path="url(#clip0_2743_2177)">
<path d="M24.3945 48.418C37.6494 48.418 48.3945 37.6728 48.3945 24.418C48.3945 11.1631 37.6494 0.417969 24.3945 0.417969C11.1397 0.417969 0.394531 11.1631 0.394531 24.418C0.394531 37.6728 11.1397 48.418 24.3945 48.418Z" fill="#F0F0F0"/>
<path d="M24.3945 48.4181C37.6493 48.4181 48.3945 37.6728 48.3945 24.4181C48.3945 21.4824 47.8665 18.6702 46.9017 16.0703H1.88731C0.922625 18.6702 0.394531 21.4824 0.394531 24.4181C0.394531 37.6728 11.1398 48.4181 24.3945 48.4181Z" fill="#0052B4"/>
<path d="M24.3939 48.4178C34.7131 48.4178 43.5101 41.9048 46.9012 32.7656H1.88672C5.27775 41.9048 14.0748 48.4178 24.3939 48.4178Z" fill="#D80027"/>
<path d="M6.60156 13.9824V25.9549C6.60156 32.7652 15.4985 34.852 15.4985 34.852C15.4985 34.852 24.3954 32.7652 24.3954 25.9549V13.9824H6.60156Z" fill="#F0F0F0"/>
<path d="M8.6875 13.9824V25.9549C8.6875 26.7544 8.86506 27.5094 9.21681 28.2173H21.7781C22.1298 27.5095 22.3074 26.7544 22.3074 25.9549V13.9824H8.6875Z" fill="#D80027"/>
<path d="M19.672 22.3311H16.5417V20.2442H18.6287V18.1572H16.5417V16.0703H14.4547V18.1572H12.3678V20.2442H14.4547V22.3311H11.3242V24.4181H14.4547V26.5051H16.5417V24.4181H19.672V22.3311Z" fill="#F0F0F0"/>
<path d="M12.0633 31.1308C13.4082 31.976 14.7899 32.4667 15.4972 32.6849C16.2045 32.4668 17.5862 31.976 18.9311 31.1308C20.2873 30.2785 21.238 29.3037 21.7778 28.2176C21.1824 27.7963 20.4559 27.5479 19.6711 27.5479C19.3854 27.5479 19.1078 27.5817 18.8409 27.6439C18.2753 26.3588 16.9914 25.4609 15.4973 25.4609C14.0032 25.4609 12.7192 26.3588 12.1537 27.6439C11.8868 27.5817 11.6091 27.5479 11.3235 27.5479C10.5387 27.5479 9.8122 27.7963 9.2168 28.2176C9.75633 29.3036 10.707 30.2784 12.0633 31.1308Z" fill="#0052B4"/>
</g>
<defs>
<clipPath id="clip0_2743_2177">
<rect x="0.394531" y="0.417969" width="48" height="48" rx="24" fill="white"/>
</clipPath>
</defs>
</svg>
