<svg width="49" height="49" viewBox="0 0 49 49" fill="none" xmlns="http://www.w3.org/2000/svg">
<g clip-path="url(#clip0_2743_2185)">
<path d="M24.3945 48.418C37.6494 48.418 48.3945 37.6728 48.3945 24.418C48.3945 11.1631 37.6494 0.417969 24.3945 0.417969C11.1397 0.417969 0.394531 11.1631 0.394531 24.418C0.394531 37.6728 11.1397 48.418 24.3945 48.418Z" fill="#F0F0F0"/>
<path d="M46.9017 16.0695H21.2641V9.80859H8.74231V16.0695H1.88731C0.922625 18.6694 0.394531 21.4816 0.394531 24.4173C0.394531 27.353 0.922625 30.1651 1.88731 32.7651L24.3945 34.852L46.9017 32.7651C47.8664 30.1651 48.3945 27.353 48.3945 24.4173C48.3945 21.4816 47.8664 18.6694 46.9017 16.0695Z" fill="#0052B4"/>
<path d="M24.3939 48.4178C34.7131 48.4178 43.5101 41.9048 46.9012 32.7656H1.88672C5.27775 41.9048 14.0748 48.4178 24.3939 48.4178Z" fill="#D80027"/>
<path d="M8.74219 16.0708V18.1577C8.74219 22.9502 15.0031 24.4187 15.0031 24.4187C15.0031 24.4187 21.264 22.9502 21.264 18.1577V16.0708L19.177 18.1578L15.0031 15.0273L10.8292 18.1578L8.74219 16.0708Z" fill="#F0F0F0"/>
</g>
<defs>
<clipPath id="clip0_2743_2185">
<rect x="0.394531" y="0.417969" width="48" height="48" rx="24" fill="white"/>
</clipPath>
</defs>
</svg>
