<svg width="49" height="49" viewBox="0 0 49 49" fill="none" xmlns="http://www.w3.org/2000/svg">
<g clip-path="url(#clip0_2743_2190)">
<path d="M41.3652 41.3887C50.3663 32.3877 50.7217 18.0172 42.4352 8.58984L24.394 24.4173L8.56641 42.4587C17.9938 50.7451 32.3641 50.3897 41.3652 41.3887Z" fill="#496E2D"/>
<path d="M7.42329 7.44677C16.4243 -1.55424 30.7947 -1.90965 40.2221 6.3768L24.3944 24.4182L6.35341 40.2456C-1.93313 30.8182 -1.57763 16.4478 7.42329 7.44677Z" fill="#0052B4"/>
<path d="M40.2222 6.37695L6.35352 40.2458C6.69589 40.6353 7.05139 41.0174 7.42348 41.3893C7.79548 41.7613 8.1777 42.1168 8.56732 42.4594L42.4359 8.59057C42.0935 8.20095 41.7379 7.81883 41.3658 7.44673C40.994 7.07492 40.6118 6.71933 40.2222 6.37695Z" fill="#FFDA44"/>
<path d="M10.5069 8.76562L11.0251 10.36H12.7014L11.3452 11.3452L11.8632 12.9396L10.5069 11.9542L9.15062 12.9396L9.66878 11.3452L8.3125 10.36H9.98893L10.5069 8.76562Z" fill="#F0F0F0"/>
<path d="M19.0694 8.76562L19.5876 10.36H21.2638L19.9076 11.3452L20.4257 12.9396L19.0694 11.9542L17.7131 12.9396L18.2313 11.3452L16.875 10.36H18.5513L19.0694 8.76562Z" fill="#F0F0F0"/>
<path d="M10.5069 17.1133L11.0251 18.7077H12.7014L11.3452 19.693L11.8632 21.2874L10.5069 20.302L9.15062 21.2874L9.66878 19.693L8.3125 18.7077H9.98893L10.5069 17.1133Z" fill="#F0F0F0"/>
<path d="M19.0694 17.1133L19.5876 18.7077H21.2638L19.9076 19.693L20.4257 21.2874L19.0694 20.302L17.7131 21.2874L18.2313 19.693L16.875 18.7077H18.5513L19.0694 17.1133Z" fill="#F0F0F0"/>
<path d="M14.7882 12.9395L15.3064 14.5339H16.9826L15.6265 15.5192L16.1445 17.1136L14.7882 16.1282L13.432 17.1136L13.95 15.5192L12.5938 14.5339H14.2702L14.7882 12.9395Z" fill="#F0F0F0"/>
</g>
<defs>
<clipPath id="clip0_2743_2190">
<rect x="0.394531" y="0.417969" width="48" height="48" rx="24" fill="white"/>
</clipPath>
</defs>
</svg>
