<svg width="49" height="49" viewBox="0 0 49 49" fill="none" xmlns="http://www.w3.org/2000/svg">
<g clip-path="url(#clip0_2743_2203)">
<path d="M46.9017 32.765C47.8664 30.165 48.3945 27.3529 48.3945 24.4172C48.3945 21.4815 47.8664 18.6694 46.9017 16.0694L24.3945 13.9824L1.88731 16.0694C0.922625 18.6694 0.394531 21.4815 0.394531 24.4172C0.394531 27.3529 0.922625 30.165 1.88731 32.765L24.3945 34.8519L46.9017 32.765Z" fill="#F0F0F0"/>
<path d="M24.394 48.4178C34.7131 48.4178 43.5102 41.9048 46.9012 32.7656H1.88672C5.27784 41.9048 14.0748 48.4178 24.394 48.4178Z" fill="#D80027"/>
<path d="M24.394 0.417969C14.0748 0.417969 5.27784 6.93097 1.88672 16.0702H46.9012C43.5102 6.93097 34.7131 0.417969 24.394 0.417969Z" fill="#496E2D"/>
<path d="M24.3941 19.2012L25.689 23.1868H29.88L26.4895 25.6502L27.7846 29.6359L24.3941 27.1728L21.0035 29.6359L22.2987 25.6502L18.9082 23.1868H23.0991L24.3941 19.2012Z" fill="black"/>
<path d="M31.526 5.11328V9.98275C31.526 10.7501 30.9019 11.3741 30.1348 11.3741V13.4611C32.0527 13.4611 33.613 11.9008 33.613 9.98275V5.11328H31.526Z" fill="#F0F0F0"/>
<path d="M16.5691 9.98275C16.5691 10.7501 15.945 11.3741 15.1777 11.3741V13.4611C17.0958 13.4611 18.656 11.9008 18.656 9.98275V5.11328H16.5691V9.98275Z" fill="#F0F0F0"/>
<path d="M28.3945 5.11328H30.4815V9.98275H28.3945V5.11328Z" fill="#F0F0F0"/>
<path d="M25.2645 7.89578C25.2645 8.08759 25.1084 8.24369 24.9167 8.24369C24.7249 8.24369 24.5688 8.08759 24.5688 7.89578V5.11328H22.4818V7.89578C22.4818 8.08759 22.3258 8.24369 22.134 8.24369C21.9422 8.24369 21.7862 8.08759 21.7862 7.89578V5.11328H19.6992V7.89578C19.6992 9.23847 20.7914 10.3307 22.134 10.3307C22.651 10.3307 23.1307 10.1682 23.5253 9.89228C23.92 10.1682 24.3996 10.3307 24.9166 10.3307C25.0207 10.3307 25.1231 10.3233 25.2238 10.3105C25.0759 10.9198 24.5272 11.3741 23.8732 11.3741V13.4611C25.7911 13.4611 27.3514 11.9008 27.3514 9.98275V7.89578V5.11328H25.2644L25.2645 7.89578Z" fill="#F0F0F0"/>
<path d="M19.6992 11.375H22.8296V13.462H19.6992V11.375Z" fill="#F0F0F0"/>
</g>
<defs>
<clipPath id="clip0_2743_2203">
<rect x="0.394531" y="0.417969" width="48" height="48" rx="24" fill="white"/>
</clipPath>
</defs>
</svg>
