<svg width="49" height="49" viewBox="0 0 49 49" fill="none" xmlns="http://www.w3.org/2000/svg">
<g clip-path="url(#clip0_2743_2221)">
<path d="M24.3945 48.418C37.6494 48.418 48.3945 37.6728 48.3945 24.418C48.3945 11.1631 37.6494 0.417969 24.3945 0.417969C11.1397 0.417969 0.394531 11.1631 0.394531 24.418C0.394531 37.6728 11.1397 48.418 24.3945 48.418Z" fill="#F0F0F0"/>
<path d="M32.7424 24.4181C32.7424 26.5051 29.005 31.7224 24.3947 31.7224C19.7843 31.7224 16.0469 26.5051 16.0469 24.4181C16.0469 19.8077 19.7843 16.0703 24.3947 16.0703C29.005 16.0703 32.7424 19.8077 32.7424 24.4181Z" fill="#D80027"/>
<path d="M32.7424 24.418C32.7424 29.0284 29.005 32.7657 24.3947 32.7657C19.7843 32.7657 16.0469 29.0284 16.0469 24.418" fill="#0052B4"/>
<path d="M33.2422 31.7969L35.4554 29.5837L36.9309 31.0592L34.7177 33.2724L33.2422 31.7969Z" fill="black"/>
<path d="M29.5527 35.4863L31.7659 33.2731L33.2414 34.7486L31.0282 36.9618L29.5527 35.4863Z" fill="black"/>
<path d="M37.668 36.2227L39.8812 34.0095L41.3567 35.4849L39.1435 37.6981L37.668 36.2227Z" fill="black"/>
<path d="M33.9785 39.9121L36.1917 37.6989L37.6672 39.1744L35.454 41.3876L33.9785 39.9121Z" fill="black"/>
<path d="M35.4551 34.0098L37.6683 31.7966L39.1438 33.2721L36.9306 35.4853L35.4551 34.0098Z" fill="black"/>
<path d="M31.7676 37.6992L33.9808 35.486L35.4563 36.9615L33.2431 39.1747L31.7676 37.6992Z" fill="black"/>
<path d="M37.6777 17.043L31.7759 11.1411L33.2513 9.6656L39.1532 15.5675L37.6777 17.043Z" fill="black"/>
<path d="M31.7754 15.5684L29.5622 13.3552L31.0376 11.8797L33.2508 14.0929L31.7754 15.5684Z" fill="black"/>
<path d="M35.4648 19.2578L33.2516 17.0446L34.7271 15.5692L36.9403 17.7824L35.4648 19.2578Z" fill="black"/>
<path d="M36.2012 11.1406L33.988 8.92743L35.4635 7.45194L37.6767 9.66514L36.2012 11.1406Z" fill="black"/>
<path d="M39.8926 14.832L37.6794 12.6188L39.1549 11.1433L41.3681 13.3565L39.8926 14.832Z" fill="black"/>
<path d="M8.90234 34.0059L14.8042 39.9077L13.3287 41.3832L7.42686 35.4813L8.90234 34.0059Z" fill="black"/>
<path d="M14.8047 35.4805L17.0179 37.6937L15.5425 39.1691L13.3293 36.9559L14.8047 35.4805Z" fill="black"/>
<path d="M11.1152 31.793L13.3284 34.0062L11.8529 35.4817L9.63975 33.2685L11.1152 31.793Z" fill="black"/>
<path d="M13.3281 29.5781L19.23 35.48L17.7545 36.9555L11.8526 31.0536L13.3281 29.5781Z" fill="black"/>
<path d="M14.8047 8.92383L8.90281 14.8257L7.42732 13.3502L13.3292 7.44834L14.8047 8.92383Z" fill="black"/>
<path d="M17.0176 11.1367L11.1157 17.0386L9.64021 15.5631L15.5421 9.66123L17.0176 11.1367Z" fill="black"/>
<path d="M19.2324 13.3516L13.3305 19.2534L11.8551 17.778L17.757 11.8761L19.2324 13.3516Z" fill="black"/>
</g>
<defs>
<clipPath id="clip0_2743_2221">
<rect x="0.394531" y="0.417969" width="48" height="48" rx="24" fill="white"/>
</clipPath>
</defs>
</svg>
