<svg width="49" height="49" viewBox="0 0 49 49" fill="none" xmlns="http://www.w3.org/2000/svg">
<g clip-path="url(#clip0_2743_2243)">
<path d="M24.3945 48.418C37.6494 48.418 48.3945 37.6728 48.3945 24.418C48.3945 11.1631 37.6494 0.417969 24.3945 0.417969C11.1397 0.417969 0.394531 11.1631 0.394531 24.418C0.394531 37.6728 11.1397 48.418 24.3945 48.418Z" fill="#F0F0F0"/>
<path d="M46.5213 15.1136C42.8867 6.48003 34.3487 0.417969 24.3936 0.417969C17.766 0.417969 11.7667 3.10475 7.42383 7.44819L13.4341 15.1136H46.5213Z" fill="black"/>
<path d="M13.5023 33.6348L7.42383 41.387C11.7667 45.7305 17.766 48.4173 24.3936 48.4173C34.3823 48.4173 42.9447 42.3147 46.5584 33.6348H13.5023Z" fill="#496E2D"/>
<path d="M5.61133 18.0703V30.6789H47.5673C48.1056 28.6829 48.394 26.5844 48.394 24.4181C48.394 22.2204 48.0979 20.0923 47.5445 18.0703H5.61133Z" fill="#A2001D"/>
<path d="M7.42395 7.44727C-1.94861 16.8198 -1.94861 32.0159 7.42395 41.3885C11.297 37.5154 15.022 33.7904 24.3946 24.4179L7.42395 7.44727Z" fill="#0052B4"/>
<path d="M8.21231 18.4512L11.1415 22.5388L15.9348 21.0158L12.9525 25.0651L15.8817 29.1529L11.1091 27.5679L8.12672 31.6171L8.15953 26.5881L3.38672 25.0029L8.17959 23.48L8.21231 18.4512Z" fill="#FFDA44"/>
</g>
<defs>
<clipPath id="clip0_2743_2243">
<rect x="0.394531" y="0.417969" width="48" height="48" rx="24" fill="white"/>
</clipPath>
</defs>
</svg>
