<svg width="49" height="49" viewBox="0 0 49 49" fill="none" xmlns="http://www.w3.org/2000/svg">
<g clip-path="url(#clip0_2743_2214)">
<path d="M24.3945 48.418C37.6494 48.418 48.3945 37.6728 48.3945 24.418C48.3945 11.1631 37.6494 0.417969 24.3945 0.417969C11.1397 0.417969 0.394531 11.1631 0.394531 24.418C0.394531 37.6728 11.1397 48.418 24.3945 48.418Z" fill="#F0F0F0"/>
<path d="M7.42395 41.3885C-1.94861 32.0159 -1.94861 16.8199 7.42395 7.44727C7.4233 7.4483 21.2642 24.4179 21.2642 24.4179L7.42395 41.3885Z" fill="black"/>
<path d="M21.2648 24.4187L3.57827 12.4668C3.02992 13.42 2.54636 14.4148 2.13086 15.4446L11.0848 24.4188L2.13114 33.3935C2.54627 34.4225 3.02936 35.4167 3.57733 36.3692L21.2648 24.4187Z" fill="#FFDA44"/>
<path d="M48.1909 21.2871H21.263L7.4232 7.44727C5.93183 8.93864 4.63611 10.6253 3.57711 12.4657L15.5058 24.4175L3.57617 36.3678C4.63517 38.2087 5.93145 39.8959 7.4232 41.3877L21.263 27.5479H48.1909C48.3243 26.5232 48.394 25.4785 48.394 24.4175C48.394 23.3565 48.3243 22.3118 48.1909 21.2871Z" fill="#6DA544"/>
<path d="M9.7832 43.4572C13.8303 46.5681 18.8963 48.4188 24.3953 48.4188C35.4839 48.4188 44.8145 40.8981 47.5685 30.6797H22.5609L9.7832 43.4572Z" fill="#0052B4"/>
<path d="M47.5685 18.1571C44.8145 7.93869 35.4839 0.417969 24.3953 0.417969C18.8963 0.417969 13.8303 2.26869 9.7832 5.3795L22.5608 18.1571H47.5685Z" fill="#D80027"/>
</g>
<defs>
<clipPath id="clip0_2743_2214">
<rect x="0.394531" y="0.417969" width="48" height="48" rx="24" fill="white"/>
</clipPath>
</defs>
</svg>
