<svg width="49" height="49" viewBox="0 0 49 49" fill="none" xmlns="http://www.w3.org/2000/svg">
<g clip-path="url(#clip0_2743_2255)">
<path d="M0.395531 4.5918H0.394531V44.2439H0.395531V24.418V4.5918Z" fill="#FF9811"/>
<path d="M24.3945 48.4179C37.6493 48.4179 48.3944 37.6727 48.3944 24.4179C48.3944 11.1631 37.6493 0.417969 24.3945 0.417969C11.1397 0.417969 0.394531 11.1631 0.394531 24.4179C0.394531 37.6727 11.1397 48.4179 24.3945 48.4179Z" fill="#FFDA44"/>
<path d="M19.1775 4.5918H10.868C10.4997 4.84352 10.1393 5.10555 9.78619 5.37677L7.69922 24.4178L9.78619 43.4588C10.1393 43.7302 10.4997 43.9922 10.868 44.2438H19.1775V4.5918Z" fill="#FF9811"/>
<path d="M0.394531 24.4181C0.394531 32.1754 4.07591 39.0719 9.78586 43.4591V5.37695C4.07591 9.76427 0.394531 16.6607 0.394531 24.4181Z" fill="#6DA544"/>
<path d="M39.0039 15.0488V15.6493L39.0262 15.6527L39.0039 15.0488Z" fill="#FFDA44"/>
<path d="M46.4825 30.6787H41.9607L40.0477 32.7657V36.9396H35.8738V34.8527H37.9608V30.6787H28.5694V33.2874H26.4824V28.3158C25.8421 27.7426 25.439 26.91 25.439 25.9831V12.4179C25.439 10.689 26.8406 9.28746 28.5694 9.28746V28.5918H32.7434L34.1755 27.3983C33.9254 26.8025 33.7868 26.1482 33.7868 25.4614V22.331H30.6564V16.0702H36.9172C36.9172 15.0268 38.4825 13.9832 38.4825 13.9832C38.4825 13.9832 40.0477 15.0267 40.0477 16.0702V17.6354V22.3311C41.2086 22.3449 43.0531 22.3148 45.0457 22.3311C44.5222 21.4161 44.2216 20.3304 44.2216 19.2007C44.2216 17.3594 45.0166 15.7039 46.282 14.5583C44.458 10.5162 41.5474 7.0698 37.9224 4.5918H22.3086V44.244H37.9225C42.3305 41.2308 45.682 36.786 47.308 31.5793L46.4825 30.6787Z" fill="#A2001D"/>
</g>
<defs>
<clipPath id="clip0_2743_2255">
<rect x="0.394531" y="0.417969" width="48" height="48" rx="24" fill="white"/>
</clipPath>
</defs>
</svg>
