<svg width="49" height="49" viewBox="0 0 49 49" fill="none" xmlns="http://www.w3.org/2000/svg">
<g clip-path="url(#clip0_2743_2262)">
<path d="M24.3945 48.418C37.6494 48.418 48.3945 37.6728 48.3945 24.418C48.3945 11.1631 37.6494 0.417969 24.3945 0.417969C11.1397 0.417969 0.394531 11.1631 0.394531 24.418C0.394531 37.6728 11.1397 48.418 24.3945 48.418Z" fill="#F0F0F0"/>
<path d="M43.2475 19.722H35.3519C35.3519 18.2812 34.184 17.1133 32.7432 17.1133L30.6562 21.2872C30.6562 21.2872 32.8824 27.5481 32.8128 27.5481H35.4214C36.8622 27.5481 38.0301 26.3802 38.0301 24.9394C39.4709 24.9394 40.6388 23.7715 40.6388 22.3307H40.5519C41.9926 22.3306 43.2475 21.1628 43.2475 19.722Z" fill="#ACABB1"/>
<path d="M5.54297 19.722H13.4386C13.4386 18.2812 14.6066 17.1133 16.0473 17.1133L18.1343 21.2872C18.1343 21.2872 15.9081 27.5481 15.9777 27.5481H13.3691C11.9283 27.5481 10.7604 26.3802 10.7604 24.9394C9.3196 24.9394 8.15173 23.7715 8.15173 22.3307H8.23862C6.79781 22.3306 5.54297 21.1628 5.54297 19.722Z" fill="#ACABB1"/>
<path d="M32.7426 33.8086V34.852H16.0469V33.8086H11.873V37.9825H16.0469V39.0259H32.7426V37.9825H36.9165V33.8086H32.7426Z" fill="#FFDA44"/>
<path d="M16.0469 17.1138V27.5484C16.0469 33.9383 24.3947 35.8963 24.3947 35.8963C24.3947 35.8963 32.7424 33.9383 32.7424 27.5484V17.1138L24.3947 16.0703L16.0469 17.1138Z" fill="#0052B4"/>
<path d="M16.0469 21.2871H32.7424V27.548H16.0469V21.2871Z" fill="#D80027"/>
<path d="M28.5686 11.8956V13.4608L27.5251 13.9826L26.4817 12.939V9.80859H22.3078V12.939L21.2643 13.9826L20.2208 13.4608V11.8956H16.0469V17.1129H32.7425V11.8956H28.5686Z" fill="#FFDA44"/>
</g>
<defs>
<clipPath id="clip0_2743_2262">
<rect x="0.394531" y="0.417969" width="48" height="48" rx="24" fill="white"/>
</clipPath>
</defs>
</svg>
