<svg width="49" height="49" viewBox="0 0 49 49" fill="none" xmlns="http://www.w3.org/2000/svg">
<g clip-path="url(#clip0_2743_2276)">
<path d="M35.8736 3.33613C32.4638 1.47575 28.5531 0.417969 24.3953 0.417969C20.2375 0.417969 16.3268 1.47575 12.917 3.33613L10.8301 24.418L12.917 45.4998C16.3268 47.3602 20.2375 48.418 24.3953 48.418C28.5531 48.418 32.4638 47.3602 35.8736 45.4998L37.9606 24.418L35.8736 3.33613Z" fill="#FFDA44"/>
<path d="M12.9163 45.4995V3.33594C5.456 7.40656 0.394531 15.3208 0.394531 24.4179C0.394531 33.5149 5.456 41.4292 12.9163 45.4995Z" fill="#338AF3"/>
<path d="M48.3948 24.4179C48.3948 15.3208 43.3333 7.40656 35.873 3.33594V45.4995C43.3333 41.4292 48.3948 33.5149 48.3948 24.4179Z" fill="#6DA544"/>
<path d="M19.1779 30.6781L15.0039 24.4172L19.1778 18.1562L23.352 24.4172L19.1779 30.6781Z" fill="#6DA544"/>
<path d="M29.6134 30.6781L25.4395 24.4172L29.6134 18.1562L33.7873 24.4172L29.6134 30.6781Z" fill="#6DA544"/>
<path d="M24.3946 39.0256L20.2207 32.7647L24.3946 26.5039L28.5686 32.7647L24.3946 39.0256Z" fill="#6DA544"/>
</g>
<defs>
<clipPath id="clip0_2743_2276">
<rect x="0.394531" y="0.417969" width="48" height="48" rx="24" fill="white"/>
</clipPath>
</defs>
</svg>
