<svg width="49" height="49" viewBox="0 0 49 49" fill="none" xmlns="http://www.w3.org/2000/svg">
<g clip-path="url(#clip0_2743_2284)">
<path d="M2.77597 13.9835C1.25028 17.1387 0.394531 20.6784 0.394531 24.4182C0.394531 28.158 1.25028 31.6977 2.77597 34.853L24.3945 36.9399L46.0131 34.853C47.5388 31.6977 48.3945 28.158 48.3945 24.4182C48.3945 20.6784 47.5388 17.1387 46.0131 13.9835L24.3945 11.8965L2.77597 13.9835Z" fill="#F0F0F0"/>
<path d="M2.77734 34.8535C6.65916 42.8814 14.88 48.4188 24.3951 48.4188C33.9101 48.4188 42.131 42.8814 46.0128 34.8535H2.77734Z" fill="black"/>
<path d="M2.77734 13.9832H46.0128C42.131 5.95531 33.9101 0.417969 24.3951 0.417969C14.88 0.417969 6.65916 5.95531 2.77734 13.9832Z" fill="#D80027"/>
<path d="M7.42395 7.44727C-1.94861 16.8198 -1.94861 32.0159 7.42395 41.3885C11.297 37.5154 15.022 33.7904 24.3946 24.4179L7.42395 7.44727Z" fill="#496E2D"/>
</g>
<defs>
<clipPath id="clip0_2743_2284">
<rect x="0.394531" y="0.417969" width="48" height="48" rx="24" fill="white"/>
</clipPath>
</defs>
</svg>
