<svg width="49" height="49" viewBox="0 0 49 49" fill="none" xmlns="http://www.w3.org/2000/svg">
<g clip-path="url(#clip0_2743_2289)">
<path d="M24.3945 48.418C37.6494 48.418 48.3945 37.6728 48.3945 24.418C48.3945 11.1631 37.6494 0.417969 24.3945 0.417969C11.1397 0.417969 0.394531 11.1631 0.394531 24.418C0.394531 37.6728 11.1397 48.418 24.3945 48.418Z" fill="#F0F0F0"/>
<path d="M46.9017 16.0703H1.88722C0.922625 18.6704 0.394531 21.4824 0.394531 24.4181C0.394531 27.3538 0.922625 30.166 1.88722 32.7659H46.9017C47.8665 30.166 48.3945 27.3538 48.3945 24.4181C48.3945 21.4824 47.8665 18.6704 46.9017 16.0703Z" fill="#A2001D"/>
<path d="M24.4636 48.4172C32.6838 48.4172 39.9378 44.2835 44.2632 37.9824H4.66406C8.9895 44.2835 16.2433 48.4172 24.4636 48.4172Z" fill="#6DA544"/>
<path d="M24.4636 0.417969C32.6838 0.417969 39.9378 4.55159 44.2632 10.8527H4.66406C8.9895 4.55159 16.2433 0.417969 24.4636 0.417969Z" fill="#6DA544"/>
<path d="M24.3946 16.0703L26.4666 22.4472H33.1721L27.7473 26.3888L29.8195 32.7659L24.3946 28.8247L18.9698 32.7659L21.042 26.3888L15.6172 22.4472H22.3227L24.3946 16.0703Z" fill="#FFDA44"/>
</g>
<defs>
<clipPath id="clip0_2743_2289">
<rect x="0.394531" y="0.417969" width="48" height="48" rx="24" fill="white"/>
</clipPath>
</defs>
</svg>
