<svg width="49" height="49" viewBox="0 0 49 49" fill="none" xmlns="http://www.w3.org/2000/svg">
<g clip-path="url(#clip0_2743_2296)">
<path d="M46.0131 34.8525C47.5388 31.6973 48.3945 28.1574 48.3945 24.4177C48.3945 20.678 47.5388 17.1381 46.0131 13.983L24.3945 12.9395L2.77597 13.9829C1.25028 17.1381 0.394531 20.678 0.394531 24.4177C0.394531 28.1574 1.25028 31.6973 2.77597 34.8525L24.3945 35.896L46.0131 34.8525Z" fill="#FFDA44"/>
<path d="M24.394 0.417969C14.8789 0.417969 6.65739 5.95531 2.77539 13.9832H46.0124C42.1305 5.95531 33.9089 0.417969 24.394 0.417969Z" fill="black"/>
<path d="M24.394 48.4188C14.8789 48.4188 6.65739 42.8814 2.77539 34.8535H46.0124C42.1305 42.8814 33.9089 48.4188 24.394 48.4188Z" fill="#0052B4"/>
<path d="M47.2612 17.1133H1.52787C0.792687 19.4166 0.394531 21.8705 0.394531 24.4176C0.394531 26.9647 0.792687 29.4186 1.52787 31.722H47.2611C47.9964 29.4186 48.3945 26.9647 48.3945 24.4176C48.3945 21.8705 47.9964 19.4166 47.2612 17.1133Z" fill="#A2001D"/>
<path d="M8.74219 23.375H40.0465V25.462H8.74219V23.375Z" fill="#FFDA44"/>
<path d="M12.916 19.2012H35.8726V21.2881H12.916V19.2012Z" fill="#FFDA44"/>
<path d="M36.0211 24.4172C36.0211 24.4172 30.6545 30.6781 24.3937 30.6781C18.1329 30.6781 18.1328 24.4172 18.1328 24.4172C18.1328 24.4172 18.1328 18.1562 24.3937 18.1562C30.6546 18.1562 36.0211 24.4172 36.0211 24.4172Z" fill="#F0F0F0"/>
<path d="M24.3949 30.6781C18.134 30.6781 12.7676 24.4172 12.7676 24.4172C12.7676 24.4172 18.134 18.1562 24.3949 18.1562" fill="black"/>
<path d="M20.2207 22.3301H22.3077V26.504H20.2207V22.3301Z" fill="#F0F0F0"/>
<path d="M26.4824 22.3301H28.5694V26.504H26.4824V22.3301Z" fill="black"/>
<path d="M8.74322 26.504C9.89582 26.504 10.8302 25.5696 10.8302 24.417C10.8302 23.2644 9.89582 22.3301 8.74322 22.3301C7.59062 22.3301 6.65625 23.2644 6.65625 24.417C6.65625 25.5696 7.59062 26.504 8.74322 26.504Z" fill="#0052B4"/>
<path d="M40.0479 26.504C41.2005 26.504 42.1349 25.5696 42.1349 24.417C42.1349 23.2644 41.2005 22.3301 40.0479 22.3301C38.8953 22.3301 37.9609 23.2644 37.9609 24.417C37.9609 25.5696 38.8953 26.504 40.0479 26.504Z" fill="#0052B4"/>
</g>
<defs>
<clipPath id="clip0_2743_2296">
<rect x="0.394531" y="0.417969" width="48" height="48" rx="24" fill="white"/>
</clipPath>
</defs>
</svg>
