<svg width="49" height="49" viewBox="0 0 49 49" fill="none" xmlns="http://www.w3.org/2000/svg">
<g clip-path="url(#clip0_2743_2311)">
<path d="M24.3945 48.418C37.6494 48.418 48.3945 37.6728 48.3945 24.418C48.3945 11.1631 37.6494 0.417969 24.3945 0.417969C11.1397 0.417969 0.394531 11.1631 0.394531 24.418C0.394531 37.6728 11.1397 48.418 24.3945 48.418Z" fill="#FFDA44"/>
<path d="M19.1778 21.2876H48.192C46.6579 9.51191 36.5889 0.417969 24.3951 0.417969C22.6032 0.417969 20.8576 0.616063 19.1777 0.988438V21.2876H19.1778Z" fill="#0052B4"/>
<path d="M12.9162 21.2873V3.33594C6.32616 6.93162 1.60856 13.527 0.597656 21.2874H12.9162V21.2873Z" fill="#0052B4"/>
<path d="M12.9161 27.5488H0.597656C1.60856 35.3092 6.32616 41.9046 12.9162 45.5002L12.9161 27.5488Z" fill="#0052B4"/>
<path d="M19.1777 27.5489V47.848C20.8576 48.2203 22.6032 48.4184 24.3951 48.4184C36.5889 48.4184 46.6579 39.3245 48.192 27.5488H19.1777V27.5489Z" fill="#0052B4"/>
</g>
<defs>
<clipPath id="clip0_2743_2311">
<rect x="0.394531" y="0.417969" width="48" height="48" rx="24" fill="white"/>
</clipPath>
</defs>
</svg>
