<svg width="49" height="49" viewBox="0 0 49 49" fill="none" xmlns="http://www.w3.org/2000/svg">
<g clip-path="url(#clip0_2743_2321)">
<path d="M24.3945 48.418C37.6494 48.418 48.3945 37.6728 48.3945 24.418C48.3945 11.1631 37.6494 0.417969 24.3945 0.417969C11.1397 0.417969 0.394531 11.1631 0.394531 24.418C0.394531 37.6728 11.1397 48.418 24.3945 48.418Z" fill="#F0F0F0"/>
<path d="M24.3939 0.417969C14.0748 0.417969 5.27775 6.93097 1.88672 16.0702H46.9012C43.5101 6.93097 34.7131 0.417969 24.3939 0.417969Z" fill="#D80027"/>
<path d="M24.3939 48.4178C34.7131 48.4178 43.5101 41.9048 46.9012 32.7656H1.88672C5.27775 41.9048 14.0748 48.4178 24.3939 48.4178Z" fill="black"/>
<path d="M14.7339 18.6797L16.0289 22.6652H20.2198L16.8293 25.1287L18.1244 29.1144L14.7339 26.6512L11.3435 29.1144L12.6385 25.1287L9.24805 22.6652H13.439L14.7339 18.6797Z" fill="#6DA544"/>
<path d="M34.0542 18.6797L35.3492 22.6652H39.5402L36.1496 25.1287L37.4447 29.1144L34.0542 26.6512L30.6638 29.1144L31.9588 25.1287L28.5684 22.6652H32.7593L34.0542 18.6797Z" fill="#6DA544"/>
</g>
<defs>
<clipPath id="clip0_2743_2321">
<rect x="0.394531" y="0.417969" width="48" height="48" rx="24" fill="white"/>
</clipPath>
</defs>
</svg>
