<svg width="49" height="49" viewBox="0 0 49 49" fill="none" xmlns="http://www.w3.org/2000/svg">
<g clip-path="url(#clip0_2743_2328)">
<path d="M48.3945 24.418C48.3945 37.6727 37.6493 48.418 24.3945 48.418C11.1398 48.418 0.394531 37.6727 0.394531 24.418C8.63797 16.1745 15.6293 9.18322 24.3945 0.417969C37.6493 0.417969 48.3945 11.1632 48.3945 24.418Z" fill="#D80027"/>
<path d="M24.3945 24.418C24.3945 11.1632 24.3945 9.60059 24.3945 0.417969C11.1398 0.417969 0.394531 11.1632 0.394531 24.418H24.3945Z" fill="#0052B4"/>
<path d="M21.2645 14.4643L18.3334 15.8432L19.8942 18.6818L16.7115 18.0728L16.3081 21.2882L14.0912 18.9234L11.8742 21.2882L11.471 18.0728L8.28822 18.6817L9.84897 15.843L6.91797 14.4643L9.84906 13.0857L8.28822 10.247L11.4709 10.8559L11.8743 7.64062L14.0912 10.0054L16.3082 7.64062L16.7115 10.8559L19.8943 10.247L18.3334 13.0858L21.2645 14.4643Z" fill="#F0F0F0"/>
<path d="M14.0905 18.931C16.5578 18.931 18.558 16.9309 18.558 14.4636C18.558 11.9962 16.5578 9.99609 14.0905 9.99609C11.6232 9.99609 9.62305 11.9962 9.62305 14.4636C9.62305 16.9309 11.6232 18.931 14.0905 18.931Z" fill="#0052B4"/>
<path d="M14.0913 16.845C12.7787 16.845 11.7109 15.7771 11.7109 14.4645C11.7109 13.1519 12.7788 12.084 14.0913 12.084C15.4039 12.084 16.4718 13.1519 16.4718 14.4645C16.4717 15.7771 15.4037 16.845 14.0913 16.845Z" fill="#F0F0F0"/>
</g>
<defs>
<clipPath id="clip0_2743_2328">
<rect x="0.394531" y="0.417969" width="48" height="48" rx="24" fill="white"/>
</clipPath>
</defs>
</svg>
