<svg width="49" height="49" viewBox="0 0 49 49" fill="none" xmlns="http://www.w3.org/2000/svg">
<g clip-path="url(#clip0_2743_2334)">
<path d="M2.77597 13.9835C1.25028 17.1387 0.394531 20.6785 0.394531 24.4182C0.394531 28.1579 1.25028 31.6977 2.77597 34.853L24.3945 36.9399L46.0131 34.853C47.5388 31.6977 48.3945 28.1579 48.3945 24.4182C48.3945 20.6785 47.5388 17.1387 46.0131 13.9835L24.3945 11.8965L2.77597 13.9835Z" fill="#F0F0F0"/>
<path d="M2.77734 34.8535C6.65925 42.8813 14.8801 48.4188 24.3951 48.4188C33.91 48.4188 42.131 42.8813 46.0128 34.8535H2.77734Z" fill="#6DA544"/>
<path d="M2.77734 13.9832H46.0128C42.131 5.95541 33.91 0.417969 24.3951 0.417969C14.8801 0.417969 6.65925 5.95541 2.77734 13.9832Z" fill="#D80027"/>
<path d="M20.2207 30.6784H28.5686V27.1305L26.899 27.9653L24.3946 25.4609L21.8903 27.9653L20.2207 27.1305V30.6784Z" fill="#FFDA44"/>
<path d="M15.4446 26.5039L15.8332 27.6996H17.0904L16.0732 28.4386L16.4618 29.6343L15.4446 28.8954L14.4274 29.6343L14.816 28.4386L13.7988 27.6996H15.056L15.4446 26.5039Z" fill="#FFDA44"/>
<path d="M16.6497 22.3301L17.0383 23.5258H18.2955L17.2783 24.2648L17.6668 25.4605L16.6497 24.7215L15.6325 25.4605L16.0211 24.2648L15.0039 23.5258H16.2611L16.6497 22.3301Z" fill="#FFDA44"/>
<path d="M20.093 19.1992L20.4816 20.3949H21.7387L20.7217 21.1339L21.1101 22.3296L20.093 21.5907L19.076 22.3296L19.4645 21.1339L18.4473 20.3949H19.7045L20.093 19.1992Z" fill="#FFDA44"/>
<path d="M33.345 26.5039L32.9564 27.6996H31.6992L32.7164 28.4386L32.3278 29.6343L33.345 28.8954L34.3621 29.6343L33.9736 28.4386L34.9908 27.6996H33.7336L33.345 26.5039Z" fill="#FFDA44"/>
<path d="M32.1399 22.3301L31.7513 23.5258H30.4941L31.5113 24.2648L31.1227 25.4605L32.1399 24.7215L33.1571 25.4605L32.7685 24.2648L33.7857 23.5258H32.5285L32.1399 22.3301Z" fill="#FFDA44"/>
<path d="M28.6965 19.1992L28.3079 20.3949H27.0508L28.0678 21.1339L27.6793 22.3296L28.6965 21.5907L29.7136 22.3296L29.3251 21.1339L30.3422 20.3949H29.085L28.6965 19.1992Z" fill="#FFDA44"/>
<path d="M24.3938 17.6348L24.7824 18.8305H26.0396L25.0224 19.5695L25.411 20.7652L24.3938 20.0262L23.3766 20.7652L23.7652 19.5695L22.748 18.8305H24.0052L24.3938 17.6348Z" fill="#FFDA44"/>
</g>
<defs>
<clipPath id="clip0_2743_2334">
<rect x="0.394531" y="0.417969" width="48" height="48" rx="24" fill="white"/>
</clipPath>
</defs>
</svg>
