<svg width="49" height="49" viewBox="0 0 49 49" fill="none" xmlns="http://www.w3.org/2000/svg">
<g clip-path="url(#clip0_2743_2347)">
<path d="M24.3945 48.418C37.6494 48.418 48.3945 37.6728 48.3945 24.418C48.3945 11.1631 37.6494 0.417969 24.3945 0.417969C11.1397 0.417969 0.394531 11.1631 0.394531 24.418C0.394531 37.6728 11.1397 48.418 24.3945 48.418Z" fill="#FFDA44"/>
<path d="M7.42345 41.3881C8.43023 42.3949 9.50442 43.2928 10.6312 44.0833L44.0596 10.6547C43.2693 9.52795 42.3714 8.45377 41.3646 7.44698C40.3577 6.4402 39.2836 5.54245 38.1569 4.75195L4.72852 38.1805C5.51883 39.307 6.41677 40.3813 7.42345 41.3881Z" fill="black"/>
<path d="M7.42298 7.44825C-0.148459 15.0199 -1.60205 26.3909 3.05948 35.4231L35.3978 3.08485C26.3656 -1.57668 14.9945 -0.122995 7.42298 7.44825Z" fill="#6DA544"/>
<path d="M41.3653 41.3889C48.9368 33.8174 50.3903 22.4462 45.7289 13.4141L13.3906 45.7524C22.4226 50.4139 33.7938 48.9603 41.3653 41.3889Z" fill="#338AF3"/>
</g>
<defs>
<clipPath id="clip0_2743_2347">
<rect x="0.394531" y="0.417969" width="48" height="48" rx="24" fill="white"/>
</clipPath>
</defs>
</svg>
