<svg width="49" height="49" viewBox="0 0 49 49" fill="none" xmlns="http://www.w3.org/2000/svg">
<g clip-path="url(#clip0_2743_2358)">
<path d="M24.3945 48.418C37.6494 48.418 48.3945 37.6728 48.3945 24.418C48.3945 11.1631 37.6494 0.417969 24.3945 0.417969C11.1397 0.417969 0.394531 11.1631 0.394531 24.418C0.394531 37.6728 11.1397 48.418 24.3945 48.418Z" fill="#F0F0F0"/>
<path d="M10.8672 4.59191C14.7189 1.95884 19.3762 0.417969 24.3941 0.417969C29.412 0.417969 34.0693 1.95884 37.921 4.59191L24.3941 5.63534L10.8672 4.59191Z" fill="#FFDA44"/>
<path d="M7.42522 41.3872L18.4917 30.3209L24.3945 20.2439L30.2967 30.3203L41.3638 41.3872C45.7073 37.0443 48.3945 31.0453 48.3945 24.4179C48.3945 16.1809 44.2443 8.91395 37.9214 4.5918H10.8676C4.54475 8.91395 0.394531 16.1809 0.394531 24.4179C0.394531 31.0453 3.08178 37.0443 7.42522 41.3872Z" fill="#D80027"/>
<path d="M46.5706 33.607L29.0234 26.3359L30.2953 30.3188L41.3632 41.3867C43.5731 39.1772 45.3541 36.5388 46.5706 33.607Z" fill="#0052B4"/>
<path d="M48.3945 24.418C48.3945 21.1625 47.7457 18.0589 46.5713 15.2285L24.3945 24.418H48.3945Z" fill="#0052B4"/>
<path d="M41.3638 7.44855C40.309 6.39386 39.1569 5.43639 37.9214 4.5918H32.61L24.3945 24.4179L41.3638 7.44855Z" fill="#0052B4"/>
<path d="M24.3951 4.5918H16.1797L24.3951 24.4179V4.5918Z" fill="#0052B4"/>
<path d="M7.42609 7.44922C5.21622 9.65891 3.43525 12.2971 2.21875 15.229L24.3954 24.4185L7.42609 7.44922Z" fill="#0052B4"/>
<path d="M0.394531 24.418C0.394531 27.6734 1.04337 30.777 2.21778 33.6074L24.3945 24.418H0.394531Z" fill="#0052B4"/>
<path d="M10.8672 44.2441C14.7188 46.8772 19.3762 48.4181 24.3941 48.4181C29.412 48.4181 34.0693 46.8772 37.921 44.2441H10.8672Z" fill="#FFDA44"/>
<path d="M24.3947 24.4181L30.2974 30.3209C31.8082 28.8102 32.7425 26.7233 32.7425 24.4181C32.7425 19.8077 29.0051 16.0703 24.3947 16.0703C19.7844 16.0703 16.0469 19.8077 16.0469 24.4181C16.0469 26.7232 16.9812 28.8102 18.492 30.3209L24.3947 24.4181Z" fill="#FFDA44"/>
<path d="M28.0466 36.4178C28.0466 38.4349 26.4113 39.0265 24.3944 39.0265C22.3775 39.0265 20.7422 38.4349 20.7422 36.4178C20.7422 34.4008 22.3775 32.7656 24.3944 32.7656C26.4113 32.7656 28.0466 34.4008 28.0466 36.4178Z" fill="#FFDA44"/>
<path d="M28.0466 36.418C28.0466 38.435 26.4113 40.0702 24.3944 40.0702C22.3775 40.0702 20.7422 38.435 20.7422 36.418" fill="#0052B4"/>
</g>
<defs>
<clipPath id="clip0_2743_2358">
<rect x="0.394531" y="0.417969" width="48" height="48" rx="24" fill="white"/>
</clipPath>
</defs>
</svg>
