<svg width="49" height="49" viewBox="0 0 49 49" fill="none" xmlns="http://www.w3.org/2000/svg">
<g clip-path="url(#clip0_2743_2374)">
<path d="M24.3945 48.418C37.6494 48.418 48.3945 37.6728 48.3945 24.418C48.3945 11.1631 37.6494 0.417969 24.3945 0.417969C11.1397 0.417969 0.394531 11.1631 0.394531 24.418C0.394531 37.6728 11.1397 48.418 24.3945 48.418Z" fill="#FFDA44"/>
<path d="M24.395 0.417969C24.3776 0.418156 23.3516 10.018 23.3516 10.018H43.5961C39.2175 4.18888 32.2467 0.417969 24.395 0.417969Z" fill="#496E2D"/>
<path d="M24.3944 48.4184C32.2461 48.4184 39.2169 44.6475 43.5954 38.8184H5.19336C9.57186 44.6475 16.5426 48.4184 24.3944 48.4184Z" fill="#496E2D"/>
<path d="M47.9144 19.6172H23.3516L24.395 29.2172H47.9144C48.2294 27.6663 48.395 26.0611 48.395 24.4172C48.395 22.7733 48.2292 21.1681 47.9144 19.6172Z" fill="#496E2D"/>
<path d="M24.3945 29.218C24.3945 24.2093 24.3945 6.05272 24.3945 0.417969C11.1398 0.417969 0.394531 11.1632 0.394531 24.418C0.394531 26.0619 0.560281 27.6671 0.875094 29.218H24.3945Z" fill="#D80027"/>
<path d="M13.6376 11.8965L15.1916 16.6791H20.2208L16.1524 19.6354L17.7062 24.4182L13.6376 21.4623L9.56906 24.4182L11.1232 19.6354L7.05469 16.6791H12.0837L13.6376 11.8965Z" fill="#F0F0F0"/>
</g>
<defs>
<clipPath id="clip0_2743_2374">
<rect x="0.394531" y="0.417969" width="48" height="48" rx="24" fill="white"/>
</clipPath>
</defs>
</svg>
