<svg width="49" height="49" viewBox="0 0 49 49" fill="none" xmlns="http://www.w3.org/2000/svg">
<g clip-path="url(#clip0_2743_2382)">
<path d="M24.3945 48.418C37.6494 48.418 48.3945 37.6728 48.3945 24.418C48.3945 11.1631 37.6494 0.417969 24.3945 0.417969C11.1397 0.417969 0.394531 11.1631 0.394531 24.418C0.394531 37.6728 11.1397 48.418 24.3945 48.418Z" fill="#FFDA44"/>
<path d="M39.0032 11.8962C38.788 12.9308 38.6902 14.0326 38.6902 15.131C38.6902 21.4623 42.4645 26.9421 47.8734 29.4089C48.214 27.7987 48.3945 26.1295 48.3945 24.418C48.3945 11.1632 37.6493 0.417969 24.3945 0.417969C11.1398 0.417969 0.394531 11.1632 0.394531 24.418C0.394531 37.6727 11.1398 48.418 24.3945 48.418C32.6147 48.418 39.8687 44.2843 44.1942 37.9832H13.9598V34.8528H46.0131C46.3411 34.1744 46.6375 33.478 46.9018 32.7658H13.9598L39.0032 11.8962Z" fill="#0052B4"/>
<path d="M18.0264 12.9395L18.5445 14.5338H20.2208L18.8647 15.5192L19.3827 17.1134L18.0264 16.1282L16.6703 17.1134L17.1883 15.5192L15.832 14.5338H17.5084L18.0264 12.9395Z" fill="#F0F0F0"/>
<path d="M11.2155 24.418L11.8631 26.411H13.9584L12.2632 27.6424L12.9108 29.6353L11.2155 28.4037L9.52031 29.6353L10.1678 27.6424L8.47266 26.411H10.568L11.2155 24.418Z" fill="#F0F0F0"/>
<path d="M11.2155 7.72266L11.8631 9.71569H13.9584L12.2632 10.9471L12.9108 12.94L11.2155 11.7083L9.52031 12.94L10.1678 10.9471L8.47266 9.71569H10.568L11.2155 7.72266Z" fill="#F0F0F0"/>
<path d="M5.9987 17.1133L6.64633 19.1063H8.74155L7.04636 20.3377L7.69398 22.3307L5.9987 21.099L4.30352 22.3307L4.95105 20.3377L3.25586 19.1063H5.35108L5.9987 17.1133Z" fill="#F0F0F0"/>
</g>
<defs>
<clipPath id="clip0_2743_2382">
<rect x="0.394531" y="0.417969" width="48" height="48" rx="24" fill="white"/>
</clipPath>
</defs>
</svg>
