<svg width="49" height="49" viewBox="0 0 49 49" fill="none" xmlns="http://www.w3.org/2000/svg">
<g clip-path="url(#clip0_2743_2390)">
<path d="M24.3945 48.418C37.6494 48.418 48.3945 37.6728 48.3945 24.418C48.3945 11.1631 37.6494 0.417969 24.3945 0.417969C11.1397 0.417969 0.394531 11.1631 0.394531 24.418C0.394531 37.6728 11.1397 48.418 24.3945 48.418Z" fill="#F0F0F0"/>
<path d="M16.0461 12.939V9.80859H12.9156V12.939H9.78516V16.0695H12.9156V19.1999H16.0461V16.0695H19.1765V12.939H16.0461Z" fill="#D80027"/>
<path d="M24.3945 0.417969V24.418C11.1398 24.4181 5.87187 24.418 0.394531 24.4181C0.394531 37.6727 11.1398 48.418 24.3945 48.418C37.6493 48.418 48.3945 37.6727 48.3945 24.418C48.3945 11.1632 37.6493 0.417969 24.3945 0.417969Z" fill="#D80027"/>
</g>
<defs>
<clipPath id="clip0_2743_2390">
<rect x="0.394531" y="0.417969" width="48" height="48" rx="24" fill="white"/>
</clipPath>
</defs>
</svg>
