<svg width="49" height="49" viewBox="0 0 49 49" fill="none" xmlns="http://www.w3.org/2000/svg">
<g clip-path="url(#clip0_2743_2395)">
<path d="M47.5671 18.1571C44.8131 7.93869 35.4826 0.417969 24.3939 0.417969C13.3053 0.417969 3.9747 7.93869 1.2207 18.1571L24.3939 19.2006L47.5671 18.1571Z" fill="#A2001D"/>
<path d="M1.2207 30.6783C3.9747 40.8966 13.3053 48.4174 24.3939 48.4174C35.4826 48.4174 44.8131 40.8967 47.5671 30.6783L24.3939 29.6348L1.2207 30.6783Z" fill="#A2001D"/>
<path d="M47.5677 18.1562H1.22131C0.683281 20.1525 0.394531 22.2509 0.394531 24.4172C0.394531 26.5834 0.683281 28.6818 1.22131 30.6781H47.5678C48.1058 28.6818 48.3945 26.5834 48.3945 24.4172C48.3945 22.2509 48.1058 20.1525 47.5677 18.1562Z" fill="#6DA544"/>
</g>
<defs>
<clipPath id="clip0_2743_2395">
<rect x="0.394531" y="0.417969" width="48" height="48" rx="24" fill="white"/>
</clipPath>
</defs>
</svg>
