<svg width="49" height="49" viewBox="0 0 49 49" fill="none" xmlns="http://www.w3.org/2000/svg">
<g clip-path="url(#clip0_2743_2400)">
<path d="M13.3888 3.08203C11.2402 4.191 9.22341 5.64459 7.42228 7.44572C5.62106 9.24694 4.16747 11.2638 3.05859 13.4123L18.4905 30.3201L35.3982 45.752C37.5469 44.643 39.5637 43.1894 41.3648 41.3884C43.1661 39.5872 44.6196 37.5703 45.7285 35.4217L30.2966 18.5139L13.3888 3.08203Z" fill="#F0F0F0"/>
<path d="M41.3662 41.3897C42.373 40.3829 43.2709 39.3087 44.0614 38.1819L10.6316 4.75195C9.5048 5.54236 8.43052 6.4403 7.42373 7.44708C6.41695 8.45386 5.51902 9.52814 4.72852 10.655L38.1584 44.0848C39.285 43.2944 40.3594 42.3965 41.3662 41.3897Z" fill="black"/>
<path d="M7.42315 41.3901C14.9951 48.962 26.3666 50.4155 35.3991 45.7537L3.05956 13.4141C-1.60216 22.4465 -0.148382 33.8182 7.42315 41.3901Z" fill="#D80027"/>
<path d="M41.3666 7.44671C33.7947 -0.125106 22.4231 -1.57861 13.3906 3.08293L45.7302 35.4227C50.392 26.3903 48.9385 15.0185 41.3666 7.44671Z" fill="#D80027"/>
</g>
<defs>
<clipPath id="clip0_2743_2400">
<rect x="0.394531" y="0.417969" width="48" height="48" rx="24" fill="white"/>
</clipPath>
</defs>
</svg>
