<svg width="49" height="49" viewBox="0 0 49 49" fill="none" xmlns="http://www.w3.org/2000/svg">
<g clip-path="url(#clip0_2743_2406)">
<path d="M24.3945 48.418C37.6494 48.418 48.3945 37.6728 48.3945 24.418C48.3945 11.1631 37.6494 0.417969 24.3945 0.417969C11.1397 0.417969 0.394531 11.1631 0.394531 24.418C0.394531 37.6728 11.1397 48.418 24.3945 48.418Z" fill="#D80027"/>
<path d="M24.3943 35.896C30.7336 35.896 35.8726 30.757 35.8726 24.4177C35.8726 18.0785 30.7336 12.9395 24.3943 12.9395C18.055 12.9395 12.916 18.0785 12.916 24.4177C12.916 30.757 18.055 35.896 24.3943 35.896Z" fill="#F0F0F0"/>
<path d="M25.8084 20.0293L27.7776 22.7429L30.9667 21.7088L28.9944 24.4201L30.9634 27.1336L27.7753 26.0956L25.8031 28.8068L25.8052 25.4542L22.6172 24.4162L25.8064 23.3822L25.8084 20.0293Z" fill="#D80027"/>
<path d="M27.0033 31.2008C23.2575 31.2008 20.2207 28.1641 20.2207 24.4182C20.2207 20.6723 23.2575 17.6356 27.0033 17.6356C28.1713 17.6356 29.2703 17.9309 30.2297 18.4508C28.7246 16.9788 26.6663 16.0703 24.3947 16.0703C19.7844 16.0703 16.0469 19.8078 16.0469 24.4181C16.0469 29.0284 19.7844 32.7659 24.3947 32.7659C26.6663 32.7659 28.7247 31.8573 30.2297 30.3854C29.2703 30.9055 28.1713 31.2008 27.0033 31.2008Z" fill="#D80027"/>
</g>
<defs>
<clipPath id="clip0_2743_2406">
<rect x="0.394531" y="0.417969" width="48" height="48" rx="24" fill="white"/>
</clipPath>
</defs>
</svg>
