<svg width="49" height="49" viewBox="0 0 49 49" fill="none" xmlns="http://www.w3.org/2000/svg">
<g clip-path="url(#clip0_2743_2417)">
<path d="M24.3935 0.417969C22.6016 0.417969 20.8561 0.616063 19.1763 0.988438L18.1328 24.4179L19.1763 47.8474C20.8562 48.2198 22.6017 48.418 24.3935 48.418C37.6484 48.418 48.3935 37.6727 48.3935 24.4179C48.3934 11.1631 37.6484 0.417969 24.3935 0.417969V0.417969Z" fill="#496E2D"/>
<path d="M6.65534 8.25195C2.76622 12.5172 0.394531 18.19 0.394531 24.4171C0.394531 30.6441 2.76631 36.317 6.65544 40.5824L7.69888 24.4171L6.65534 8.25195Z" fill="#496E2D"/>
<path d="M35.4969 18.5206C36.6777 15.2294 35.3511 11.6499 32.5042 9.86719C33.0163 9.93384 33.5289 10.0544 34.0348 10.2358C37.8319 11.5982 39.8057 15.7806 38.4434 19.5776C37.081 23.375 32.8986 25.3486 29.1015 23.9862C28.5955 23.8047 28.1231 23.5718 27.6855 23.2977C31.0165 23.7315 34.3161 21.8118 35.4969 18.5206Z" fill="#F0F0F0"/>
<path d="M28.9478 8.96484L27.9217 10.2907L26.3439 9.7245L27.2876 11.1099L26.2617 12.4356L27.8709 11.9663L28.8148 13.3515L28.8654 11.676L30.4747 11.2066L28.897 10.6406L28.9478 8.96484Z" fill="#F0F0F0"/>
<path d="M31.7174 13.2852L30.6913 14.6109L29.1135 14.0447L30.0573 15.4302L29.0312 16.7558L30.6405 16.2863L31.5843 17.6718L31.6352 15.9962L33.2444 15.5267L31.6666 14.9607L31.7174 13.2852Z" fill="#F0F0F0"/>
<path d="M24.063 10.5391L23.0369 11.8647L21.4592 11.2987L22.403 12.6841L21.377 14.0098L22.9861 13.5404L23.93 14.9257L23.9808 13.2502L25.59 12.7808L24.0123 12.2147L24.063 10.5391Z" fill="#F0F0F0"/>
<path d="M23.9498 15.4863L22.9238 16.812L21.346 16.246L22.2899 17.6314L21.2637 18.957L22.8731 18.4877L23.8169 19.873L23.8676 18.1975L25.4769 17.7281L23.899 17.1619L23.9498 15.4863Z" fill="#F0F0F0"/>
<path d="M28.6588 17.1758L27.6327 18.5014L26.055 17.9353L26.9988 19.3208L25.9727 20.6463L27.5821 20.177L28.5258 21.5624L28.5766 19.8868L30.1859 19.4174L28.608 18.8514L28.6588 17.1758Z" fill="#F0F0F0"/>
<path d="M6.65625 8.25259V40.5829C9.92625 44.1693 14.2697 46.7591 19.178 47.8472V0.988281C14.2696 2.07634 9.92634 4.66619 6.65625 8.25259Z" fill="#D80027"/>
<path d="M11.4342 13.0544L9.33789 11.4927V9.28425L11.4342 7.72266H14.3991L16.4954 9.28425V11.4927L14.3991 13.0544H11.4342Z" fill="#F0F0F0"/>
<path d="M12.9167 7.72266H11.4342L9.33789 9.28425V10.364H12.9167V7.72266Z" fill="#FF9811"/>
<path d="M12.916 13.0535H14.3984L16.4947 11.4918V10.3652H12.916V13.0535Z" fill="#FF9811"/>
<path d="M11.4342 41.113L9.33789 39.5513V37.3429L11.4342 35.7812H14.3991L16.4954 37.3429V39.5513L14.3991 41.113H11.4342Z" fill="#F0F0F0"/>
<path d="M12.9167 35.7812H11.4342L9.33789 37.3429V38.4227H12.9167V35.7812Z" fill="#FF9811"/>
<path d="M12.916 41.114H14.3984L16.4947 39.5523V38.4258H12.916V41.114Z" fill="#FF9811"/>
<path d="M11.4342 27.0837L9.33789 25.522V23.3136L11.4342 21.752H14.3991L16.4954 23.3136V25.522L14.3991 27.0837H11.4342Z" fill="#496E2D"/>
<path d="M16.5679 30.5183H15.6548V29.6053H14.0503L12.9157 28.4707L11.7812 29.6053H10.1767V30.5183H9.26367V32.3444H10.1767V33.2574H11.7811L12.9158 34.392L14.0503 33.2574H15.6548V32.3444H16.5679V30.5183Z" fill="#496E2D"/>
<path d="M16.5679 16.4891H15.6548V15.576H14.0503L12.9157 14.4414L11.7812 15.576H10.1767V16.4891H9.26367V18.3152H10.1767V19.2282H11.7811L12.9158 20.3629L14.0503 19.2282H15.6548V18.3152H16.5679V16.4891Z" fill="#496E2D"/>
<path d="M11.873 23.375H13.96V25.462H11.873V23.375Z" fill="#D80027"/>
<path d="M12.9165 18.4462C13.4928 18.4462 13.9599 17.9791 13.9599 17.4028C13.9599 16.8265 13.4928 16.3594 12.9165 16.3594C12.3402 16.3594 11.873 16.8265 11.873 17.4028C11.873 17.9791 12.3402 18.4462 12.9165 18.4462Z" fill="#D80027"/>
<path d="M12.9165 32.4775C13.4928 32.4775 13.9599 32.0103 13.9599 31.4341C13.9599 30.8578 13.4928 30.3906 12.9165 30.3906C12.3402 30.3906 11.873 30.8578 11.873 31.4341C11.873 32.0103 12.3402 32.4775 12.9165 32.4775Z" fill="#D80027"/>
</g>
<defs>
<clipPath id="clip0_2743_2417">
<rect x="0.394531" y="0.417969" width="48" height="48" rx="24" fill="white"/>
</clipPath>
</defs>
</svg>
