<svg width="49" height="49" viewBox="0 0 49 49" fill="none" xmlns="http://www.w3.org/2000/svg">
<g clip-path="url(#clip0_2743_2412)">
<path d="M24.3945 48.418C37.6494 48.418 48.3945 37.6728 48.3945 24.418C48.3945 11.1631 37.6494 0.417969 24.3945 0.417969C11.1397 0.417969 0.394531 11.1631 0.394531 24.418C0.394531 37.6728 11.1397 48.418 24.3945 48.418Z" fill="#D80027"/>
<path d="M23.412 20.0293L25.3812 22.7429L28.5703 21.7088L26.598 24.4201L28.5669 27.1336L25.3789 26.0956L23.4067 28.8068L23.4088 25.4542L20.2207 24.4162L23.4099 23.3822L23.412 20.0293Z" fill="#F0F0F0"/>
<path d="M18.0385 31.2008C14.2926 31.2008 11.2559 28.1641 11.2559 24.4182C11.2559 20.6723 14.2926 17.6356 18.0385 17.6356C19.2064 17.6356 20.3054 17.931 21.2648 18.4508C19.7597 16.9788 17.7012 16.0703 15.4298 16.0703C10.8194 16.0703 7.08203 19.8078 7.08203 24.4181C7.08203 29.0284 10.8195 32.7659 15.4298 32.7659C17.7014 32.7659 19.7598 31.8573 21.2648 30.3854C20.3054 30.9054 19.2064 31.2008 18.0385 31.2008Z" fill="#F0F0F0"/>
</g>
<defs>
<clipPath id="clip0_2743_2412">
<rect x="0.394531" y="0.417969" width="48" height="48" rx="24" fill="white"/>
</clipPath>
</defs>
</svg>
