<svg width="49" height="49" viewBox="0 0 49 49" fill="none" xmlns="http://www.w3.org/2000/svg">
<g clip-path="url(#clip0_2743_2445)">
<path d="M48.3945 24.418C48.3945 37.6727 37.6493 48.418 24.3945 48.418C11.1398 48.418 0.394531 37.6727 0.394531 24.418C0.394531 24.4237 24.3945 0.420594 24.3945 0.417969C37.6493 0.417969 48.3945 11.1632 48.3945 24.418Z" fill="#0052B4"/>
<path d="M24.3301 24.4177H24.3943C24.3943 24.3962 24.3943 24.3752 24.3943 24.3535C24.3729 24.375 24.3515 24.3964 24.3301 24.4177Z" fill="#F0F0F0"/>
<path d="M24.3945 12.9397C24.3945 8.71672 24.3945 5.94969 24.3945 0.417969H24.3905C11.1374 0.420219 0.394531 11.1644 0.394531 24.418H12.9163V17.3669L19.9673 24.418H24.3304C24.3518 24.3966 24.3732 24.3752 24.3946 24.3538C24.3946 22.7368 24.3946 21.2941 24.3946 19.9909L17.3434 12.9397H24.3945Z" fill="#F0F0F0"/>
<path d="M12.537 3.54883C8.78336 5.68623 5.6627 8.8068 3.52539 12.5605V24.4184H9.7863V9.80992V9.80973H24.395C24.395 7.83508 24.395 5.95389 24.395 3.54883H12.537Z" fill="#D80027"/>
<path d="M24.3943 21.4663L15.8673 12.9395H12.916V12.9396L24.3941 24.4176H24.3943C24.3943 24.4176 24.3943 22.3826 24.3943 21.4663Z" fill="#D80027"/>
<path d="M27.5254 12.9395V24.4176C27.5254 30.0089 34.8297 31.7221 34.8297 31.7221C34.8297 31.7221 42.1341 30.0089 42.1341 24.4176V12.9395H27.5254Z" fill="#FFDA44"/>
<path d="M33.7853 17.1143C33.7853 18.267 32.851 21.2882 31.6983 21.2882C30.5456 21.2882 29.6113 18.267 29.6113 17.1143C29.6113 15.9617 31.6983 15.0273 31.6983 15.0273C31.6983 15.0273 33.7853 15.9617 33.7853 17.1143Z" fill="#FF9811"/>
<path d="M39.3229 19.3873C39.6597 18.5656 39.9216 17.3644 39.9216 16.7665C39.9216 15.8059 38.6694 15.0273 38.6694 15.0273C38.6694 15.0273 37.4172 15.806 37.4172 16.7665C37.4172 17.3644 37.6791 18.5656 38.0159 19.3873L37.293 21.0195C37.7178 21.1922 38.1823 21.2882 38.6693 21.2882C39.1563 21.2882 39.6208 21.1922 40.0457 21.0195L39.3229 19.3873Z" fill="#A2001D"/>
<path d="M33.2641 24.4184C33.2641 24.4184 32.2207 26.5054 32.2207 28.5924H37.4381C37.438 26.5054 36.3945 24.4184 36.3945 24.4184L34.8293 23.375L33.2641 24.4184Z" fill="#6DA544"/>
<path d="M36.3942 24.417V23.8953C36.3942 23.031 35.6934 22.3301 34.8289 22.3301C33.9645 22.3301 33.2637 23.0309 33.2637 23.8953V24.417H36.3942Z" fill="#D80027"/>
</g>
<defs>
<clipPath id="clip0_2743_2445">
<rect x="0.394531" y="0.417969" width="48" height="48" rx="24" fill="white"/>
</clipPath>
</defs>
</svg>
