<svg width="49" height="49" viewBox="0 0 49 49" fill="none" xmlns="http://www.w3.org/2000/svg">
<g clip-path="url(#clip0_2743_2459)">
<path d="M48.3945 24.418C48.3945 37.6727 37.6493 48.418 24.3946 48.418C11.1398 48.418 0.394531 37.6727 0.394531 24.418C0.394531 24.4237 24.3946 0.420594 24.3946 0.417969C37.6493 0.417969 48.3945 11.1632 48.3945 24.418Z" fill="#338AF3"/>
<path d="M11.873 24.4181H19.9676L12.9165 16.0703L11.873 19.2007V24.4181Z" fill="#0052B4"/>
<path d="M24.3948 19.9911L16.0469 11.8965H24.3947L24.3948 19.9911Z" fill="#0052B4"/>
<path d="M24.3301 24.4177H24.3943C24.3943 24.3962 24.3943 24.3752 24.3943 24.3535C24.3729 24.375 24.3515 24.3964 24.3301 24.4177Z" fill="#F0F0F0"/>
<path d="M24.3946 12.9397C24.3946 8.71672 24.3946 5.94959 24.3946 0.417969H24.3906C11.1375 0.420219 0.394531 11.1644 0.394531 24.418H12.9163V17.3669L19.9674 24.418H24.3305C24.3519 24.3966 24.3733 24.3752 24.3947 24.3538C24.3947 22.7368 24.3947 21.2941 24.3947 19.9909L17.3434 12.9397H24.3946Z" fill="#F0F0F0"/>
<path d="M12.537 3.54883C8.78336 5.68623 5.6628 8.8068 3.52539 12.5605V24.4184H9.7863V9.80992V9.80973H24.395C24.395 7.83508 24.395 5.95389 24.395 3.54883H12.537Z" fill="#D80027"/>
<path d="M24.3943 21.4663L15.8673 12.9395H12.916V12.9396L24.3941 24.4176H24.3943C24.3943 24.4176 24.3943 22.3826 24.3943 21.4663Z" fill="#D80027"/>
<path d="M26.5888 40.0703L27.1069 41.6646H28.7832L27.4272 42.6499L27.9452 44.2442L26.5888 43.2589L25.2328 44.2442L25.7508 42.6499L24.3945 41.6646H26.0708L26.5888 40.0703Z" fill="#FFDA44"/>
<path d="M39.9385 29.6348L40.4565 31.2291H42.1329L40.7768 32.2145L41.2949 33.8087L39.9385 32.8235L38.5825 33.8087L39.1005 32.2145L37.7441 31.2291H39.4205L39.9385 29.6348Z" fill="#FFDA44"/>
<path d="M43.2842 13.9824L43.8022 15.5767H45.4786L44.1225 16.562L44.6404 18.1563L43.2842 17.171L41.9281 18.1563L42.4461 16.562L41.0898 15.5767H42.7662L43.2842 13.9824Z" fill="#FFDA44"/>
<path d="M44.1124 25.4609L44.6303 27.0553H46.3067L44.9506 28.0407L45.4687 29.6349L44.1124 28.6497L42.7563 29.6349L43.2743 28.0407L41.918 27.0553H43.5943L44.1124 25.4609Z" fill="#FFDA44"/>
<path d="M28.9925 36.3187L30.4864 37.0798L31.6717 35.8945L31.4095 37.5501L32.9031 38.3111L31.2473 38.5734L30.985 40.2292L30.2242 38.7354L28.5684 38.9978L29.7536 37.8126L28.9925 36.3187Z" fill="#FFDA44"/>
<path d="M28.9925 30.059L30.4864 30.82L31.6717 29.6348L31.4095 31.2904L32.9031 32.0514L31.2473 32.3137L30.985 33.9694L30.2242 32.4758L28.5684 32.7381L29.7536 31.5528L28.9925 30.059Z" fill="#FFDA44"/>
<path d="M34.2093 34.0726L35.7032 34.8337L36.8885 33.6484L36.6263 35.304L38.1199 36.065L36.4641 36.3273L36.2018 37.9831L35.441 36.4893L33.7852 36.7518L34.9704 35.5665L34.2093 34.0726Z" fill="#FFDA44"/>
<path d="M34.2093 20.6684L35.7032 21.4294L36.8885 20.2441L36.6263 21.8998L38.1199 22.6607L36.4641 22.923L36.2018 24.5788L35.441 23.0851L33.7852 23.3475L34.9704 22.1622L34.2093 20.6684Z" fill="#FFDA44"/>
<path d="M39.2659 20.5062L40.7598 21.2673L41.9451 20.082L41.6829 21.7377L43.1765 22.4986L41.5207 22.7609L41.2585 24.4167L40.4976 22.923L38.8418 23.1853L40.0271 22.0001L39.2659 20.5062Z" fill="#FFDA44"/>
</g>
<defs>
<clipPath id="clip0_2743_2459">
<rect x="0.394531" y="0.417969" width="48" height="48" rx="24" fill="white"/>
</clipPath>
</defs>
</svg>
