<svg width="49" height="49" viewBox="0 0 49 49" fill="none" xmlns="http://www.w3.org/2000/svg">
<g clip-path="url(#clip0_2743_2481)">
<path d="M42.2814 40.4187C46.0823 36.1726 48.3945 30.5662 48.3945 24.4188C48.3945 18.2714 46.0822 12.6649 42.2813 8.41875L24.3945 6.67969L6.50778 8.41875C2.70688 12.6649 0.394531 18.2714 0.394531 24.4188C0.394531 30.5662 2.70678 36.1726 6.50769 40.4187L24.3945 42.1579L42.2814 40.4187Z" fill="#FFDA44"/>
<path d="M6.50781 8.41794H42.2814C37.8869 3.50853 31.502 0.417969 24.3946 0.417969C17.2871 0.417969 10.9023 3.50853 6.50781 8.41794Z" fill="black"/>
<path d="M0.394531 24.418L24.3945 26.505L48.3945 24.418C48.3945 21.6127 47.9116 18.9203 47.0269 16.418H1.76216C0.877438 18.9203 0.394531 21.6127 0.394531 24.418H0.394531Z" fill="#D80027"/>
<path d="M1.76216 32.4179H47.0271C47.9116 29.9156 48.3945 27.2233 48.3945 24.418H0.394531C0.394531 27.2233 0.877438 29.9156 1.76216 32.4179Z" fill="black"/>
<path d="M42.2815 40.418H6.50781C10.9023 45.3275 17.2871 48.418 24.3947 48.418C31.5022 48.418 37.8871 45.3275 42.2815 40.418Z" fill="#D80027"/>
<path d="M32.4041 24.4188C32.4041 28.8422 28.8188 32.4275 24.3954 32.4275C19.972 32.4275 16.3867 28.8422 16.3867 24.4188C16.3867 19.9954 19.972 16.4102 24.3954 16.4102C28.8188 16.4102 32.4041 19.9954 32.4041 24.4188Z" fill="#F0F0F0"/>
<path d="M27.3283 24.8272L24.3943 23.5559C24.3943 23.5559 25.0808 21.2775 25.1173 21.1215C25.1441 21.0076 25.1583 20.8889 25.1583 20.7668C25.1583 20.3345 24.9831 19.9432 24.6998 19.6601L25.4376 18.9223C24.9656 18.4502 24.3133 18.1582 23.593 18.1582C22.8726 18.1582 22.2204 18.4501 21.7483 18.9223L22.4862 19.6601C22.2028 19.9433 22.0277 20.3346 22.0277 20.7668C22.0277 20.9249 22.0516 21.0772 22.0952 21.2211L20.9844 22.3319H23.0034C23.0034 22.3319 22.1686 23.5857 21.7129 24.6153C21.2572 25.6449 21.7192 26.9018 22.7724 27.37L23.3814 27.6406L24.3943 28.5928V29.6362L23.3509 30.6796H25.4379V28.5927L26.3901 27.6405H28.3596C28.3691 27.6209 28.379 27.6017 28.388 27.5817C28.8559 26.5286 28.3815 25.2952 27.3283 24.8272Z" fill="black"/>
</g>
<defs>
<clipPath id="clip0_2743_2481">
<rect x="0.394531" y="0.417969" width="48" height="48" rx="24" fill="white"/>
</clipPath>
</defs>
</svg>
