<svg width="49" height="49" viewBox="0 0 49 49" fill="none" xmlns="http://www.w3.org/2000/svg">
<g clip-path="url(#clip0_2743_2492)">
<path d="M24.3945 48.418C37.6494 48.418 48.3945 37.6728 48.3945 24.418C48.3945 11.1631 37.6494 0.417969 24.3945 0.417969C11.1397 0.417969 0.394531 11.1631 0.394531 24.418C0.394531 37.6728 11.1397 48.418 24.3945 48.418Z" fill="#F0F0F0"/>
<path d="M13.959 32.7656L16.046 46.9253C18.6458 47.89 21.458 48.4178 24.3937 48.4178C34.7128 48.4178 43.5099 41.9048 46.9009 32.7656H13.959Z" fill="black"/>
<path d="M13.959 16.0702L16.046 1.91056C18.6458 0.945781 21.458 0.417969 24.3937 0.417969C34.7128 0.417969 43.5099 6.93097 46.9009 16.0702H13.959Z" fill="#6DA544"/>
<path d="M0.394531 24.4174C0.394531 34.7365 6.90763 43.5336 16.0468 46.9246V1.91016C6.90763 5.30119 0.394531 14.0982 0.394531 24.4174Z" fill="#A2001D"/>
</g>
<defs>
<clipPath id="clip0_2743_2492">
<rect x="0.394531" y="0.417969" width="48" height="48" rx="24" fill="white"/>
</clipPath>
</defs>
</svg>
