<svg width="49" height="49" viewBox="0 0 49 49" fill="none" xmlns="http://www.w3.org/2000/svg">
<g clip-path="url(#clip0_2743_2514)">
<path d="M24.3945 48.418C37.6494 48.418 48.3945 37.6728 48.3945 24.418C48.3945 11.1631 37.6494 0.417969 24.3945 0.417969C11.1397 0.417969 0.394531 11.1631 0.394531 24.418C0.394531 37.6728 11.1397 48.418 24.3945 48.418Z" fill="#338AF3"/>
<path d="M24.3243 16.0703C19.7138 16.0703 15.9766 19.8078 15.9766 24.4181C15.9766 29.0284 19.7139 32.7659 24.3243 32.7659C28.9346 32.7659 32.6721 29.0284 32.6721 24.4181C32.6721 19.8078 28.9345 16.0703 24.3243 16.0703ZM22.2374 24.4181C22.2374 23.2655 23.1717 22.3311 24.3243 22.3311C25.4769 22.3311 26.4113 23.2655 26.4113 24.4181C26.4113 25.5708 25.4769 26.5051 24.3243 26.5051C23.1717 26.5051 22.2374 25.5708 22.2374 24.4181ZM26.4881 20.8482C26.1642 20.6514 25.8111 20.4986 25.4373 20.3954V18.2579C26.3786 18.4268 27.2465 18.8055 27.9915 19.3449L26.4881 20.8482ZM23.3504 20.3597C22.9588 20.4533 22.5888 20.6021 22.2489 20.7974L20.7386 19.2871C21.5021 18.7525 22.3897 18.3832 23.3504 18.2329V20.3597ZM22.2488 28.0388C22.5888 28.234 22.9587 28.3829 23.3503 28.4764V30.6031C22.3895 30.453 21.5021 30.0835 20.7386 29.5489L22.2488 28.0388ZM25.4373 28.4408C25.8111 28.3376 26.1644 28.1849 26.4881 27.9881L27.9914 29.4914C27.2464 30.0307 26.3786 30.4095 25.4373 30.5784V28.4409H25.4373V28.4408ZM27.945 26.4937C28.1288 26.1738 28.2725 25.8276 28.3668 25.4616H30.4969C30.3402 26.3956 29.977 27.2589 29.4554 28.0038L27.945 26.4937ZM28.3668 23.3747C28.2725 23.0086 28.1288 22.6627 27.945 22.3427L29.4553 20.8323C29.9769 21.5774 30.3402 22.4406 30.4968 23.3746H28.3667V23.3747H28.3668ZM19.2511 20.7511L20.7543 22.2543C20.5454 22.5984 20.3848 22.9749 20.2818 23.3747H18.1517C18.3141 22.4066 18.6984 21.5143 19.2511 20.7511ZM18.1517 25.4615H20.2818C20.3847 25.8613 20.5453 26.2378 20.7543 26.5818L19.2511 28.0851C18.6984 27.3219 18.3141 26.4297 18.1517 25.4615Z" fill="#F0F0F0"/>
<path d="M37.8901 24.4182C37.8901 20.7076 36.3996 17.3456 33.9856 14.8965L31.772 17.11C33.6197 18.9925 34.7597 21.5721 34.7597 24.4182C34.7597 30.1812 30.0878 34.853 24.3249 34.853C18.5618 34.853 13.8902 30.1812 13.8902 24.4182C13.8902 21.5366 15.058 18.9279 16.9464 17.0397L14.7329 14.8262C12.278 17.281 10.7598 20.6723 10.7598 24.4182C10.7598 30.6259 14.9295 35.8596 20.621 37.4715C19.997 38.6569 20.092 40.1493 20.9834 41.2616C22.1541 40.3234 23.3662 39.3519 24.3945 38.528C25.4227 39.352 26.6349 40.3234 27.8056 41.2616C28.7058 40.1382 28.7944 38.6269 28.1496 37.4358C33.7789 35.7844 37.8901 30.5818 37.8901 24.4182Z" fill="#F0F0F0"/>
</g>
<defs>
<clipPath id="clip0_2743_2514">
<rect x="0.394531" y="0.417969" width="48" height="48" rx="24" fill="white"/>
</clipPath>
</defs>
</svg>
