<svg width="49" height="49" viewBox="0 0 49 49" fill="none" xmlns="http://www.w3.org/2000/svg">
<g clip-path="url(#clip0_2743_2519)">
<path d="M24.3945 48.418C37.6494 48.418 48.3945 37.6728 48.3945 24.418C48.3945 11.1631 37.6494 0.417969 24.3945 0.417969C11.1397 0.417969 0.394531 11.1631 0.394531 24.418C0.394531 37.6728 11.1397 48.418 24.3945 48.418Z" fill="#F0F0F0"/>
<path d="M23.3496 24.4172H48.393C48.393 22.251 48.1043 20.1525 47.5663 18.1562H23.3496V24.4172Z" fill="#D80027"/>
<path d="M23.3496 11.8957H44.8705C43.4013 9.4983 41.5229 7.37927 39.3327 5.63477H23.3496V11.8957Z" fill="#D80027"/>
<path d="M24.3947 48.4166C30.043 48.4166 35.2346 46.4643 39.3343 43.1992H9.45508C13.5548 46.4643 18.7464 48.4166 24.3947 48.4166Z" fill="#D80027"/>
<path d="M3.91648 36.9386H44.8714C46.0508 35.014 46.9655 32.9103 47.5671 30.6777H1.2207C1.8223 32.9103 2.73702 35.014 3.91648 36.9386Z" fill="#D80027"/>
<path d="M11.5118 4.16591H13.6989L11.6645 5.64388L12.4416 8.03534L10.4073 6.55737L8.37303 8.03534L9.04428 5.96938C7.25309 7.46141 5.68316 9.20947 4.38941 11.1572H5.09019L3.79522 12.098C3.59347 12.4346 3.39997 12.7765 3.21453 13.1234L3.83291 15.0267L2.67922 14.1884C2.39244 14.796 2.13013 15.4173 1.89434 16.0515L2.57562 18.1485H5.09019L3.05581 19.6265L3.83291 22.018L1.79862 20.54L0.580062 21.4254C0.458094 22.4058 0.394531 23.4044 0.394531 24.418H24.3945C24.3945 11.1632 24.3945 9.60059 24.3945 0.417969C19.6534 0.417969 15.2338 1.79328 11.5118 4.16591ZM12.4416 22.018L10.4073 20.54L8.37303 22.018L9.15012 19.6265L7.11575 18.1485H9.63031L10.4073 15.7571L11.1843 18.1485H13.6989L11.6645 19.6265L12.4416 22.018ZM11.6645 12.6352L12.4416 15.0267L10.4073 13.5487L8.37303 15.0267L9.15012 12.6352L7.11575 11.1572H9.63031L10.4073 8.76575L11.1843 11.1572H13.6989L11.6645 12.6352ZM21.0503 22.018L19.016 20.54L16.9817 22.018L17.7588 19.6265L15.7244 18.1485H18.239L19.016 15.7571L19.793 18.1485H22.3076L20.2732 19.6265L21.0503 22.018ZM20.2732 12.6352L21.0503 15.0267L19.016 13.5487L16.9817 15.0267L17.7588 12.6352L15.7244 11.1572H18.239L19.016 8.76575L19.793 11.1572H22.3076L20.2732 12.6352ZM20.2732 5.64388L21.0503 8.03534L19.016 6.55737L16.9817 8.03534L17.7588 5.64388L15.7244 4.16591H18.239L19.016 1.77444L19.793 4.16591H22.3076L20.2732 5.64388Z" fill="#0052B4"/>
</g>
<defs>
<clipPath id="clip0_2743_2519">
<rect x="0.394531" y="0.417969" width="48" height="48" rx="24" fill="white"/>
</clipPath>
</defs>
</svg>
