<svg width="49" height="49" viewBox="0 0 49 49" fill="none" xmlns="http://www.w3.org/2000/svg">
<g clip-path="url(#clip0_2743_2497)">
<path d="M24.3945 48.418C37.6494 48.418 48.3945 37.6728 48.3945 24.418C48.3945 11.1631 37.6494 0.417969 24.3945 0.417969C11.1397 0.417969 0.394531 11.1631 0.394531 24.418C0.394531 37.6728 11.1397 48.418 24.3945 48.418Z" fill="#F0F0F0"/>
<path d="M5.35517 9.80664C3.46995 12.2594 2.04842 15.0865 1.2207 18.1576H13.7061L5.35517 9.80664Z" fill="#0052B4"/>
<path d="M47.5673 18.1575C46.7396 15.0865 45.3179 12.2594 43.4328 9.80664L35.082 18.1575H47.5673Z" fill="#0052B4"/>
<path d="M1.2207 30.6777C2.04852 33.7488 3.47005 36.5758 5.35517 39.0285L13.7059 30.6777H1.2207Z" fill="#0052B4"/>
<path d="M39.0052 5.3787C36.5524 3.49348 33.7255 2.07195 30.6543 1.24414V13.7295L39.0052 5.3787Z" fill="#0052B4"/>
<path d="M9.7832 43.4562C12.236 45.3414 15.063 46.7629 18.1341 47.5907V35.1055L9.7832 43.4562Z" fill="#0052B4"/>
<path d="M18.134 1.24414C15.0629 2.07195 12.2359 3.49348 9.7832 5.37861L18.134 13.7294V1.24414Z" fill="#0052B4"/>
<path d="M30.6543 47.5907C33.7254 46.7629 36.5524 45.3414 39.0051 43.4562L30.6543 35.1055V47.5907Z" fill="#0052B4"/>
<path d="M35.082 30.6777L43.4328 39.0286C45.3179 36.5759 46.7396 33.7488 47.5673 30.6777H35.082Z" fill="#0052B4"/>
<path d="M48.1914 21.2876H27.5251H27.525V0.621125C26.5002 0.487719 25.4555 0.417969 24.3945 0.417969C23.3334 0.417969 22.2888 0.487719 21.2641 0.621125V21.2874V21.2875H0.597688C0.464281 22.3123 0.394531 23.357 0.394531 24.418C0.394531 25.4791 0.464281 26.5237 0.597688 27.5484H21.2639H21.264V48.2148C22.2888 48.3482 23.3334 48.418 24.3945 48.418C25.4555 48.418 26.5002 48.3483 27.5249 48.2148V27.5486V27.5485H48.1914C48.3248 26.5237 48.3945 25.4791 48.3945 24.418C48.3945 23.357 48.3248 22.3123 48.1914 21.2876Z" fill="#D80027"/>
<path d="M30.6562 30.6798L41.3659 41.3894C41.8584 40.897 42.3283 40.3822 42.7766 39.8486L33.6077 30.6797H30.6562V30.6798Z" fill="#D80027"/>
<path d="M18.1335 30.6797H18.1334L7.42383 41.3892C7.9162 41.8818 8.43098 42.3517 8.96461 42.8L18.1335 33.6308V30.6797Z" fill="#D80027"/>
<path d="M18.134 18.1572V18.157L7.42442 7.44727C6.93186 7.93964 6.46198 8.45442 6.01367 8.98805L15.1827 18.1571H18.134V18.1572Z" fill="#D80027"/>
<path d="M30.6562 18.1576L41.366 7.44777C40.8736 6.9552 40.3588 6.48533 39.8252 6.03711L30.6562 15.2061V18.1576Z" fill="#D80027"/>
</g>
<defs>
<clipPath id="clip0_2743_2497">
<rect x="0.394531" y="0.417969" width="48" height="48" rx="24" fill="white"/>
</clipPath>
</defs>
</svg>
