<svg width="49" height="49" viewBox="0 0 49 49" fill="none" xmlns="http://www.w3.org/2000/svg">
<g clip-path="url(#clip0_2743_2527)">
<path d="M24.3945 48.418C37.6494 48.418 48.3945 37.6728 48.3945 24.418C48.3945 11.1631 37.6494 0.417969 24.3945 0.417969C11.1397 0.417969 0.394531 11.1631 0.394531 24.418C0.394531 37.6728 11.1397 48.418 24.3945 48.418Z" fill="#F0F0F0"/>
<path d="M24.3945 18.1574H47.5677C46.966 15.9248 46.0513 13.821 44.872 11.8965H24.3945V18.1574Z" fill="#338AF3"/>
<path d="M9.45569 43.2004H39.335C41.5253 41.4559 43.4037 39.3369 44.8727 36.9395H3.91797C5.38713 39.3368 7.2655 41.4559 9.45569 43.2004Z" fill="#338AF3"/>
<path d="M24.3945 0.417969V5.63534H39.3342C35.2346 2.37022 30.0429 0.417969 24.3945 0.417969Z" fill="#338AF3"/>
<path d="M24.3945 18.1574H47.5677C46.966 15.9248 46.0513 13.821 44.872 11.8965H24.3945V18.1574Z" fill="#338AF3"/>
<path d="M0.394531 24.418C0.394531 26.5842 0.683281 28.6826 1.22131 30.6789H47.5678C48.1058 28.6826 48.3945 26.5842 48.3945 24.418H0.394531Z" fill="#338AF3"/>
<path d="M21.2645 14.4643L18.3333 15.8431L19.8942 18.6818L16.7114 18.073L16.3081 21.2882L14.0912 18.9234L11.8742 21.2882L11.471 18.073L8.28822 18.6817L9.84897 15.843L6.91797 14.4643L9.84906 13.0857L8.28822 10.247L11.4709 10.8558L11.8743 7.64062L14.0912 10.0054L16.3082 7.64062L16.7114 10.8558L19.8943 10.247L18.3334 13.0858L21.2645 14.4643Z" fill="#FFDA44"/>
</g>
<defs>
<clipPath id="clip0_2743_2527">
<rect x="0.394531" y="0.417969" width="48" height="48" rx="24" fill="white"/>
</clipPath>
</defs>
</svg>
