<svg width="49" height="49" viewBox="0 0 49 49" fill="none" xmlns="http://www.w3.org/2000/svg">
<g clip-path="url(#clip0_2743_2537)">
<path d="M1.52778 17.1138C0.792594 19.4171 0.394438 21.8708 0.394531 24.4179C0.394438 26.9651 0.792687 29.419 1.52787 31.7223L24.3945 32.7659L47.2612 31.7224C47.9963 29.4191 48.3946 26.9651 48.3946 24.4181C48.3945 21.8709 47.9964 19.4171 47.2612 17.1138L24.3945 16.0703L1.52778 17.1138Z" fill="#F0F0F0"/>
<path d="M47.2609 17.1138L24.3943 16.0703L1.52753 17.1138C1.30966 17.7966 1.12206 18.4929 0.964844 19.2007H47.8233C47.6663 18.4928 47.4788 17.7964 47.2609 17.1138Z" fill="#D80027"/>
<path d="M0.964844 29.6348C1.12187 30.3426 1.30947 31.0388 1.52734 31.7216L1.52959 31.7217L24.3939 32.7652L47.2606 31.7217C47.4784 31.0389 47.666 30.3426 47.8232 29.6348H0.964844Z" fill="#D80027"/>
<path d="M24.3939 48.4183C35.1017 48.4183 44.1701 41.4055 47.2606 31.7227H1.52734C4.61781 41.4054 13.6864 48.4183 24.3939 48.4183Z" fill="#6DA544"/>
<path d="M24.394 0.417969C13.6864 0.418063 4.618 7.43084 1.52734 17.1136L47.2606 17.1137C44.1703 7.43075 35.1017 0.417875 24.394 0.417969Z" fill="#338AF3"/>
<path d="M11.362 10.3303C11.362 8.08248 12.9418 6.20467 15.0515 5.74398C14.7273 5.67311 14.3908 5.63477 14.0453 5.63477C11.452 5.63477 9.34961 7.73702 9.34961 10.3304C9.34961 12.9238 11.4518 15.0261 14.0453 15.0261C14.3908 15.0261 14.7272 14.9876 15.0515 14.9169C12.9419 14.456 11.362 12.5782 11.362 10.3303Z" fill="#F0F0F0"/>
<path d="M17.8271 12.4648L18.1449 13.4431H19.1735L18.3414 14.0478L18.6592 15.0261L17.8271 14.4215L16.9948 15.0261L17.3127 14.0478L16.4805 13.4431H17.5091L17.8271 12.4648Z" fill="#F0F0F0"/>
<path d="M21.1101 12.4648L21.428 13.4431H22.4566L21.6244 14.0478L21.9423 15.0261L21.1101 14.4215L20.2779 15.0261L20.5958 14.0478L19.7637 13.4431H20.7922L21.1101 12.4648Z" fill="#F0F0F0"/>
<path d="M24.3935 12.4648L24.7113 13.4431H25.74L24.9078 14.0478L25.2256 15.0261L24.3935 14.4215L23.5612 15.0261L23.8792 14.0478L23.0469 13.4431H24.0756L24.3935 12.4648Z" fill="#F0F0F0"/>
<path d="M27.6767 12.4648L27.9946 13.4431H29.0231L28.191 14.0478L28.5089 15.0261L27.6767 14.4215L26.8444 15.0261L27.1624 14.0478L26.3301 13.4431H27.3587L27.6767 12.4648Z" fill="#F0F0F0"/>
<path d="M30.9597 12.4648L31.2776 13.4431H32.3063L31.4741 14.0478L31.792 15.0261L30.9597 14.4215L30.1275 15.0261L30.4454 14.0478L29.6133 13.4431H30.6418L30.9597 12.4648Z" fill="#F0F0F0"/>
<path d="M21.1101 9.05078L21.428 10.029H22.4566L21.6244 10.6337L21.9423 11.6119L21.1101 11.0073L20.2779 11.6119L20.5958 10.6337L19.7637 10.029H20.7922L21.1101 9.05078Z" fill="#F0F0F0"/>
<path d="M24.3935 9.05078L24.7113 10.029H25.74L24.9078 10.6337L25.2256 11.6119L24.3935 11.0073L23.5612 11.6119L23.8792 10.6337L23.0469 10.029H24.0756L24.3935 9.05078Z" fill="#F0F0F0"/>
<path d="M27.6767 9.05078L27.9946 10.029H29.0231L28.191 10.6337L28.5089 11.6119L27.6767 11.0073L26.8444 11.6119L27.1624 10.6337L26.3301 10.029H27.3587L27.6767 9.05078Z" fill="#F0F0F0"/>
<path d="M30.9597 9.05078L31.2776 10.029H32.3063L31.4741 10.6337L31.792 11.6119L30.9597 11.0073L30.1275 11.6119L30.4454 10.6337L29.6133 10.029H30.6418L30.9597 9.05078Z" fill="#F0F0F0"/>
<path d="M24.3935 5.63477L24.7113 6.61314H25.74L24.9078 7.21773L25.2256 8.19611L24.3935 7.59152L23.5612 8.19611L23.8792 7.21773L23.0469 6.61314H24.0756L24.3935 5.63477Z" fill="#F0F0F0"/>
<path d="M27.6767 5.63477L27.9946 6.61314H29.0231L28.191 7.21773L28.5089 8.19611L27.6767 7.59152L26.8444 8.19611L27.1624 7.21773L26.3301 6.61314H27.3587L27.6767 5.63477Z" fill="#F0F0F0"/>
<path d="M30.9597 5.63477L31.2776 6.61314H32.3063L31.4741 7.21773L31.792 8.19611L30.9597 7.59152L30.1275 8.19611L30.4454 7.21773L29.6133 6.61314H30.6418L30.9597 5.63477Z" fill="#F0F0F0"/>
</g>
<defs>
<clipPath id="clip0_2743_2537">
<rect x="0.394531" y="0.417969" width="48" height="48" rx="24" fill="white"/>
</clipPath>
</defs>
</svg>
