<svg width="49" height="49" viewBox="0 0 49 49" fill="none" xmlns="http://www.w3.org/2000/svg">
<g clip-path="url(#clip0_2743_2558)">
<path d="M48.3945 24.4179C48.3945 23.3569 48.3248 22.3121 48.1913 21.2875H21.2639C16.3606 16.3845 7.42356 7.44802 7.42394 7.44727C-1.9486 16.8198 -1.9486 32.0157 7.42394 41.3885L21.2641 27.5484H48.1913C48.3247 26.5236 48.3945 25.4788 48.3945 24.4179Z" fill="black"/>
<path d="M48.3881 24.9648C48.3871 25.0112 48.3861 25.0577 48.3848 25.104C48.3859 25.0575 48.387 25.0112 48.3881 24.9648Z" fill="#F0F0F0"/>
<path d="M48.3652 25.6211C48.363 25.6669 48.3599 25.7126 48.3574 25.7583C48.3599 25.7127 48.3629 25.6669 48.3652 25.6211Z" fill="#F0F0F0"/>
<path d="M48.3313 26.1426C48.3265 26.21 48.3218 26.2774 48.3164 26.3446C48.3218 26.2774 48.3264 26.21 48.3313 26.1426Z" fill="#F0F0F0"/>
<path d="M48.252 21.8027C48.2608 21.883 48.2696 21.9631 48.2775 22.0436C48.2696 21.963 48.2607 21.883 48.252 21.8027Z" fill="#F0F0F0"/>
<path d="M48.3574 23.0801C48.36 23.1258 48.363 23.1715 48.3652 23.2173C48.363 23.1715 48.36 23.1257 48.3574 23.0801Z" fill="#F0F0F0"/>
<path d="M48.3848 23.7344C48.3861 23.7807 48.387 23.8272 48.3881 23.8735C48.3871 23.827 48.386 23.7807 48.3848 23.7344Z" fill="#F0F0F0"/>
<path d="M48.3164 22.4922C48.3218 22.5594 48.3265 22.6268 48.3313 22.6942C48.3264 22.6268 48.3218 22.5594 48.3164 22.4922Z" fill="#F0F0F0"/>
<path d="M48.1914 21.2874C48.2022 21.3696 48.2118 21.4523 48.2216 21.5347C46.7972 9.63958 36.6735 0.417969 24.3946 0.417969C17.7671 0.417969 11.767 3.10437 7.42383 7.44771L21.2636 21.2875H48.1914V21.2874Z" fill="#D80027"/>
<path d="M48.1914 27.5481H21.2636L7.42383 41.3879C11.767 45.7312 17.7671 48.4176 24.3946 48.4176C36.6735 48.4176 46.7973 39.196 48.2216 27.3008C48.2118 27.3832 48.202 27.4659 48.1914 27.5481Z" fill="#6DA544"/>
<path d="M48.2775 26.793C48.2696 26.8734 48.2608 26.9536 48.252 27.0338C48.2608 26.9536 48.2697 26.8735 48.2775 26.793Z" fill="#F0F0F0"/>
<path d="M48.332 22.6934C48.3411 22.8217 48.3494 22.9503 48.3564 23.0792C48.3493 22.9503 48.3411 22.8217 48.332 22.6934Z" fill="black"/>
<path d="M48.2207 21.5352C48.2315 21.6241 48.2417 21.7133 48.2513 21.8025C48.2415 21.7133 48.2313 21.6242 48.2207 21.5352Z" fill="black"/>
<path d="M48.2773 22.043C48.292 22.1919 48.3052 22.3413 48.3171 22.4912C48.3053 22.3413 48.2921 22.1918 48.2773 22.043Z" fill="black"/>
<path d="M48.3936 24.418C48.3936 24.6005 48.3907 24.7823 48.3867 24.9637C48.3907 24.7822 48.3936 24.6004 48.3936 24.418Z" fill="black"/>
<path d="M48.3564 25.7578C48.3493 25.8867 48.341 26.0153 48.332 26.1437C48.341 26.0153 48.3492 25.8867 48.3564 25.7578Z" fill="black"/>
<path d="M48.3171 26.3457C48.3052 26.4954 48.292 26.6449 48.2773 26.7937C48.2921 26.6449 48.3053 26.4954 48.3171 26.3457Z" fill="black"/>
<path d="M48.2513 27.0332C48.2417 27.1225 48.2315 27.2115 48.2207 27.3006C48.2313 27.2116 48.2415 27.1225 48.2513 27.0332Z" fill="black"/>
<path d="M48.3867 23.873C48.3907 24.0545 48.3936 24.2364 48.3936 24.4188C48.3936 24.2364 48.3907 24.0545 48.3867 23.873Z" fill="black"/>
<path d="M48.3652 23.2168C48.3737 23.3885 48.38 23.561 48.3849 23.7336C48.38 23.5609 48.3738 23.3885 48.3652 23.2168Z" fill="black"/>
<path d="M48.3849 25.1035C48.38 25.2762 48.3737 25.4486 48.3652 25.6204C48.3739 25.4485 48.3801 25.2762 48.3849 25.1035Z" fill="black"/>
<path d="M48.3711 23.3653H20.3816L6.00439 8.99023C5.53967 9.48036 5.03595 10.1647 4.72442 10.6521L18.4737 24.4086L4.71289 38.1697C4.98533 38.6544 5.57886 39.3717 5.99558 39.8385L20.3819 25.4522H48.3744C48.3893 25.1061 48.394 24.7585 48.394 24.4088C48.3939 23.9402 48.381 23.5948 48.3711 23.3653Z" fill="#FFDA44"/>
<path d="M6.22482 29.5328V27.5225C8.23088 27.5225 9.86278 25.8905 9.86278 23.8846C9.86278 22.4653 8.70807 21.3107 7.28888 21.3107C6.32204 21.3107 5.53539 22.0972 5.53539 23.0643C5.53539 23.6826 6.03835 24.1856 6.65673 24.1856C7.00623 24.1856 7.29057 23.9011 7.29057 23.5516H9.30075C9.30075 25.0097 8.11463 26.1958 6.65682 26.1958C4.93004 26.1959 3.52539 24.791 3.52539 23.0645C3.52539 20.9891 5.21382 19.3008 7.28898 19.3008C9.81666 19.3008 11.8732 21.3573 11.8732 23.8849C11.8731 26.999 9.33929 29.5328 6.22482 29.5328Z" fill="#FFDA44"/>
</g>
<defs>
<clipPath id="clip0_2743_2558">
<rect x="0.394531" y="0.417969" width="48" height="48" rx="24" fill="white"/>
</clipPath>
</defs>
</svg>
