<svg width="49" height="49" viewBox="0 0 49 49" fill="none" xmlns="http://www.w3.org/2000/svg">
<g clip-path="url(#clip0_2743_2584)">
<path d="M24.3941 0.417969C37.6488 0.417969 48.3941 11.1632 48.3941 24.418C48.3941 37.6727 37.6488 48.418 24.3941 48.418C24.3941 47.3745 21.2637 24.418 21.2637 24.418L24.3941 0.417969Z" fill="#F0F0F0"/>
<path d="M24.3945 48.418C11.1398 48.418 0.394531 37.6727 0.394531 24.418C0.394531 11.1632 11.1398 0.417969 24.3945 0.417969" fill="#FFDA44"/>
<path d="M33.5849 21.3018L38.0953 27.2686C37.3847 28.3447 37.3885 29.7944 38.2104 30.8816C39.2529 32.2608 41.2161 32.5338 42.5953 31.4912C43.9745 30.4487 44.2475 28.4855 43.2048 27.1063C42.3831 26.0191 40.9892 25.6201 39.7601 26.0103L32.7307 16.7109L31.0659 17.9694L28.5684 19.857L31.0854 23.1865L33.5849 21.3018ZM40.0783 28.1615C40.5381 27.8138 41.1925 27.905 41.5401 28.3645C41.8875 28.8243 41.7967 29.4787 41.3369 29.8264C40.8773 30.1737 40.2228 30.083 39.8754 29.6231C39.5276 29.1634 39.6187 28.5089 40.0783 28.1615Z" fill="#ACABB1"/>
<path d="M41.3211 23.1867L43.8381 19.8572L41.3407 17.9694L39.6759 16.7109L32.6465 26.0103C31.4176 25.6201 30.0236 26.0192 29.2018 27.1063C28.1591 28.4856 28.4321 30.4487 29.8113 31.4912C31.1905 32.5337 33.1536 32.2608 34.1961 30.8816C35.018 29.7944 35.0217 28.3447 34.3112 27.2686L38.8216 21.3018L41.3211 23.1867ZM32.5313 29.6233C32.1839 30.0832 31.5295 30.174 31.0698 29.8266C30.61 29.4789 30.5191 28.8245 30.8666 28.3647C31.2141 27.9052 31.8685 27.814 32.3284 28.1617C32.788 28.5092 32.8789 29.1637 32.5313 29.6233Z" fill="#FFDA44"/>
</g>
<defs>
<clipPath id="clip0_2743_2584">
<rect x="0.394531" y="0.417969" width="48" height="48" rx="24" fill="white"/>
</clipPath>
</defs>
</svg>
