<svg width="49" height="49" viewBox="0 0 49 49" fill="none" xmlns="http://www.w3.org/2000/svg">
<g clip-path="url(#clip0_2743_2589)">
<path d="M46.0131 34.853C47.5389 31.6977 48.3945 28.158 48.3945 24.4182C48.3945 20.6784 47.5389 17.1387 46.0131 13.9835L24.3945 11.8965L2.77597 13.9835C1.25019 17.1387 0.394531 20.6784 0.394531 24.4182C0.394531 28.158 1.25019 31.6977 2.77597 34.853L24.3945 36.9399L46.0131 34.853Z" fill="#0052B4"/>
<path d="M24.394 48.4188C33.9089 48.4188 42.1305 42.8814 46.0125 34.8535H2.77539C6.65739 42.8814 14.8789 48.4188 24.394 48.4188Z" fill="#D80027"/>
<path d="M41.9593 29.1294L40.6917 30.12L41.2418 31.6313L39.908 30.732L38.6403 31.7223L39.0836 30.1759L37.75 29.2763L39.3577 29.2202L39.8013 27.6738L40.3517 29.1855L41.9593 29.1294Z" fill="#F0F0F0"/>
<path d="M38.7136 23.5069L37.8613 24.8712L38.8954 26.1033L37.3344 25.7146L36.4818 27.0785L36.3694 25.4738L34.8086 25.0845L36.3003 24.4818L36.1882 22.877L37.2222 24.1095L38.7136 23.5069Z" fill="#F0F0F0"/>
<path d="M33.7393 19.334L33.405 20.9076L34.7981 21.712L33.1983 21.8806L32.8638 23.4537L32.2094 21.9843L30.6094 22.1522L31.8051 21.0758L31.1508 19.6063L32.5439 20.4105L33.7393 19.334Z" fill="#F0F0F0"/>
<path d="M27.6402 17.1133L27.8644 18.7064L29.4485 18.9856L28.0027 19.6911L28.2266 21.2841L27.1091 20.1269L25.6629 20.8321L26.4184 19.4115L25.3008 18.2544L26.8852 18.5337L27.6402 17.1133Z" fill="#F0F0F0"/>
<path d="M21.148 17.1133L21.9033 18.5337L23.4873 18.2542L22.3701 19.4117L23.1251 20.8322L21.6793 20.1269L20.5616 21.2838L20.7858 19.6911L19.3398 18.9859L20.9241 18.7064L21.148 17.1133Z" fill="#F0F0F0"/>
<path d="M15.0468 19.334L16.2425 20.4105L17.6353 19.6063L16.9812 21.0763L18.1767 22.1526L16.5768 21.9843L15.9222 23.4537L15.5882 21.8803L13.9883 21.7123L15.3814 20.9078L15.0468 19.334Z" fill="#F0F0F0"/>
<path d="M10.074 23.5066L11.5658 24.1092L12.5995 22.877L12.4877 24.482L13.979 25.0848L12.4182 25.4737L12.3058 27.0783L11.4536 25.7143L9.89258 26.1033L10.9266 24.8709L10.074 23.5066Z" fill="#F0F0F0"/>
<path d="M6.82812 29.1292L8.43613 29.1853L8.98606 27.6738L9.42997 29.2203L11.0375 29.2765L9.70381 30.1761L10.1471 31.7224L8.87956 30.732L7.54578 31.6314L8.096 30.1198L6.82812 29.1292Z" fill="#F0F0F0"/>
<path d="M46.0125 13.9832C42.1305 5.95531 33.9089 0.417969 24.394 0.417969C14.8789 0.417969 6.65739 5.95531 2.77539 13.9832H46.0125Z" fill="#FFDA44"/>
</g>
<defs>
<clipPath id="clip0_2743_2589">
<rect x="0.394531" y="0.417969" width="48" height="48" rx="24" fill="white"/>
</clipPath>
</defs>
</svg>
