<svg width="49" height="49" viewBox="0 0 49 49" fill="none" xmlns="http://www.w3.org/2000/svg">
<g clip-path="url(#clip0_2743_2605)">
<path d="M24.3945 48.418C37.6494 48.418 48.3945 37.6728 48.3945 24.418C48.3945 11.1631 37.6494 0.417969 24.3945 0.417969C11.1397 0.417969 0.394531 11.1631 0.394531 24.418C0.394531 37.6728 11.1397 48.418 24.3945 48.418Z" fill="#FCFCFC"/>
<path d="M28.4712 17.1854C28.4712 14.9343 26.6462 13.1094 24.395 13.1094C22.1438 13.1094 20.3188 14.9343 20.3188 17.1854H11.3516C11.3516 19.4018 13.2822 21.1987 15.4986 21.1987H15.3651C15.3651 23.4152 17.1617 25.2122 19.3784 25.2122C19.3784 27.1747 20.7879 28.8054 22.6493 29.1539L22.6389 29.1774H26.1512L26.1408 29.1539C28.0023 28.8052 29.4117 27.1746 29.4117 25.2122C31.6283 25.2122 33.425 23.4152 33.425 21.1987H33.2913C35.5077 21.1987 37.4384 19.4018 37.4384 17.1854H28.4712Z" fill="#FFDA44"/>
<path d="M22.6035 28.7617L20.0762 34.4676C21.4097 35.0097 22.8672 35.311 24.3954 35.311C25.9236 35.311 27.3812 35.0098 28.7146 34.4676L26.1874 28.7617H22.6035Z" fill="#FFDA44"/>
<path d="M19.1777 19.1895V26.2105C19.1777 30.204 24.3951 31.4279 24.3951 31.4279C24.3951 31.4279 29.6125 30.204 29.6125 26.2105V19.1895H19.1777Z" fill="#F0F0F0"/>
<path d="M6.21502 24.5859L9.0368 32.4782L11.8292 24.5859H13.9604L9.88917 35.0207H8.18433L4.08398 24.5859H6.21502Z" fill="#338AF3"/>
<path d="M39.0039 35.0207V24.5859H41.032V35.0207H39.0039Z" fill="#338AF3"/>
<path d="M21.2637 21.457V29.9652C21.981 30.4931 22.7527 30.8562 23.3506 31.0887V21.457H21.2637Z" fill="#D80027"/>
<path d="M27.5245 21.457V29.9652C26.8072 30.4931 26.0354 30.8562 25.4375 31.0887V21.457H27.5245Z" fill="#D80027"/>
<path d="M19.1777 19.1895H29.6125V22.5003H19.1777V19.1895Z" fill="#0052B4"/>
</g>
<defs>
<clipPath id="clip0_2743_2605">
<rect x="0.394531" y="0.417969" width="48" height="48" rx="24" fill="white"/>
</clipPath>
</defs>
</svg>
