<svg width="49" height="49" viewBox="0 0 49 49" fill="none" xmlns="http://www.w3.org/2000/svg">
<g clip-path="url(#clip0_2743_2618)">
<path d="M24.3945 48.418C37.6494 48.418 48.3945 37.6728 48.3945 24.418C48.3945 11.1631 37.6494 0.417969 24.3945 0.417969C11.1397 0.417969 0.394531 11.1631 0.394531 24.418C0.394531 37.6728 11.1397 48.418 24.3945 48.418Z" fill="#F0F0F0"/>
<path d="M48.3945 24.418C48.3945 37.6727 37.6493 48.418 24.3945 48.418C11.1398 48.418 0.394531 37.6727 0.394531 24.418" fill="#496E2D"/>
<path d="M41.927 17.1185C41.0687 14.6845 38.7496 12.9395 36.0219 12.9395H30.6553C27.1975 12.9395 24.3944 15.7426 24.3944 19.2004C24.3944 20.33 24.6952 21.4158 25.2186 22.3308C23.2257 22.3145 21.3814 22.3445 20.2205 22.3308C20.2205 19.9161 20.2205 16.8402 20.2205 16.1966L20.467 15.95C21.5738 14.8432 21.2048 12.9986 21.2048 12.9986C21.2048 12.9986 19.3603 12.6297 18.2535 13.7365L16.9636 15.0264H15.5248C12.3551 15.0264 9.78572 17.5959 9.78572 20.7655H13.9597V25.4612C13.9597 26.148 14.0981 26.8023 14.3483 27.3981L12.9161 28.5916H10.8292V26.5046H8.74219V30.6785H18.1335V34.8525H16.0465V36.9395H20.2205V32.7655L22.1334 30.4699H26.6553L28.5683 32.7655V34.8525H26.4813V36.9395H34.8291V25.4611C34.8291 23.7322 36.2306 22.3307 37.9595 22.3307C38.0039 22.3307 38.048 22.3323 38.092 22.334C38.0056 21.9995 37.9595 21.6488 37.9595 21.2872C37.9597 19.0514 39.7178 17.2263 41.927 17.1185ZM30.6553 34.8524V30.4698H30.8292L32.7422 32.7654V34.8524H30.6553Z" fill="#D80027"/>
</g>
<defs>
<clipPath id="clip0_2743_2618">
<rect x="0.394531" y="0.417969" width="48" height="48" rx="24" fill="white"/>
</clipPath>
</defs>
</svg>
