<svg width="49" height="49" viewBox="0 0 49 49" fill="none" xmlns="http://www.w3.org/2000/svg">
<g clip-path="url(#clip0_2743_2626)">
<path d="M24.3945 48.418C37.6494 48.418 48.3945 37.6728 48.3945 24.418C48.3945 11.1631 37.6494 0.417969 24.3945 0.417969C11.1397 0.417969 0.394531 11.1631 0.394531 24.418C0.394531 37.6728 11.1397 48.418 24.3945 48.418Z" fill="#496E2D"/>
<path d="M33.7858 24.418H24.3945V48.418C27.1999 48.418 29.8921 47.9351 32.3945 47.0505L33.7858 24.418Z" fill="#D80027"/>
<path d="M40.3952 42.3048C45.3047 37.9104 48.3952 31.5254 48.3952 24.418H39.0039L40.3952 42.3048Z" fill="#FF9811"/>
<path d="M32.3945 24.418V47.0505C35.3755 45.9967 38.0862 44.3712 40.3946 42.3049V24.418H32.3945Z" fill="black"/>
<path d="M44.7426 16.0694H38.4817C38.4817 14.9168 37.5473 13.9824 36.3948 13.9824C35.2422 13.9824 34.3078 14.9168 34.3078 16.0694H28.0469C28.0469 17.222 29.0508 18.1564 30.2033 18.1564H30.1338C30.1338 19.309 31.0681 20.2433 32.2208 20.2433C32.2208 21.396 33.155 22.3303 34.3078 22.3303H38.4817C39.6343 22.3303 40.5687 21.396 40.5687 20.2433C41.7213 20.2433 42.6557 19.309 42.6557 18.1564H42.5862C43.7387 18.1563 44.7426 17.222 44.7426 16.0694Z" fill="#FF9811"/>
</g>
<defs>
<clipPath id="clip0_2743_2626">
<rect x="0.394531" y="0.417969" width="48" height="48" rx="24" fill="white"/>
</clipPath>
</defs>
</svg>
