<svg width="49" height="49" viewBox="0 0 49 49" fill="none" xmlns="http://www.w3.org/2000/svg">
<g clip-path="url(#clip0_2743_2632)">
<path d="M24.3945 48.418C37.6494 48.418 48.3945 37.6728 48.3945 24.418C48.3945 11.1631 37.6494 0.417969 24.3945 0.417969C11.1397 0.417969 0.394531 11.1631 0.394531 24.418C0.394531 37.6728 11.1397 48.418 24.3945 48.418Z" fill="#F0F0F0"/>
<path d="M46.097 14.1614C44.8777 11.5857 43.2135 9.26233 41.2035 7.28936L24.3942 5.63477L7.58478 7.28945C7.53116 7.34205 7.47884 7.39586 7.42578 7.44902L14.1383 14.1615L24.3942 14.4747L46.097 14.1614Z" fill="#FFDA44"/>
<path d="M7.42578 41.3859C7.51409 41.4742 7.60222 41.5627 7.69184 41.6497L24.3944 43.1999L41.0968 41.6497C43.1276 39.6809 44.8121 37.3573 46.0485 34.7776L15.003 33.8086C12.3318 36.4799 9.25081 39.5607 7.42578 41.3859Z" fill="#FFDA44"/>
<path d="M48.156 21.0342L20.2207 20.2441L24.3946 24.4181C23.1584 25.6544 21.3128 27.4999 20.2207 28.592L48.1413 27.9063C48.3073 26.7674 48.3946 25.603 48.3946 24.4181C48.3946 23.2693 48.3121 22.14 48.156 21.0342Z" fill="black"/>
<path d="M24.3953 0.417969C17.8489 0.417969 11.9159 3.04016 7.58594 7.29003H41.2047C36.8747 3.04016 30.9417 0.417969 24.3953 0.417969Z" fill="#6DA544"/>
<path d="M21.0107 21.0342H48.156C47.8135 18.608 47.1089 16.2986 46.0975 14.1621H14.1387L21.0107 21.0342Z" fill="#D80027"/>
<path d="M14.0352 34.7783H46.0497C47.0728 32.6434 47.7887 30.3337 48.1423 27.9062H20.9072C18.2459 30.5675 15.9905 32.823 14.0352 34.7783Z" fill="#D80027"/>
<path d="M24.3938 48.4181C30.8865 48.4181 36.7758 45.8389 41.0962 41.6504H7.69141C12.0118 45.8389 17.9012 48.4181 24.3938 48.4181Z" fill="#6DA544"/>
<path d="M8.96461 6.03711C8.43108 6.48542 7.9163 6.95539 7.42383 7.44767L24.3945 24.4183L7.42383 41.3889C7.9162 41.8813 8.43108 42.3512 8.96461 42.7995L27.3458 24.4183L8.96461 6.03711Z" fill="black"/>
<path d="M10.0439 18.1562L11.5978 22.939H16.627L12.5584 25.8951L14.1124 30.6781L10.0439 27.722L5.97522 30.6781L7.52941 25.8951L3.46094 22.939H8.48987L10.0439 18.1562Z" fill="#D80027"/>
<path d="M14.3182 24.8099L10.2684 23.3751C10.2684 23.3751 9.96916 20.568 9.95106 20.4728C9.81362 19.7488 9.17734 19.2012 8.41328 19.2012C7.54891 19.2012 6.84803 19.902 6.84803 20.7664C6.84803 20.9098 6.86894 21.0479 6.90503 21.1799L5.76953 22.323H7.78853C7.78853 24.4185 6.22478 24.4185 6.22478 26.5055L7.09225 28.5925H12.3096L13.1792 26.5055H13.1789C13.266 26.3053 13.3188 26.0987 13.3407 25.8924C14.0903 25.5892 14.3182 24.8099 14.3182 24.8099Z" fill="#FFDA44"/>
</g>
<defs>
<clipPath id="clip0_2743_2632">
<rect x="0.394531" y="0.417969" width="48" height="48" rx="24" fill="white"/>
</clipPath>
</defs>
</svg>
