<svg width="128" height="33" viewBox="0 0 128 33" fill="none" xmlns="http://www.w3.org/2000/svg">
<path d="M33.7868 9.03906H46.6652V11.4365H41.5945V24.9514H38.8151V11.4365H33.7656L33.7868 9.03906ZM46.1136 13.4309H48.4898V15.6586H48.5323C48.6171 15.3403 48.7657 15.0433 48.9778 14.7463C49.19 14.4493 49.4446 14.1734 49.7628 13.9401C50.0599 13.6855 50.3993 13.4945 50.7812 13.346C51.1419 13.1975 51.5238 13.1126 51.9057 13.1126C52.2027 13.1126 52.4149 13.1338 52.521 13.1338C52.627 13.1551 52.7543 13.1763 52.8604 13.1763V15.6162C52.6907 15.5737 52.4997 15.5525 52.3088 15.5313C52.1179 15.5101 51.9481 15.4889 51.7572 15.4889C51.3328 15.4889 50.9297 15.5737 50.5478 15.7435C50.1659 15.9132 49.8477 16.1678 49.5507 16.486C49.2748 16.8255 49.0415 17.2286 48.8717 17.7166C48.702 18.2046 48.6171 18.7774 48.6171 19.4139V24.8877H46.0712L46.1136 13.4309ZM64.5295 24.9514H62.0259V23.3389H61.9835C61.6653 23.933 61.1985 24.3786 60.5832 24.7392C59.9679 25.0999 59.3314 25.2696 58.695 25.2696C57.1886 25.2696 56.0853 24.909 55.4064 24.1452C54.7275 23.4026 54.388 22.2569 54.388 20.7505V13.4309H56.934V20.4959C56.934 21.5143 57.1249 22.2357 57.528 22.6388C57.9099 23.0631 58.4616 23.2753 59.1617 23.2753C59.6921 23.2753 60.1377 23.1904 60.4983 23.0207C60.859 22.851 61.1561 22.6388 61.3682 22.363C61.6016 22.0872 61.7501 21.7477 61.8562 21.3658C61.9623 20.9839 62.0047 20.5596 62.0047 20.114V13.4309H64.5507V24.9514H64.5295ZM68.8576 21.2597C68.9425 22.0023 69.2183 22.5115 69.7063 22.8298C70.1943 23.1268 70.7883 23.2753 71.4672 23.2753C71.7006 23.2753 71.9764 23.2541 72.2735 23.2116C72.5705 23.1692 72.8675 23.1056 73.1221 22.9995C73.3979 22.8934 73.6101 22.7449 73.7798 22.5327C73.9496 22.3206 74.0344 22.066 74.0132 21.7477C73.992 21.4295 73.8859 21.1536 73.6525 20.9415C73.4192 20.7293 73.1434 20.5808 72.8039 20.4323C72.4644 20.305 72.0613 20.1989 71.6158 20.114C71.1702 20.0292 70.7247 19.9231 70.2579 19.817C69.7912 19.7109 69.3244 19.5836 68.8788 19.4351C68.4333 19.2866 68.0514 19.0957 67.6907 18.8198C67.3513 18.5652 67.0542 18.247 66.8633 17.8439C66.6511 17.4408 66.545 16.974 66.545 16.3799C66.545 15.7435 66.6935 15.2343 67.0118 14.8099C67.3088 14.3856 67.7119 14.0461 68.1787 13.7915C68.6455 13.5369 69.1759 13.346 69.7487 13.2399C70.3216 13.1338 70.8732 13.0914 71.3824 13.0914C71.9764 13.0914 72.5493 13.1551 73.0797 13.2824C73.6101 13.4097 74.1193 13.6006 74.5436 13.8976C74.9892 14.1734 75.3499 14.5553 75.6257 15.0009C75.9227 15.4464 76.0924 15.9981 76.1773 16.6345H73.5252C73.3979 16.0193 73.1221 15.6162 72.6978 15.404C72.2523 15.1918 71.7643 15.0857 71.1914 15.0857C71.0217 15.0857 70.7883 15.107 70.5549 15.1282C70.3003 15.1706 70.0882 15.213 69.8548 15.2979C69.6426 15.3828 69.4517 15.5101 69.3032 15.6586C69.1547 15.8071 69.0698 16.0193 69.0698 16.2739C69.0698 16.5921 69.1759 16.8255 69.388 17.0164C69.6002 17.2074 69.876 17.3559 70.2367 17.5044C70.5762 17.6317 70.9793 17.7378 71.4248 17.8227C71.8704 17.9075 72.3371 18.0136 72.8039 18.1197C73.2706 18.2258 73.7162 18.3531 74.1617 18.5016C74.6073 18.6501 75.0104 18.8411 75.3499 19.1169C75.6893 19.3715 75.9864 19.6897 76.1985 20.0716C76.4107 20.4535 76.5168 20.9415 76.5168 21.4931C76.5168 22.172 76.3682 22.7449 76.05 23.2329C75.7318 23.6996 75.3286 24.1027 74.8407 24.3998C74.3527 24.6968 73.7798 24.909 73.1858 25.0575C72.5705 25.1848 71.9764 25.2696 71.3824 25.2696C70.661 25.2696 69.9821 25.1848 69.3668 25.015C68.7515 24.8453 68.1999 24.5907 67.7544 24.2725C67.3088 23.933 66.9481 23.5299 66.6935 23.0207C66.4389 22.5327 66.2904 21.9387 66.2692 21.2385H68.8364V21.2597H68.8576ZM77.2381 13.4309H79.1688V9.95137H81.7148V13.4096H84.0062V15.2979H81.7148V21.4507C81.7148 21.7265 81.736 21.9387 81.7572 22.1508C81.7784 22.3418 81.8421 22.5115 81.9057 22.6388C81.9906 22.7661 82.1179 22.8722 82.2664 22.9358C82.4362 22.9995 82.6483 23.0419 82.9453 23.0419C83.1151 23.0419 83.306 23.0419 83.4758 23.0207C83.6455 22.9995 83.8364 22.9783 84.0062 22.9358V24.909C83.7304 24.9514 83.4545 24.9726 83.1787 24.9938C82.9029 25.0363 82.6483 25.0363 82.3513 25.0363C81.6724 25.0363 81.142 24.9726 80.7388 24.8453C80.3357 24.718 80.0175 24.5271 79.7841 24.2937C79.5507 24.0391 79.4022 23.7421 79.3173 23.3814C79.2325 23.0207 79.19 22.5751 79.1688 22.1084V15.3191H77.2381V13.3884V13.4309ZM85.7883 13.4309H88.1858V15.0009H88.2282C88.5889 14.322 89.0769 13.8552 89.7134 13.5582C90.3499 13.2611 91.0288 13.1126 91.7926 13.1126C92.7049 13.1126 93.4899 13.2611 94.1688 13.6006C94.8478 13.9188 95.3994 14.3432 95.845 14.916C96.2905 15.4676 96.63 16.1254 96.8421 16.8679C97.0543 17.6105 97.1816 18.4167 97.1816 19.2442C97.1816 20.0292 97.0755 20.7718 96.8846 21.4931C96.6724 22.2145 96.3754 22.8722 95.9722 23.4238C95.5691 23.9754 95.0599 24.421 94.4234 24.7604C93.787 25.0999 93.0656 25.2696 92.2169 25.2696C91.8563 25.2696 91.4744 25.2272 91.1137 25.1636C90.753 25.0999 90.3923 24.9938 90.0529 24.8453C89.7134 24.6968 89.3951 24.5058 89.1193 24.2725C88.8223 24.0391 88.5889 23.7633 88.398 23.4662H88.3555V29.2159H85.8096V13.4309H85.7883ZM94.678 19.2017C94.678 18.6925 94.6144 18.1833 94.4659 17.6954C94.3386 17.2074 94.1264 16.7831 93.8506 16.4012C93.5748 16.0193 93.2353 15.7222 92.8534 15.4889C92.4503 15.2555 91.9836 15.1494 91.4744 15.1494C90.4135 15.1494 89.6073 15.5101 89.0557 16.2527C88.5253 16.9952 88.2495 17.9924 88.2495 19.223C88.2495 19.817 88.3131 20.3474 88.4616 20.8354C88.6101 21.3234 88.8011 21.7477 89.0981 22.1084C89.3739 22.4691 89.7134 22.7449 90.1165 22.957C90.5196 23.1692 90.9652 23.2753 91.4956 23.2753C92.0896 23.2753 92.5564 23.148 92.9595 22.9146C93.3626 22.6812 93.6809 22.363 93.9567 22.0023C94.2113 21.6204 94.4022 21.1961 94.5083 20.7081C94.6144 20.1989 94.678 19.7109 94.678 19.2017ZM99.1547 9.03906H101.701V11.4365H99.1547V9.03906ZM99.1547 13.4309H101.701V24.9514H99.1547V13.4309ZM103.971 9.03906H106.517V24.9514H103.971V9.03906ZM114.282 25.2696C113.37 25.2696 112.542 25.1211 111.821 24.8029C111.1 24.4846 110.506 24.0815 109.996 23.5511C109.508 23.0207 109.126 22.363 108.872 21.6204C108.617 20.8778 108.469 20.0504 108.469 19.1805C108.469 18.3106 108.596 17.5044 108.872 16.7618C109.126 16.0193 109.508 15.3828 109.996 14.8311C110.484 14.3007 111.1 13.8764 111.821 13.5794C112.542 13.2824 113.37 13.1126 114.282 13.1126C115.194 13.1126 116.022 13.2611 116.743 13.5794C117.465 13.8764 118.059 14.3007 118.568 14.8311C119.056 15.3616 119.438 16.0193 119.692 16.7618C119.947 17.5044 120.095 18.3106 120.095 19.1805C120.095 20.0716 119.968 20.8778 119.692 21.6204C119.416 22.363 119.056 22.9995 118.568 23.5511C118.08 24.0815 117.465 24.5058 116.743 24.8029C116.022 25.0999 115.216 25.2696 114.282 25.2696ZM114.282 23.2541C114.834 23.2541 115.343 23.1268 115.746 22.8934C116.17 22.66 116.489 22.3418 116.764 21.9599C117.04 21.578 117.231 21.1324 117.358 20.6657C117.486 20.1777 117.549 19.6897 117.549 19.1805C117.549 18.6925 117.486 18.2046 117.358 17.7166C117.231 17.2286 117.04 16.8043 116.764 16.4224C116.489 16.0405 116.149 15.7435 115.746 15.5101C115.322 15.2767 114.834 15.1494 114.282 15.1494C113.73 15.1494 113.221 15.2767 112.818 15.5101C112.394 15.7435 112.076 16.0617 111.8 16.4224C111.524 16.8043 111.333 17.2286 111.206 17.7166C111.078 18.2046 111.015 18.6925 111.015 19.1805C111.015 19.6897 111.078 20.1777 111.206 20.6657C111.333 21.1537 111.524 21.578 111.8 21.9599C112.076 22.3418 112.415 22.66 112.818 22.8934C113.242 23.148 113.73 23.2541 114.282 23.2541ZM120.859 13.4309H122.79V9.95137H125.336V13.4096H127.627V15.2979H125.336V21.4507C125.336 21.7265 125.357 21.9387 125.378 22.1508C125.399 22.3418 125.463 22.5115 125.527 22.6388C125.612 22.7661 125.739 22.8722 125.887 22.9358C126.057 22.9995 126.269 23.0419 126.566 23.0419C126.736 23.0419 126.927 23.0419 127.097 23.0207C127.267 22.9995 127.457 22.9783 127.627 22.9358V24.909C127.351 24.9514 127.076 24.9726 126.8 24.9938C126.524 25.0363 126.269 25.0363 125.972 25.0363C125.293 25.0363 124.763 24.9726 124.36 24.8453C123.957 24.718 123.638 24.5271 123.405 24.2937C123.172 24.0391 123.023 23.7421 122.938 23.3814C122.853 23.0207 122.811 22.5751 122.79 22.1084V15.3191H120.859V13.3884V13.4309Z" fill="black"/>
<path d="M30.8201 11.8621H19.1722L15.5867 0.787109L11.9799 11.8621L0.332031 11.8409L9.75213 18.6938L6.14534 29.7688L15.5654 22.9159L24.9855 29.7688L21.4 18.6938L30.8201 11.8621Z" fill="#00B67A"/>
<path d="M22.2055 21.1989L21.3992 18.6953L15.5859 22.9174L22.2055 21.1989Z" fill="#005128"/>
</svg>
