<svg width="128" height="25" viewBox="0 0 128 25" fill="none" xmlns="http://www.w3.org/2000/svg">
<g clip-path="url(#clip0_3218_51570)">
<path d="M122.968 0.480469H109.1C106.338 0.480469 104.1 2.71905 104.1 5.48047V19.349C104.1 22.1104 106.338 24.349 109.1 24.349H122.968C125.73 24.349 127.968 22.1104 127.968 19.349V5.48047C127.968 2.71905 125.73 0.480469 122.968 0.480469Z" fill="#F4F2FC"/>
<path d="M104.102 5.48047V19.349C104.102 22.1104 106.34 24.349 109.102 24.349H116.036V0.480469H109.102C106.34 0.480469 104.102 2.71905 104.102 5.48047Z" fill="#00B67A"/>
<path d="M0.697266 5.48047C0.697266 2.71905 2.93584 0.480469 5.69727 0.480469H19.5658C22.3272 0.480469 24.5658 2.71905 24.5658 5.48047V19.349C24.5658 22.1104 22.3272 24.349 19.5658 24.349H5.69727C2.93585 24.349 0.697266 22.1104 0.697266 19.349V5.48047ZM26.5548 5.48047C26.5548 2.71905 28.7934 0.480469 31.5548 0.480469H45.4233C48.1847 0.480469 50.4233 2.71905 50.4233 5.48047V19.349C50.4233 22.1104 48.1847 24.349 45.4233 24.349H31.5548C28.7934 24.349 26.5548 22.1104 26.5548 19.349V5.48047ZM52.4123 5.48047C52.4123 2.71905 54.6509 0.480469 57.4123 0.480469H71.2808C74.0422 0.480469 76.2808 2.71905 76.2808 5.48047V19.349C76.2808 22.1104 74.0422 24.349 71.2808 24.349H57.4123C54.6509 24.349 52.4123 22.1104 52.4123 19.349V5.48047ZM78.2699 5.48047C78.2699 2.71905 80.5084 0.480469 83.2699 0.480469H97.1384C99.8998 0.480469 102.138 2.71905 102.138 5.48047V19.349C102.138 22.1104 99.8998 24.349 97.1384 24.349H83.2699C80.5084 24.349 78.2699 22.1104 78.2699 19.349V5.48047Z" fill="#00B67A"/>
<path d="M12.6303 16.5664L16.2603 15.6464L17.777 20.3207L12.6303 16.5664ZM20.9843 10.5247H14.5945L12.6303 4.50781L10.6662 10.5247H4.27637L9.44787 14.2541L7.4837 20.271L12.6552 16.5415L15.8377 14.2541L20.9843 10.5247ZM38.4879 16.5664L42.1179 15.6464L43.6345 20.3207L38.4879 16.5664ZM46.8418 10.5247H40.452L38.4879 4.50781L36.5237 10.5247H30.1339L35.3054 14.2541L33.3412 20.271L38.5127 16.5415L41.6952 14.2541L46.8418 10.5247ZM64.3454 16.5664L67.9754 15.6464L69.4921 20.3207L64.3454 16.5664ZM72.6994 10.5247H66.3096L64.3454 4.50781L62.3812 10.5247H55.9914L61.1629 14.2541L59.1988 20.271L64.3703 16.5415L67.5527 14.2541L72.6994 10.5247ZM90.2029 16.5664L93.8329 15.6464L95.3496 20.3207L90.2029 16.5664ZM98.5569 10.5247H92.1671L90.2029 4.50781L88.2388 10.5247H81.849L87.0205 14.2541L85.0563 20.271L90.2278 16.5415L93.4103 14.2541L98.5569 10.5247ZM116.06 16.5664L119.69 15.6464L121.207 20.3207L116.06 16.5664ZM124.414 10.5247H118.025L116.06 4.50781L114.096 10.5247H107.706L112.878 14.2541L110.914 20.271L116.085 16.5415L119.268 14.2541L124.414 10.5247Z" fill="white"/>
<mask id="mask0_3218_51570" style="mask-type:alpha" maskUnits="userSpaceOnUse" x="116" y="0" width="9" height="25">
<path fill-rule="evenodd" clip-rule="evenodd" d="M116.034 24.349H119.413C122.175 24.349 124.413 22.1104 124.413 19.349V5.48047C124.413 2.71905 122.175 0.480469 119.413 0.480469H116.034V24.349Z" fill="#F4F2FC"/>
</mask>
<g mask="url(#mask0_3218_51570)">
<path d="M12.6294 16.5664L16.2594 15.6464L17.776 20.3207L12.6294 16.5664ZM20.9833 10.5247H14.5935L12.6294 4.50781L10.6652 10.5247H4.27539L9.4469 14.2541L7.48272 20.271L12.6542 16.5415L15.8367 14.2541L20.9833 10.5247ZM38.4869 16.5664L42.1169 15.6464L43.6335 20.3207L38.4869 16.5664ZM46.8409 10.5247H40.4511L38.4869 4.50781L36.5227 10.5247H30.1329L35.3044 14.2541L33.3403 20.271L38.5118 16.5415L41.6942 14.2541L46.8409 10.5247ZM64.3444 16.5664L67.9744 15.6464L69.4911 20.3207L64.3444 16.5664ZM72.6984 10.5247H66.3086L64.3444 4.50781L62.3803 10.5247H55.9905L61.162 14.2541L59.1978 20.271L64.3693 16.5415L67.5518 14.2541L72.6984 10.5247ZM90.202 16.5664L93.832 15.6464L95.3486 20.3207L90.202 16.5664ZM98.5559 10.5247H92.1661L90.202 4.50781L88.2378 10.5247H81.848L87.0195 14.2541L85.0553 20.271L90.2268 16.5415L93.4093 14.2541L98.5559 10.5247ZM116.059 16.5664L119.689 15.6464L121.206 20.3207L116.059 16.5664ZM124.413 10.5247H118.024L116.059 4.50781L114.095 10.5247H107.706L112.877 14.2541L110.913 20.271L116.084 16.5415L119.267 14.2541L124.413 10.5247Z" fill="#00B67A"/>
</g>
</g>
<defs>
<clipPath id="clip0_3218_51570">
<rect width="127.299" height="23.8812" fill="white" transform="translate(0.701172 0.472656)"/>
</clipPath>
</defs>
</svg>
