<svg width="40" height="41" viewBox="0 0 40 41" fill="none" xmlns="http://www.w3.org/2000/svg">
<path d="M19.9355 10.4736C17.3554 10.4736 17.0316 10.4849 16.0183 10.531C15.0069 10.5773 14.3165 10.7375 13.7125 10.9724C13.0877 11.215 12.5576 11.5396 12.0296 12.0679C11.5012 12.5959 11.1766 13.1259 10.9331 13.7506C10.6976 14.3548 10.5373 15.0454 10.4918 16.0563C10.4464 17.0697 10.4346 17.3937 10.4346 19.9737C10.4346 22.5538 10.446 22.8766 10.492 23.8899C10.5385 24.9013 10.6986 25.5917 10.9333 26.1957C11.1762 26.8205 11.5008 27.3506 12.029 27.8786C12.5569 28.407 13.0869 28.7324 13.7113 28.9751C14.3158 29.21 15.0063 29.3701 16.0175 29.4164C17.0308 29.4625 17.3544 29.4738 19.9343 29.4738C22.5145 29.4738 22.8373 29.4625 23.8507 29.4164C24.8621 29.3701 25.5532 29.21 26.1576 28.9751C26.7823 28.7324 27.3115 28.407 27.8393 27.8786C28.3678 27.3506 28.6924 26.8205 28.9358 26.1959C29.1694 25.5917 29.3297 24.9011 29.3772 23.8901C29.4227 22.8768 29.4346 22.5538 29.4346 19.9737C29.4346 17.3937 29.4227 17.0699 29.3772 16.0565C29.3297 15.0452 29.1694 14.3548 28.9358 13.7508C28.6924 13.1259 28.3678 12.5959 27.8393 12.0679C27.3109 11.5394 26.7825 11.2148 26.157 10.9724C25.5514 10.7375 24.8607 10.5773 23.8493 10.531C22.836 10.4849 22.5134 10.4736 19.9325 10.4736H19.9355ZM19.0832 12.1856C19.3362 12.1852 19.6184 12.1856 19.9355 12.1856C22.472 12.1856 22.7726 12.1947 23.7743 12.2403C24.7006 12.2826 25.2033 12.4374 25.5381 12.5674C25.9815 12.7396 26.2976 12.9454 26.6299 13.2779C26.9624 13.6104 27.1682 13.9271 27.3408 14.3705C27.4708 14.7049 27.6258 15.2077 27.6679 16.1339C27.7135 17.1354 27.7234 17.4362 27.7234 19.9716C27.7234 22.5069 27.7135 22.8077 27.6679 23.8092C27.6256 24.7355 27.4708 25.2382 27.3408 25.5727C27.1686 26.016 26.9624 26.3317 26.6299 26.664C26.2974 26.9965 25.9817 27.2023 25.5381 27.3745C25.2037 27.5051 24.7006 27.6595 23.7743 27.7019C22.7728 27.7474 22.472 27.7573 19.9355 27.7573C17.3987 27.7573 17.0981 27.7474 16.0966 27.7019C15.1704 27.6591 14.6677 27.5043 14.3326 27.3743C13.8892 27.2021 13.5726 26.9963 13.2401 26.6638C12.9076 26.3313 12.7017 26.0154 12.5291 25.5719C12.3991 25.2374 12.2441 24.7347 12.202 23.8084C12.1565 22.8069 12.1474 22.5061 12.1474 19.9692C12.1474 17.4323 12.1565 17.133 12.202 16.1315C12.2443 15.2053 12.3991 14.7026 12.5291 14.3677C12.7013 13.9243 12.9076 13.6077 13.2401 13.2752C13.5726 12.9427 13.8892 12.7368 14.3326 12.5642C14.6675 12.4336 15.1704 12.2792 16.0966 12.2367C16.973 12.1971 17.3126 12.1852 19.0832 12.1833V12.1856ZM25.0065 13.763C24.3772 13.763 23.8665 14.2731 23.8665 14.9027C23.8665 15.532 24.3772 16.0427 25.0065 16.0427C25.6359 16.0427 26.1465 15.532 26.1465 14.9027C26.1465 14.2733 25.6359 13.7626 25.0065 13.7626V13.763ZM19.9355 15.095C17.2412 15.095 15.0568 17.2795 15.0568 19.9737C15.0568 22.668 17.2412 24.8514 19.9355 24.8514C22.6297 24.8514 24.8134 22.668 24.8134 19.9737C24.8134 17.2795 22.6297 15.095 19.9355 15.095ZM19.9355 16.807C21.6843 16.807 23.1022 18.2247 23.1022 19.9737C23.1022 21.7225 21.6843 23.1404 19.9355 23.1404C18.1865 23.1404 16.7688 21.7225 16.7688 19.9737C16.7688 18.2247 18.1865 16.807 19.9355 16.807Z" fill="white"/>
</svg>
