<svg width="1280" height="702" viewBox="0 0 1280 702" fill="none" xmlns="http://www.w3.org/2000/svg">
<g opacity="0.5">
<rect x="628.945" y="500.376" width="41.0431" height="41.0431" rx="8" stroke="white"/>
</g>
<g opacity="0.5">
<rect x="732.758" y="499.169" width="41.0431" height="41.0431" rx="8" stroke="white"/>
</g>
<g opacity="0.5">
<rect x="669.988" y="547.455" width="41.0431" height="41.0431" rx="8" fill="white"/>
<rect x="669.988" y="547.455" width="41.0431" height="41.0431" rx="8" stroke="white"/>
</g>
<g opacity="0.5">
<rect x="757.781" y="428" width="41.0431" height="41.0431" rx="8" fill="white"/>
<rect x="757.781" y="428" width="41.0431" height="41.0431" rx="8" stroke="white"/>
</g>
<g opacity="0.5">
<rect x="587.902" y="546.248" width="41.0431" height="41.0431" rx="8" stroke="white"/>
</g>
<g opacity="0.5">
<rect x="479" y="499.575" width="41.0431" height="41.0431" rx="8" stroke="white"/>
</g>
<g opacity="0.5">
<rect x="628.945" y="588.498" width="41.0431" height="41.0431" rx="8" stroke="white"/>
</g>
<g opacity="0.5">
<rect x="778.633" y="588.498" width="41.0431" height="41.0431" rx="8" stroke="white"/>
</g>
<g opacity="0.5">
<rect x="528.75" y="588.498" width="41.0431" height="41.0431" rx="8" fill="white"/>
<rect x="528.75" y="588.498" width="41.0431" height="41.0431" rx="8" stroke="white"/>
</g>
<g opacity="0.5">
<g opacity="0.5">
<rect width="41.0431" height="41.0431" rx="8" transform="matrix(1 0 0 -1 729.945 244.844)" stroke="white"/>
</g>
<g opacity="0.5">
<rect width="41.0431" height="41.0431" rx="8" transform="matrix(1 0 0 -1 833.758 246.051)" stroke="white"/>
</g>
<g opacity="0.5">
<rect width="41.0431" height="41.0431" rx="8" transform="matrix(1 0 0 -1 770.988 197.765)" fill="white"/>
<rect width="41.0431" height="41.0431" rx="8" transform="matrix(1 0 0 -1 770.988 197.765)" stroke="white"/>
</g>
<g opacity="0.5">
<rect width="41.0431" height="41.0431" rx="8" transform="matrix(1 0 0 -1 858.781 317.22)" fill="white"/>
<rect width="41.0431" height="41.0431" rx="8" transform="matrix(1 0 0 -1 858.781 317.22)" stroke="white"/>
</g>
<g opacity="0.5">
<rect width="41.0431" height="41.0431" rx="8" transform="matrix(1 0 0 -1 688.902 198.973)" stroke="white"/>
</g>
<g opacity="0.5">
<rect width="41.0431" height="41.0431" rx="8" transform="matrix(1 0 0 -1 580 245.645)" stroke="white"/>
</g>
<g opacity="0.5">
<rect width="41.0431" height="41.0431" rx="8" transform="matrix(1 0 0 -1 729.945 156.722)" stroke="white"/>
</g>
<g opacity="0.5">
<rect width="41.0431" height="41.0431" rx="8" transform="matrix(1 0 0 -1 879.633 156.722)" stroke="white"/>
</g>
<g opacity="0.5">
<rect width="41.0431" height="41.0431" rx="8" transform="matrix(1 0 0 -1 783.055 42.043)" stroke="white"/>
</g>
<g opacity="0.5">
<rect width="41.0431" height="41.0431" rx="8" transform="matrix(1 0 0 -1 629.75 156.722)" fill="white"/>
<rect width="41.0431" height="41.0431" rx="8" transform="matrix(1 0 0 -1 629.75 156.722)" stroke="white"/>
</g>
</g>
</svg>
