<svg width="24" height="25" viewBox="0 0 24 25" fill="none" xmlns="http://www.w3.org/2000/svg">
<path fill-rule="evenodd" clip-rule="evenodd" d="M10.2922 1.86746C11.3001 1.09626 12.6999 1.09626 13.7078 1.86746C14.0074 2.09673 14.2782 2.4514 14.637 2.92144C14.6594 2.95078 14.6822 2.98058 14.7053 3.01082C14.9228 3.29538 14.9849 3.37326 15.0469 3.43292C15.2849 3.66208 15.6007 3.79287 15.931 3.79913C16.017 3.80076 16.116 3.7896 16.471 3.7422C16.5087 3.73716 16.5459 3.73218 16.5825 3.72727C17.1686 3.64864 17.6108 3.5893 17.9848 3.63907C19.2429 3.80646 20.2326 4.79621 20.4 6.05425C20.4498 6.42823 20.3904 6.87047 20.3118 7.45655C20.3069 7.49315 20.3019 7.53031 20.2969 7.56805C20.2495 7.92309 20.2383 8.02206 20.2399 8.10808C20.2462 8.4384 20.377 8.75418 20.6061 8.99218C20.6658 9.05415 20.7437 9.11625 21.0282 9.33378C21.0585 9.35689 21.0883 9.37963 21.1176 9.40203C21.5877 9.76087 21.9423 10.0316 22.1716 10.3313C22.9428 11.3392 22.9428 12.7389 22.1716 13.7469C21.9423 14.0465 21.5877 14.3173 21.1176 14.6761C21.0883 14.6985 21.0585 14.7212 21.0282 14.7444C20.7437 14.9619 20.6658 15.024 20.6061 15.086C20.377 15.3239 20.2462 15.6397 20.2399 15.97C20.2383 16.0561 20.2495 16.155 20.2969 16.5101C20.3019 16.5478 20.3069 16.585 20.3118 16.6216C20.3904 17.2077 20.4498 17.6499 20.4 18.0239C20.2326 19.2819 19.2428 20.2717 17.9848 20.4391C17.6108 20.4888 17.1686 20.4295 16.5825 20.3509C16.5459 20.3459 16.5087 20.341 16.471 20.3359C16.116 20.2885 16.017 20.2774 15.931 20.279C15.6007 20.2853 15.2849 20.416 15.0469 20.6452C14.9849 20.7049 14.9228 20.7827 14.7053 21.0673C14.6822 21.0975 14.6594 21.1273 14.637 21.1567C14.2782 21.6267 14.0074 21.9814 13.7078 22.2107C12.6999 22.9819 11.3001 22.9819 10.2922 22.2107C9.99257 21.9814 9.7218 21.6267 9.36297 21.1567C9.34057 21.1273 9.31783 21.0975 9.29471 21.0673C9.07718 20.7827 9.01509 20.7049 8.95311 20.6452C8.71512 20.416 8.39934 20.2853 8.06902 20.279C7.983 20.2774 7.88402 20.2885 7.52899 20.3359C7.49127 20.341 7.45413 20.3459 7.41754 20.3509C6.83144 20.4295 6.38918 20.4888 6.01519 20.4391C4.75715 20.2717 3.76739 19.2819 3.6 18.0239C3.55024 17.6499 3.60958 17.2076 3.68821 16.6215C3.69312 16.5849 3.6981 16.5478 3.70314 16.5101C3.75054 16.155 3.7617 16.0561 3.76007 15.97C3.75381 15.6397 3.62302 15.3239 3.39386 15.086C3.33419 15.024 3.25632 14.9619 2.97175 14.7444C2.94151 14.7212 2.91172 14.6985 2.88238 14.6761C2.41234 14.3173 2.05766 14.0465 1.8284 13.7469C1.0572 12.7389 1.0572 11.3392 1.8284 10.3313C2.05766 10.0316 2.41234 9.76087 2.88238 9.40203C2.91172 9.37963 2.94151 9.35689 2.97175 9.33377C3.25632 9.11625 3.33419 9.05415 3.39386 8.99217C3.62302 8.75418 3.75381 8.4384 3.76007 8.10808C3.7617 8.02207 3.75054 7.92309 3.70314 7.56805C3.6981 7.53033 3.69312 7.49319 3.68821 7.4566C3.60958 6.8705 3.55024 6.42824 3.6 6.05425C3.76739 4.79621 4.75715 3.80646 6.01519 3.63907C6.38918 3.5893 6.83144 3.64864 7.41754 3.72727C7.45413 3.73218 7.49127 3.73716 7.52899 3.7422C7.88403 3.7896 7.983 3.80076 8.06902 3.79913C8.39934 3.79287 8.71511 3.66208 8.95311 3.43292C9.01508 3.37326 9.07718 3.29538 9.29471 3.01082C9.31783 2.98058 9.34057 2.95079 9.36297 2.92145C9.72181 2.4514 9.99257 2.09673 10.2922 1.86746ZM15.4197 8.41758C15.763 8.64938 15.8533 9.11557 15.6215 9.45885L11.57 15.4589C11.4389 15.653 11.2246 15.7747 10.9907 15.7879C10.7568 15.8011 10.5302 15.7043 10.378 15.5261L8.42959 13.2439C8.16064 12.9289 8.19798 12.4555 8.513 12.1865C8.82803 11.9176 9.30143 11.9549 9.57038 12.2699L10.8786 13.8023L14.3784 8.61942C14.6102 8.27614 15.0764 8.18577 15.4197 8.41758Z" fill="#51FA7B"/>
</svg>
